<?xml version="1.0" encoding="utf-8"?>
<!-- Generator: Adobe Illustrator 25.0.0, SVG Export Plug-In . SVG Version: 6.00 Build 0)  -->
<svg version="1.1" id="Capa_1" xmlns="http://www.w3.org/2000/svg" xmlns:xlink="http://www.w3.org/1999/xlink" x="0px" y="0px"
	 viewBox="0 0 1024 1024" style="enable-background:new 0 0 1024 1024;" xml:space="preserve">
<style type="text/css">
	.st0{fill:#1D1D1B;stroke:#1D1D1B;stroke-miterlimit:10;}
	.st1{stroke:#000000;stroke-width:10;stroke-miterlimit:10;enable-background:new    ;}
	.st2{fill:#FFFFFF;stroke:#FFFFFF;stroke-width:12;stroke-miterlimit:10;}
	.st3{opacity:0.5;fill:#FFFFFF;enable-background:new    ;}
	.st4{fill:#FFFFFF;stroke:#000000;stroke-miterlimit:10;}
	.st5{enable-background:new    ;}
	.st6{fill:#1A1A1A;}
	.st7{fill:url(#SVGID_1_);stroke:#000000;stroke-width:10;stroke-miterlimit:10;}
	.st8{fill:#FFFFFF;stroke:#1A1A1A;stroke-width:20;stroke-miterlimit:10;}
	.st9{fill:#1D1D1B;stroke:#1D1D1B;stroke-width:12;stroke-miterlimit:10;}
	.st10{fill:none;stroke:#000000;stroke-width:10;stroke-miterlimit:10;}
	.st11{fill:#FFFFFF;}
	.st12{fill:#FFFFFF;stroke:#000000;stroke-width:5;stroke-miterlimit:10;}
	.st13{clip-path:url(#SVGID_3_);}
	.st14{fill:#B7B7B7;stroke:#000000;stroke-width:2;stroke-miterlimit:10;}
	.st15{fill:#FFFFFF;stroke:#000000;stroke-width:2;stroke-miterlimit:10;enable-background:new    ;}
	.st16{fill:#212121;stroke:#000000;stroke-width:2;stroke-miterlimit:10;}
	.st17{fill:#FFFFFF;stroke:#000000;stroke-width:2;stroke-miterlimit:10;}
	.st18{fill:none;stroke:#000000;stroke-width:4;stroke-miterlimit:10;}
</style>
<g>
	<path class="st0" d="M124,548v-14.6c0-13.8,9.4-25.8,22.7-29.1l71.7-18c2.4-0.6,4.8-0.9,7.3-0.9H514V561H124"/>
	<path class="st0" d="M903.5,547.7v-14.6c0-13.8-9.4-25.8-22.7-29.1L809,486.2c-2.4-0.6-4.8-0.9-7.3-0.9l-288.3,0.2l0,75.5l390-0.3"
		/>
</g>
<circle class="st1" cx="512.5" cy="311.5" r="287.5"/>
<ellipse class="st2" cx="513.5" cy="312.5" rx="211.5" ry="215.5"/>
<ellipse class="st3" cx="512.5" cy="311.5" rx="211.5" ry="215.5"/>
<circle class="st4" cx="513" cy="317.7" r="83.5"/>
<polygon class="st5" points="399.5,337.4 354.5,317.3 399.5,297.4 "/>
<circle class="st6" cx="513" cy="317.7" r="72"/>
<circle cx="513" cy="317.7" r="27.5"/>
<linearGradient id="SVGID_1_" gradientUnits="userSpaceOnUse" x1="35" y1="143.5" x2="993" y2="143.5" gradientTransform="matrix(1 0 0 -1 0 1024)">
	<stop  offset="0" style="stop-color:#4D4D4D"/>
	<stop  offset="3.000000e-02" style="stop-color:#434343"/>
	<stop  offset="8.000000e-02" style="stop-color:#2A2A2A"/>
	<stop  offset="0.1" style="stop-color:#1A1A1A"/>
	<stop  offset="0.9" style="stop-color:#1A1A1A"/>
	<stop  offset="0.99" style="stop-color:#333333"/>
</linearGradient>
<rect x="35" y="763" class="st7" width="958" height="235"/>
<rect x="239" y="763" width="49" height="235"/>
<rect x="745" y="763" width="49" height="235"/>
<rect x="222.8" y="575.8" class="st8" width="581" height="168"/>
<path class="st9" d="M42,582.1L36,754h176V536.6c0-6.7-6.5-11.5-12.9-9.6L49,572.9C45,574.2,42.1,577.9,42,582.1z"/>
<path class="st9" d="M986.2,582.1c1.9,57.3,3.8,114.6,5.8,171.9l-176,0.1l-0.1-217.4c0-6.7,6.5-11.5,12.9-9.6
	c50.1,15.3,100.2,30.6,150.3,45.8C983.2,574.2,986.1,577.9,986.2,582.1L986.2,582.1z"/>
<rect x="211" y="563" class="st10" width="602" height="191"/>
<circle class="st11" cx="522.5" cy="311.5" r="6.5"/>
<g>
	<path class="st12" d="M333.1,702.8c0-5.6,4.7-9.8,14-12.8c-2.3-1.1-4.2-2.6-5.6-4.5c-1.4-1.9-2.1-3.9-2.1-6c0-3.2,1.4-5.8,4.1-7.6
		c1.7-1.1,4.1-2,7.2-2.9c-6.7-3.9-10-9.4-10-16.4c0-5.6,2.3-10.5,6.9-14.9c4.6-4.3,10.7-6.5,18.4-6.5h31.8l-1.6,12.5H387
		c1.5,3.2,2.2,6.2,2.2,9c0,5.6-2.1,10.5-6.2,14.6s-10,6.2-17.6,6.2c-4.1,0-6.8,0.2-8.2,0.6s-2.1,1.2-2.1,2.3s1.2,2,3.5,2.6
		s5.2,1.2,8.6,1.7c3.4,0.5,6.8,1.3,10.1,2.2c3.4,1,6.2,2.7,8.6,5.3s3.5,5.9,3.5,9.9c0,12.2-9.8,18.4-29.2,18.4
		c-9.8,0-16.8-1.4-20.9-4.1C335.2,709.9,333.1,706.6,333.1,702.8L333.1,702.8z M358.2,693.4c-6.9,0.9-10.4,3.1-10.4,6.6
		c0,3.9,4.2,5.9,12.5,5.9c4.8,0,8.1-0.4,10.2-1.2c2-0.8,3.1-2.2,3.1-4.1c0-1.8-0.9-3-2.7-3.8s-5-1.7-9.6-2.7
		C360,693.8,358.9,693.6,358.2,693.4L358.2,693.4z M373.5,650.8c0-2.5-0.7-4.5-2.1-5.9c-1.4-1.5-3.3-2.2-5.8-2.2
		c-6.1,0-9.1,4.2-9.1,12.5c0,2.5,0.7,4.4,2.1,5.8c1.4,1.3,3.3,2,5.7,2C370.4,662.9,373.5,658.9,373.5,650.8L373.5,650.8z"/>
	<path class="st12" d="M428.5,602.8l-4.9,34.2c5.2-4.5,10.4-6.8,15.4-6.8c6.1,0,11.1,2.4,15.1,7.2s6,10.9,6,18.2
		c0,4.2-0.7,8.2-2.1,12c-1.4,3.8-3.5,7.4-6.4,10.6c-2.8,3.2-6.7,5.9-11.5,7.8c-4.8,2-10.3,2.9-16.5,2.9c-9.2,0-17.1-0.6-23.9-1.9
		l11.9-84.5L428.5,602.8L428.5,602.8z M421.7,650.8l-3.5,24.2c2,0.2,3.9,0.4,5.8,0.4c6.3,0,11-1.6,14.1-4.9c3-3.3,4.6-7.9,4.6-13.9
		c0-3.8-0.9-6.9-2.7-9.1c-1.8-2.2-4.1-3.4-7.1-3.4C429.2,644.1,425.5,646.3,421.7,650.8z"/>
	<path class="st12" d="M515.5,671.7l-2,15.4c-5.5,1.4-11.3,2.1-17.5,2.1c-8.5,0-15.4-2.5-20.8-7.6c-5.4-5.1-8.1-11.7-8.1-19.8
		c0-8.9,3.5-16.4,10.5-22.4c7-6,15.6-9.1,25.9-9.1c6.2,0,11.5,0.7,15.6,2l-2.1,15.2c-3.6-1.3-5.9-2.1-7-2.2
		c-0.8-0.2-2.5-0.2-5.2-0.2c-5.7,0-10.4,1.7-14.3,5c-3.9,3.3-5.8,7.5-5.8,12.4c0,4.2,1.3,7.4,3.9,9.6c2.6,2.2,6.2,3.4,10.9,3.4
		C503.8,675.5,509.2,674.2,515.5,671.7L515.5,671.7z"/>
	<path class="st12" d="M559.6,688.1l0.8-5.2c-5.2,4.2-10.7,6.2-16.4,6.2s-10.5-2.3-14.2-6.8s-5.6-10.3-5.6-17.4
		c0-4.3,0.7-8.5,2.2-12.4s3.7-7.6,6.8-10.9s7.4-6.1,12.9-8.1s11.9-3,19.2-3c6.8,0,13.2,0.6,19.1,1.8l-7.9,55.9H559.6L559.6,688.1z
		 M562,671.6l3.8-27c-0.1,0-0.6-0.1-1.6-0.2c-1-0.1-1.7-0.2-2.1-0.2c-3.3,0-6.3,0.5-8.9,1.6c-2.6,1.1-4.6,2.4-6,4s-2.6,3.4-3.5,5.5
		s-1.5,3.9-1.8,5.6s-0.4,3.2-0.4,4.8c0,3.4,0.7,6.1,2.2,8s3.5,2.9,6.1,2.9C553.9,676.5,558,674.9,562,671.6L562,671.6z"/>
	<path class="st12" d="M616.8,631.3l-1,7.2l0.2,0.2c5.9-5.7,11.8-8.5,17.8-8.5c3.8,0,6.9,0.9,9.4,2.8c2.5,1.8,4.2,4.4,4.9,7.6
		c4-3.8,7.6-6.4,10.7-8c3.1-1.6,6.4-2.4,9.9-2.4c6,0,10.5,2.1,13.4,6.3c2.9,4.2,3.9,9.6,3,16.2l-4.9,35.2h-16.9l4.6-32.6
		c1.2-8.4-0.3-12.6-4.5-12.6s-8.7,3-13.8,8.9l-5.1,36.4h-16.9l4.4-32.5c0.6-4.4,0.5-7.6-0.2-9.7c-0.8-2-2.3-3.1-4.6-3.1
		c-3.6,0-8,3-13.4,8.9l-5.1,36.4H592l8-56.8L616.8,631.3L616.8,631.3z"/>
	<path class="st12" d="M-116.6,255.7"/>
	<path class="st12" d="M1219.7,493.5"/>
</g>
<g>
	<defs>
		<rect id="SVGID_2_" width="1024" height="1024"/>
	</defs>
	<clipPath id="SVGID_3_">
		<use xlink:href="#SVGID_2_"  style="overflow:visible;"/>
	</clipPath>
	<g class="st13">
		<g id="layer3">
			<path id="rect9640" class="st14" d="M2.6,763.1h1018.7c22.5,0,40.6,18.1,40.6,40.6v1644.9c-15.2,36.4-31,54-54.7,73.1
				c-40.4,32.4-91.5,50.9-141.5,64.1c-57.9,15.3-119.3,10.9-178.9,16.3H2.6c-22.5,0-40.6-18.1-40.6-40.6V803.7
				C-38,781.2-19.9,763.1,2.6,763.1L2.6,763.1L2.6,763.1z"/>
			<path id="rect9640-2" class="st15" d="M2.9,762.6h1018.7c22.5,0,40.6,18.1,40.6,40.6v1644.9c-15.2,36.4-31,54-54.7,73.1
				c-40.4,32.4-91.5,50.9-141.5,64.1c-57.9,15.3-119.3,10.9-178.9,16.3H2.9c-22.5,0-40.6-18.1-40.6-40.6V803.3
				C-37.8,780.8-19.6,762.6,2.9,762.6L2.9,762.6L2.9,762.6z"/>
			<path id="rect10154" class="st16" d="M89.3,909.2C67,909.2,49,927.1,49,949.5v644.2c0,22.3,18,40.3,40.3,40.3h776.8
				c74,0,133.6-59.6,133.6-133.6v-43.3c0.6-2.5,1-5.1,1-7.7V941c0-17.6-14.2-31.8-31.8-31.8L89.3,909.2L89.3,909.2z"/>
			<path id="rect10161" class="st17" d="M244.2,995.4h562.5c10.1,0,18.2,8.2,18.2,18.2v514.2c0,10.1-8.2,18.2-18.2,18.2H244.2
				c-10.1,0-18.2-8.2-18.2-18.2v-514.2C225.9,1003.6,234.1,995.4,244.2,995.4z"/>
		</g>
	</g>
</g>
<line class="st18" x1="3" y1="1024" x2="3" y2="763"/>
<line class="st18" x1="1022" y1="1025.6" x2="1022" y2="764.6"/>
</svg>
