<svg id="Capa_1" data-name="Capa 1" xmlns="http://www.w3.org/2000/svg" viewBox="0 0 300 270">
  <defs>
    <style>
      .cls-1 {
        fill: #1d1d1b;
      }

      .cls-2 {
        fill: #fff;
      }
    </style>
  </defs>
  <path class="cls-1" d="M0,0V270H300V0ZM270,243H30V27H270Z"/>
  <g>
    <path class="cls-2" d="M113.68,7.16h4l2,7.56,2.13-7.57h3.92l-4.4,12h-3.54Z"/>
    <path class="cls-2" d="M126.51,7.37h3.32V19.09h-3.32Z"/>
    <path class="cls-2" d="M130.67,7.21H134q6.61,0,6.33,3.67a2.64,2.64,0,0,1-2.13,2.76c1.36.25,2.09.93,2.19,2l0,3.41h-3.57V15.73q.06-1.63-2.43-1.53v4.91h-3.69Zm4.71,1.12c-.7,0-1.06.21-1.09.55V12.3c0,.44.41.66,1.13.66s1-.79,1-2.28V9.75C136.42,8.88,136.08,8.41,135.38,8.33Z"/>
    <path class="cls-2" d="M145.36,8.76h-4.1V7.37h12.43v1.4h-4.06V19.09h-4.27Z"/>
    <path class="cls-2" d="M159.55,19.09c-3.05-.06-4.75-1-5.09-2.81l0-9.21h4l0,9.05c-.1,1.19.27,1.8,1.11,1.82s1.2-.82,1.1-2.52V7.1h4.17v8.76Q164.12,19.19,159.55,19.09Z"/>
    <path class="cls-2" d="M171.26,7.4q6.13-.51,5.73,11.73h-3.93l0-4.06h-3.55v4H165.6Q165.36,6.93,171.26,7.4Zm0,1c-1.23-.1-1.81,1.63-1.75,5.21h3.61Q173.21,8.39,171.26,8.43Z"/>
    <path class="cls-2" d="M177.89,7.37h3.31V16.9h5.17v2.2l-5.17,0h-3.31Z"/>
  </g>
  <g>
    <path class="cls-2" d="M123.86,258.82l.3-2.16h5.4l-1,7a16.62,16.62,0,0,1-4.24.4,11.1,11.1,0,0,1-3.58-.53,5.85,5.85,0,0,1-2.41-1.44,6.17,6.17,0,0,1-1.29-2,5.94,5.94,0,0,1-.42-2.23,7.5,7.5,0,0,1,.32-2.14,6.94,6.94,0,0,1,1.08-2.11,8.33,8.33,0,0,1,1.86-1.84,9.1,9.1,0,0,1,2.8-1.28,13.43,13.43,0,0,1,3.76-.49,13.81,13.81,0,0,1,4,.52l-.34,2.52a14.08,14.08,0,0,0-3.62-.5,7.88,7.88,0,0,0-4.92,1.45,4.52,4.52,0,0,0-1.9,3.77,3.3,3.3,0,0,0,1.21,2.77,5,5,0,0,0,3.13,1,8.39,8.39,0,0,0,2-.24l.34-2.42Z"/>
    <path class="cls-2" d="M138.18,263.84H131.5l1.92-13.64h4.34a5.09,5.09,0,0,1,3.47,1,3.05,3.05,0,0,1,1.05,2.34,3.23,3.23,0,0,1-2,3,3.42,3.42,0,0,1,2.54,3.34,3.55,3.55,0,0,1-.27,1.33,4.26,4.26,0,0,1-.81,1.27,3.87,3.87,0,0,1-1.48,1A5.68,5.68,0,0,1,138.18,263.84Zm-2.92-6.08-.58,3.8h2.76a2.55,2.55,0,0,0,1.84-.57,1.91,1.91,0,0,0,.58-1.43,1.5,1.5,0,0,0-.71-1.35,3.35,3.35,0,0,0-1.83-.45Zm.76-5.28-.46,3h2A2.07,2.07,0,0,0,139,255a1.51,1.51,0,0,0,.49-1.16c0-.92-.65-1.38-1.94-1.38Z"/>
    <path class="cls-2" d="M156.06,259.9l-.42,3a11.89,11.89,0,0,1-4.8,1.08,6.74,6.74,0,0,1-4.8-1.72,5.89,5.89,0,0,1-1.84-4.52,7.13,7.13,0,0,1,2.48-5.61A9.37,9.37,0,0,1,153.1,250a15.31,15.31,0,0,1,3.7.52l-.48,2.52a11.24,11.24,0,0,0-3.3-.5,6.7,6.7,0,0,0-2.74.52,4.62,4.62,0,0,0-1.82,1.35,6.15,6.15,0,0,0-1,1.7,5.06,5.06,0,0,0-.31,1.73,3.46,3.46,0,0,0,1.05,2.66,4,4,0,0,0,2.85,1A10.24,10.24,0,0,0,156.06,259.9Z"/>
    <path class="cls-2" d="M163.08,263.84l.12-.84a4.14,4.14,0,0,1-2.62,1,2.82,2.82,0,0,1-2.28-1.09,4.25,4.25,0,0,1-.9-2.79,5.73,5.73,0,0,1,.35-2,5.33,5.33,0,0,1,1.09-1.75,5.06,5.06,0,0,1,2.06-1.29,9,9,0,0,1,3.08-.48,15.61,15.61,0,0,1,3.06.28l-1.26,8.94Zm.38-2.64.6-4.32-.25,0-.33,0a3.71,3.71,0,0,0-1.42.26,2.69,2.69,0,0,0-1,.64,3.3,3.3,0,0,0-.56.88,3.45,3.45,0,0,0-.28.89,5.09,5.09,0,0,0-.06.77,2.09,2.09,0,0,0,.35,1.28,1.14,1.14,0,0,0,1,.46A3.05,3.05,0,0,0,163.46,261.2Z"/>
    <path class="cls-2" d="M172.24,254.76l-.16,1.16,0,0A4.15,4.15,0,0,1,175,254.6a2.54,2.54,0,0,1,1.51.44,2,2,0,0,1,.79,1.22A7.69,7.69,0,0,1,179,255a3.51,3.51,0,0,1,1.59-.38,2.44,2.44,0,0,1,2.14,1,3.52,3.52,0,0,1,.48,2.59l-.78,5.64h-2.7l.74-5.22c.19-1.35-.05-2-.72-2a3.24,3.24,0,0,0-2.2,1.42l-.82,5.82H174l.7-5.2a3.57,3.57,0,0,0,0-1.55.71.71,0,0,0-.74-.49c-.57,0-1.29.47-2.14,1.42l-.82,5.82h-2.7l1.28-9.08Z"/>
  </g>
</svg>
