<svg xmlns="http://www.w3.org/2000/svg" viewBox="0 -0.5 160 144" shape-rendering="crispEdges">
<metadata>Made with Pixels to Svg https://codepen.io/shshaw/pen/XbxvNj</metadata>
<path stroke="#000000" d="M0 0h36M37 0h36M74 0h49M124 0h10M135 0h25M0 1h1M159 1h1M0 2h1M159 2h1M0 3h1M159 3h1M0 4h1M159 4h1M0 5h1M159 5h1M0 6h1M159 6h1M0 7h1M159 7h1M0 8h1M159 8h1M0 9h1M159 9h1M0 10h1M159 10h1M0 11h1M159 11h1M0 12h1M158 12h2M0 13h1M158 13h2M0 14h1M14 14h1M28 14h13M52 14h13M76 14h13M100 14h13M124 14h13M158 14h2M0 15h1M14 15h88M103 15h39M143 15h2M158 15h2M0 16h1M14 16h2M144 16h1M158 16h2M0 17h1M14 17h1M144 17h1M158 17h2M0 18h1M14 18h2M144 18h1M158 18h2M0 19h1M14 19h2M144 19h1M158 19h2M0 20h1M14 20h2M144 20h1M158 20h2M0 21h1M14 21h2M144 21h1M158 21h2M0 22h1M14 22h2M144 22h1M158 22h2M0 23h1M14 23h2M144 23h1M158 23h2M0 24h1M14 24h2M144 24h1M158 24h2M0 25h1M14 25h2M144 25h1M159 25h1M0 26h1M14 26h2M144 26h1M159 26h1M0 27h1M15 27h1M144 27h1M159 27h1M0 28h1M15 28h1M144 28h1M159 28h1M0 29h1M15 29h1M144 29h1M159 29h1M0 30h1M15 30h1M144 30h1M159 30h1M0 31h1M15 31h1M144 31h1M159 31h1M0 32h1M15 32h1M144 32h1M159 32h1M0 33h1M15 33h1M144 33h1M159 33h1M0 34h1M15 34h1M144 34h1M159 34h1M0 35h1M15 35h1M144 35h1M159 35h1M0 36h1M15 36h1M144 36h1M158 36h2M0 37h1M15 37h1M144 37h1M158 37h2M0 38h1M14 38h2M144 38h1M158 38h2M0 39h1M14 39h2M144 39h1M158 39h2M0 40h1M14 40h2M144 40h1M158 40h2M0 41h1M14 41h2M144 41h1M158 41h2M0 42h1M14 42h2M144 42h1M158 42h2M0 43h1M14 43h2M144 43h1M158 43h2M0 44h1M14 44h1M144 44h1M158 44h2M0 45h1M14 45h2M144 45h1M158 45h2M0 46h1M14 46h2M144 46h1M158 46h2M0 47h1M14 47h2M144 47h1M158 47h2M0 48h1M14 48h2M144 48h1M158 48h2M0 49h1M14 49h2M144 49h1M158 49h2M0 50h1M14 50h2M144 50h1M159 50h1M0 51h1M15 51h1M144 51h1M159 51h1M0 52h1M15 52h1M144 52h1M159 52h1M0 53h1M15 53h1M144 53h1M159 53h1M0 54h1M15 54h1M144 54h1M159 54h1M0 55h1M15 55h1M144 55h1M159 55h1M0 56h1M15 56h1M144 56h1M159 56h1M0 57h1M15 57h1M144 57h1M159 57h1M0 58h1M15 58h1M144 58h1M159 58h1M0 59h1M15 59h1M144 59h1M159 59h1M0 60h1M15 60h1M144 60h1M159 60h1M0 61h1M15 61h1M144 61h1M158 61h2M0 62h1M14 62h2M144 62h1M158 62h2M0 63h1M15 63h1M144 63h1M158 63h2M0 64h1M14 64h2M144 64h1M158 64h2M0 65h1M14 65h2M144 65h1M158 65h2M0 66h1M14 66h2M144 66h1M158 66h2M0 67h1M14 67h2M144 67h1M158 67h2M0 68h1M14 68h2M144 68h1M158 68h2M0 69h1M14 69h2M144 69h1M158 69h2M0 70h1M14 70h2M144 70h1M158 70h2M0 71h1M14 71h2M144 71h1M158 71h2M0 72h1M14 72h2M144 72h1M158 72h2M0 73h1M14 73h2M144 73h1M158 73h2M0 74h1M14 74h2M144 74h1M158 74h2M0 75h1M15 75h1M144 75h1M158 75h2M0 76h1M15 76h1M144 76h1M159 76h1M0 77h1M15 77h1M144 77h1M159 77h1M0 78h1M15 78h1M144 78h1M159 78h1M0 79h1M15 79h1M144 79h1M159 79h1M0 80h1M15 80h1M144 80h1M159 80h1M0 81h1M15 81h1M144 81h1M159 81h1M0 82h1M15 82h1M144 82h1M159 82h1M0 83h1M15 83h1M144 83h1M159 83h1M0 84h1M15 84h1M144 84h1M159 84h1M0 85h1M15 85h1M144 85h1M159 85h1M0 86h1M14 86h2M144 86h1M158 86h2M0 87h1M14 87h2M144 87h1M158 87h2M0 88h1M14 88h2M144 88h1M158 88h2M0 89h1M14 89h2M144 89h1M158 89h2M0 90h1M14 90h2M144 90h1M158 90h2M0 91h1M14 91h2M144 91h1M158 91h2M0 92h1M14 92h2M144 92h1M158 92h2M0 93h1M14 93h2M144 93h1M158 93h2M0 94h1M14 94h2M144 94h1M158 94h2M0 95h1M14 95h2M144 95h1M158 95h2M0 96h1M14 96h2M144 96h1M158 96h2M0 97h1M14 97h2M144 97h1M158 97h2M0 98h1M14 98h2M144 98h1M158 98h2M0 99h1M15 99h1M144 99h1M158 99h2M0 100h1M15 100h1M144 100h1M159 100h1M0 101h1M15 101h1M144 101h1M159 101h1M0 102h1M15 102h1M144 102h1M159 102h1M0 103h1M15 103h1M144 103h1M159 103h1M0 104h1M15 104h1M144 104h1M159 104h1M0 105h1M15 105h1M144 105h1M159 105h1M0 106h1M15 106h1M144 106h1M159 106h1M0 107h1M15 107h1M144 107h1M159 107h1M0 108h1M15 108h1M144 108h1M159 108h1M0 109h1M15 109h1M144 109h1M159 109h1M0 110h1M14 110h2M144 110h1M159 110h1M0 111h1M14 111h2M144 111h1M158 111h2M0 112h1M14 112h2M144 112h1M158 112h2M0 113h1M14 113h2M144 113h1M158 113h2M0 114h1M14 114h2M144 114h1M158 114h2M0 115h1M14 115h2M144 115h1M158 115h2M0 116h1M14 116h2M144 116h1M158 116h2M0 117h1M14 117h2M144 117h1M158 117h2M0 118h1M14 118h2M144 118h1M158 118h2M0 119h1M14 119h2M144 119h1M158 119h2M0 120h1M14 120h2M144 120h1M158 120h2M0 121h1M14 121h2M144 121h1M158 121h2M0 122h1M14 122h2M144 122h1M158 122h2M0 123h1M15 123h1M144 123h1M158 123h2M0 124h1M15 124h1M144 124h1M158 124h2M0 125h1M15 125h1M144 125h1M159 125h1M0 126h1M15 126h1M144 126h1M159 126h1M0 127h1M15 127h1M144 127h1M159 127h1M0 128h1M15 128h68M84 128h61M159 128h1M0 129h1M159 129h1M0 130h1M159 130h1M0 131h1M49 131h63M159 131h1M0 132h1M48 132h2M111 132h2M159 132h1M0 133h1M47 133h1M65 133h2M69 133h3M75 133h3M90 133h3M94 133h3M113 133h1M159 133h1M0 134h1M47 134h1M64 134h1M69 134h1M72 134h1M74 134h1M80 134h2M85 134h1M87 134h2M91 134h1M94 134h3M113 134h1M159 134h1M0 135h1M47 135h1M64 135h1M69 135h3M74 135h1M82 135h1M84 135h1M86 135h1M88 135h1M91 135h1M94 135h1M96 135h1M113 135h1M159 135h1M0 136h1M47 136h1M64 136h1M66 136h2M69 136h1M72 136h1M74 136h1M80 136h3M84 136h1M86 136h1M88 136h1M113 136h1M158 136h2M0 137h1M47 137h1M64 137h1M67 137h1M69 137h1M72 137h1M74 137h1M79 137h1M82 137h1M84 137h1M86 137h1M88 137h1M113 137h1M158 137h2M0 138h1M47 138h1M65 138h2M69 138h3M75 138h3M80 138h2M84 138h1M88 138h1M113 138h1M158 138h2M0 139h1M48 139h2M111 139h2M158 139h2M0 140h1M49 140h2M52 140h60M158 140h2M0 141h1M158 141h2M0 142h1M10 142h13M34 142h13M58 142h13M82 142h13M106 142h13M130 142h13M154 142h6M0 143h145M146 143h14" />
<path stroke="#010000" d="M36 0h1M123 0h1M102 15h1M145 143h1" />
<path stroke="#000100" d="M73 0h1M142 15h1M83 128h1" />
<path stroke="#000001" d="M134 0h1M15 17h1M15 44h1M14 63h1M86 138h1M51 140h1" />
<path stroke="#a2a2a2" d="M1 1h1M15 1h13M39 1h13M64 1h12M87 1h13M111 1h12M135 1h13M1 2h1M3 2h13M29 2h11M53 2h11M77 2h11M101 2h11M125 2h11M149 2h9M1 3h1M4 3h11M16 3h1M30 3h11M54 3h11M78 3h11M102 3h11M126 3h11M150 3h8M1 4h1M5 4h13M31 4h11M55 4h11M79 4h8M88 4h2M103 4h11M127 4h11M151 4h7M1 5h1M6 5h13M32 5h11M56 5h11M80 5h11M104 5h11M128 5h11M152 5h6M1 6h1M7 6h13M33 6h11M57 6h11M81 6h11M105 6h11M129 6h11M153 6h5M1 7h1M8 7h13M34 7h11M58 7h11M82 7h11M106 7h11M130 7h1M132 7h9M154 7h4M1 8h1M9 8h13M35 8h11M59 8h11M83 8h11M107 8h11M131 8h11M155 8h3M1 9h1M10 9h13M36 9h11M60 9h11M84 9h11M108 9h11M132 9h11M156 9h2M1 10h1M11 10h13M37 10h11M61 10h11M85 10h11M109 10h11M133 10h11M157 10h1M1 11h1M12 11h13M38 11h11M62 11h11M86 11h11M110 11h11M134 11h11M1 12h1M13 12h13M39 12h11M63 12h11M87 12h11M111 12h11M135 12h11M1 13h1M14 13h6M21 13h6M40 13h11M64 13h2M67 13h8M88 13h11M112 13h11M136 13h11M146 14h2M2 15h1M146 15h3M2 16h2M146 16h4M2 17h3M146 17h4M2 18h4M146 18h6M2 19h5M146 19h7M2 20h6M146 20h4M151 20h3M2 21h7M146 21h9M2 22h5M8 22h2M146 22h10M2 23h9M145 23h12M2 24h10M145 24h1M147 24h4M152 24h6M1 25h12M145 25h1M148 25h10M1 26h1M3 26h11M145 26h1M149 26h9M1 27h1M4 27h10M145 27h1M150 27h6M157 27h1M1 28h1M5 28h9M145 28h1M151 28h7M1 29h1M6 29h8M145 29h1M152 29h6M1 30h1M7 30h7M145 30h1M153 30h5M1 31h1M8 31h6M145 31h1M154 31h4M1 32h1M9 32h5M145 32h1M155 32h3M1 33h1M10 33h4M145 33h1M156 33h2M1 34h1M11 34h3M145 34h1M157 34h1M1 35h1M12 35h2M145 35h1M1 36h1M13 36h1M145 36h1M1 37h1M146 38h1M2 39h1M146 39h2M2 40h2M146 40h3M2 41h3M146 41h4M2 42h4M146 42h5M2 43h5M146 43h6M2 44h6M146 44h7M2 45h7M146 45h8M2 46h8M146 46h9M2 47h9M146 47h10M2 48h10M145 48h12M1 49h12M145 49h1M147 49h11M1 50h1M3 50h11M145 50h1M148 50h10M1 51h1M4 51h3M8 51h6M145 51h1M149 51h9M1 52h1M5 52h9M145 52h1M150 52h8M1 53h1M6 53h3M10 53h4M145 53h1M151 53h7M1 54h1M7 54h7M145 54h1M152 54h6M1 55h1M8 55h6M145 55h1M153 55h5M1 56h1M9 56h5M145 56h1M154 56h4M1 57h1M11 57h3M145 57h1M155 57h3M1 58h1M11 58h3M145 58h1M156 58h2M1 59h1M12 59h2M145 59h1M157 59h1M1 60h1M13 60h1M145 60h1M1 61h1M145 61h1M2 63h1M146 63h1M2 64h2M146 64h2M2 65h3M146 65h3M2 66h4M146 66h4M2 67h5M146 67h5M2 68h6M146 68h6M2 69h7M146 69h1M148 69h5M2 70h8M146 70h8M2 71h9M146 71h9M2 72h10M146 72h10M1 73h12M145 73h12M1 74h1M3 74h11M145 74h1M147 74h11M1 75h1M4 75h10M145 75h1M148 75h10M1 76h1M5 76h9M145 76h1M149 76h9M1 77h1M6 77h8M145 77h1M150 77h6M157 77h1M1 78h1M7 78h7M145 78h1M151 78h7M1 79h1M8 79h6M145 79h1M152 79h6M1 80h1M9 80h5M145 80h1M153 80h5M1 81h1M10 81h4M145 81h1M154 81h4M1 82h1M11 82h3M145 82h1M155 82h3M1 83h1M12 83h2M145 83h1M156 83h2M1 84h1M13 84h1M145 84h1M157 84h1M1 85h1M145 85h1M145 86h1M2 87h1M2 88h2M146 88h1M2 89h3M146 89h2M2 90h4M146 90h3M2 91h5M146 91h4M2 92h6M146 92h5M2 93h7M146 93h2M149 93h3M2 94h8M147 94h6M2 95h9M146 95h8M2 96h10M146 96h9M1 97h12M146 97h10M1 98h1M3 98h11M145 98h12M1 99h1M4 99h10M145 99h1M147 99h11M1 100h1M5 100h8M145 100h1M148 100h10M1 101h1M6 101h1M8 101h6M145 101h1M149 101h9M1 102h1M7 102h7M145 102h1M150 102h8M1 103h1M8 103h6M145 103h1M151 103h7M1 104h1M9 104h5M145 104h1M152 104h6M1 105h1M10 105h4M145 105h1M153 105h5M1 106h1M11 106h3M145 106h1M154 106h4M1 107h1M12 107h2M145 107h1M155 107h3M1 108h1M13 108h1M145 108h1M156 108h2M1 109h1M145 109h1M157 109h1M145 110h1M2 111h1M2 112h2M2 113h3M146 113h1M2 114h4M146 114h2M2 115h5M146 115h3M2 116h6M146 116h4M2 117h7M146 117h5M2 118h8M146 118h6M2 119h9M146 119h7M2 120h9M146 120h8M1 121h12M146 121h9M1 122h1M3 122h11M146 122h8M155 122h1M1 123h1M4 123h10M145 123h12M1 124h1M5 124h9M145 124h1M147 124h11M1 125h1M6 125h8M145 125h1M148 125h5M154 125h4M1 126h1M7 126h7M145 126h1M149 126h9M1 127h1M8 127h6M145 127h1M150 127h8M1 128h1M9 128h5M145 128h1M151 128h7M1 129h1M10 129h4M21 129h13M45 129h13M69 129h13M93 129h13M117 129h6M124 129h6M141 129h5M152 129h6M1 130h1M11 130h11M35 130h11M59 130h11M83 130h4M88 130h6M107 130h11M131 130h11M153 130h5M1 131h1M12 131h11M36 131h11M112 131h7M132 131h11M154 131h4M1 132h1M13 132h11M37 132h11M113 132h7M133 132h11M155 132h3M1 133h1M14 133h11M38 133h6M45 133h2M49 133h16M67 133h2M72 133h3M78 133h12M93 133h1M97 133h15M114 133h7M134 133h11M156 133h2M15 134h11M39 134h8M49 134h2M53 134h11M65 134h4M70 134h2M73 134h1M75 134h5M82 134h3M86 134h1M89 134h2M92 134h2M97 134h11M110 134h2M114 134h8M135 134h11M157 134h1M2 135h1M16 135h11M40 135h7M49 135h1M51 135h2M54 135h10M65 135h4M72 135h2M75 135h7M83 135h1M85 135h1M87 135h1M89 135h2M92 135h2M95 135h1M97 135h10M108 135h2M114 135h9M136 135h11M2 136h2M17 136h11M41 136h6M49 136h1M51 136h2M54 136h10M65 136h1M68 136h1M70 136h2M73 136h1M75 136h5M83 136h1M85 136h1M87 136h1M89 136h18M108 136h2M111 136h1M114 136h10M137 136h11M2 137h3M18 137h11M42 137h1M44 137h3M49 137h2M53 137h11M65 137h2M68 137h1M70 137h2M73 137h1M75 137h4M80 137h2M83 137h1M85 137h1M87 137h1M89 137h19M110 137h2M114 137h11M138 137h1M140 137h9M2 138h4M19 138h11M43 138h4M49 138h16M67 138h2M72 138h3M78 138h2M82 138h2M85 138h1M87 138h1M89 138h4M94 138h18M115 138h11M139 138h11M2 139h2M6 139h1M20 139h11M44 139h4M116 139h11M140 139h11M2 140h6M21 140h11M45 140h4M117 140h11M141 140h11M2 141h7M22 141h11M46 141h11M70 141h11M94 141h11M118 141h11M142 141h11" />
<path stroke="#ffffff" d="M2 1h13M28 1h11M52 1h11M76 1h11M100 1h11M124 1h11M148 1h10M1 14h1M145 14h1M1 15h1M145 15h1M1 16h1M145 16h1M1 17h1M145 17h1M1 18h1M145 18h1M1 19h1M145 19h1M1 20h1M145 20h1M1 21h1M145 21h1M1 22h1M145 22h1M1 23h1M1 24h1M145 37h1M1 38h1M145 38h1M1 39h1M145 39h1M1 40h1M145 40h1M1 41h1M145 41h1M1 42h1M145 42h1M1 43h1M145 43h1M1 44h1M145 44h1M1 45h1M145 45h1M1 46h1M145 46h1M1 47h1M145 47h1M1 48h1M1 62h1M145 62h1M1 63h1M145 63h1M1 64h1M145 64h1M1 65h1M145 65h1M1 66h1M145 66h1M1 67h1M145 67h1M1 68h1M145 68h1M1 69h1M145 69h1M1 70h1M145 70h1M1 71h1M145 71h1M1 72h1M145 72h1M1 86h1M1 87h1M145 87h1M1 88h1M145 88h1M1 89h1M145 89h1M1 90h1M145 90h1M1 91h1M145 91h1M1 92h1M145 92h1M1 93h1M145 93h1M1 94h1M145 94h1M1 95h1M145 95h1M1 96h1M145 96h1M145 97h1M1 110h1M1 111h1M1 112h1M145 112h1M1 113h1M145 113h1M1 114h1M145 114h1M1 115h1M145 115h1M1 116h1M145 116h1M1 117h1M145 117h1M1 118h1M145 118h1M1 119h1M145 119h1M1 120h1M145 120h1M145 121h1M145 122h1M15 129h6M34 129h11M58 129h11M82 129h11M106 129h11M130 129h11M50 132h61M48 133h1M1 134h1M48 134h1M51 134h2M108 134h2M1 135h1M48 135h1M50 135h1M107 135h1M1 136h1M48 136h1M50 136h1M107 136h1M1 137h1M48 137h1M1 138h1M48 138h1M1 139h1M1 140h1M1 141h1" />
<path stroke="#a2a3a2" d="M63 1h1M87 4h1M66 13h1M151 24h1M7 51h1M10 57h1M148 93h1M145 111h1M87 130h1" />
<path stroke="#9d9d9d" d="M123 1h1" />
<path stroke="#515151" d="M158 1h1M2 2h1M16 2h13M40 2h13M64 2h13M88 2h13M112 2h13M136 2h13M158 2h1M2 3h2M18 3h1M20 3h10M41 3h13M65 3h13M89 3h13M113 3h13M137 3h13M158 3h1M2 4h3M18 4h13M42 4h13M66 4h13M90 4h13M114 4h13M138 4h13M158 4h1M2 5h4M19 5h13M43 5h13M67 5h13M91 5h13M115 5h7M123 5h5M139 5h13M158 5h1M2 6h5M20 6h10M31 6h2M44 6h13M68 6h13M92 6h13M116 6h13M140 6h13M158 6h1M2 7h6M21 7h13M45 7h13M69 7h13M93 7h13M117 7h13M141 7h13M158 7h1M2 8h7M22 8h13M46 8h13M70 8h13M94 8h13M118 8h13M142 8h13M158 8h1M2 9h8M23 9h2M26 9h10M47 9h13M71 9h13M95 9h13M119 9h13M143 9h13M158 9h1M2 10h9M24 10h13M48 10h13M72 10h13M96 10h13M120 10h13M144 10h13M158 10h1M2 11h10M25 11h13M49 11h13M73 11h13M97 11h13M121 11h13M145 11h8M154 11h5M2 12h11M26 12h13M50 12h13M74 12h13M98 12h13M122 12h13M146 12h12M2 13h12M27 13h13M51 13h13M75 13h13M99 13h13M123 13h13M147 13h11M2 14h12M15 14h3M19 14h9M41 14h11M65 14h11M89 14h11M113 14h11M137 14h8M148 14h10M3 15h11M149 15h9M4 16h10M150 16h8M5 17h9M151 17h7M6 18h8M152 18h6M7 19h7M153 19h5M8 20h6M154 20h4M9 21h5M155 21h3M10 22h4M156 22h2M11 23h3M157 23h1M13 24h1M146 24h1M146 25h2M158 25h1M2 26h1M146 26h3M158 26h1M2 27h2M14 27h1M146 27h4M158 27h1M2 28h3M14 28h1M147 28h4M158 28h1M2 29h4M14 29h1M146 29h6M158 29h1M2 30h5M14 30h1M146 30h7M158 30h1M2 31h6M14 31h1M146 31h8M158 31h1M2 32h7M14 32h1M146 32h9M158 32h1M2 33h8M14 33h1M146 33h10M158 33h1M2 34h9M14 34h1M146 34h11M158 34h1M2 35h10M14 35h1M146 35h10M157 35h2M2 36h11M14 36h1M146 36h12M2 37h13M146 37h8M155 37h3M2 38h12M147 38h11M3 39h11M148 39h7M156 39h2M4 40h10M149 40h9M5 41h9M150 41h8M6 42h8M152 42h6M7 43h7M152 43h6M8 44h6M153 44h5M9 45h5M154 45h4M10 46h4M155 46h3M11 47h3M156 47h2M12 48h2M157 48h1M13 49h1M146 49h1M2 50h1M146 50h2M158 50h1M2 51h2M14 51h1M146 51h3M158 51h1M2 52h3M14 52h1M146 52h4M158 52h1M2 53h4M14 53h1M146 53h5M158 53h1M2 54h5M14 54h1M146 54h6M158 54h1M2 55h6M14 55h1M146 55h7M158 55h1M2 56h7M14 56h1M146 56h8M158 56h1M2 57h8M14 57h1M146 57h9M158 57h1M2 58h9M146 58h10M158 58h1M2 59h10M14 59h1M146 59h11M158 59h1M2 60h11M14 60h1M146 60h13M2 61h13M146 61h3M150 61h8M2 62h12M146 62h12M3 63h11M147 63h11M4 64h10M148 64h10M5 65h9M149 65h9M6 66h8M150 66h8M7 67h7M151 67h7M8 68h6M152 68h6M9 69h5M153 69h5M10 70h4M154 70h4M11 71h3M155 71h3M12 72h2M156 72h2M13 73h1M157 73h1M2 74h1M146 74h1M2 75h2M14 75h1M146 75h2M2 76h3M14 76h1M146 76h3M158 76h1M2 77h4M14 77h1M146 77h4M158 77h1M2 78h5M14 78h1M146 78h5M158 78h1M2 79h6M14 79h1M146 79h5M158 79h1M2 80h7M14 80h1M146 80h3M150 80h3M158 80h1M2 81h8M14 81h1M146 81h8M158 81h1M2 82h9M14 82h1M146 82h9M158 82h1M2 83h10M14 83h1M146 83h10M158 83h1M2 84h11M14 84h1M146 84h11M158 84h1M2 85h13M146 85h13M2 86h9M12 86h2M146 86h12M3 87h11M146 87h12M4 88h10M147 88h11M5 89h9M148 89h10M6 90h8M149 90h9M7 91h7M150 91h8M8 92h6M151 92h7M9 93h5M152 93h6M10 94h4M153 94h5M11 95h3M154 95h4M12 96h2M155 96h3M13 97h1M156 97h2M2 98h1M157 98h1M2 99h2M14 99h1M146 99h1M2 100h3M14 100h1M146 100h2M158 100h1M2 101h4M14 101h1M146 101h3M158 101h1M2 102h3M6 102h1M14 102h1M146 102h4M158 102h1M2 103h6M14 103h1M146 103h5M158 103h1M2 104h7M14 104h1M146 104h5M158 104h1M2 105h8M14 105h1M146 105h7M158 105h1M2 106h9M14 106h1M146 106h8M158 106h1M2 107h10M14 107h1M146 107h9M158 107h1M2 108h11M14 108h1M146 108h10M158 108h1M2 109h13M146 109h11M158 109h1M2 110h12M146 110h13M3 111h11M146 111h12M4 112h10M146 112h12M5 113h9M147 113h11M6 114h8M148 114h10M7 115h7M149 115h9M8 116h6M150 116h8M9 117h5M151 117h7M10 118h4M152 118h6M11 119h3M153 119h5M12 120h2M154 120h4M13 121h1M155 121h3M2 122h1M156 122h2M2 123h2M14 123h1M157 123h1M2 124h2M14 124h1M146 124h1M2 125h4M14 125h1M146 125h2M158 125h1M2 126h5M14 126h1M146 126h3M158 126h1M2 127h6M14 127h1M146 127h4M158 127h1M2 128h7M14 128h1M146 128h5M158 128h1M2 129h6M9 129h1M14 129h1M146 129h6M158 129h1M2 130h9M22 130h13M46 130h4M51 130h8M70 130h13M94 130h13M118 130h13M142 130h11M158 130h1M2 131h10M23 131h13M47 131h2M120 131h4M125 131h7M143 131h11M158 131h1M2 132h11M24 132h13M120 132h13M144 132h11M158 132h1M2 133h12M25 133h4M30 133h8M112 133h1M121 133h13M145 133h6M152 133h4M158 133h1M2 134h7M10 134h5M26 134h13M112 134h1M122 134h13M146 134h10M158 134h1M3 135h13M27 135h13M53 135h1M110 135h1M112 135h1M123 135h13M147 135h12M4 136h13M28 136h13M53 136h1M112 136h1M124 136h13M148 136h10M5 137h13M29 137h13M51 137h2M108 137h2M112 137h1M125 137h13M149 137h9M6 138h13M30 138h13M112 138h1M114 138h1M126 138h13M150 138h5M156 138h2M7 139h13M31 139h13M50 139h8M59 139h52M113 139h3M127 139h8M136 139h4M151 139h7M8 140h13M32 140h13M112 140h5M128 140h13M152 140h6M9 141h13M33 141h13M57 141h13M81 141h13M105 141h13M129 141h13M153 141h5M1 142h9M23 142h11M47 142h11M71 142h11M95 142h11M119 142h11M143 142h11" />
<path stroke="#a3a2a2" d="M15 3h1M131 7h1M20 13h1M156 27h1M147 69h1M146 94h1M7 101h1M154 122h1M123 129h1M44 133h1M111 135h1M43 137h1M139 137h1M93 138h1M5 139h1" />
<path stroke="#515150" d="M17 3h1M153 11h1M18 14h1M13 25h1M156 35h1M154 37h1M155 39h1M151 79h1M5 102h1M4 124h1M8 129h1M151 133h1M9 134h1M156 134h1M155 138h1M58 139h1" />
<path stroke="#515051" d="M19 3h1M122 5h1M25 9h1M151 42h1M149 80h1M11 86h1M119 131h1M135 139h1" />
<path stroke="#505151" d="M30 6h1M12 24h1M146 28h1M14 58h1M149 61h1M151 104h1M50 130h1M124 131h1M29 133h1M110 136h1" />
<path stroke="#a2a2a3" d="M150 17h1M150 20h1M7 22h1M9 53h1M156 77h1M13 100h1M11 120h1M153 125h1M4 139h1" />
</svg>