<svg xmlns="http://www.w3.org/2000/svg" viewBox="0 -0.5 160 144" shape-rendering="crispEdges">
<metadata>Made with Pixels to Svg https://codepen.io/shshaw/pen/XbxvNj</metadata>
<path stroke="#000000" d="M0 0h160M0 1h1M159 1h1M0 2h1M19 2h5M26 2h5M32 2h3M39 2h10M58 2h8M94 2h8M111 2h10M125 2h9M136 2h6M159 2h1M0 3h1M4 3h1M38 3h1M55 3h3M69 3h3M88 3h3M95 3h1M102 3h3M111 3h1M121 3h1M126 3h1M136 3h1M159 3h1M0 4h1M3 4h12M37 4h1M53 4h2M68 4h1M91 4h1M96 4h1M105 4h2M126 4h1M136 4h1M145 4h10M156 4h1M159 4h1M0 5h1M3 5h1M14 5h1M16 5h2M37 5h1M51 5h2M97 5h1M107 5h2M126 5h1M136 5h1M142 5h2M145 5h1M156 5h1M159 5h1M0 6h1M3 6h1M14 6h1M16 6h2M37 6h1M49 6h2M66 6h2M92 6h2M97 6h1M109 6h2M125 6h1M135 6h1M142 6h1M145 6h1M156 6h1M159 6h1M0 7h1M3 7h1M16 7h3M27 7h2M38 7h1M48 7h1M68 7h1M91 7h1M111 7h1M125 7h1M131 7h1M135 7h1M141 7h1M156 7h1M159 7h1M0 8h1M3 8h1M9 8h1M17 8h1M19 8h1M29 8h2M47 8h1M75 8h10M91 8h1M111 8h2M124 8h1M129 8h2M134 8h1M140 8h1M150 8h1M156 8h1M159 8h1M0 9h1M3 9h1M8 9h5M17 9h1M20 9h1M31 9h2M42 9h6M91 9h1M113 9h5M127 9h2M134 9h1M139 9h1M147 9h4M154 9h1M156 9h1M159 9h1M0 10h1M3 10h1M8 10h1M12 10h2M17 10h1M21 10h2M33 10h2M40 10h2M71 10h2M87 10h2M97 10h1M118 10h2M125 10h2M137 10h2M146 10h2M151 10h1M154 10h1M156 10h1M159 10h1M0 11h1M3 11h1M8 11h1M13 11h1M16 11h2M23 11h1M35 11h1M39 11h1M70 11h1M73 11h1M86 11h1M89 11h1M97 11h1M120 11h1M124 11h1M136 11h1M146 11h1M151 11h1M154 11h1M156 11h1M159 11h1M0 12h1M3 12h1M8 12h1M13 12h1M16 12h2M25 12h1M39 12h1M69 12h1M74 12h1M85 12h1M89 12h1M96 12h2M120 12h1M134 12h2M146 12h1M151 12h1M154 12h1M156 12h1M159 12h1M0 13h1M3 13h1M9 13h1M12 13h2M26 13h1M133 13h1M146 13h2M150 13h1M153 13h1M156 13h1M159 13h1M0 14h1M3 14h3M11 14h1M147 14h3M154 14h1M156 14h1M159 14h1M0 15h1M16 15h128M159 15h1M0 16h1M15 16h1M144 16h1M159 16h1M0 17h1M5 17h2M15 17h1M144 17h1M146 17h2M153 17h1M159 17h1M0 18h1M2 18h1M7 18h3M11 18h1M15 18h1M144 18h1M146 18h1M148 18h5M155 18h2M159 18h1M0 19h1M2 19h1M8 19h1M15 19h1M144 19h1M146 19h1M153 19h2M159 19h1M0 20h1M2 20h1M9 20h1M15 20h1M144 20h1M146 20h1M153 20h1M159 20h1M0 21h1M2 21h1M10 21h1M15 21h1M144 21h1M146 21h1M152 21h1M159 21h1M0 22h1M2 22h1M10 22h1M15 22h1M144 22h1M146 22h1M151 22h1M159 22h1M0 23h1M2 23h1M11 23h1M15 23h1M144 23h1M146 23h2M150 23h1M159 23h1M0 24h1M12 24h1M15 24h1M144 24h1M146 24h1M150 24h1M159 24h1M0 25h1M12 25h1M15 25h1M144 25h1M146 25h1M149 25h1M159 25h1M0 26h1M2 26h1M13 26h1M15 26h1M144 26h1M146 26h1M155 26h2M159 26h1M0 27h1M2 27h1M15 27h1M144 27h1M146 27h1M150 27h2M154 27h1M159 27h1M0 28h1M2 28h1M7 28h1M15 28h1M144 28h1M148 28h2M153 28h1M159 28h1M0 29h1M2 29h1M8 29h1M144 29h1M147 29h1M153 29h1M159 29h1M0 30h1M2 30h1M8 30h1M15 30h1M144 30h1M152 30h1M159 30h1M0 31h1M2 31h1M9 31h1M15 31h1M144 31h1M146 31h1M152 31h1M159 31h1M0 32h1M2 32h1M9 32h1M15 32h1M144 32h1M146 32h1M151 32h1M159 32h1M0 33h1M2 33h1M10 33h1M15 33h1M144 33h1M146 33h1M151 33h1M159 33h1M0 34h1M2 34h1M10 34h1M15 34h1M144 34h1M146 34h1M150 34h1M159 34h1M0 35h1M11 35h1M15 35h1M144 35h1M150 35h1M159 35h1M0 36h1M15 36h1M144 36h1M159 36h1M0 37h1M4 37h3M15 37h1M144 37h1M153 37h3M159 37h1M0 38h1M3 38h1M7 38h1M15 38h1M144 38h1M152 38h1M156 38h1M159 38h1M0 39h1M2 39h1M11 39h2M15 39h1M144 39h1M147 39h2M151 39h1M159 39h1M0 40h1M2 40h1M10 40h1M15 40h1M144 40h1M146 40h1M151 40h1M159 40h1M0 41h1M2 41h1M10 41h1M15 41h1M144 41h1M146 41h1M152 41h1M159 41h1M0 42h1M2 42h1M9 42h1M15 42h1M144 42h1M146 42h1M153 42h1M159 42h1M0 43h1M2 43h1M9 43h1M15 43h1M144 43h1M146 43h1M153 43h1M159 43h1M0 44h1M2 44h1M8 44h1M15 44h1M144 44h1M146 44h1M154 44h1M159 44h1M0 45h1M2 45h1M8 45h1M15 45h1M144 45h1M146 45h1M154 45h1M159 45h1M0 46h1M2 46h1M8 46h1M15 46h1M144 46h1M146 46h1M155 46h1M159 46h1M0 47h1M2 47h1M8 47h1M15 47h1M144 47h1M146 47h1M155 47h1M159 47h1M0 48h1M2 48h1M7 48h1M15 48h1M144 48h1M146 48h1M155 48h1M159 48h1M0 49h1M6 49h1M15 49h1M144 49h1M146 49h1M159 49h1M0 50h1M5 50h1M15 50h1M144 50h1M146 50h1M159 50h1M0 51h1M4 51h1M15 51h1M144 51h1M146 51h1M159 51h1M0 52h1M15 52h1M144 52h1M146 52h1M159 52h1M0 53h1M3 53h1M15 53h1M144 53h1M146 53h1M0 54h1M3 54h1M15 54h1M144 54h1M146 54h1M159 54h1M0 55h1M2 55h1M15 55h1M144 55h1M146 55h1M159 55h1M0 56h1M2 56h1M15 56h1M144 56h1M146 56h1M159 56h1M0 57h1M2 57h1M15 57h1M144 57h1M146 57h1M159 57h1M0 58h1M2 58h1M15 58h1M144 58h1M146 58h1M159 58h1M0 59h1M2 59h1M15 59h1M144 59h1M146 59h1M159 59h1M0 60h1M2 60h1M15 60h1M144 60h1M146 60h1M159 60h1M0 61h1M2 61h1M15 61h1M144 61h1M146 61h1M159 61h1M0 62h1M2 62h1M144 62h1M146 62h1M159 62h1M0 63h1M2 63h1M15 63h1M144 63h1M146 63h1M159 63h1M0 64h1M2 64h1M15 64h1M144 64h1M146 64h1M159 64h1M0 65h1M2 65h1M15 65h1M144 65h1M146 65h1M159 65h1M0 66h1M6 66h4M15 66h1M144 66h1M149 66h4M159 66h1M0 67h1M6 67h1M15 67h1M144 67h1M149 67h1M159 67h1M0 68h1M7 68h1M15 68h1M144 68h1M159 68h1M0 69h1M3 69h3M12 69h1M15 69h1M144 69h1M146 69h2M154 69h3M159 69h1M0 70h1M3 70h1M15 70h1M144 70h1M146 70h1M148 70h1M152 70h2M159 70h1M0 71h1M3 71h1M10 71h1M15 71h1M144 71h1M146 71h1M149 71h1M152 71h1M159 71h1M0 72h1M3 72h1M15 72h1M144 72h1M146 72h1M152 72h1M159 72h1M0 73h1M3 73h2M144 73h1M159 73h1M0 74h1M8 74h2M15 74h1M144 74h1M150 74h2M159 74h1M0 75h1M10 75h1M15 75h1M144 75h1M149 75h1M152 75h1M159 75h1M0 76h1M6 76h1M15 76h1M144 76h1M148 76h1M159 76h1M0 77h1M6 77h1M15 77h1M144 77h1M159 77h1M0 78h1M2 78h3M12 78h1M15 78h1M144 78h1M147 78h1M155 78h2M159 78h1M0 79h1M2 79h1M5 79h8M15 79h1M144 79h1M146 79h9M159 79h1M0 80h1M2 80h1M15 80h1M144 80h1M146 80h1M159 80h1M0 81h1M2 81h1M15 81h1M144 81h1M146 81h1M159 81h1M0 82h1M2 82h1M15 82h1M144 82h1M146 82h1M159 82h1M0 83h1M2 83h1M15 83h1M144 83h1M146 83h1M159 83h1M0 84h1M2 84h1M15 84h1M144 84h1M146 84h1M159 84h1M0 85h1M2 85h1M15 85h1M144 85h1M146 85h1M159 85h1M0 86h1M2 86h1M15 86h1M144 86h1M146 86h1M159 86h1M0 87h1M2 87h1M15 87h1M144 87h1M146 87h1M159 87h1M0 88h1M2 88h1M15 88h1M144 88h1M146 88h1M159 88h1M0 89h1M3 89h1M15 89h1M144 89h1M146 89h1M159 89h1M0 90h1M3 90h1M15 90h1M144 90h1M146 90h1M159 90h1M0 91h1M4 91h1M15 91h1M144 91h1M146 91h1M159 91h1M0 92h1M4 92h1M15 92h1M144 92h1M146 92h1M159 92h1M0 93h1M5 93h1M15 93h1M144 93h1M146 93h1M159 93h1M0 94h1M2 94h1M6 94h1M15 94h1M144 94h1M146 94h1M156 94h1M159 94h1M0 95h1M2 95h1M7 95h1M15 95h1M144 95h1M146 95h1M155 95h1M159 95h1M0 96h1M2 96h1M8 96h1M15 96h1M144 96h1M146 96h1M155 96h1M159 96h1M0 97h1M2 97h1M8 97h1M15 97h1M144 97h1M146 97h1M155 97h1M159 97h1M0 98h1M2 98h1M8 98h1M15 98h1M144 98h1M146 98h1M154 98h1M0 99h1M2 99h1M8 99h1M15 99h1M144 99h1M146 99h1M154 99h1M159 99h1M0 100h1M2 100h1M9 100h1M15 100h1M144 100h1M146 100h1M153 100h1M159 100h1M0 101h1M2 101h1M9 101h1M15 101h1M144 101h1M146 101h1M153 101h1M159 101h1M0 102h1M2 102h1M10 102h1M15 102h1M144 102h1M146 102h1M152 102h1M159 102h1M0 103h1M2 103h1M10 103h1M15 103h1M144 103h1M146 103h1M151 103h1M159 103h1M0 104h1M2 104h1M15 104h1M144 104h1M151 104h1M159 104h1M0 105h1M3 105h1M15 105h1M144 105h1M159 105h1M0 106h1M15 106h1M144 106h1M159 106h1M0 107h1M8 107h2M15 107h1M144 107h1M150 107h2M159 107h1M0 108h1M2 108h1M6 108h2M11 108h1M15 108h1M144 108h1M147 108h2M150 108h1M152 108h2M159 108h1M0 109h1M2 109h1M4 109h2M10 109h1M15 109h1M144 109h1M146 109h1M150 109h1M154 109h3M159 109h1M0 110h1M2 110h1M10 110h1M15 110h1M144 110h1M146 110h1M151 110h1M159 110h1M0 111h1M2 111h1M9 111h1M15 111h1M144 111h1M146 111h1M151 111h1M159 111h1M0 112h1M2 112h1M9 112h1M15 112h1M144 112h1M146 112h1M152 112h1M159 112h1M0 113h1M2 113h1M8 113h1M15 113h1M144 113h1M146 113h1M152 113h1M159 113h1M0 114h1M2 114h1M8 114h1M15 114h1M144 114h1M153 114h1M159 114h1M0 115h1M2 115h1M15 115h1M144 115h1M153 115h1M0 116h1M2 116h1M10 116h1M15 116h1M144 116h1M148 116h1M154 116h1M159 116h1M0 117h1M8 117h2M13 117h1M15 117h1M144 117h1M146 117h1M148 117h1M159 117h1M0 118h1M6 118h2M12 118h1M15 118h1M144 118h1M146 118h1M149 118h1M159 118h1M0 119h1M2 119h4M12 119h1M15 119h1M144 119h1M146 119h1M149 119h1M159 119h1M0 120h1M2 120h1M11 120h1M15 120h1M144 120h1M146 120h1M150 120h1M159 120h1M0 121h1M2 121h1M10 121h1M15 121h1M144 121h1M146 121h1M151 121h1M159 121h1M0 122h1M2 122h1M10 122h1M15 122h1M144 122h1M146 122h1M151 122h1M159 122h1M0 123h1M9 123h1M15 123h1M144 123h1M146 123h1M152 123h2M159 123h1M0 124h1M2 124h1M8 124h1M15 124h1M144 124h1M146 124h1M154 124h1M159 124h1M0 125h1M2 125h1M7 125h1M15 125h1M144 125h1M146 125h1M155 125h1M159 125h1M0 126h1M5 126h2M15 126h1M144 126h1M146 126h1M156 126h1M159 126h1M0 127h1M5 127h1M15 127h1M144 127h1M146 127h1M159 127h1M0 128h1M16 128h128M159 128h1M0 129h1M3 129h3M10 129h3M147 129h3M154 129h4M0 130h1M3 130h1M9 130h1M12 130h2M18 130h3M22 130h2M26 130h9M39 130h10M58 130h2M61 130h5M94 130h8M111 130h10M125 130h9M136 130h6M146 130h2M150 130h1M156 130h1M159 130h1M0 131h1M3 131h1M8 131h1M13 131h1M18 131h1M38 131h1M55 131h3M69 131h3M88 131h3M95 131h1M102 131h3M126 131h1M136 131h1M146 131h1M151 131h1M156 131h1M159 131h1M0 132h1M3 132h1M8 132h1M13 132h1M37 132h1M53 132h2M68 132h1M96 132h1M105 132h2M126 132h1M136 132h1M146 132h1M151 132h1M156 132h1M159 132h1M0 133h1M3 133h1M8 133h1M12 133h2M16 133h1M37 133h1M51 133h2M97 133h1M107 133h2M126 133h1M136 133h1M142 133h2M146 133h2M151 133h1M156 133h1M159 133h1M0 134h1M3 134h1M8 134h5M16 134h1M37 134h1M49 134h2M66 134h2M92 134h2M97 134h1M109 134h2M125 134h1M135 134h1M142 134h1M147 134h5M156 134h1M0 135h1M3 135h1M9 135h1M16 135h1M27 135h2M48 135h2M65 135h1M91 135h1M110 135h2M125 135h1M131 135h2M135 135h1M141 135h1M150 135h1M156 135h1M159 135h1M0 136h1M3 136h1M17 136h1M28 136h3M47 136h2M65 136h1M75 136h10M111 136h2M125 136h1M129 136h2M134 136h1M140 136h1M156 136h1M159 136h1M0 137h1M3 137h1M14 137h1M17 137h1M31 137h2M42 137h5M65 137h1M112 137h4M117 137h1M127 137h2M134 137h1M139 137h1M145 137h1M156 137h1M159 137h1M0 138h1M3 138h1M14 138h1M17 138h1M33 138h2M40 138h2M71 138h2M87 138h2M97 138h1M118 138h2M125 138h2M133 138h1M137 138h2M145 138h1M156 138h1M159 138h1M0 139h1M3 139h3M7 139h8M16 139h2M39 139h1M70 139h1M73 139h1M86 139h1M97 139h1M120 139h1M124 139h1M136 139h1M145 139h11M159 139h1M0 140h1M4 140h1M16 140h6M23 140h3M39 140h1M70 140h1M74 140h1M85 140h1M89 140h2M96 140h2M120 140h1M134 140h2M159 140h1M0 141h1M26 141h1M70 141h1M90 141h1M133 141h1M159 141h1M0 142h1M159 142h1M0 143h160" />
<path stroke="#ffffff" d="M1 1h157M1 2h1M17 2h1M24 2h1M35 2h1M49 2h1M66 2h1M93 2h1M110 2h1M124 2h1M135 2h1M142 2h1M1 3h1M17 3h1M24 3h1M34 3h1M49 3h1M94 3h1M110 3h1M125 3h1M135 3h1M142 3h1M1 4h1M15 4h1M18 4h1M24 4h1M26 4h1M34 4h1M46 4h3M64 4h1M95 4h1M111 4h3M125 4h1M133 4h1M135 4h1M141 4h1M144 4h1M1 5h1M15 5h1M18 5h1M24 5h1M27 5h1M34 5h1M44 5h2M63 5h1M68 5h1M91 5h1M96 5h1M114 5h2M125 5h1M132 5h1M135 5h1M141 5h1M144 5h1M1 6h1M7 6h7M15 6h1M19 6h1M25 6h1M28 6h2M35 6h1M42 6h2M63 6h1M69 6h1M72 6h16M90 6h1M96 6h1M116 6h2M124 6h1M130 6h2M134 6h1M140 6h1M146 6h7M1 7h1M6 7h1M14 7h1M20 7h1M25 7h1M30 7h2M35 7h1M41 7h1M62 7h1M65 7h1M70 7h2M88 7h2M97 7h1M118 7h1M124 7h1M128 7h2M134 7h1M139 7h1M153 7h1M1 8h1M5 8h1M10 8h3M21 8h1M26 8h1M32 8h2M36 8h1M39 8h2M62 8h1M65 8h1M97 8h1M119 8h2M123 8h1M127 8h1M133 8h1M138 8h1M147 8h3M154 8h1M1 9h1M5 9h1M13 9h1M22 9h2M26 9h1M34 9h3M62 9h1M65 9h1M69 9h1M74 9h1M85 9h1M90 9h1M123 9h3M133 9h1M136 9h2M146 9h1M1 10h1M5 10h1M14 10h1M24 10h2M27 10h1M36 10h1M63 10h1M66 10h1M68 10h1M75 10h1M84 10h1M91 10h1M93 10h1M96 10h1M123 10h1M132 10h1M134 10h2M145 10h1M1 11h1M5 11h1M14 11h1M26 11h2M63 11h1M67 11h2M76 11h1M83 11h1M91 11h2M96 11h1M132 11h2M145 11h1M1 12h1M5 12h1M14 12h1M28 12h1M35 12h1M64 12h1M68 12h1M77 12h1M82 12h1M91 12h1M95 12h1M124 12h1M131 12h1M145 12h1M1 13h1M6 13h1M17 13h9M34 13h1M40 13h12M53 13h13M70 13h6M78 13h4M84 13h5M94 13h26M125 13h1M134 13h9M1 14h1M16 14h1M66 14h1M143 14h1M1 15h1M1 16h1M1 17h4M13 17h1M1 18h1M4 18h1M13 18h1M1 19h1M5 19h2M13 19h1M151 19h1M1 20h1M6 20h2M13 20h1M150 20h1M1 21h1M7 21h2M13 21h1M149 21h1M1 22h1M8 22h1M13 22h1M149 22h1M1 23h1M9 23h1M13 23h1M148 23h1M1 24h6M9 24h2M13 24h1M147 24h1M153 24h5M1 25h1M7 25h2M10 25h1M13 25h1M147 25h1M151 25h2M1 26h1M4 26h1M10 26h2M1 27h1M5 27h1M13 27h1M157 27h1M1 28h1M6 28h1M12 28h2M152 28h1M157 28h1M1 29h1M6 29h1M12 29h1M151 29h1M157 29h1M1 30h1M7 30h1M151 30h1M157 30h1M1 31h1M7 31h1M13 31h1M150 31h1M157 31h1M1 32h1M8 32h1M13 32h1M150 32h1M157 32h1M1 33h1M8 33h1M13 33h1M149 33h1M157 33h1M1 34h1M3 34h3M9 34h1M13 34h1M149 34h1M154 34h4M1 35h2M6 35h2M9 35h1M12 35h1M147 35h2M152 35h2M157 35h1M1 36h1M8 36h3M150 36h2M1 37h1M1 38h1M1 39h1M8 39h1M1 40h1M8 40h1M13 40h1M149 40h1M157 40h1M1 41h1M7 41h1M13 41h1M149 41h1M157 41h1M1 42h1M6 42h1M13 42h1M150 42h1M157 42h1M1 43h1M6 43h1M13 43h1M150 43h1M157 43h1M1 44h1M5 44h1M13 44h1M151 44h1M157 44h1M1 45h1M5 45h1M13 45h1M151 45h1M157 45h1M1 46h1M4 46h1M13 46h1M151 46h1M157 46h1M1 47h1M4 47h1M13 47h1M151 47h1M157 47h1M1 48h1M4 48h1M13 48h1M152 48h1M157 48h1M1 49h3M13 49h1M153 49h1M156 49h2M1 50h1M13 50h1M154 50h1M1 51h1M13 51h1M155 51h1M1 52h1M13 52h1M155 52h1M1 53h1M13 53h1M156 53h1M1 54h1M13 54h1M156 54h1M1 55h1M13 55h1M157 55h1M1 56h1M13 56h1M157 56h1M1 57h1M13 57h1M157 57h1M1 58h1M13 58h1M157 58h1M1 59h1M13 59h1M157 59h1M1 60h1M13 60h1M157 60h1M1 61h1M13 61h1M157 61h1M1 62h1M13 62h1M157 62h1M3 63h1M13 63h1M156 63h2M1 64h1M4 64h8M13 64h1M157 64h1M1 65h1M3 65h2M12 65h2M157 65h1M1 66h2M153 66h1M157 66h1M1 67h1M153 67h1M1 68h1M10 68h1M149 68h1M152 68h1M1 69h1M8 69h2M13 69h1M150 69h2M1 70h1M7 70h1M13 70h1M156 70h1M1 71h1M7 71h1M13 71h1M156 71h1M1 72h1M7 72h1M10 72h1M13 72h1M156 72h1M1 73h1M6 73h1M11 73h1M13 73h1M156 73h1M1 74h1M4 74h2M12 74h2M154 74h3M1 75h1M1 76h1M11 76h1M153 76h1M1 77h1M7 77h5M148 77h2M153 77h1M1 78h1M1 79h1M13 79h1M157 79h1M1 80h1M13 80h1M157 80h1M1 81h1M13 81h1M157 81h1M1 82h1M13 82h1M157 82h1M1 83h1M13 83h1M157 83h1M1 84h1M13 84h1M157 84h1M1 85h1M13 85h1M157 85h1M1 86h1M13 86h1M157 86h1M1 87h1M13 87h1M157 87h1M1 88h1M13 88h1M157 88h1M1 89h1M13 89h1M156 89h1M1 90h1M13 90h1M156 90h1M1 91h1M13 91h1M155 91h1M1 92h1M13 92h1M155 92h1M1 93h1M13 93h1M154 93h1M1 94h1M13 94h1M153 94h1M1 95h1M4 95h1M13 95h1M152 95h1M157 95h1M1 96h1M4 96h1M13 96h1M151 96h1M157 96h1M1 97h1M4 97h1M13 97h1M151 97h1M157 97h1M1 98h1M5 98h1M13 98h1M151 98h1M157 98h1M1 99h1M5 99h1M13 99h1M151 99h1M157 99h1M1 100h1M6 100h1M13 100h1M150 100h1M157 100h1M1 101h1M6 101h1M13 101h1M150 101h1M157 101h1M1 102h1M7 102h1M13 102h1M149 102h1M157 102h1M1 103h1M8 103h1M13 103h1M149 103h1M157 103h1M1 104h1M147 104h2M157 104h1M1 105h1M7 105h1M152 105h1M156 105h1M1 106h1M3 106h4M153 106h3M1 107h1M1 108h1M9 108h1M12 108h1M1 109h1M9 109h1M13 109h1M149 109h1M157 109h1M1 110h1M8 110h1M13 110h1M149 110h1M157 110h1M1 111h1M8 111h1M13 111h1M150 111h1M157 111h1M1 112h1M7 112h1M13 112h1M150 112h1M157 112h1M1 113h1M7 113h1M13 113h1M151 113h1M157 113h1M1 114h1M6 114h1M12 114h1M147 114h3M151 114h1M157 114h1M1 115h1M6 115h1M150 115h3M157 115h1M1 116h1M5 116h1M11 116h1M157 116h1M1 117h4M11 117h1M155 117h2M1 118h1M10 118h1M13 118h1M147 118h1M1 119h1M9 119h2M13 119h1M147 119h1M1 120h1M9 120h1M13 120h1M148 120h1M157 120h1M1 121h1M8 121h2M13 121h1M149 121h1M157 121h1M1 122h1M7 122h2M13 122h1M149 122h1M157 122h1M1 123h1M6 123h2M13 123h1M150 123h1M157 123h1M1 124h1M5 124h2M13 124h1M151 124h1M157 124h1M1 125h1M4 125h2M13 125h1M152 125h1M157 125h1M1 126h3M7 126h4M13 126h1M149 126h5M157 126h1M1 127h1M6 127h1M13 127h1M148 127h1M154 127h1M1 128h1M1 129h1M16 129h12M29 129h75M105 129h39M1 130h1M6 130h1M17 130h1M24 130h1M35 130h1M49 130h1M66 130h1M93 130h1M110 130h1M124 130h1M135 130h1M142 130h1M157 130h1M1 131h1M5 131h1M14 131h1M17 131h1M24 131h1M34 131h1M49 131h1M65 131h1M94 131h1M110 131h1M125 131h1M135 131h1M142 131h1M145 131h1M157 131h1M1 132h1M5 132h1M14 132h1M18 132h1M24 132h1M26 132h1M34 132h1M46 132h3M64 132h1M95 132h1M111 132h3M125 132h1M133 132h1M135 132h1M141 132h1M145 132h1M157 132h1M1 133h1M5 133h1M14 133h1M18 133h1M24 133h1M27 133h1M34 133h1M44 133h2M63 133h1M68 133h1M91 133h1M96 133h1M114 133h2M125 133h1M132 133h1M135 133h1M141 133h1M145 133h1M157 133h1M1 134h1M5 134h1M13 134h1M19 134h1M25 134h1M28 134h2M35 134h1M42 134h2M63 134h1M69 134h1M72 134h12M85 134h3M90 134h1M96 134h1M116 134h2M124 134h1M130 134h2M134 134h1M140 134h1M146 134h1M157 134h1M1 135h1M5 135h1M10 135h3M20 135h1M25 135h1M30 135h2M35 135h1M41 135h1M62 135h1M70 135h2M88 135h2M94 135h1M97 135h1M118 135h1M124 135h1M128 135h2M134 135h1M139 135h1M147 135h3M157 135h1M1 136h1M6 136h1M21 136h1M26 136h1M32 136h2M36 136h1M39 136h2M62 136h1M94 136h1M97 136h1M119 136h2M123 136h1M126 136h2M133 136h1M138 136h1M157 136h1M1 137h1M7 137h1M22 137h2M26 137h1M34 137h3M62 137h1M69 137h1M74 137h1M85 137h1M90 137h1M94 137h1M97 137h1M123 137h3M133 137h1M136 137h2M157 137h1M1 138h1M15 138h1M24 138h2M27 138h1M36 138h1M63 138h1M66 138h1M68 138h1M75 138h1M84 138h1M91 138h1M93 138h1M96 138h1M123 138h1M132 138h1M134 138h2M144 138h1M157 138h1M1 139h1M15 139h1M26 139h2M63 139h1M67 139h2M76 139h1M83 139h1M91 139h2M96 139h1M132 139h2M144 139h1M156 139h1M1 140h1M5 140h10M28 140h1M35 140h1M64 140h1M68 140h1M77 140h1M82 140h1M91 140h1M95 140h1M124 140h1M131 140h1M145 140h11M1 141h1M17 141h9M34 141h1M40 141h26M71 141h5M78 141h4M84 141h6M94 141h26M125 141h1M134 141h9M2 142h15M93 142h1" />
<path stroke="#a2a2a2" d="M158 1h1M2 2h15M25 2h1M36 2h3M50 2h8M67 2h26M102 2h8M121 2h2M134 2h1M143 2h16M2 3h2M5 3h12M25 3h1M35 3h3M50 3h5M58 3h2M61 3h1M63 3h1M66 3h3M72 3h16M91 3h3M96 3h1M98 3h1M100 3h2M105 3h5M122 3h3M134 3h1M143 3h3M147 3h12M2 4h1M16 4h2M25 4h1M35 4h2M49 4h4M56 4h2M59 4h1M61 4h2M65 4h3M92 4h3M97 4h2M100 4h1M102 4h2M107 4h4M123 4h2M134 4h1M142 4h2M157 4h2M2 5h1M19 5h1M25 5h2M35 5h2M46 5h5M53 5h1M56 5h3M61 5h1M64 5h4M92 5h4M98 5h1M102 5h2M106 5h1M109 5h5M123 5h2M133 5h2M140 5h1M157 5h2M2 6h1M6 6h1M18 6h1M20 6h1M26 6h2M36 6h1M44 6h5M51 6h1M53 6h1M55 6h1M58 6h1M61 6h1M64 6h2M68 6h1M91 6h1M94 6h2M98 6h1M101 6h1M104 6h1M106 6h1M108 6h1M111 6h5M123 6h1M132 6h2M139 6h1M141 6h1M144 6h1M153 6h1M157 6h2M2 7h1M5 7h1M7 7h7M15 7h1M19 7h1M21 7h1M26 7h1M29 7h1M36 7h2M42 7h1M44 7h4M50 7h1M53 7h2M57 7h1M59 7h1M61 7h1M63 7h2M69 7h1M72 7h16M90 7h1M95 7h2M98 7h1M100 7h1M102 7h1M105 7h2M109 7h1M112 7h6M122 7h2M130 7h1M133 7h1M138 7h1M140 7h1M144 7h9M154 7h1M157 7h2M2 8h1M4 8h1M6 8h3M13 8h4M20 8h1M22 8h1M27 8h1M31 8h1M37 8h2M41 8h6M49 8h2M53 8h1M55 8h1M57 8h1M60 8h1M63 8h2M69 8h6M85 8h6M95 8h2M99 8h1M102 8h1M104 8h1M106 8h1M109 8h2M113 8h6M121 8h2M128 8h1M132 8h1M137 8h1M139 8h1M143 8h4M151 8h1M153 8h1M157 8h2M2 9h1M4 9h1M6 9h2M14 9h3M21 9h1M24 9h1M27 9h1M33 9h1M37 9h5M50 9h1M52 9h1M54 9h1M56 9h1M60 9h2M63 9h2M70 9h4M86 9h4M95 9h2M98 9h2M103 9h1M105 9h1M107 9h1M109 9h1M118 9h5M126 9h1M132 9h1M135 9h1M138 9h1M143 9h3M152 9h2M157 9h2M2 10h1M4 10h1M6 10h2M15 10h2M23 10h1M28 10h1M35 10h1M37 10h3M42 10h5M48 10h4M54 10h1M56 10h2M59 10h1M61 10h1M64 10h2M69 10h2M73 10h2M85 10h2M89 10h2M94 10h2M98 10h1M100 10h1M102 10h2M105 10h1M108 10h3M113 10h5M120 10h3M124 10h1M131 10h1M136 10h1M143 10h2M152 10h2M157 10h2M2 11h1M4 11h1M6 11h2M10 11h2M15 11h1M24 11h2M28 11h1M36 11h3M41 11h5M48 11h4M54 11h2M58 11h1M61 11h1M64 11h3M69 11h1M74 11h2M84 11h2M90 11h1M93 11h3M98 11h1M101 11h1M104 11h2M108 11h4M114 11h5M121 11h3M131 11h1M134 11h2M144 11h1M148 11h2M152 11h2M157 11h2M2 12h1M4 12h1M6 12h2M10 12h2M15 12h1M26 12h2M36 12h3M42 12h1M45 12h1M49 12h1M52 12h1M54 12h2M57 12h1M59 12h1M61 12h1M65 12h3M75 12h2M83 12h2M90 12h1M92 12h3M98 12h1M100 12h1M102 12h1M104 12h2M107 12h1M110 12h1M114 12h1M117 12h1M121 12h3M132 12h2M144 12h1M148 12h2M152 12h2M157 12h2M2 13h1M7 13h2M14 13h3M27 13h3M35 13h3M39 13h1M66 13h3M76 13h2M82 13h1M90 13h4M120 13h5M130 13h3M143 13h3M151 13h2M157 13h2M2 14h1M6 14h4M13 14h3M17 14h49M67 14h22M90 14h19M110 14h20M131 14h12M144 14h3M150 14h4M157 14h2M2 15h14M144 15h15M2 16h13M145 16h14M7 17h4M14 17h1M145 17h1M149 17h4M154 17h5M5 18h2M12 18h1M14 18h1M145 18h1M153 18h2M158 18h1M7 19h1M12 19h1M14 19h1M145 19h1M152 19h1M158 19h1M8 20h1M12 20h1M14 20h1M145 20h1M151 20h2M158 20h1M9 21h1M12 21h1M14 21h1M145 21h1M150 21h2M158 21h1M9 22h1M12 22h1M14 22h1M145 22h1M150 22h1M158 22h1M10 23h1M12 23h1M14 23h1M145 23h1M149 23h1M158 23h1M11 24h1M14 24h1M145 24h1M148 24h2M158 24h1M2 25h5M11 25h1M14 25h1M145 25h1M148 25h1M153 25h6M5 26h5M12 26h1M14 26h1M145 26h1M147 26h8M158 26h1M6 27h1M8 27h5M14 27h1M145 27h1M147 27h3M153 27h1M158 27h1M10 28h2M14 28h1M145 28h3M158 28h1M7 29h1M13 29h2M145 29h2M152 29h1M158 29h1M12 30h3M145 30h1M158 30h1M8 31h1M12 31h1M14 31h1M145 31h1M151 31h1M158 31h1M12 32h1M14 32h1M145 32h1M158 32h1M9 33h1M12 33h1M14 33h1M145 33h1M150 33h1M158 33h1M12 34h1M14 34h1M145 34h1M158 34h1M3 35h3M10 35h1M13 35h2M145 35h1M149 35h1M154 35h3M158 35h1M2 36h6M11 36h4M145 36h3M149 36h1M152 36h7M2 37h2M7 37h8M145 37h8M156 37h3M2 38h1M8 38h7M145 38h7M157 38h2M9 39h2M13 39h2M145 39h2M149 39h2M158 39h1M9 40h1M14 40h1M145 40h1M150 40h1M158 40h1M8 41h2M11 41h1M14 41h1M145 41h1M148 41h1M150 41h2M158 41h1M7 42h2M12 42h1M14 42h1M145 42h1M147 42h1M151 42h2M158 42h1M7 43h2M14 43h1M145 43h1M151 43h2M158 43h1M7 44h1M9 44h2M14 44h1M145 44h1M149 44h2M152 44h2M158 44h1M6 45h2M11 45h2M145 45h1M147 45h2M152 45h2M158 45h1M5 46h3M10 46h1M14 46h1M145 46h1M149 46h1M152 46h3M158 46h1M5 47h3M9 47h1M14 47h1M145 47h1M150 47h1M152 47h3M158 47h1M5 48h2M10 48h2M14 48h1M145 48h1M148 48h2M153 48h2M158 48h1M4 49h2M12 49h1M14 49h1M145 49h1M147 49h1M154 49h2M158 49h1M2 50h3M6 50h4M11 50h1M14 50h1M145 50h1M148 50h1M150 50h4M155 50h4M2 51h2M5 51h2M10 51h2M14 51h1M145 51h1M148 51h2M153 51h2M156 51h3M2 52h2M5 52h1M9 52h1M12 52h1M14 52h1M145 52h1M147 52h1M150 52h1M154 52h1M156 52h3M2 53h1M4 53h5M14 53h1M145 53h1M151 53h5M157 53h2M2 54h1M7 54h1M9 54h4M14 54h1M145 54h1M147 54h4M152 54h1M157 54h2M3 55h1M6 55h1M8 55h1M11 55h2M14 55h1M145 55h1M147 55h2M151 55h1M153 55h1M156 55h1M158 55h1M4 56h2M7 56h4M14 56h1M145 56h1M149 56h4M154 56h2M158 56h1M4 57h2M7 57h4M12 57h1M14 57h1M145 57h1M147 57h1M149 57h4M154 57h2M158 57h1M3 58h1M5 58h2M11 58h1M14 58h1M145 58h1M148 58h1M153 58h2M156 58h1M158 58h1M3 59h2M7 59h1M10 59h1M12 59h1M14 59h1M145 59h1M147 59h1M149 59h1M152 59h1M155 59h2M158 59h1M8 60h2M14 60h1M145 60h1M150 60h2M158 60h1M3 61h5M10 61h3M14 61h1M145 61h1M147 61h3M152 61h5M158 61h1M4 62h2M8 62h2M14 62h1M145 62h1M150 62h2M154 62h2M158 62h1M6 63h1M10 63h2M14 63h1M145 63h1M148 63h2M152 63h2M158 63h1M12 64h1M14 64h1M145 64h1M147 64h9M158 64h1M5 65h7M14 65h1M145 65h1M147 65h10M158 65h1M3 66h3M11 66h4M145 66h4M154 66h3M158 66h1M2 67h4M10 67h5M145 67h4M154 67h5M2 68h5M11 68h4M145 68h4M153 68h6M2 69h1M6 69h2M10 69h2M14 69h1M145 69h1M148 69h2M152 69h2M157 69h2M2 70h1M8 70h3M14 70h1M149 70h3M157 70h2M2 71h1M8 71h2M14 71h1M145 71h1M150 71h2M157 71h2M2 72h1M8 72h2M14 72h1M145 72h1M149 72h3M157 72h2M2 73h1M7 73h4M14 73h1M145 73h1M148 73h6M157 73h2M2 74h1M6 74h1M10 74h2M14 74h1M145 74h5M152 74h2M157 74h2M2 75h5M11 75h4M145 75h4M153 75h6M2 76h4M12 76h3M145 76h3M154 76h5M2 77h4M12 77h3M145 77h3M154 77h3M158 77h1M5 78h7M13 78h2M145 78h2M148 78h7M158 78h1M145 79h1M158 79h1M4 80h2M9 80h2M14 80h1M145 80h1M149 80h2M154 80h2M158 80h1M4 81h2M7 81h4M12 81h1M14 81h1M145 81h1M147 81h1M149 81h4M154 81h2M158 81h1M3 82h1M5 82h8M14 82h1M145 82h1M147 82h8M156 82h1M158 82h1M3 83h2M7 83h6M14 83h1M145 83h1M147 83h6M155 83h2M158 83h1M8 84h2M14 84h1M145 84h1M150 84h2M158 84h1M3 85h5M10 85h3M14 85h1M145 85h1M147 85h3M152 85h5M158 85h1M4 86h2M8 86h2M12 86h1M14 86h1M145 86h1M147 86h1M150 86h2M154 86h2M158 86h1M3 87h1M6 87h2M10 87h2M14 87h1M145 87h1M148 87h2M152 87h2M156 87h1M3 88h1M5 88h2M10 88h2M14 88h1M145 88h1M148 88h2M153 88h2M156 88h1M158 88h1M2 89h1M7 89h1M12 89h1M14 89h1M145 89h1M147 89h1M152 89h1M157 89h2M2 90h1M4 90h6M11 90h1M14 90h1M145 90h1M148 90h1M150 90h6M157 90h2M2 91h2M5 91h1M10 91h2M14 91h1M145 91h1M148 91h2M154 91h1M156 91h3M2 92h2M5 92h2M9 92h1M12 92h1M14 92h1M145 92h1M147 92h1M150 92h1M153 92h2M156 92h3M3 93h2M7 93h2M14 93h1M145 93h1M151 93h2M155 93h4M4 94h2M9 94h4M14 94h1M145 94h1M147 94h4M154 94h2M157 94h2M5 95h2M8 95h1M11 95h2M14 95h1M145 95h1M147 95h2M151 95h1M153 95h2M158 95h1M5 96h3M9 96h1M14 96h1M145 96h1M150 96h1M152 96h3M158 96h1M5 97h3M10 97h1M14 97h1M145 97h1M149 97h1M153 97h2M158 97h1M6 98h2M11 98h2M14 98h1M145 98h1M147 98h2M152 98h2M158 98h1M6 99h2M9 99h2M14 99h1M145 99h1M149 99h2M152 99h2M158 99h1M7 100h2M14 100h1M145 100h1M151 100h2M158 100h1M7 101h2M12 101h1M14 101h1M145 101h1M147 101h1M151 101h2M158 101h1M8 102h2M11 102h1M14 102h1M145 102h1M148 102h1M150 102h1M158 102h1M9 103h1M14 103h1M145 103h1M150 103h1M158 103h1M9 104h4M14 104h1M145 104h2M149 104h2M158 104h1M2 105h1M8 105h7M145 105h7M157 105h2M2 106h1M7 106h8M145 106h8M156 106h3M2 107h6M10 107h5M145 107h5M152 107h7M3 108h3M10 108h1M13 108h2M145 108h2M149 108h1M154 108h3M158 108h1M14 109h1M145 109h1M158 109h1M9 110h1M14 110h1M145 110h1M150 110h1M158 110h1M14 111h1M145 111h1M158 111h1M8 112h1M14 112h1M145 112h1M151 112h1M158 112h1M14 113h1M145 113h1M158 113h1M7 114h1M13 114h2M145 114h2M152 114h1M158 114h1M10 115h5M145 115h5M158 115h1M6 116h4M12 116h3M145 116h3M150 116h4M158 116h1M5 117h3M12 117h1M14 117h1M145 117h1M147 117h1M152 117h3M157 117h2M2 118h4M11 118h1M14 118h1M145 118h1M148 118h1M154 118h5M11 119h1M14 119h1M145 119h1M148 119h1M157 119h2M10 120h1M14 120h1M145 120h1M149 120h1M158 120h1M14 121h1M145 121h1M150 121h1M158 121h1M9 122h1M14 122h1M145 122h1M150 122h1M158 122h1M8 123h1M14 123h1M145 123h1M151 123h1M158 123h1M7 124h1M14 124h1M145 124h1M152 124h2M158 124h1M6 125h1M14 125h1M145 125h1M153 125h2M158 125h1M4 126h1M14 126h1M145 126h1M154 126h2M158 126h1M2 127h3M7 127h4M14 127h1M145 127h1M149 127h5M155 127h2M158 127h1M2 128h8M11 128h5M144 128h15M6 129h4M13 129h3M144 129h3M150 129h4M158 129h1M2 130h1M7 130h2M14 130h3M25 130h1M36 130h3M50 130h1M52 130h6M67 130h25M102 130h8M121 130h3M134 130h1M143 130h3M151 130h3M158 130h1M2 131h1M6 131h2M10 131h2M15 131h2M25 131h1M35 131h3M50 131h5M58 131h2M61 131h1M63 131h1M66 131h3M72 131h16M91 131h3M96 131h1M98 131h1M100 131h2M105 131h5M122 131h3M134 131h1M143 131h2M148 131h2M152 131h3M158 131h1M2 132h1M6 132h2M10 132h2M15 132h3M25 132h1M35 132h2M49 132h4M56 132h2M59 132h1M61 132h2M65 132h3M92 132h3M97 132h2M100 132h1M102 132h2M107 132h4M123 132h2M134 132h1M142 132h3M149 132h1M152 132h3M158 132h1M2 133h1M6 133h2M15 133h1M19 133h1M25 133h2M35 133h2M46 133h5M53 133h1M56 133h3M61 133h1M64 133h4M92 133h4M98 133h1M101 133h3M106 133h1M109 133h5M123 133h2M133 133h2M140 133h1M144 133h1M152 133h3M158 133h1M2 134h1M6 134h2M14 134h2M18 134h1M20 134h1M26 134h2M36 134h1M44 134h5M51 134h1M53 134h1M55 134h1M58 134h1M61 134h1M64 134h2M68 134h1M91 134h1M94 134h2M98 134h1M101 134h1M104 134h1M106 134h1M108 134h1M112 134h4M123 134h1M132 134h2M139 134h1M141 134h1M144 134h2M152 134h3M158 134h1M2 135h1M6 135h3M13 135h3M19 135h1M21 135h1M26 135h1M29 135h1M36 135h2M42 135h3M46 135h2M50 135h1M53 135h2M57 135h1M59 135h1M61 135h1M63 135h2M69 135h1M72 135h16M90 135h1M95 135h2M98 135h1M100 135h1M102 135h1M105 135h2M109 135h1M112 135h6M122 135h2M130 135h1M133 135h1M138 135h1M140 135h1M144 135h3M151 135h4M158 135h1M2 136h1M5 136h1M7 136h10M20 136h1M22 136h1M27 136h1M31 136h1M37 136h2M41 136h6M49 136h2M53 136h1M55 136h1M57 136h1M60 136h1M63 136h2M69 136h6M85 136h6M95 136h2M99 136h1M102 136h1M104 136h1M106 136h1M109 136h2M113 136h6M121 136h2M128 136h1M132 136h1M137 136h1M139 136h1M143 136h10M154 136h1M158 136h1M2 137h1M6 137h1M8 137h6M15 137h2M21 137h1M24 137h1M27 137h1M33 137h1M37 137h5M50 137h1M52 137h1M54 137h1M56 137h1M60 137h2M63 137h2M70 137h4M86 137h4M95 137h2M98 137h2M103 137h1M105 137h1M107 137h1M109 137h1M118 137h5M126 137h1M132 137h1M135 137h1M138 137h1M143 137h2M146 137h8M158 137h1M2 138h1M16 138h1M23 138h1M28 138h1M35 138h1M37 138h3M42 138h5M48 138h4M54 138h1M56 138h2M59 138h1M61 138h1M64 138h2M69 138h2M73 138h2M86 138h1M89 138h2M94 138h2M98 138h1M100 138h1M102 138h2M105 138h1M108 138h4M113 138h5M120 138h3M124 138h1M131 138h1M136 138h1M143 138h1M158 138h1M2 139h1M24 139h2M28 139h1M36 139h3M41 139h5M48 139h4M54 139h2M58 139h1M61 139h1M64 139h3M69 139h1M75 139h1M84 139h2M90 139h1M93 139h3M98 139h1M101 139h1M104 139h2M108 139h4M114 139h5M121 139h3M131 139h1M134 139h2M157 139h2M2 140h2M15 140h1M26 140h2M36 140h3M42 140h1M45 140h1M49 140h1M52 140h1M54 140h2M57 140h1M59 140h1M61 140h1M65 140h3M69 140h1M75 140h2M83 140h2M92 140h3M98 140h1M100 140h1M102 140h1M104 140h2M107 140h1M110 140h1M114 140h1M117 140h1M121 140h3M132 140h2M144 140h1M156 140h3M2 141h15M27 141h3M35 141h5M66 141h4M76 141h2M82 141h2M91 141h3M120 141h4M130 141h3M143 141h4M148 141h11M1 142h1M17 142h76M94 142h65" />
<path stroke="#000001" d="M18 2h1M12 14h1M15 29h1M146 30h1M4 52h1M159 53h1M15 62h1M159 98h1M7 115h1M2 123h1M159 134h1" />
<path stroke="#010000" d="M31 2h1M155 4h1M10 14h1M11 70h1M146 73h1M159 129h1M89 139h1M22 140h1" />
<path stroke="#a2a2a3" d="M123 2h1M146 3h1M43 7h1M6 44h1M14 45h1M145 70h1M158 87h1M2 93h1M157 127h1M2 129h1M111 134h1" />
<path stroke="#515151" d="M18 3h6M26 3h8M39 3h10M60 3h1M62 3h1M64 3h1M97 3h1M99 3h1M112 3h9M127 3h7M137 3h5M19 4h5M27 4h7M38 4h8M55 4h1M58 4h1M60 4h1M63 4h1M69 4h22M99 4h1M101 4h1M104 4h1M114 4h9M127 4h6M137 4h4M4 5h10M20 5h4M28 5h6M38 5h3M42 5h2M54 5h2M59 5h2M62 5h1M69 5h22M99 5h2M104 5h2M116 5h7M127 5h5M137 5h3M146 5h10M4 6h2M21 6h4M30 6h5M38 6h4M52 6h1M54 6h1M56 6h2M59 6h2M62 6h1M70 6h2M88 6h2M99 6h2M102 6h2M105 6h1M107 6h1M118 6h5M126 6h4M136 6h3M143 6h1M154 6h2M4 7h1M22 7h3M32 7h3M39 7h2M49 7h1M51 7h2M55 7h2M58 7h1M60 7h1M66 7h2M92 7h3M99 7h1M101 7h1M103 7h2M107 7h2M110 7h1M119 7h3M126 7h2M132 7h1M136 7h2M142 7h2M155 7h1M18 8h1M23 8h3M28 8h1M34 8h2M48 8h1M51 8h2M54 8h1M56 8h1M58 8h2M61 8h1M66 8h3M92 8h3M98 8h1M100 8h2M103 8h1M105 8h1M107 8h2M125 8h1M131 8h1M135 8h2M141 8h2M155 8h1M18 9h2M25 9h1M28 9h3M48 9h2M51 9h1M53 9h1M55 9h1M57 9h3M66 9h3M75 9h10M92 9h3M100 9h3M104 9h1M106 9h1M108 9h1M110 9h3M129 9h3M140 9h3M155 9h1M9 10h3M18 10h3M26 10h1M29 10h4M47 10h1M52 10h2M55 10h1M58 10h1M60 10h1M62 10h1M67 10h1M76 10h8M92 10h1M99 10h1M101 10h1M104 10h1M106 10h2M112 10h1M127 10h4M133 10h1M139 10h4M148 10h3M155 10h1M9 11h1M12 11h1M18 11h5M29 11h6M40 11h1M46 11h2M52 11h2M56 11h2M59 11h2M62 11h1M71 11h2M77 11h6M87 11h2M99 11h2M102 11h2M106 11h2M112 11h2M119 11h1M125 11h6M137 11h7M147 11h1M150 11h1M155 11h1M9 12h1M12 12h1M18 12h7M29 12h6M40 12h2M43 12h2M46 12h3M50 12h2M53 12h1M56 12h1M58 12h1M60 12h1M62 12h2M70 12h4M78 12h3M86 12h3M99 12h1M101 12h1M103 12h1M106 12h1M108 12h2M111 12h3M115 12h2M118 12h2M125 12h6M136 12h8M147 12h1M150 12h1M155 12h1M4 13h2M10 13h2M30 13h4M69 13h1M89 13h1M126 13h4M148 13h2M154 13h2M11 17h2M148 17h1M3 18h1M147 18h1M157 18h1M3 19h2M9 19h3M147 19h4M155 19h3M3 20h3M10 20h2M147 20h3M154 20h4M3 21h4M11 21h1M147 21h2M153 21h5M3 22h5M11 22h1M147 22h2M152 22h6M3 23h6M151 23h7M7 24h2M151 24h1M9 25h1M3 26h1M157 26h1M3 27h2M7 27h1M152 27h1M155 27h2M3 28h3M8 28h2M150 28h2M154 28h3M3 29h3M9 29h3M148 29h3M154 29h3M3 30h4M9 30h3M147 30h4M153 30h4M3 31h4M10 31h2M147 31h3M153 31h4M3 32h5M10 32h2M148 32h2M152 32h5M3 33h5M11 33h1M147 33h2M152 33h5M6 34h3M11 34h1M147 34h2M151 34h3M8 35h1M146 35h1M151 35h1M4 38h3M153 38h3M3 39h5M152 39h5M3 40h5M11 40h2M147 40h2M152 40h5M3 41h4M12 41h1M147 41h1M153 41h4M3 42h3M10 42h2M148 42h2M154 42h3M3 43h3M10 43h3M147 43h3M154 43h3M3 44h2M11 44h2M147 44h2M155 44h2M3 45h2M9 45h2M149 45h2M155 45h2M3 46h1M9 46h1M11 46h2M147 46h2M150 46h1M156 46h1M3 47h1M10 47h3M147 47h3M156 47h1M3 48h1M8 48h2M12 48h1M147 48h1M150 48h2M156 48h1M7 49h5M148 49h5M10 50h1M12 50h1M147 50h1M149 50h1M7 51h3M12 51h1M147 51h1M150 51h3M6 52h3M10 52h2M148 52h2M151 52h3M9 53h4M147 53h4M4 54h3M8 54h1M151 54h1M153 54h3M4 55h2M7 55h1M9 55h2M149 55h2M152 55h1M154 55h2M3 56h1M6 56h1M11 56h2M147 56h2M153 56h1M156 56h1M3 57h1M6 57h1M11 57h1M148 57h1M153 57h1M156 57h1M4 58h1M7 58h4M12 58h1M147 58h1M149 58h4M155 58h1M5 59h2M8 59h2M11 59h1M148 59h1M150 59h2M153 59h2M3 60h5M10 60h3M147 60h3M152 60h5M8 61h2M150 61h2M3 62h1M6 62h2M10 62h3M147 62h3M152 62h2M156 62h1M4 63h2M8 63h2M12 63h1M147 63h1M150 63h2M154 63h2M3 64h1M156 64h1M10 66h1M7 67h3M150 67h3M8 68h2M150 68h2M4 70h3M12 70h1M147 70h1M154 70h2M4 71h3M11 71h2M147 71h2M153 71h2M4 72h3M11 72h2M147 72h2M153 72h3M5 73h1M12 73h1M147 73h1M154 73h2M3 74h1M8 75h2M150 75h2M7 76h4M149 76h4M150 77h3M157 77h1M157 78h1M3 79h2M155 79h2M3 80h1M6 80h3M11 80h2M147 80h2M151 80h3M156 80h1M3 81h1M6 81h1M11 81h1M148 81h1M153 81h1M156 81h1M4 82h1M155 82h1M5 83h2M153 83h2M3 84h5M10 84h3M147 84h3M152 84h3M156 84h1M8 85h2M150 85h2M3 86h1M6 86h2M11 86h1M148 86h2M152 86h2M156 86h1M4 87h2M8 87h2M12 87h1M147 87h1M150 87h2M154 87h2M4 88h1M7 88h3M12 88h1M147 88h1M150 88h3M155 88h1M4 89h3M8 89h4M148 89h4M153 89h3M10 90h1M12 90h1M147 90h1M149 90h1M6 91h4M12 91h1M147 91h1M150 91h4M7 92h2M10 92h2M148 92h2M151 92h2M6 93h1M9 93h4M147 93h4M153 93h1M7 94h2M151 94h2M3 95h1M9 95h2M149 95h2M156 95h1M3 96h1M10 96h3M147 96h3M156 96h1M3 97h1M9 97h1M11 97h2M147 97h2M150 97h1M156 97h1M3 98h2M9 98h2M149 98h2M155 98h2M3 99h2M11 99h2M147 99h2M155 99h2M3 100h3M10 100h1M12 100h1M147 100h3M154 100h3M3 101h3M10 101h2M148 101h2M154 101h3M3 102h4M12 102h1M147 102h1M153 102h4M3 103h5M11 103h2M147 103h2M152 103h5M3 104h2M6 104h1M152 104h5M4 105h3M153 105h3M8 108h1M151 108h1M157 108h1M6 109h3M11 109h2M147 109h2M151 109h3M3 110h5M11 110h2M147 110h2M152 110h5M3 111h5M10 111h3M147 111h3M152 111h5M3 112h4M10 112h3M147 112h3M153 112h4M3 113h4M9 113h4M147 113h4M153 113h4M3 114h3M9 114h3M150 114h1M155 114h2M3 115h3M8 115h2M154 115h3M3 116h2M149 116h1M155 116h2M10 117h1M149 117h3M8 118h2M150 118h4M6 119h3M151 119h6M3 120h6M12 120h1M147 120h1M151 120h5M3 121h5M11 121h2M147 121h2M152 121h5M3 122h4M11 122h2M147 122h2M152 122h5M3 123h3M10 123h3M147 123h3M154 123h3M3 124h2M9 124h4M147 124h4M155 124h2M3 125h1M9 125h4M147 125h2M150 125h2M156 125h1M11 126h2M147 126h2M11 127h2M147 127h1M4 130h2M10 130h2M148 130h2M154 130h2M4 131h1M9 131h1M12 131h1M19 131h5M26 131h8M39 131h10M60 131h1M62 131h1M64 131h1M97 131h1M99 131h1M111 131h10M127 131h7M137 131h5M147 131h1M150 131h1M155 131h1M4 132h1M9 132h1M12 132h1M19 132h5M27 132h7M38 132h8M55 132h1M58 132h1M60 132h1M63 132h1M69 132h23M99 132h1M101 132h1M104 132h1M114 132h9M127 132h6M137 132h4M147 132h1M150 132h1M155 132h1M4 133h1M9 133h3M17 133h1M20 133h4M28 133h6M38 133h6M54 133h2M59 133h2M62 133h1M69 133h22M99 133h2M104 133h2M116 133h7M127 133h5M137 133h3M148 133h3M155 133h1M4 134h1M17 134h1M21 134h4M30 134h5M38 134h4M52 134h1M54 134h1M56 134h2M59 134h2M62 134h1M70 134h2M88 134h2M99 134h2M102 134h2M105 134h1M107 134h1M118 134h5M126 134h4M136 134h3M143 134h1M155 134h1M4 135h1M17 135h2M22 135h3M32 135h3M38 135h3M51 135h2M55 135h2M58 135h1M60 135h1M66 135h3M92 135h2M99 135h1M101 135h1M103 135h2M107 135h2M119 135h3M126 135h2M136 135h2M142 135h2M155 135h1M4 136h1M18 136h2M23 136h2M34 136h2M51 136h2M54 136h1M56 136h1M58 136h2M61 136h1M66 136h3M91 136h3M98 136h1M100 136h2M103 136h1M105 136h1M107 136h2M124 136h1M131 136h1M135 136h2M141 136h2M155 136h1M4 137h2M18 137h3M25 137h1M28 137h3M47 137h3M51 137h1M53 137h1M55 137h1M57 137h3M66 137h3M75 137h10M91 137h3M100 137h3M104 137h1M106 137h1M108 137h1M110 137h2M129 137h3M140 137h3M154 137h2M4 138h10M18 138h5M26 138h1M29 138h4M47 138h1M52 138h2M55 138h1M58 138h1M60 138h1M62 138h1M67 138h1M76 138h8M92 138h1M99 138h1M101 138h1M104 138h1M106 138h2M112 138h1M127 138h4M139 138h4M146 138h2M149 138h7M18 139h6M29 139h7M40 139h1M46 139h2M52 139h2M56 139h2M59 139h2M62 139h1M71 139h2M77 139h6M87 139h2M99 139h2M102 139h2M106 139h2M112 139h2M119 139h1M125 139h6M137 139h7M29 140h6M40 140h2M43 140h2M46 140h3M50 140h2M53 140h1M56 140h1M58 140h1M60 140h1M62 140h2M71 140h3M78 140h1M80 140h2M86 140h3M99 140h1M103 140h1M106 140h1M108 140h2M111 140h3M115 140h2M118 140h2M125 140h6M136 140h8M30 141h4M126 141h4" />
<path stroke="#fffffe" d="M65 3h1M126 8h1M52 13h1M104 129h1M84 134h1" />
<path stroke="#515051" d="M41 5h1M150 25h1M155 71h1M5 104h1M154 114h1M8 125h1M149 125h1M148 138h1M101 140h1" />
<path stroke="#a2a3a2" d="M101 5h1M152 8h1M111 10h1M89 14h1M148 36h1M7 63h1M151 102h1M51 130h1M148 132h1M153 136h1M85 138h1M124 141h1" />
<path stroke="#fffeff" d="M97 9h1M157 39h1M1 63h1M8 104h1M28 129h1" />
<path stroke="#000100" d="M151 9h1M155 14h1M10 18h1M15 73h1M7 75h1M3 94h1M3 109h1M159 115h1M21 130h1M60 130h1M116 137h1M6 139h1" />
<path stroke="#505151" d="M81 12h1M10 86h1M11 100h1M7 104h1M156 120h1M121 131h1M79 140h1" />
<path stroke="#a3a2a2" d="M38 13h1M83 13h1M109 14h1M130 14h1M7 74h1M14 79h1M152 97h1M13 104h1M10 128h1M92 130h1M45 135h1M74 139h1M147 141h1" />
<path stroke="#515150" d="M152 24h1M147 32h1M155 84h1M150 119h1M25 136h1" />
</svg>