<svg xmlns="http://www.w3.org/2000/svg" viewBox="0 -0.5 160 144" shape-rendering="crispEdges">
<metadata>Made with Pixels to Svg https://codepen.io/shshaw/pen/XbxvNj</metadata>
<path stroke="#ffffff" d="M0 0h160M0 1h120M121 1h39M0 2h7M8 2h139M148 2h12M0 3h160M0 4h108M109 4h51M0 5h47M48 5h87M136 5h24M0 6h6M13 6h5M23 6h5M33 6h5M43 6h5M53 6h5M63 6h5M73 6h5M83 6h5M93 6h5M103 6h5M113 6h5M123 6h5M133 6h5M143 6h5M154 6h6M0 7h4M5 7h1M13 7h5M23 7h5M33 7h5M43 7h5M53 7h5M63 7h5M73 7h5M83 7h4M93 7h5M103 7h5M113 7h5M123 7h5M133 7h5M143 7h5M154 7h6M0 8h6M13 8h5M23 8h5M33 8h5M43 8h5M53 8h5M63 8h5M73 8h5M83 8h5M93 8h5M103 8h5M113 8h5M123 8h5M133 8h5M143 8h5M154 8h6M0 9h6M9 9h48M58 9h93M154 9h6M0 10h6M9 10h52M62 10h89M154 10h6M0 11h6M9 11h142M154 11h6M0 12h6M9 12h29M39 12h60M100 12h32M133 12h18M154 12h6M0 13h83M84 13h76M0 14h30M31 14h38M70 14h90M0 15h88M89 15h39M129 15h31M0 16h16M144 16h4M149 16h11M0 17h16M144 17h16M0 18h16M144 18h16M0 19h6M9 19h7M144 19h7M154 19h6M0 20h6M9 20h7M144 20h7M154 20h6M0 21h3M4 21h2M9 21h7M144 21h7M154 21h6M0 22h6M9 22h7M144 22h7M154 22h6M0 23h6M9 23h7M144 23h7M154 23h6M0 24h16M144 24h16M0 25h16M144 25h16M0 26h16M144 26h16M0 27h16M144 27h16M0 28h11M12 28h4M144 28h16M0 29h6M9 29h7M144 29h7M154 29h6M1 30h5M9 30h7M144 30h7M154 30h6M0 31h6M9 31h7M144 31h7M154 31h6M0 32h6M9 32h7M144 32h7M154 32h6M0 33h6M9 33h7M144 33h7M154 33h6M0 34h16M144 34h7M152 34h8M0 35h16M144 35h16M0 36h16M144 36h16M0 37h16M144 37h16M0 38h16M144 38h16M0 39h6M9 39h7M144 39h7M154 39h6M0 40h6M9 40h7M144 40h7M154 40h6M0 41h6M9 41h7M144 41h7M154 41h6M0 42h6M9 42h7M144 42h7M154 42h6M0 43h6M9 43h7M144 43h7M154 43h1M156 43h4M0 44h16M144 44h16M0 45h16M144 45h16M0 46h16M144 46h16M0 47h16M144 47h16M0 48h16M144 48h16M0 49h6M9 49h7M144 49h7M154 49h6M0 50h6M9 50h7M144 50h7M154 50h6M0 51h6M9 51h7M144 51h7M154 51h6M0 52h6M9 52h7M144 52h7M154 52h6M0 53h6M9 53h7M144 53h7M154 53h6M0 54h16M144 54h16M0 55h16M144 55h16M0 56h16M144 56h16M0 57h16M144 57h3M148 57h12M0 58h16M144 58h16M0 59h6M9 59h7M144 59h7M154 59h6M0 60h1M2 60h3M9 60h7M144 60h7M154 60h6M0 61h6M9 61h7M144 61h7M154 61h6M0 62h6M9 62h7M144 62h7M154 62h6M0 63h6M9 63h7M144 63h7M154 63h6M0 64h16M144 64h16M0 65h16M144 65h16M0 66h16M144 66h16M0 67h16M144 67h12M157 67h3M0 68h4M5 68h11M144 68h15M0 69h16M144 69h16M0 70h6M9 70h7M144 70h7M154 70h6M0 71h6M9 71h7M144 71h7M154 71h6M0 72h6M9 72h7M144 72h7M154 72h6M0 73h6M9 73h7M144 73h7M154 73h6M0 74h6M9 74h7M144 74h7M154 74h6M0 75h16M144 75h16M0 76h16M144 76h1M146 76h14M0 77h16M144 77h10M155 77h5M0 78h16M144 78h16M0 79h9M10 79h6M144 79h16M0 80h6M9 80h7M144 80h7M154 80h6M0 81h6M9 81h7M144 81h7M154 81h6M0 82h6M9 82h7M144 82h7M154 82h6M0 83h6M9 83h7M144 83h6M154 83h6M0 84h6M9 84h5M15 84h1M144 84h7M154 84h6M0 85h10M11 85h5M144 85h16M0 86h16M144 86h16M0 87h16M144 87h16M0 88h16M144 88h5M150 88h10M0 89h16M144 89h16M0 90h6M9 90h7M144 90h7M154 90h6M0 91h6M9 91h1M11 91h5M144 91h7M154 91h6M0 92h6M9 92h7M144 92h7M154 92h6M0 93h6M9 93h7M144 93h7M154 93h6M0 94h6M9 94h7M144 94h7M154 94h6M0 95h16M144 95h16M0 96h16M144 96h16M0 97h16M144 97h16M0 98h16M144 98h16M0 99h16M144 99h16M0 100h6M9 100h7M144 100h7M154 100h6M0 101h6M9 101h7M144 101h7M154 101h6M0 102h2M3 102h3M9 102h7M144 102h7M154 102h6M0 103h6M9 103h7M144 103h7M154 103h6M0 104h6M9 104h7M144 104h7M154 104h6M0 105h16M144 105h16M0 106h16M144 106h16M0 107h16M144 107h16M0 108h16M144 108h5M150 108h8M159 108h1M0 109h16M144 109h1M146 109h14M0 110h6M9 110h3M13 110h3M144 110h7M154 110h6M0 111h6M9 111h7M144 111h7M154 111h6M0 112h6M9 112h7M144 112h7M154 112h6M0 113h6M9 113h7M144 113h7M155 113h5M0 114h6M9 114h7M144 114h7M154 114h6M0 115h16M144 115h16M0 116h16M144 116h16M0 117h16M144 117h15M0 118h16M144 118h16M0 119h16M144 119h16M0 120h6M9 120h7M144 120h7M154 120h6M0 121h6M9 121h7M144 121h7M154 121h6M0 122h6M9 122h7M144 122h7M154 122h6M0 123h6M9 123h7M144 123h7M154 123h6M0 124h6M9 124h7M144 124h7M154 124h6M0 125h16M144 125h16M0 126h16M144 126h8M153 126h7M0 127h16M145 127h1M147 127h13M0 128h17M18 128h38M57 128h14M72 128h14M87 128h62M150 128h10M0 129h54M55 129h105M0 130h94M95 130h58M154 130h5M0 131h6M9 131h77M87 131h64M154 131h6M0 132h6M9 132h142M154 132h6M0 133h4M5 133h1M9 133h54M64 133h87M154 133h6M0 134h6M9 134h14M24 134h17M42 134h67M110 134h21M132 134h19M154 134h4M159 134h1M0 135h6M12 135h5M22 135h5M32 135h5M42 135h5M52 135h5M62 135h5M72 135h5M82 135h5M92 135h5M102 135h5M112 135h5M122 135h5M132 135h5M142 135h5M154 135h6M0 136h6M12 136h5M22 136h5M32 136h5M42 136h5M52 136h5M62 136h5M72 136h5M82 136h5M92 136h5M103 136h4M112 136h5M122 136h5M132 136h5M142 136h5M154 136h6M0 137h6M12 137h1M14 137h3M22 137h5M32 137h5M42 137h5M52 137h5M62 137h5M72 137h4M82 137h5M92 137h5M102 137h5M112 137h5M122 137h5M132 137h5M142 137h5M154 137h4M159 137h1M0 138h160M0 139h17M18 139h61M80 139h9M90 139h1M92 139h1M94 139h10M105 139h43M149 139h11M0 140h2M3 140h48M52 140h108M0 141h52M53 141h35M89 141h12M102 141h22M125 141h35M0 142h27M28 142h38M67 142h93M0 143h160" />
<path stroke="#fffeff" d="M120 1h1M108 4h1M47 5h1M87 7h1M88 15h1M1 60h1M156 67h1M9 79h1M144 127h1M17 128h1M56 128h1M71 128h1M86 128h1M149 128h1M153 130h1M159 130h1M86 131h1M63 133h1M23 134h1M41 134h1M131 134h1M158 134h1M102 136h1M158 137h1M93 139h1M2 140h1M52 141h1M88 141h1M124 141h1M27 142h1M66 142h1" />
<path stroke="#feffff" d="M7 2h1M57 9h1M99 12h1M132 12h1M83 13h1M3 21h1M11 28h1M0 30h1M155 43h1M147 57h1M4 68h1M154 77h1M149 88h1M154 113h1M159 117h1M146 127h1M54 129h1M109 134h1M13 137h1M76 137h1M17 139h1M89 139h1M104 139h1" />
<path stroke="#fffffe" d="M147 2h1M135 5h1M4 7h1M61 10h1M38 12h1M30 14h1M69 14h1M128 15h1M148 16h1M151 34h1M5 60h1M159 68h1M145 76h1M150 83h1M14 84h1M10 85h1M10 91h1M2 102h1M149 108h1M158 108h1M145 109h1M12 110h1M152 126h1M94 130h1M4 133h1M79 139h1M91 139h1M148 139h1M51 140h1M101 141h1" />
<path stroke="#000000" d="M6 6h7M18 6h1M20 6h3M28 6h5M38 6h5M48 6h5M58 6h5M68 6h5M78 6h5M88 6h5M98 6h5M108 6h5M118 6h5M128 6h5M138 6h5M148 6h6M6 7h7M18 7h5M28 7h5M38 7h5M48 7h5M58 7h5M68 7h5M78 7h5M88 7h5M98 7h5M108 7h1M110 7h3M118 7h5M128 7h5M138 7h5M148 7h6M6 8h7M18 8h5M28 8h5M38 8h5M48 8h1M50 8h3M58 8h5M68 8h5M78 8h5M88 8h5M98 8h5M108 8h5M118 8h5M128 8h5M138 8h5M148 8h6M6 9h3M151 9h3M6 10h3M151 10h3M6 11h3M151 11h3M6 12h3M151 12h3M6 19h3M151 19h3M6 20h3M151 20h3M6 21h3M151 21h3M6 22h3M151 22h3M6 23h3M151 23h3M6 29h3M151 29h3M6 30h3M151 30h3M6 31h3M151 31h3M6 32h3M151 32h3M6 33h3M151 33h3M6 39h3M151 39h3M6 40h3M151 40h3M6 41h3M151 41h3M6 42h1M8 42h1M151 42h3M6 43h3M151 43h3M6 49h3M151 49h3M6 50h3M151 50h3M6 51h3M151 51h3M6 52h3M151 52h3M6 53h3M151 53h3M6 59h3M151 59h3M6 60h3M151 60h3M6 61h3M151 61h3M6 62h3M151 62h3M6 63h3M151 63h3M6 70h3M151 70h3M6 71h3M151 71h3M6 72h3M151 72h3M6 73h3M151 73h3M6 74h3M151 74h3M6 80h3M151 80h3M6 81h3M151 81h3M6 82h3M151 82h3M6 83h3M151 83h3M6 84h3M151 84h3M6 90h3M151 90h3M6 91h3M151 91h3M6 92h3M151 92h3M6 93h3M151 93h3M6 94h3M151 94h3M6 100h3M151 100h3M6 101h3M151 101h3M7 102h2M151 102h3M6 103h3M151 103h3M6 104h3M151 104h3M6 110h3M151 110h3M6 111h3M151 111h1M153 111h1M6 112h3M151 112h3M6 113h3M151 113h3M6 114h3M151 114h3M6 120h3M151 120h3M6 121h3M151 121h3M6 122h3M151 122h3M6 123h3M151 123h3M6 124h3M151 124h3M6 131h3M151 131h3M6 132h3M151 132h3M6 133h3M151 133h3M6 134h3M151 134h3M6 135h6M17 135h5M27 135h5M37 135h5M47 135h5M57 135h5M67 135h5M77 135h5M87 135h5M97 135h5M107 135h5M117 135h5M127 135h5M138 135h4M147 135h7M6 136h2M9 136h3M17 136h5M27 136h5M37 136h5M47 136h5M57 136h5M67 136h3M71 136h1M77 136h5M87 136h5M97 136h5M108 136h2M117 136h5M127 136h5M137 136h5M147 136h7M6 137h6M17 137h5M27 137h3M31 137h1M37 137h5M47 137h5M57 137h5M67 137h5M77 137h2M80 137h2M87 137h5M97 137h5M107 137h5M117 137h5M127 137h5M137 137h5M147 137h7" />
<path stroke="#000100" d="M19 6h1M7 42h1M111 136h1" />
<path stroke="#000001" d="M109 7h1M152 111h1M137 135h1M70 136h1M30 137h1" />
<path stroke="#010000" d="M49 8h1M6 102h1M8 136h1M107 136h1M110 136h1M79 137h1" />
</svg>