<svg xmlns="http://www.w3.org/2000/svg" viewBox="0 -0.5 160 144" shape-rendering="crispEdges">
<metadata>Made with Pixels to Svg https://codepen.io/shshaw/pen/XbxvNj</metadata>
<path stroke="#ffffff" d="M0 0h147M148 0h12M0 1h2M3 1h53M57 1h78M136 1h24M0 2h26M27 2h53M81 2h79M0 3h59M60 3h73M134 3h26M0 4h109M110 4h50M0 5h59M60 5h4M65 5h14M80 5h64M145 5h5M151 5h9M0 6h43M44 6h75M120 6h25M146 6h14M0 7h77M78 7h82M0 8h160M0 9h25M26 9h134M0 10h40M41 10h92M134 10h26M0 11h160M0 12h55M56 12h104M0 13h160M0 14h160M0 15h52M53 15h8M62 15h72M135 15h25M0 16h16M144 16h16M0 17h16M144 17h16M0 18h14M15 18h1M144 18h16M0 19h16M144 19h16M0 20h16M144 20h11M156 20h4M0 21h9M10 21h6M144 21h14M159 21h1M0 22h4M5 22h11M144 22h16M0 23h5M6 23h10M144 23h2M147 23h13M0 24h16M144 24h9M154 24h6M0 25h16M144 25h16M0 26h16M144 26h16M0 27h16M144 27h16M0 28h16M144 28h16M0 29h16M144 29h16M0 30h10M11 30h5M144 30h1M146 30h14M0 31h6M7 31h9M144 31h16M0 32h16M144 32h16M0 33h16M144 33h7M152 33h8M0 34h6M7 34h9M144 34h16M0 35h16M144 35h16M0 36h16M144 36h16M0 37h16M144 37h6M151 37h9M0 38h16M144 38h16M0 39h16M144 39h16M0 40h3M4 40h12M144 40h16M0 41h16M144 41h16M0 42h15M144 42h14M159 42h1M0 43h16M144 43h16M0 44h16M144 44h16M0 45h16M144 45h1M146 45h14M0 46h3M4 46h12M144 46h16M0 47h16M144 47h16M0 48h9M10 48h6M144 48h16M0 49h16M144 49h16M0 50h16M144 50h16M0 51h5M6 51h10M144 51h16M0 52h16M144 52h16M0 53h16M144 53h16M0 54h16M144 54h16M0 55h16M144 55h16M0 56h16M144 56h16M0 57h16M144 57h16M0 58h16M144 58h12M157 58h3M0 59h16M144 59h16M0 60h16M144 60h16M0 61h16M144 61h16M0 62h16M144 62h16M0 63h16M144 63h5M150 63h10M0 64h16M144 64h8M153 64h2M156 64h4M0 65h16M144 65h16M0 66h16M144 66h16M0 67h13M14 67h2M144 67h4M149 67h11M0 68h16M144 68h16M0 69h16M144 69h16M0 70h1M2 70h14M144 70h16M0 71h10M11 71h5M144 71h4M149 71h11M0 72h16M144 72h16M0 73h16M144 73h16M0 74h16M144 74h11M156 74h4M0 75h16M144 75h16M0 76h16M144 76h16M0 77h6M7 77h9M144 77h16M0 78h16M144 78h16M0 79h16M144 79h16M0 80h16M144 80h16M0 81h16M144 81h11M156 81h4M0 82h12M13 82h3M144 82h16M0 83h16M144 83h16M0 84h16M144 84h16M0 85h16M144 85h16M0 86h5M6 86h10M144 86h16M0 87h16M144 87h16M0 88h16M144 88h16M0 89h16M144 89h16M0 90h16M144 90h16M0 91h16M144 91h16M0 92h16M144 92h16M0 93h7M8 93h8M144 93h10M155 93h5M0 94h16M144 94h14M159 94h1M0 95h16M144 95h16M0 96h4M5 96h11M144 96h16M0 97h16M144 97h16M0 98h16M144 98h16M0 99h16M144 99h16M0 100h16M144 100h16M0 101h16M144 101h5M150 101h10M0 102h16M144 102h16M0 103h16M144 103h1M146 103h7M154 103h6M0 104h16M144 104h6M151 104h9M0 105h16M144 105h16M0 106h9M10 106h6M144 106h16M0 107h16M144 107h16M0 108h16M144 108h16M0 109h16M144 109h6M151 109h9M0 110h16M144 110h16M0 111h16M144 111h16M0 112h16M144 112h16M0 113h16M144 113h16M0 114h15M144 114h16M0 115h16M144 115h11M156 115h4M0 116h16M144 116h16M0 117h16M144 117h8M153 117h7M0 118h16M144 118h16M0 119h16M144 119h16M0 120h16M144 120h16M0 121h16M144 121h16M0 122h16M144 122h3M148 122h12M0 123h6M7 123h9M144 123h5M150 123h6M157 123h3M0 124h16M144 124h16M0 125h16M144 125h16M0 126h16M144 126h6M151 126h9M0 127h15M144 127h16M0 128h18M19 128h98M118 128h42M0 129h7M8 129h103M112 129h22M135 129h25M0 130h149M150 130h10M0 131h78M79 131h81M0 132h88M89 132h71M0 133h41M42 133h21M64 133h96M0 134h160M0 135h9M10 135h12M23 135h27M51 135h109M0 136h87M88 136h33M122 136h38M0 137h160M0 138h12M13 138h31M45 138h75M121 138h16M138 138h22M0 139h160M0 140h43M44 140h29M74 140h77M152 140h8M0 141h45M46 141h114M0 142h75M76 142h38M115 142h45M0 143h19M20 143h95M116 143h44" />
<path stroke="#feffff" d="M147 0h1M2 1h1M56 1h1M64 5h1M79 5h1M77 7h1M9 21h1M153 24h1M15 42h1M9 48h1M152 64h1M155 64h1M10 71h1M148 71h1M158 94h1M15 114h1M155 115h1M6 123h1M156 123h1M150 126h1M111 129h1M149 130h1M41 133h1M9 135h1M12 138h1M120 138h1M43 140h1M73 140h1M151 140h1M45 141h1M19 143h1M115 143h1" />
<path stroke="#fffeff" d="M135 1h1M26 2h1M80 2h1M133 3h1M59 5h1M43 6h1M145 6h1M25 9h1M55 12h1M52 15h1M61 15h1M155 20h1M5 23h1M146 23h1M10 30h1M145 30h1M6 31h1M151 33h1M6 34h1M150 37h1M3 40h1M145 45h1M3 46h1M156 58h1M155 74h1M12 82h1M5 86h1M7 93h1M154 93h1M4 96h1M149 101h1M153 103h1M9 106h1M150 109h1M15 127h1M7 129h1M88 132h1M63 133h1M22 135h1M87 136h1M75 142h1M114 142h1" />
<path stroke="#fffffe" d="M59 3h1M109 4h1M144 5h1M150 5h1M119 6h1M40 10h1M133 10h1M134 15h1M14 18h1M158 21h1M4 22h1M158 42h1M5 51h1M149 63h1M13 67h1M148 67h1M1 70h1M6 77h1M155 81h1M145 103h1M150 104h1M152 117h1M147 122h1M149 123h1M18 128h1M117 128h1M134 129h1M78 131h1M50 135h1M121 136h1M44 138h1M137 138h1" />
</svg>