<svg xmlns="http://www.w3.org/2000/svg" viewBox="0 -0.5 160 144" shape-rendering="crispEdges">
<metadata>Made with Pixels to Svg https://codepen.io/shshaw/pen/XbxvNj</metadata>
<path stroke="#000000" d="M0 0h29M30 0h130M0 1h69M70 1h7M78 1h82M0 2h35M36 2h4M41 2h108M150 2h10M0 3h74M75 3h85M0 4h81M82 4h78M0 5h33M34 5h126M0 6h103M104 6h56M0 7h60M61 7h45M107 7h42M150 7h10M0 8h54M55 8h16M72 8h82M155 8h5M0 9h18M19 9h67M87 9h62M150 9h10M0 10h45M46 10h114M0 11h14M15 11h126M142 11h18M0 12h160M0 13h46M47 13h113M0 14h27M28 14h17M46 14h114M0 15h35M36 15h11M48 15h112M0 16h16M144 16h16M0 17h16M144 17h16M0 18h16M144 18h16M0 19h16M144 19h5M150 19h10M0 20h16M144 20h16M0 21h16M144 21h16M0 22h16M144 22h16M0 23h16M144 23h16M0 24h16M144 24h16M0 25h16M144 25h16M0 26h16M144 26h1M146 26h14M0 27h16M144 27h16M0 28h16M144 28h16M0 29h16M144 29h16M0 30h16M144 30h16M0 31h16M144 31h16M0 32h16M144 32h16M0 33h16M144 33h16M0 34h16M144 34h16M0 35h16M144 35h16M0 36h16M144 36h16M0 37h16M144 37h16M0 38h7M8 38h8M144 38h16M0 39h16M144 39h16M0 40h6M7 40h9M144 40h16M0 41h16M144 41h16M0 42h16M144 42h16M0 43h16M144 43h16M0 44h16M144 44h16M0 45h16M144 45h16M0 46h16M144 46h16M0 47h16M144 47h16M0 48h16M144 48h12M157 48h3M0 49h16M144 49h16M0 50h16M144 50h2M147 50h13M0 51h16M144 51h3M148 51h12M0 52h16M144 52h16M0 53h16M145 53h15M0 54h16M144 54h16M0 55h16M144 55h16M0 56h15M144 56h16M0 57h16M144 57h16M0 58h16M144 58h16M0 59h16M144 59h16M0 60h16M144 60h8M153 60h7M0 61h16M144 61h1M146 61h14M0 62h16M144 62h16M0 63h16M144 63h16M0 64h16M144 64h4M149 64h11M0 65h16M144 65h16M0 66h16M144 66h15M0 67h16M144 67h8M153 67h7M0 68h16M144 68h16M0 69h16M144 69h16M0 70h16M144 70h16M0 71h16M144 71h16M0 72h16M144 72h16M0 73h16M144 73h16M0 74h16M144 74h16M0 75h12M13 75h3M144 75h16M0 76h14M15 76h1M144 76h16M0 77h16M144 77h16M0 78h16M144 78h16M0 79h16M144 79h2M147 79h13M0 80h16M144 80h16M0 81h16M144 81h16M0 82h16M144 82h13M158 82h2M0 83h16M144 83h16M0 84h16M144 84h16M0 85h16M144 85h7M152 85h8M0 86h3M4 86h12M144 86h16M0 87h16M144 87h16M0 88h16M144 88h16M0 89h7M8 89h8M144 89h16M0 90h16M144 90h16M0 91h16M144 91h16M0 92h16M144 92h16M0 93h16M144 93h16M0 94h16M144 94h16M0 95h16M144 95h16M0 96h16M144 96h16M0 97h16M144 97h8M153 97h7M0 98h16M144 98h16M0 99h16M144 99h16M0 100h16M144 100h16M0 101h15M144 101h16M0 102h16M144 102h16M0 103h16M144 103h14M159 103h1M0 104h16M144 104h16M0 105h16M144 105h12M157 105h3M0 106h16M144 106h16M0 107h16M144 107h16M0 108h16M144 108h16M0 109h16M144 109h16M0 110h16M144 110h16M0 111h16M144 111h16M0 112h16M144 112h16M0 113h14M15 113h1M144 113h16M0 114h16M144 114h16M0 115h16M144 115h16M0 116h16M144 116h16M0 117h16M144 117h16M0 118h16M144 118h16M0 119h16M144 119h16M0 120h16M144 120h16M0 121h16M145 121h15M0 122h16M144 122h16M0 123h16M144 123h16M0 124h16M144 124h16M0 125h2M3 125h13M144 125h16M0 126h16M144 126h16M0 127h11M12 127h1M14 127h2M144 127h16M0 128h3M4 128h58M63 128h80M144 128h16M0 129h11M12 129h6M19 129h49M69 129h91M0 130h105M106 130h21M128 130h32M0 131h45M46 131h7M54 131h70M125 131h13M139 131h21M0 132h29M30 132h8M39 132h121M0 133h82M83 133h8M92 133h68M0 134h16M17 134h34M52 134h108M0 135h71M72 135h72M145 135h11M157 135h3M0 136h63M64 136h7M72 136h43M116 136h6M123 136h37M0 137h45M46 137h104M151 137h9M0 138h22M23 138h10M34 138h126M0 139h8M9 139h106M116 139h44M0 140h155M156 140h4M0 141h11M12 141h6M19 141h141M0 142h122M123 142h37M0 143h16M17 143h68M86 143h38M125 143h35" />
<path stroke="#000001" d="M29 0h1M74 3h1M33 5h1M106 7h1M54 8h1M86 9h1M149 9h1M141 11h1M46 13h1M27 14h1M45 14h1M35 15h1M47 15h1M144 53h1M15 56h1M152 60h1M145 61h1M148 64h1M157 82h1M151 85h1M3 86h1M15 101h1M13 127h1M3 128h1M11 129h1M68 129h1M127 130h1M45 131h1M138 131h1M29 132h1M38 132h1M82 133h1M91 133h1M51 134h1M71 135h1M115 136h1M45 137h1M150 137h1M115 139h1M11 141h1" />
<path stroke="#000100" d="M69 1h1M35 2h1M149 2h1M81 4h1M103 6h1M60 7h1M71 8h1M45 10h1M14 11h1M6 40h1M146 50h1M14 113h1M144 121h1M2 125h1M62 128h1M143 128h1M105 130h1M53 131h1M63 136h1M22 138h1M155 140h1" />
<path stroke="#010000" d="M77 1h1M40 2h1M149 7h1M154 8h1M18 9h1M149 19h1M145 26h1M7 38h1M156 48h1M147 51h1M159 66h1M152 67h1M12 75h1M14 76h1M146 79h1M7 89h1M152 97h1M158 103h1M156 105h1M11 127h1M18 129h1M124 131h1M16 134h1M144 135h1M156 135h1M71 136h1M122 136h1M33 138h1M8 139h1M18 141h1M122 142h1M16 143h1M85 143h1M124 143h1" />
</svg>