<svg xmlns="http://www.w3.org/2000/svg" viewBox="0 -0.5 160 144" shape-rendering="crispEdges">
<metadata>Made with Pixels to Svg https://codepen.io/shshaw/pen/XbxvNj</metadata>
<path stroke="#000000" d="M0 0h160M0 1h31M32 1h16M49 1h34M84 1h76M0 2h34M35 2h27M63 2h25M89 2h1M91 2h69M5 3h2M8 3h3M21 3h6M37 3h6M53 3h6M69 3h6M85 3h6M101 3h6M117 3h6M133 3h6M149 3h6M6 4h4M22 4h4M38 4h4M54 4h4M70 4h4M86 4h4M102 4h4M118 4h4M134 4h4M150 4h4M6 5h4M22 5h4M38 5h4M54 5h4M70 5h4M86 5h4M102 5h4M118 5h4M134 5h4M150 5h4M6 6h4M22 6h4M38 6h4M54 6h4M70 6h4M86 6h4M102 6h4M118 6h4M134 6h4M150 6h4M6 7h4M22 7h4M38 7h4M54 7h4M70 7h4M86 7h4M102 7h4M118 7h4M134 7h4M150 7h4M6 8h4M22 8h4M38 8h4M54 8h4M70 8h4M86 8h4M102 8h4M118 8h4M134 8h4M150 8h4M6 9h4M22 9h4M38 9h4M54 9h4M70 9h4M86 9h4M102 9h4M118 9h4M134 9h4M150 9h4M6 10h4M22 10h4M38 10h4M54 10h4M70 10h4M86 10h4M102 10h4M118 10h4M134 10h4M150 10h4M6 11h4M22 11h4M38 11h4M54 11h4M70 11h4M86 11h4M102 11h4M118 11h4M134 11h4M150 11h4M6 12h4M22 12h4M38 12h4M54 12h4M70 12h4M86 12h4M102 12h4M118 12h4M134 12h4M150 12h4M5 13h6M21 13h6M37 13h6M53 13h6M69 13h6M85 13h6M101 13h6M117 13h6M133 13h6M149 13h6M0 14h9M10 14h57M68 14h4M73 14h52M126 14h10M137 14h23M0 15h61M62 15h51M114 15h46M11 16h5M144 16h5M11 17h5M144 17h5M158 17h2M11 18h5M144 18h5M151 18h7M0 19h3M11 19h5M144 19h2M147 19h4M1 20h4M11 20h5M144 20h5M5 21h4M11 21h2M14 21h2M144 21h5M9 22h7M144 22h5M10 23h6M144 23h5M11 24h5M144 24h5M11 25h5M144 25h7M11 26h5M144 26h5M150 26h2M11 27h5M144 27h5M150 27h1M11 28h5M145 28h5M159 28h1M11 29h5M144 29h5M159 29h1M11 30h5M144 30h5M159 30h1M11 31h5M144 31h5M158 31h1M11 32h5M144 32h5M158 32h1M11 33h5M144 33h5M150 33h3M11 34h4M144 34h5M10 35h6M144 35h5M7 36h9M144 36h5M4 37h4M11 37h5M144 37h5M2 38h3M11 38h5M144 38h1M146 38h3M0 39h2M11 39h5M144 39h4M11 40h5M144 40h5M11 41h5M144 41h7M11 42h5M144 42h5M150 42h6M11 43h5M144 43h5M155 43h1M11 44h5M144 44h5M156 44h1M10 45h6M144 45h5M155 45h5M9 46h7M144 46h5M152 46h8M9 47h7M144 47h14M8 48h8M144 48h10M8 49h2M11 49h5M144 49h5M7 50h2M11 50h5M144 50h5M8 51h1M11 51h5M144 51h5M152 51h4M6 52h2M11 52h5M144 52h5M150 52h4M155 52h2M6 53h2M11 53h5M144 53h16M5 54h2M11 54h5M144 54h13M158 54h1M5 55h2M11 55h5M144 55h16M4 56h2M11 56h5M144 56h16M4 57h2M11 57h5M144 57h9M154 57h6M4 58h2M11 58h5M144 58h6M158 58h2M3 59h2M11 59h5M144 59h5M159 59h1M3 60h2M11 60h4M144 60h5M3 61h2M11 61h5M144 61h4M2 62h2M11 62h2M14 62h2M144 62h2M147 62h2M150 62h8M2 63h2M11 63h5M144 63h7M157 63h2M2 64h1M11 64h5M144 64h6M158 64h2M1 65h11M13 65h3M144 65h5M159 65h1M0 66h4M11 66h5M144 66h5M0 67h1M11 67h5M144 67h5M156 67h3M11 68h5M144 68h5M154 68h2M159 68h1M11 69h5M144 69h5M153 69h2M11 70h5M144 70h5M152 70h2M157 70h3M11 71h5M144 71h5M152 71h1M155 71h5M0 72h1M11 72h5M144 72h5M152 72h1M155 72h5M0 73h1M11 73h5M144 73h5M152 73h1M154 73h2M159 73h1M0 74h2M11 74h5M144 74h5M152 74h1M155 74h1M159 74h1M0 75h3M11 75h5M144 75h5M152 75h1M154 75h2M159 75h1M1 76h2M11 76h5M144 76h5M152 76h1M154 76h2M159 76h1M1 77h2M11 77h5M144 77h5M152 77h1M155 77h2M158 77h2M1 78h2M11 78h5M144 78h5M152 78h1M155 78h5M1 79h2M10 79h6M144 79h5M156 79h4M2 80h1M11 80h1M13 80h3M144 80h5M155 80h5M2 81h1M11 81h5M144 81h5M153 81h4M1 82h2M11 82h5M144 82h6M152 82h4M1 83h2M11 83h5M144 83h5M150 83h4M1 84h2M11 84h5M144 84h5M150 84h3M1 85h2M11 85h5M144 85h8M0 86h3M11 86h5M144 86h7M0 87h2M11 87h5M144 87h7M0 88h1M11 88h5M144 88h7M0 89h1M11 89h5M144 89h7M11 90h1M13 90h3M144 90h7M11 91h5M144 91h7M11 92h5M144 92h7M11 93h5M144 93h8M11 94h5M144 94h9M11 95h5M144 95h10M11 96h5M144 96h12M11 97h5M144 97h14M11 98h5M144 98h16M11 99h5M144 99h6M151 99h9M8 100h1M11 100h5M144 100h5M151 100h9M0 101h1M9 101h6M144 101h5M151 101h9M0 102h1M9 102h6M144 102h5M152 102h8M0 103h2M9 103h7M144 103h5M153 103h7M0 104h3M9 104h7M144 104h5M153 104h7M1 105h15M144 105h5M154 105h6M2 106h8M11 106h5M144 106h5M154 106h1M159 106h1M1 107h4M11 107h5M144 107h1M146 107h3M154 107h2M0 108h3M11 108h5M144 108h5M154 108h2M0 109h2M11 109h4M144 109h5M154 109h3M0 110h1M11 110h5M144 110h5M154 110h6M11 111h5M144 111h5M154 111h3M11 112h5M144 112h5M155 112h2M11 113h5M144 113h5M156 113h2M159 113h1M11 114h5M144 114h5M156 114h3M11 115h5M144 115h5M157 115h2M11 116h5M144 116h5M158 116h2M11 117h5M144 117h6M159 117h1M11 118h5M144 118h7M11 119h5M144 119h8M11 120h5M144 120h10M11 121h5M144 121h5M150 121h5M11 122h5M144 122h1M146 122h3M152 122h1M154 122h2M11 123h5M144 123h5M154 123h4M11 124h5M144 124h5M155 124h5M11 125h5M144 125h5M156 125h4M11 126h5M144 126h5M159 126h1M11 127h5M144 127h5M0 128h46M47 128h22M70 128h48M119 128h26M146 128h14M0 129h124M125 129h35M5 130h6M21 130h6M37 130h6M53 130h6M69 130h6M85 130h6M101 130h6M117 130h6M133 130h6M149 130h6M6 131h4M22 131h4M38 131h4M54 131h4M70 131h4M86 131h4M102 131h4M118 131h4M134 131h4M150 131h4M6 132h4M22 132h4M38 132h4M54 132h4M70 132h4M86 132h4M102 132h4M118 132h4M134 132h4M150 132h4M6 133h4M22 133h2M25 133h1M38 133h4M54 133h4M71 133h1M73 133h1M86 133h3M102 133h4M118 133h4M134 133h4M150 133h4M6 134h4M22 134h4M38 134h4M54 134h4M70 134h4M86 134h4M102 134h4M118 134h4M134 134h4M150 134h4M6 135h4M22 135h4M38 135h4M54 135h4M70 135h4M86 135h4M102 135h4M118 135h4M134 135h4M150 135h4M6 136h4M22 136h4M38 136h4M54 136h4M70 136h4M86 136h4M102 136h4M118 136h4M134 136h4M150 136h4M6 137h4M22 137h4M38 137h4M54 137h4M70 137h4M86 137h4M102 137h4M118 137h4M134 137h4M150 137h4M6 138h4M22 138h4M38 138h4M54 138h4M71 138h3M86 138h4M102 138h4M118 138h4M134 138h4M150 138h4M6 139h4M22 139h4M38 139h4M54 139h4M70 139h4M86 139h4M102 139h3M118 139h4M134 139h4M150 139h4M5 140h6M21 140h6M37 140h6M53 140h6M69 140h6M85 140h6M101 140h6M117 140h6M133 140h6M149 140h6M0 141h10M11 141h149M0 142h125M126 142h34M1 143h18M20 143h140" />
<path stroke="#000001" d="M31 1h1M90 2h1M9 14h1M72 14h1M113 15h1M154 52h1M148 61h1M12 65h1M12 80h1M15 101h1M153 122h1M69 128h1M70 133h1M0 143h1" />
<path stroke="#000100" d="M48 1h1M62 2h1M7 3h1M125 14h1M61 15h1M13 21h1M144 28h1M15 34h1M148 39h1M7 51h1M146 62h1M15 109h1M124 129h1M24 133h1M72 133h1M70 138h1M105 139h1M10 141h1" />
<path stroke="#010000" d="M83 1h1M34 2h1M88 2h1M67 14h1M136 14h1M146 19h1M145 38h1M15 60h1M13 62h1M154 74h1M12 90h1M15 102h1M145 107h1M145 122h1M46 128h1M118 128h1M145 128h1M89 133h1M125 142h1M19 143h1" />
<path stroke="#a2a2a2" d="M0 3h5M11 3h10M27 3h10M43 3h10M59 3h10M75 3h10M91 3h10M107 3h10M123 3h8M132 3h1M139 3h10M155 3h5M0 4h6M10 4h12M26 4h11M42 4h12M58 4h4M63 4h7M74 4h12M90 4h12M106 4h12M122 4h12M138 4h12M154 4h6M0 5h6M10 5h1M12 5h4M17 5h5M26 5h7M34 5h4M42 5h12M58 5h12M74 5h12M90 5h12M106 5h12M122 5h12M138 5h12M154 5h6M10 6h5M26 6h1M28 6h3M42 6h5M58 6h5M74 6h5M90 6h5M106 6h5M122 6h5M138 6h5M154 6h5M10 7h4M26 7h4M42 7h4M58 7h4M74 7h4M90 7h4M106 7h4M122 7h4M138 7h4M154 7h4M10 8h4M26 8h4M42 8h4M58 8h4M74 8h4M90 8h4M106 8h4M122 8h4M138 8h4M154 8h4M10 9h4M26 9h4M42 9h4M58 9h1M60 9h2M74 9h4M90 9h4M106 9h4M122 9h4M138 9h4M154 9h1M156 9h2M10 10h4M26 10h4M42 10h4M58 10h4M74 10h4M90 10h4M106 10h4M122 10h4M138 10h4M154 10h4M10 11h4M26 11h4M42 11h4M58 11h4M74 11h4M90 11h4M106 11h4M122 11h4M138 11h4M154 11h4M11 12h3M26 12h4M42 12h4M58 12h4M74 12h4M90 12h4M106 12h4M122 12h4M138 12h4M154 12h4M11 13h3M27 13h3M43 13h3M59 13h3M75 13h3M91 13h3M107 13h3M123 13h3M139 13h3M155 13h3M0 16h11M0 17h11M0 18h11M3 19h8M5 20h6M9 21h2M8 37h3M5 38h6M2 39h9M0 40h11M0 41h11M0 42h11M0 43h4M5 43h6M0 44h11M0 45h10M0 46h9M0 47h9M158 47h2M0 48h8M154 48h1M0 49h8M151 49h1M0 50h7M0 51h7M151 51h1M0 52h6M149 52h1M0 53h6M0 54h5M157 54h1M159 54h1M0 55h5M0 56h4M0 57h4M153 57h1M0 58h4M0 59h1M2 59h1M0 60h3M0 61h3M0 62h2M149 62h1M0 63h2M0 64h2M0 65h1M9 78h1M149 84h1M150 99h1M149 101h1M0 105h1M1 106h1M155 106h1M157 106h1M0 107h1M158 109h1M157 112h1M159 112h1M149 122h1M151 123h1M149 125h1M153 125h1M155 125h1M156 126h1M149 127h1M151 127h1M153 127h1M155 127h1M0 130h5M11 130h10M27 130h10M43 130h10M59 130h10M75 130h10M91 130h9M107 130h10M123 130h10M139 130h10M155 130h5M0 131h6M10 131h12M26 131h12M42 131h12M58 131h12M74 131h12M90 131h12M106 131h12M122 131h12M138 131h12M154 131h6M0 132h6M10 132h12M26 132h3M30 132h8M42 132h12M58 132h12M74 132h9M84 132h2M90 132h12M106 132h12M122 132h12M138 132h12M154 132h6M10 133h5M26 133h5M42 133h5M58 133h5M74 133h2M77 133h2M90 133h5M106 133h5M122 133h5M138 133h2M141 133h2M154 133h5M10 134h4M26 134h4M42 134h4M58 134h4M74 134h4M90 134h4M106 134h4M122 134h4M138 134h4M154 134h2M157 134h1M10 135h4M26 135h4M42 135h1M44 135h2M58 135h4M74 135h4M90 135h4M106 135h4M122 135h4M138 135h1M140 135h1M154 135h4M10 136h4M26 136h4M42 136h4M58 136h4M74 136h4M90 136h4M106 136h4M122 136h4M138 136h4M154 136h4M10 137h4M26 137h4M42 137h4M58 137h4M74 137h4M90 137h4M106 137h4M122 137h4M138 137h4M154 137h4M10 138h4M26 138h4M42 138h4M58 138h4M74 138h4M90 138h4M106 138h4M122 138h4M138 138h4M154 138h1M156 138h2M10 139h4M26 139h4M42 139h4M58 139h4M74 139h4M90 139h4M106 139h4M122 139h4M138 139h4M154 139h4M11 140h3M27 140h3M43 140h3M59 140h3M75 140h3M91 140h3M107 140h3M123 140h3M139 140h3M155 140h3" />
<path stroke="#a2a2a3" d="M131 3h1M37 4h1M33 5h1M59 9h1M155 9h1M4 43h1M100 130h1M29 132h1M83 132h1M76 133h1M156 134h1M155 138h1" />
<path stroke="#a3a2a2" d="M62 4h1M16 5h1M27 6h1M1 59h1M140 133h1M141 135h1" />
<path stroke="#a2a3a2" d="M11 5h1M10 12h1M43 135h1M139 135h1" />
<path stroke="#ffffff" d="M0 6h6M15 6h7M31 6h7M47 6h7M63 6h7M79 6h7M95 6h7M111 6h7M127 6h5M133 6h1M143 6h7M159 6h1M0 7h4M5 7h1M14 7h8M30 7h8M46 7h8M62 7h8M78 7h7M94 7h8M110 7h8M126 7h8M142 7h8M158 7h2M0 8h6M14 8h8M30 8h8M46 8h8M62 8h8M78 8h8M94 8h8M110 8h8M126 8h8M142 8h8M158 8h2M0 9h6M14 9h8M30 9h8M46 9h8M62 9h8M78 9h8M94 9h8M110 9h8M126 9h8M142 9h8M158 9h2M0 10h6M14 10h8M30 10h2M33 10h5M46 10h8M62 10h8M78 10h8M94 10h8M110 10h1M112 10h6M126 10h8M142 10h8M158 10h2M0 11h6M14 11h8M30 11h8M46 11h8M62 11h8M78 11h8M94 11h8M110 11h8M126 11h8M142 11h8M158 11h2M0 12h6M14 12h8M30 12h8M46 12h8M62 12h8M78 12h8M94 12h8M110 12h8M126 12h8M142 12h8M158 12h2M0 13h5M14 13h7M30 13h7M46 13h7M62 13h7M78 13h7M94 13h7M110 13h4M115 13h2M126 13h7M142 13h7M158 13h2M149 17h9M149 18h2M158 18h2M152 19h3M156 19h4M0 20h1M149 20h8M158 20h2M0 21h5M149 21h11M0 22h9M149 22h11M0 23h10M149 23h11M0 24h11M149 24h11M0 25h11M151 25h9M0 26h11M149 26h1M152 26h8M0 27h11M149 27h1M151 27h9M0 28h11M150 28h9M0 29h11M149 29h10M0 30h11M149 30h9M0 31h11M149 31h9M159 31h1M0 32h11M149 32h9M159 32h1M0 33h11M149 33h1M153 33h7M0 34h11M152 34h8M1 35h4M6 35h4M149 35h11M0 36h7M149 36h11M0 37h4M149 37h11M0 38h2M149 38h11M149 39h2M152 39h8M149 40h11M152 41h8M149 42h1M152 43h1M156 43h4M149 44h1M151 44h1M153 44h2M157 44h3M150 45h1M152 45h1M149 46h1M155 48h5M10 49h1M154 49h1M158 49h1M9 50h2M149 50h3M153 50h1M155 50h1M157 50h1M159 50h1M9 51h2M150 51h1M156 51h1M158 51h1M8 52h3M158 52h1M8 53h3M7 54h4M7 55h2M10 55h1M6 56h5M6 57h5M6 58h5M150 58h8M5 59h6M149 59h10M5 60h6M149 60h11M5 61h6M149 61h3M155 61h5M4 62h7M158 62h2M4 63h7M151 63h6M159 63h1M3 64h8M150 64h8M149 65h10M4 66h7M149 66h11M1 67h10M149 67h7M159 67h1M0 68h11M149 68h5M156 68h3M0 69h11M149 69h4M155 69h5M0 70h11M149 70h3M154 70h1M0 71h11M149 71h3M153 71h2M1 72h10M149 72h3M153 72h1M1 73h10M149 73h3M153 73h1M157 73h1M2 74h9M149 74h1M151 74h1M153 74h1M156 74h3M3 75h8M149 75h3M153 75h1M156 75h3M0 76h1M4 76h7M149 76h3M153 76h1M157 76h1M0 77h1M4 77h7M149 77h3M153 77h1M0 78h1M4 78h5M149 78h3M154 78h1M0 79h1M4 79h6M149 79h3M153 79h2M0 80h2M4 80h7M149 80h4M0 81h2M4 81h7M149 81h4M157 81h3M0 82h1M4 82h7M150 82h2M156 82h4M0 83h1M4 83h7M154 83h6M0 84h1M4 84h7M153 84h7M0 85h1M4 85h7M152 85h2M155 85h5M4 86h5M10 86h1M151 86h9M3 87h8M151 87h1M153 87h7M2 88h9M151 88h2M154 88h6M2 89h9M151 89h1M155 89h5M1 90h10M151 90h2M154 90h1M156 90h4M1 91h10M151 91h2M155 91h1M157 91h3M0 92h11M151 92h2M154 92h1M156 92h4M0 93h9M10 93h1M152 93h2M157 93h1M159 93h1M0 94h11M153 94h2M158 94h2M0 95h11M154 95h3M159 95h1M0 96h9M10 96h1M156 96h4M0 97h11M158 97h2M0 98h11M0 99h7M8 99h3M0 100h7M10 100h1M149 100h2M1 101h8M150 101h1M1 102h5M8 102h1M149 102h3M2 103h7M150 103h3M3 104h6M149 104h1M151 104h2M149 105h2M152 105h1M10 106h1M149 106h3M156 106h1M9 107h2M149 107h4M156 107h4M4 108h7M149 108h5M156 108h4M3 109h8M149 109h5M159 109h1M2 110h9M149 110h1M151 110h3M2 111h9M149 111h5M1 112h10M149 112h5M0 113h11M149 113h6M0 114h11M149 114h7M159 114h1M0 115h11M149 115h8M159 115h1M0 116h11M149 116h9M0 117h11M150 117h9M0 118h11M151 118h5M157 118h3M0 119h11M152 119h8M0 120h4M5 120h6M154 120h3M158 120h1M0 121h11M155 121h5M0 122h11M157 122h3M0 123h3M4 123h7M159 123h1M0 124h11M0 125h2M3 125h8M0 126h11M0 127h11M0 133h6M15 133h4M20 133h2M31 133h7M47 133h7M63 133h7M79 133h7M95 133h7M111 133h7M127 133h7M143 133h2M146 133h4M159 133h1M0 134h6M14 134h8M30 134h8M46 134h8M62 134h8M78 134h8M94 134h8M110 134h8M126 134h8M142 134h8M158 134h2M0 135h6M14 135h8M30 135h8M46 135h8M62 135h8M78 135h8M94 135h8M110 135h8M126 135h8M142 135h8M158 135h2M0 136h6M14 136h8M30 136h8M46 136h4M51 136h3M62 136h8M78 136h8M94 136h8M110 136h8M126 136h8M142 136h8M158 136h2M0 137h6M14 137h8M30 137h8M46 137h8M62 137h8M78 137h8M94 137h8M110 137h8M126 137h8M142 137h8M158 137h2M0 138h6M14 138h8M30 138h8M46 138h2M49 138h5M62 138h8M78 138h8M94 138h8M110 138h5M116 138h2M126 138h8M142 138h8M158 138h2M0 139h6M14 139h8M30 139h8M46 139h8M62 139h8M78 139h8M94 139h8M110 139h8M126 139h8M142 139h8M158 139h2M0 140h5M14 140h7M30 140h7M46 140h7M62 140h4M67 140h2M78 140h7M94 140h7M110 140h7M126 140h7M142 140h7M158 140h2" />
<path stroke="#feffff" d="M132 6h1M32 10h1M155 19h1M157 20h1M9 93h1M9 96h1M3 123h1M50 136h1M48 138h1" />
<path stroke="#fffffe" d="M4 7h1M85 7h1M151 19h1M0 35h1M150 74h1M9 86h1M150 110h1M19 133h1M145 133h1M66 140h1" />
<path stroke="#fffeff" d="M111 10h1M114 13h1M5 35h1M151 39h1M9 55h1M7 102h1M1 111h1M4 120h1M2 125h1M115 138h1" />
<path stroke="#515151" d="M149 16h11M158 30h1M149 34h3M151 41h1M156 42h4M150 43h2M153 43h2M150 44h1M152 44h1M149 45h1M151 45h1M153 45h2M150 46h1M149 49h2M152 49h2M155 49h3M159 49h1M152 50h1M154 50h1M156 50h1M158 50h1M149 51h1M157 51h1M159 51h1M157 52h1M159 52h1M152 61h3M155 70h2M154 72h1M156 73h1M158 73h1M3 76h1M156 76h1M158 76h1M3 77h1M154 77h1M157 77h1M3 78h1M10 78h1M153 78h1M3 79h1M152 79h1M155 79h1M3 80h1M153 80h2M3 81h1M3 82h1M3 83h1M149 83h1M3 84h1M3 85h1M154 85h1M3 86h1M2 87h1M152 87h1M1 88h1M153 88h1M1 89h1M152 89h3M0 90h1M153 90h1M155 90h1M0 91h1M153 91h2M156 91h1M153 92h1M155 92h1M154 93h3M158 93h1M155 94h3M157 95h2M7 99h1M7 100h1M9 100h1M6 102h1M149 103h1M150 104h1M151 105h1M153 105h1M0 106h1M152 106h2M158 106h1M5 107h4M153 107h1M3 108h1M2 109h1M157 109h1M1 110h1M0 111h1M157 111h3M0 112h1M154 112h1M158 112h1M155 113h1M158 113h1M156 118h1M157 120h1M159 120h1M149 121h1M150 122h2M156 122h1M149 123h2M152 123h2M158 123h1M149 124h6M150 125h2M154 125h1M149 126h7M157 126h2M150 127h1M152 127h1M154 127h1M156 127h4" />
<path stroke="#505151" d="M149 43h1" />
<path stroke="#515051" d="M155 44h1M152 125h1" />
<path stroke="#515150" d="M151 46h1" />
</svg>