<svg xmlns="http://www.w3.org/2000/svg" viewBox="0 -0.5 160 144" shape-rendering="crispEdges">
<metadata>Made with Pixels to Svg https://codepen.io/shshaw/pen/XbxvNj</metadata>
<path stroke="#000000" d="M0 0h160M0 1h1M3 1h1M5 1h1M19 1h1M21 1h1M38 1h1M40 1h1M59 1h1M63 1h1M69 1h4M79 1h3M89 1h1M91 1h1M93 1h1M108 1h1M110 1h1M127 1h1M129 1h1M147 1h1M149 1h1M159 1h1M0 2h1M3 2h1M5 2h1M19 2h1M21 2h1M38 2h1M40 2h1M59 2h1M62 2h1M69 2h5M80 2h3M88 2h1M91 2h1M93 2h1M106 2h1M108 2h1M110 2h1M127 2h1M129 2h1M147 2h1M149 2h1M159 2h1M0 3h1M3 3h1M5 3h1M19 3h1M21 3h1M38 3h1M40 3h1M59 3h1M61 3h1M69 3h2M72 3h3M81 3h1M87 3h1M91 3h1M93 3h1M98 3h1M108 3h1M110 3h1M127 3h1M129 3h1M147 3h1M149 3h1M159 3h1M0 4h1M3 4h1M5 4h1M19 4h1M21 4h1M38 4h1M40 4h1M59 4h2M69 4h2M74 4h2M91 4h1M93 4h1M98 4h1M105 4h1M107 4h2M110 4h1M127 4h1M129 4h1M147 4h1M149 4h1M159 4h1M0 5h1M3 5h1M5 5h1M13 5h1M18 5h2M21 5h1M38 5h1M40 5h1M59 5h1M64 5h7M74 5h3M85 5h1M91 5h1M93 5h1M108 5h1M110 5h1M127 5h1M129 5h1M147 5h1M149 5h1M159 5h1M0 6h1M3 6h1M5 6h1M19 6h1M21 6h1M38 6h1M40 6h1M59 6h1M64 6h7M75 6h3M84 6h1M91 6h1M93 6h1M105 6h1M108 6h1M111 6h1M118 6h1M120 6h1M122 6h1M126 6h1M129 6h1M147 6h1M149 6h1M159 6h1M0 7h1M3 7h1M5 7h1M19 7h1M22 7h1M31 7h1M33 7h1M35 7h1M37 7h1M40 7h1M58 7h1M65 7h3M76 7h1M83 7h8M94 7h15M112 7h13M130 7h18M149 7h2M159 7h1M0 8h3M5 8h3M13 8h2M17 8h3M23 8h15M41 8h18M66 8h3M82 8h1M151 8h9M0 9h1M7 9h10M38 9h8M57 9h1M59 9h1M67 9h3M81 9h1M83 9h1M85 9h14M102 9h16M120 9h18M140 9h16M159 9h1M0 10h6M17 10h12M31 10h7M46 10h2M50 10h11M68 10h3M80 10h1M83 10h1M85 10h1M99 10h1M101 10h1M117 10h1M119 10h1M137 10h1M139 10h2M155 10h3M159 10h1M0 11h1M6 11h7M16 11h1M28 11h1M30 11h1M48 11h1M50 11h1M61 11h1M69 11h3M79 11h1M83 11h1M85 11h1M99 11h1M101 11h1M117 11h1M119 11h1M137 11h1M139 11h1M157 11h1M159 11h1M0 12h1M13 12h1M16 12h1M28 12h1M30 12h1M48 12h1M50 12h1M62 12h1M70 12h3M78 12h1M83 12h1M85 12h1M99 12h1M101 12h1M117 12h1M119 12h1M137 12h1M139 12h1M158 12h2M0 13h1M13 13h1M16 13h1M28 13h1M30 13h1M48 13h1M50 13h1M63 13h1M71 13h1M77 13h1M83 13h1M85 13h1M99 13h1M101 13h1M117 13h1M119 13h1M137 13h1M139 13h1M158 13h2M0 14h1M13 14h1M16 14h1M28 14h1M30 14h1M48 14h1M50 14h1M64 14h1M76 14h3M83 14h1M85 14h1M88 14h1M90 14h1M93 14h1M95 14h1M99 14h1M101 14h1M103 14h7M114 14h4M119 14h1M122 14h1M128 14h2M131 14h2M137 14h1M139 14h1M142 14h2M158 14h2M0 15h1M13 15h1M15 15h130M158 15h2M0 16h1M13 16h1M15 16h1M144 16h1M158 16h2M0 17h1M12 17h2M15 17h1M144 17h1M158 17h2M0 18h12M15 18h1M144 18h14M159 18h1M0 19h1M13 19h3M144 19h5M158 19h1M0 20h7M9 20h4M15 20h1M144 20h1M149 20h3M154 20h3M158 20h2M0 21h1M6 21h1M8 21h1M14 21h2M144 21h1M151 21h1M153 21h1M159 21h1M0 22h1M8 22h1M15 22h1M144 22h1M151 22h1M153 22h1M159 22h1M0 23h1M6 23h1M8 23h1M14 23h2M144 23h1M151 23h1M153 23h1M158 23h2M0 24h1M6 24h1M8 24h1M14 24h2M144 24h1M151 24h1M153 24h1M159 24h1M0 25h1M6 25h1M8 25h1M15 25h1M144 25h1M151 25h1M153 25h1M159 25h1M0 26h1M6 26h1M8 26h1M10 26h6M144 26h1M151 26h1M153 26h1M159 26h1M0 27h6M15 27h1M144 27h1M151 27h1M153 27h1M159 27h1M0 28h14M15 28h1M144 28h1M151 28h1M153 28h1M158 28h2M0 29h1M14 29h2M144 29h1M151 29h1M153 29h1M158 29h2M0 30h1M15 30h1M144 30h1M151 30h1M153 30h1M159 30h1M0 31h1M15 31h1M144 31h1M151 31h1M153 31h1M159 31h1M0 32h1M15 32h1M144 32h1M151 32h1M153 32h1M158 32h2M0 33h1M15 33h1M144 33h1M151 33h1M154 33h5M0 34h1M15 34h1M144 34h7M159 34h1M0 35h1M15 35h1M144 35h12M159 35h1M0 36h1M15 36h1M144 36h1M156 36h1M159 36h1M0 37h1M15 37h1M144 37h1M156 37h2M159 37h1M0 38h2M15 38h1M144 38h1M155 38h1M159 38h1M0 39h1M2 39h14M144 39h1M154 39h2M159 39h1M0 40h1M15 40h1M144 40h1M153 40h2M159 40h1M0 41h5M8 41h8M144 41h1M151 41h2M159 41h1M0 42h1M5 42h1M7 42h1M14 42h2M144 42h1M150 42h2M159 42h1M0 43h1M5 43h1M7 43h1M15 43h1M144 43h1M149 43h1M159 43h1M0 44h1M5 44h1M7 44h1M15 44h1M144 44h1M148 44h1M159 44h1M0 45h1M5 45h1M7 45h1M15 45h1M144 45h4M159 45h1M0 46h1M5 46h1M7 46h1M14 46h2M144 46h1M151 46h3M159 46h1M0 47h1M5 47h1M7 47h1M15 47h1M144 47h5M151 47h1M153 47h1M159 47h1M0 48h1M5 48h1M7 48h1M14 48h2M144 48h1M148 48h1M151 48h1M154 48h1M159 48h1M0 49h1M5 49h1M7 49h1M14 49h2M144 49h1M148 49h1M152 49h3M159 49h1M0 50h5M8 50h8M144 50h1M148 50h1M151 50h2M159 50h1M0 51h1M15 51h1M144 51h1M148 51h2M151 51h1M153 51h1M159 51h1M0 52h4M5 52h9M15 52h1M144 52h1M149 52h1M151 52h1M154 52h1M159 52h1M0 53h1M14 53h2M144 53h1M149 53h1M151 53h1M155 53h1M159 53h1M0 54h1M14 54h2M144 54h1M149 54h1M151 54h1M156 54h2M159 54h1M0 55h1M15 55h1M144 55h1M149 55h1M151 55h1M157 55h1M159 55h1M0 56h1M15 56h1M144 56h5M152 56h6M159 56h1M0 57h1M15 57h1M144 57h1M159 57h1M0 58h1M15 58h1M144 58h9M154 58h4M159 58h1M0 59h1M15 59h1M144 59h1M158 59h2M0 60h1M14 60h2M144 60h1M158 60h2M0 61h1M15 61h1M144 61h1M158 61h2M0 62h2M15 62h1M144 62h1M159 62h1M0 63h1M2 63h14M144 63h1M159 63h1M0 64h1M15 64h1M144 64h1M159 64h1M0 65h7M11 65h5M144 65h1M158 65h2M0 66h1M7 66h1M9 66h3M14 66h2M144 66h1M159 66h1M0 67h1M7 67h1M9 67h1M15 67h1M144 67h2M159 67h1M0 68h1M7 68h1M9 68h1M15 68h1M144 68h1M146 68h14M0 69h1M7 69h1M9 69h1M15 69h1M144 69h1M159 69h1M0 70h1M7 70h1M9 70h1M15 70h1M144 70h7M154 70h6M0 71h1M7 71h1M9 71h1M15 71h1M144 71h1M151 71h1M153 71h2M159 71h1M0 72h1M7 72h1M9 72h1M15 72h1M144 72h1M151 72h1M153 72h1M159 72h1M0 73h1M7 73h1M9 73h1M15 73h1M144 73h1M151 73h1M153 73h1M159 73h1M0 74h1M6 74h2M9 74h1M14 74h2M144 74h1M151 74h1M153 74h1M0 75h7M9 75h1M14 75h2M144 75h1M151 75h1M153 75h1M159 75h1M0 76h1M10 76h6M144 76h1M151 76h1M153 76h1M159 76h1M0 77h1M2 77h12M15 77h1M151 77h1M153 77h1M159 77h1M0 78h2M14 78h2M144 78h1M151 78h1M153 78h1M159 78h1M0 79h2M15 79h1M144 79h7M153 79h1M159 79h1M0 80h1M14 80h2M144 80h1M154 80h6M0 81h1M14 81h2M144 81h1M146 81h14M0 82h1M15 82h1M144 82h2M159 82h1M0 83h1M15 83h1M144 83h2M159 83h1M0 84h1M15 84h1M144 84h1M159 84h1M0 85h2M15 85h1M144 85h1M159 85h1M0 86h1M15 86h1M144 86h1M159 86h1M0 87h1M15 87h1M144 87h1M159 87h1M0 88h1M14 88h2M144 88h1M0 89h14M15 89h1M144 89h1M159 89h1M0 90h6M15 90h1M144 90h1M159 90h1M0 91h1M6 91h1M15 91h1M144 91h1M158 91h2M0 92h1M6 92h1M9 92h7M144 92h14M159 92h1M0 93h1M6 93h1M8 93h1M15 93h1M145 93h4M159 93h1M0 94h1M6 94h1M8 94h1M15 94h1M144 94h1M149 94h2M153 94h7M0 95h1M6 95h1M8 95h1M15 95h1M144 95h1M150 95h1M152 95h1M158 95h2M0 96h1M6 96h1M8 96h1M15 96h1M144 96h1M150 96h1M152 96h1M159 96h1M0 97h1M6 97h1M8 97h1M15 97h1M144 97h1M150 97h1M152 97h1M159 97h1M0 98h1M6 98h1M8 98h1M15 98h1M144 98h1M150 98h1M152 98h1M159 98h1M0 99h1M6 99h1M8 99h1M15 99h1M144 99h1M150 99h1M152 99h1M159 99h1M0 100h1M6 100h1M8 100h1M15 100h1M144 100h1M150 100h1M152 100h1M159 100h1M0 101h1M6 101h1M9 101h7M144 101h1M150 101h1M152 101h1M159 101h1M0 102h6M15 102h1M144 102h1M150 102h1M153 102h7M0 103h13M15 103h1M144 103h6M159 103h1M0 104h1M13 104h1M15 104h1M144 104h13M159 104h1M0 105h1M14 105h2M144 105h1M157 105h1M159 105h1M0 106h1M14 106h2M144 106h1M158 106h2M0 107h1M15 107h1M144 107h1M159 107h1M0 108h1M14 108h2M144 108h1M158 108h2M0 109h1M15 109h1M144 109h1M159 109h1M0 110h1M14 110h1M144 110h1M158 110h2M0 111h1M14 111h2M144 111h1M158 111h2M0 112h1M15 112h1M144 112h1M159 112h1M0 113h1M14 113h2M144 113h1M159 113h1M0 114h16M144 114h16M0 115h1M15 115h1M144 115h1M159 115h1M0 116h8M11 116h5M144 116h8M155 116h5M0 117h1M8 117h1M10 117h1M15 117h1M144 117h1M152 117h1M154 117h1M159 117h1M0 118h1M8 118h1M10 118h1M15 118h1M144 118h1M152 118h1M154 118h1M159 118h1M0 119h1M8 119h1M10 119h1M15 119h1M144 119h1M152 119h1M154 119h1M159 119h1M0 120h1M8 120h1M10 120h1M15 120h1M144 120h1M152 120h1M154 120h1M159 120h1M0 121h1M8 121h1M10 121h1M15 121h1M144 121h1M152 121h1M154 121h1M159 121h1M0 122h1M8 122h1M10 122h1M15 122h1M144 122h1M152 122h1M154 122h1M159 122h1M0 123h1M8 123h1M10 123h1M15 123h1M144 123h1M152 123h1M154 123h1M159 123h1M0 124h1M8 124h1M10 124h1M15 124h1M144 124h1M152 124h1M154 124h1M159 124h1M0 125h1M8 125h1M10 125h1M15 125h1M144 125h1M152 125h1M154 125h1M159 125h1M0 126h8M11 126h5M144 126h8M155 126h5M0 127h1M15 127h1M144 127h1M159 127h1M0 128h118M119 128h10M130 128h18M149 128h11M0 129h1M17 129h1M19 129h1M34 129h1M36 129h1M54 129h1M56 129h1M70 129h1M72 129h1M88 129h1M90 129h1M92 129h1M107 129h1M109 129h1M127 129h1M129 129h1M147 129h1M149 129h1M159 129h1M0 130h1M17 130h1M19 130h1M26 130h1M34 130h1M36 130h1M54 130h1M56 130h1M70 130h1M72 130h1M90 130h1M92 130h1M98 130h2M105 130h1M107 130h1M109 130h1M127 130h1M129 130h1M147 130h1M149 130h1M159 130h1M0 131h1M17 131h1M19 131h1M25 131h1M34 131h1M36 131h1M54 131h1M56 131h1M70 131h1M72 131h1M90 131h1M92 131h1M97 131h2M107 131h1M109 131h1M127 131h1M129 131h1M147 131h1M149 131h1M159 131h1M0 132h1M17 132h1M19 132h1M25 132h1M31 132h1M33 132h2M36 132h1M56 132h1M70 132h1M72 132h1M90 132h1M92 132h1M97 132h1M104 132h1M106 132h2M109 132h1M127 132h1M129 132h1M147 132h1M149 132h1M159 132h1M0 133h1M17 133h1M19 133h1M34 133h1M36 133h1M54 133h1M56 133h1M70 133h1M72 133h1M90 133h1M92 133h1M107 133h1M109 133h1M121 133h1M127 133h1M129 133h1M147 133h1M149 133h1M159 133h1M0 134h1M17 134h1M19 134h1M31 134h1M33 134h2M37 134h1M47 134h1M49 134h1M53 134h1M56 134h1M64 134h1M66 134h1M69 134h1M72 134h1M90 134h1M92 134h1M104 134h1M106 134h2M110 134h1M118 134h1M120 134h2M126 134h1M129 134h1M147 134h1M149 134h1M159 134h1M0 135h17M20 135h15M38 135h15M57 135h12M73 135h17M93 135h15M111 135h16M130 135h10M141 135h7M149 135h7M159 135h1M0 136h5M70 136h7M155 136h5M0 137h1M5 137h2M10 137h16M29 137h16M47 137h23M77 137h2M82 137h16M101 137h16M119 137h20M141 137h16M159 137h1M0 138h1M7 138h1M9 138h1M26 138h1M28 138h1M44 138h1M46 138h1M79 138h1M81 138h1M98 138h1M100 138h1M116 138h1M118 138h1M138 138h1M140 138h1M157 138h1M159 138h1M0 139h1M6 139h2M9 139h1M26 139h1M28 139h1M44 139h1M46 139h1M79 139h1M81 139h1M98 139h1M100 139h1M116 139h1M118 139h1M138 139h1M140 139h1M158 139h2M0 140h1M7 140h1M9 140h1M26 140h1M28 140h1M44 140h1M46 140h1M79 140h1M81 140h1M98 140h1M100 140h1M116 140h1M118 140h1M138 140h1M140 140h1M159 140h1M0 141h1M7 141h1M9 141h1M26 141h1M28 141h1M44 141h1M46 141h1M79 141h1M81 141h1M98 141h1M100 141h1M116 141h1M118 141h1M138 141h1M140 141h1M159 141h1M0 142h2M7 142h1M9 142h5M26 142h1M28 142h9M44 142h1M46 142h1M56 142h5M79 142h1M81 142h18M100 142h1M116 142h1M118 142h1M138 142h1M140 142h1M159 142h1M0 143h6M7 143h6M14 143h12M27 143h56M84 143h60M145 143h15" />
<path stroke="#ffffff" d="M1 1h2M4 1h1M6 1h13M20 1h1M22 1h16M39 1h1M41 1h18M60 1h3M64 1h5M73 1h6M82 1h7M92 1h1M94 1h14M109 1h1M111 1h4M116 1h11M128 1h1M130 1h17M148 1h1M150 1h9M1 2h1M4 2h1M7 2h4M13 2h1M20 2h1M22 2h7M32 2h1M35 2h1M39 2h1M41 2h18M60 2h2M63 2h6M74 2h6M83 2h5M92 2h1M94 2h2M101 2h2M109 2h1M111 2h6M120 2h1M123 2h2M128 2h1M133 2h1M135 2h2M139 2h3M144 2h1M148 2h1M151 2h4M156 2h2M1 3h1M4 3h1M7 3h3M13 3h1M20 3h1M22 3h2M25 3h1M32 3h2M39 3h1M41 3h2M44 3h2M52 3h1M54 3h5M60 3h1M62 3h7M71 3h1M75 3h6M82 3h5M92 3h1M94 3h2M97 3h1M100 3h2M103 3h2M109 3h1M111 3h1M113 3h1M120 3h2M128 3h1M134 3h3M138 3h1M142 3h4M148 3h1M151 3h3M157 3h1M1 4h1M4 4h1M6 4h4M13 4h1M20 4h1M22 4h4M30 4h1M39 4h1M41 4h1M45 4h1M53 4h3M57 4h2M61 4h8M71 4h2M76 4h10M92 4h1M94 4h2M97 4h1M100 4h5M109 4h1M111 4h3M117 4h1M128 4h1M132 4h1M134 4h5M141 4h3M148 4h1M150 4h3M157 4h1M4 5h1M6 5h3M12 5h1M20 5h1M22 5h4M27 5h2M39 5h1M45 5h1M51 5h1M53 5h6M60 5h2M63 5h1M71 5h3M77 5h8M92 5h1M99 5h8M109 5h1M111 5h3M115 5h2M119 5h1M128 5h1M130 5h1M133 5h1M135 5h2M140 5h4M148 5h1M150 5h3M156 5h1M1 6h1M4 6h1M6 6h3M12 6h1M17 6h2M20 6h1M22 6h7M32 6h1M39 6h1M44 6h1M48 6h2M51 6h2M54 6h5M60 6h4M71 6h4M78 6h6M92 6h1M95 6h1M98 6h5M109 6h2M112 6h4M119 6h1M127 6h2M132 6h5M138 6h4M148 6h1M150 6h3M156 6h1M1 7h1M4 7h1M6 7h3M12 7h1M20 7h2M23 7h5M32 7h1M38 7h2M44 7h1M48 7h1M51 7h6M59 7h6M68 7h8M77 7h6M91 7h3M109 7h3M126 7h4M148 7h1M151 7h2M156 7h1M3 8h2M12 8h1M20 8h3M39 8h2M59 8h7M69 8h13M83 8h68M1 9h6M17 9h21M46 9h11M58 9h1M60 9h7M70 9h11M84 9h1M99 9h3M118 9h2M138 9h2M156 9h3M6 10h11M29 10h2M38 10h7M48 10h2M61 10h7M71 10h9M84 10h1M87 10h1M89 10h3M93 10h6M100 10h1M102 10h3M107 10h3M113 10h2M116 10h1M118 10h1M121 10h8M131 10h3M136 10h1M138 10h1M144 10h11M158 10h1M1 11h1M13 11h3M19 11h3M25 11h1M27 11h1M29 11h1M32 11h11M44 11h4M49 11h1M51 11h3M57 11h2M60 11h1M62 11h7M72 11h7M84 11h1M87 11h1M90 11h7M100 11h1M102 11h2M108 11h1M113 11h3M118 11h1M121 11h2M124 11h1M126 11h3M132 11h1M138 11h1M142 11h1M144 11h2M147 11h1M149 11h4M154 11h3M158 11h1M1 12h1M14 12h2M20 12h1M25 12h2M29 12h1M32 12h2M35 12h1M37 12h4M43 12h4M49 12h1M52 12h1M57 12h3M61 12h1M63 12h7M73 12h5M84 12h1M89 12h3M93 12h1M95 12h2M100 12h1M105 12h1M108 12h1M113 12h3M118 12h1M121 12h3M125 12h2M128 12h2M132 12h1M138 12h1M144 12h3M148 12h2M151 12h1M155 12h3M1 13h1M14 13h2M17 13h1M20 13h1M25 13h2M29 13h1M32 13h3M36 13h2M39 13h1M43 13h5M49 13h1M52 13h1M57 13h3M61 13h1M64 13h7M72 13h5M84 13h1M87 13h2M90 13h3M94 13h1M96 13h1M98 13h1M100 13h1M102 13h4M107 13h1M112 13h3M116 13h1M118 13h1M120 13h3M124 13h6M131 13h1M135 13h1M138 13h1M142 13h4M147 13h7M155 13h3M14 14h2M17 14h1M19 14h1M24 14h2M27 14h1M29 14h1M31 14h3M35 14h7M43 14h5M49 14h1M51 14h1M56 14h3M60 14h1M63 14h1M65 14h11M84 14h1M87 14h1M100 14h1M118 14h1M138 14h1M146 14h7M154 14h4M1 15h1M14 15h1M145 15h5M152 15h1M155 15h3M1 16h1M14 16h1M145 16h3M149 16h1M152 16h6M1 17h1M14 17h1M145 17h2M148 17h10M12 18h3M158 18h1M1 19h12M149 19h9M7 20h2M145 20h1M152 20h2M7 21h1M145 21h1M147 21h4M152 21h1M156 21h2M1 22h1M7 22h1M145 22h6M152 22h1M154 22h2M157 22h1M7 23h1M145 23h6M152 23h1M154 23h4M1 24h1M7 24h1M145 24h6M152 24h1M154 24h2M1 25h1M7 25h1M145 25h4M150 25h1M152 25h1M154 25h3M1 26h1M7 26h1M145 26h6M152 26h1M154 26h3M6 27h9M145 27h6M152 27h1M154 27h1M14 28h1M145 28h6M152 28h1M155 28h3M1 29h1M146 29h2M149 29h2M152 29h1M155 29h3M145 30h2M148 30h2M152 30h1M1 31h1M145 31h4M150 31h1M152 31h1M155 31h2M1 32h1M145 32h4M152 32h1M155 32h1M1 33h1M145 33h4M150 33h1M152 33h2M1 34h1M151 34h8M157 35h2M145 36h4M150 36h1M152 36h4M157 36h2M145 37h5M152 37h4M158 37h1M145 38h1M152 38h1M156 38h3M1 39h1M145 39h1M149 39h1M152 39h2M156 39h3M1 40h14M145 40h1M147 40h2M155 40h4M5 41h3M145 41h3M150 41h1M153 41h6M1 42h1M6 42h1M145 42h1M147 42h2M152 42h5M158 42h1M6 43h1M145 43h3M150 43h9M1 44h1M6 44h1M145 44h1M147 44h1M150 44h9M1 45h1M6 45h1M148 45h11M1 46h1M6 46h1M145 46h6M154 46h5M1 47h1M6 47h1M149 47h2M152 47h1M154 47h5M6 48h1M145 48h1M147 48h1M149 48h2M152 48h2M155 48h4M1 49h1M6 49h1M145 49h1M149 49h2M155 49h4M5 50h3M145 50h1M149 50h2M153 50h6M1 51h14M145 51h1M150 51h1M152 51h1M154 51h5M14 52h1M145 52h1M148 52h1M150 52h1M155 52h4M1 53h1M145 53h4M150 53h1M154 53h1M156 53h3M1 54h1M145 54h1M147 54h2M150 54h1M152 54h4M1 55h1M145 55h1M150 55h1M152 55h5M158 55h1M149 56h3M158 56h1M145 57h14M158 58h1M145 59h3M149 59h1M151 59h7M145 60h2M148 60h10M1 61h1M145 61h2M148 61h1M150 61h1M154 61h4M145 62h1M153 62h1M156 62h2M1 63h1M145 63h1M149 63h1M151 63h3M156 63h2M1 64h14M145 64h1M147 64h2M150 64h1M154 64h4M7 65h4M145 65h5M153 65h5M1 66h1M8 66h1M145 66h2M148 66h4M153 66h2M1 67h1M8 67h1M146 67h11M1 68h1M8 68h1M145 68h1M1 69h1M8 69h1M145 69h14M1 70h1M8 70h1M151 70h3M8 71h1M145 71h3M152 71h1M1 72h1M8 72h1M145 72h2M149 72h1M152 72h1M154 72h2M1 73h1M8 73h1M145 73h2M149 73h1M152 73h1M154 73h5M1 74h1M8 74h1M145 74h2M150 74h1M152 74h1M154 74h1M7 75h2M145 75h4M152 75h1M154 75h1M156 75h3M1 76h9M145 76h5M152 76h1M155 76h1M1 77h1M14 77h1M145 77h1M152 77h1M154 77h1M145 78h1M149 78h1M152 78h1M155 78h1M151 79h2M1 80h1M145 80h9M1 81h1M145 81h1M1 82h1M146 82h4M152 82h3M157 82h2M1 83h1M146 83h5M155 83h4M145 84h1M147 84h3M154 84h3M145 85h2M148 85h2M152 85h4M1 86h1M145 86h2M148 86h1M152 86h5M1 87h1M145 87h1M147 87h3M151 87h7M1 88h1M145 88h1M148 88h2M151 88h8M14 89h1M149 89h10M6 90h9M145 90h1M148 90h8M1 91h1M7 91h8M146 91h5M156 91h2M1 92h1M8 92h1M158 92h1M1 93h1M7 93h1M149 93h10M1 94h1M7 94h1M145 94h1M151 94h2M1 95h1M7 95h1M145 95h4M151 95h1M153 95h4M1 96h1M7 96h1M145 96h3M151 96h1M153 96h4M1 97h1M7 97h1M145 97h4M151 97h1M153 97h5M1 98h1M7 98h1M145 98h3M149 98h1M151 98h1M154 98h4M7 99h1M145 99h2M148 99h2M151 99h1M154 99h4M7 100h1M145 100h2M148 100h1M151 100h1M153 100h1M156 100h2M7 101h2M145 101h1M151 101h1M153 101h1M156 101h2M6 102h9M145 102h1M149 102h1M151 102h2M13 103h2M150 103h9M14 104h1M157 104h2M145 105h12M158 105h1M1 106h1M145 106h2M148 106h10M1 107h1M145 107h4M150 107h4M1 108h1M145 108h3M149 108h2M154 108h2M1 109h1M145 109h3M1 110h1M145 110h2M149 110h1M153 110h4M1 111h1M145 111h2M150 111h1M152 111h6M1 112h1M145 112h4M150 112h1M152 112h2M155 112h1M145 113h5M153 113h3M157 113h2M1 115h14M145 115h6M152 115h7M8 116h3M152 116h3M1 117h1M6 117h2M9 117h1M153 117h1M1 118h2M5 118h2M9 118h1M153 118h1M1 119h1M3 119h1M6 119h2M9 119h1M153 119h1M1 120h7M9 120h1M153 120h1M1 121h7M9 121h1M153 121h1M1 122h3M5 122h3M9 122h1M11 122h2M153 122h1M1 123h1M4 123h1M6 123h2M9 123h1M11 123h2M153 123h1M1 124h5M7 124h1M9 124h1M11 124h2M153 124h1M1 125h3M5 125h1M7 125h1M9 125h1M11 125h3M153 125h1M8 126h3M152 126h3M1 127h14M145 127h14M148 128h1M1 129h14M16 129h1M18 129h1M20 129h14M35 129h1M37 129h17M55 129h1M57 129h13M71 129h1M73 129h15M89 129h1M91 129h1M93 129h14M108 129h1M110 129h17M128 129h1M130 129h2M137 129h6M145 129h2M148 129h1M1 130h2M4 130h2M12 130h1M14 130h1M16 130h1M18 130h1M20 130h2M27 130h2M35 130h1M37 130h2M40 130h4M47 130h1M50 130h1M55 130h1M60 130h1M62 130h3M67 130h1M71 130h1M73 130h2M76 130h2M84 130h1M86 130h2M89 130h1M91 130h1M93 130h2M100 130h2M108 130h1M110 130h6M120 130h1M123 130h1M128 130h1M148 130h1M1 131h1M5 131h1M13 131h4M18 131h1M20 131h2M26 131h5M35 131h1M37 131h2M40 131h1M47 131h2M55 131h1M61 131h5M71 131h1M73 131h1M77 131h1M85 131h4M91 131h1M94 131h1M99 131h5M108 131h1M110 131h2M113 131h1M120 131h2M128 131h1M148 131h1M5 132h1M11 132h1M13 132h3M18 132h1M20 132h2M23 132h1M26 132h5M35 132h1M37 132h4M44 132h2M55 132h1M59 132h1M62 132h2M71 132h1M77 132h1M83 132h1M85 132h4M91 132h1M93 132h2M96 132h1M99 132h5M108 132h1M110 132h4M117 132h1M128 132h1M148 132h1M4 133h1M8 133h2M11 133h2M14 133h1M18 133h1M25 133h8M35 133h1M37 133h4M42 133h2M46 133h1M55 133h1M57 133h1M59 133h2M62 133h2M71 133h1M76 133h1M80 133h2M83 133h2M86 133h2M91 133h1M98 133h8M108 133h1M110 133h4M115 133h2M119 133h1M128 133h1M148 133h1M4 134h1M8 134h1M10 134h5M18 134h1M21 134h1M24 134h5M36 134h1M38 134h5M46 134h1M54 134h2M59 134h5M70 134h2M76 134h1M80 134h1M82 134h6M91 134h1M94 134h1M97 134h5M108 134h2M112 134h4M119 134h1M127 134h2M148 134h1M17 135h3M35 135h3M53 135h4M69 135h4M90 135h3M108 135h3M127 135h3M148 135h1M5 136h65M77 136h78M1 137h4M7 137h3M26 137h3M45 137h2M70 137h1M72 137h5M79 137h3M98 137h3M117 137h2M139 137h2M157 137h2M1 138h2M4 138h3M8 138h1M10 138h3M15 138h3M19 138h7M27 138h1M29 138h3M34 138h3M40 138h2M43 138h1M45 138h1M48 138h1M50 138h6M58 138h3M64 138h11M76 138h3M80 138h1M82 138h3M88 138h3M92 138h6M99 138h1M117 138h1M139 138h1M158 138h1M3 139h3M8 139h1M11 139h1M16 139h2M19 139h4M27 139h1M29 139h2M35 139h1M40 139h3M45 139h1M48 139h2M51 139h1M53 139h3M64 139h2M67 139h1M69 139h4M75 139h3M80 139h1M83 139h1M89 139h2M92 139h4M99 139h1M117 139h1M139 139h1M3 140h4M8 140h1M11 140h1M16 140h2M19 140h1M21 140h2M27 140h1M32 140h1M35 140h1M40 140h3M45 140h1M48 140h2M52 140h2M55 140h2M59 140h1M64 140h3M68 140h2M71 140h1M75 140h4M83 140h1M89 140h2M92 140h1M94 140h2M99 140h1M117 140h1M139 140h1M1 141h1M3 141h4M8 141h1M10 141h1M14 141h1M17 141h2M20 141h1M22 141h1M25 141h1M27 141h1M29 141h4M34 141h1M39 141h3M43 141h1M45 141h1M47 141h3M51 141h6M58 141h1M63 141h3M67 141h7M75 141h4M80 141h1M82 141h1M88 141h1M90 141h2M93 141h1M95 141h1M97 141h1M99 141h1M117 141h1M139 141h1M8 142h1M27 142h1M45 142h1M80 142h1M99 142h1M117 142h1M139 142h1" />
<path stroke="#a2a2a2" d="M90 1h1M89 2h2M88 3h2M87 4h2M86 5h3M85 6h2M82 9h1M82 10h1M2 11h1M4 11h2M80 11h2M3 12h1M5 12h4M11 12h2M81 12h1M2 13h1M4 13h2M7 13h1M11 13h2M80 13h3M1 14h1M3 14h7M11 14h2M2 15h4M8 15h1M10 15h3M2 16h2M5 16h1M7 16h2M11 16h2M2 17h1M4 17h8M13 20h1M1 21h1M3 21h3M11 21h3M2 22h4M9 22h3M1 23h3M5 23h1M9 23h5M2 24h3M9 24h1M2 25h2M5 25h1M10 25h1M2 26h2M2 29h3M6 29h1M8 29h3M12 29h2M1 30h5M11 30h1M2 31h2M8 31h3M8 32h2M12 32h1M5 33h1M3 34h2M7 34h1M1 35h3M7 35h1M1 36h1M3 36h2M6 36h1M1 37h5M2 38h5M3 42h2M8 42h2M11 42h3M1 43h1M4 43h1M8 43h2M11 43h2M8 44h1M4 45h1M8 45h3M13 45h1M2 46h3M11 46h3M2 47h3M10 47h2M1 48h1M3 48h2M8 48h3M8 49h4M2 53h2M5 53h1M7 53h7M2 54h1M4 54h10M2 55h1M4 55h10M1 56h1M4 56h1M6 56h1M10 56h4M1 57h1M5 57h1M9 57h1M12 57h2M1 58h1M3 58h3M7 58h3M12 58h2M1 59h6M11 59h3M1 60h5M9 60h5M2 61h6M9 61h2M2 62h11M2 66h2M2 67h2M5 67h1M10 67h3M2 68h1M5 68h1M10 68h5M2 69h1M6 69h1M10 69h1M2 70h3M6 70h1M10 70h1M14 70h1M1 71h5M11 71h4M2 72h3M10 72h3M10 73h1M5 74h1M10 74h2M11 75h2M2 78h4M8 78h3M13 78h1M2 79h5M11 79h2M14 79h1M3 80h3M10 80h3M2 81h1M4 81h2M8 81h4M2 82h1M4 82h1M8 82h5M3 83h3M7 83h7M1 84h1M4 84h2M7 84h8M5 85h10M4 86h11M2 87h10M14 87h1M2 88h6M12 88h2M2 91h3M2 92h3M2 93h3M9 93h4M2 94h2M9 94h6M2 95h3M9 95h6M2 96h2M5 96h1M9 96h6M2 97h1M4 97h2M9 97h6M2 98h1M4 98h1M10 98h5M9 99h1M12 99h3M1 100h1M5 100h1M12 100h3M1 101h1M3 101h3M1 104h8M10 104h3M1 105h2M4 105h9M2 106h3M6 106h4M2 107h2M5 107h2M10 107h2M2 108h2M10 108h1M2 109h2M5 109h1M9 109h3M2 110h1M5 110h1M8 110h6M2 111h1M6 111h1M8 111h1M10 111h1M2 112h3M6 112h1M8 112h3M12 112h3M1 113h5M9 113h1M11 113h1M150 117h2M145 118h2M149 118h2M145 119h1M147 119h2M151 119h1M145 120h7M145 121h7M145 122h7M155 122h2M145 123h1M148 123h1M150 123h2M155 123h2M145 124h5M151 124h1M155 124h4M145 125h3M149 125h1M151 125h1M155 125h4M132 129h5M143 129h2M150 129h5M156 129h3M133 130h1M135 130h2M139 130h4M145 130h1M151 130h3M157 130h2M134 131h3M138 131h1M141 131h6M151 131h2M157 131h2M132 132h1M134 132h5M141 132h4M150 132h3M156 132h3M130 133h1M132 133h2M135 133h2M141 133h4M150 133h3M156 133h1M132 134h5M138 134h5M150 134h3M156 134h1M156 135h1M101 138h2M105 138h3M111 138h3M115 138h1M120 138h9M131 138h3M137 138h1M145 138h12M101 139h1M106 139h1M111 139h4M120 139h2M123 139h1M125 139h4M132 139h1M143 139h1M145 139h2M148 139h1M150 139h4M156 139h2M103 140h1M106 140h1M111 140h4M120 140h3M124 140h2M127 140h3M132 140h1M145 140h3M149 140h2M152 140h1M156 140h3M101 141h3M105 141h1M110 141h4M115 141h1M119 141h3M123 141h7M131 141h1M136 141h1M143 141h4M148 141h7M156 141h3" />
<path stroke="#fffffe" d="M115 1h1M12 2h1M132 5h1M151 16h1M156 35h1M151 49h1M158 54h1M158 90h1M145 91h1M153 98h1M154 109h1M151 115h1M93 131h1" />
<path stroke="#515151" d="M2 2h1M6 2h1M11 2h1M14 2h5M29 2h3M33 2h2M37 2h1M96 2h5M103 2h3M107 2h1M117 2h3M121 2h2M125 2h2M130 2h3M134 2h1M137 2h2M142 2h2M145 2h2M150 2h1M155 2h1M158 2h1M2 3h1M6 3h1M10 3h3M14 3h5M24 3h1M26 3h6M34 3h4M43 3h1M46 3h6M53 3h1M90 3h1M96 3h1M99 3h1M105 3h3M112 3h1M114 3h6M122 3h5M130 3h4M137 3h1M139 3h2M146 3h1M150 3h1M154 3h3M158 3h1M2 4h1M10 4h3M14 4h5M26 4h4M31 4h7M42 4h3M46 4h7M56 4h1M89 4h2M96 4h1M99 4h1M106 4h1M114 4h3M119 4h2M122 4h5M130 4h2M133 4h1M139 4h2M144 4h2M153 4h4M158 4h1M2 5h1M9 5h3M14 5h4M26 5h1M29 5h9M41 5h4M46 5h5M52 5h1M89 5h2M94 5h5M107 5h1M114 5h1M117 5h2M120 5h7M131 5h1M134 5h1M137 5h3M144 5h3M153 5h3M157 5h1M2 6h1M9 6h3M13 6h4M29 6h3M33 6h5M41 6h3M45 6h3M50 6h1M53 6h1M87 6h4M94 6h1M96 6h2M103 6h2M106 6h2M116 6h2M121 6h1M123 6h3M130 6h2M137 6h1M142 6h5M153 6h3M157 6h2M2 7h1M9 7h3M13 7h6M28 7h3M34 7h1M36 7h1M41 7h3M45 7h3M49 7h2M57 7h1M153 7h3M157 7h2M8 8h4M15 8h2M45 10h1M86 10h1M88 10h1M92 10h1M105 10h2M111 10h2M115 10h1M120 10h1M129 10h2M134 10h2M141 10h3M17 11h2M22 11h3M26 11h1M31 11h1M43 11h1M54 11h3M82 11h1M86 11h1M88 11h1M97 11h2M105 11h3M109 11h4M116 11h1M120 11h1M123 11h1M125 11h1M129 11h3M133 11h4M140 11h2M143 11h1M146 11h1M148 11h1M153 11h1M2 12h1M4 12h1M9 12h2M17 12h3M21 12h4M27 12h1M31 12h1M34 12h1M36 12h1M41 12h2M47 12h1M51 12h1M53 12h4M60 12h1M79 12h2M82 12h1M86 12h3M92 12h1M94 12h1M97 12h2M102 12h3M106 12h2M109 12h4M116 12h1M120 12h1M124 12h1M127 12h1M130 12h2M133 12h4M140 12h4M147 12h1M150 12h1M152 12h3M3 13h1M6 13h1M8 13h3M18 13h2M21 13h4M27 13h1M31 13h1M35 13h1M38 13h1M40 13h3M51 13h1M53 13h4M60 13h1M62 13h1M78 13h2M86 13h1M89 13h1M93 13h1M95 13h1M97 13h1M106 13h1M108 13h4M115 13h1M123 13h1M130 13h1M132 13h3M136 13h1M140 13h2M146 13h1M154 13h1M2 14h1M10 14h1M18 14h1M20 14h4M26 14h1M34 14h1M42 14h1M52 14h4M59 14h1M62 14h1M79 14h4M86 14h1M89 14h1M91 14h2M94 14h1M96 14h3M102 14h1M110 14h4M120 14h2M123 14h5M133 14h4M140 14h2M144 14h2M153 14h1M6 15h2M9 15h1M150 15h2M153 15h2M4 16h1M6 16h1M9 16h2M148 16h1M150 16h1M3 17h1M147 17h1M14 20h1M146 20h3M2 21h1M9 21h2M146 21h1M155 21h1M158 21h1M12 22h3M158 22h1M4 23h1M5 24h1M10 24h4M156 24h3M4 25h1M9 25h1M12 25h3M157 25h2M4 26h2M157 26h2M155 27h4M154 28h1M7 29h1M11 29h1M148 29h1M154 29h1M6 30h3M10 30h1M12 30h3M150 30h1M154 30h5M5 31h3M11 31h4M149 31h1M154 31h1M157 31h2M2 32h6M10 32h2M13 32h2M149 32h2M154 32h1M156 32h2M2 33h3M6 33h9M149 33h1M2 34h1M5 34h2M8 34h7M4 35h3M9 35h6M2 36h1M5 36h1M7 36h8M149 36h1M151 36h1M6 37h9M150 37h2M7 38h8M146 38h6M153 38h2M146 39h3M150 39h2M146 40h1M149 40h4M148 41h2M2 42h1M10 42h1M146 42h1M149 42h1M2 43h2M10 43h1M13 43h2M148 43h1M2 44h3M9 44h6M146 44h1M2 45h2M11 45h2M14 45h1M8 46h3M8 47h2M12 47h3M2 48h1M11 48h3M146 48h1M2 49h3M12 49h2M146 49h2M146 50h2M146 51h2M146 52h2M152 52h2M4 53h1M6 53h1M152 53h2M3 54h1M146 54h1M3 55h1M14 55h1M146 55h3M2 56h2M5 56h1M7 56h3M14 56h1M2 57h3M6 57h3M10 57h2M14 57h1M2 58h1M6 58h1M10 58h2M14 58h1M7 59h4M14 59h1M148 59h1M150 59h1M6 60h3M147 60h1M8 61h1M11 61h4M147 61h1M149 61h1M151 61h3M13 62h2M146 62h7M154 62h2M158 62h1M146 63h3M150 63h1M154 63h2M158 63h1M146 64h1M151 64h3M158 64h1M150 65h3M4 66h3M12 66h2M152 66h1M155 66h4M4 67h1M6 67h1M13 67h2M157 67h2M3 68h2M6 68h1M3 69h3M11 69h4M5 70h1M11 70h3M6 71h1M10 71h1M148 71h3M155 71h4M5 72h2M13 72h2M147 72h2M150 72h1M156 72h3M2 73h5M11 73h4M147 73h2M150 73h1M2 74h3M12 74h2M147 74h3M155 74h4M13 75h1M149 75h1M155 75h1M150 76h1M154 76h1M156 76h3M146 77h5M155 77h4M6 78h2M11 78h2M146 78h3M150 78h1M154 78h1M156 78h3M7 79h4M154 79h5M2 80h1M6 80h4M13 80h1M3 81h1M6 81h2M12 81h2M3 82h1M5 82h3M13 82h2M150 82h2M155 82h2M2 83h1M6 83h1M14 83h1M151 83h4M2 84h2M6 84h1M146 84h1M150 84h4M157 84h2M2 85h2M147 85h1M150 85h2M156 85h3M2 86h2M147 86h1M149 86h3M157 86h2M12 87h2M146 87h1M150 87h1M158 87h1M8 88h4M146 88h2M150 88h1M145 89h4M146 90h2M156 90h2M5 91h1M151 91h5M5 92h1M5 93h1M13 93h2M4 94h2M146 94h3M5 95h1M149 95h1M157 95h1M4 96h1M148 96h2M157 96h2M3 97h1M149 97h1M158 97h1M3 98h1M5 98h1M9 98h1M148 98h1M158 98h1M2 99h4M10 99h2M153 99h1M158 99h1M2 100h3M10 100h2M147 100h1M149 100h1M154 100h2M158 100h1M2 101h1M146 101h4M154 101h2M158 101h1M146 102h3M3 105h1M5 106h1M10 106h4M147 106h1M4 107h1M7 107h3M12 107h3M149 107h1M154 107h5M4 108h6M12 108h2M148 108h1M151 108h3M156 108h2M4 109h1M6 109h3M12 109h3M148 109h6M155 109h4M3 110h2M6 110h2M147 110h2M150 110h2M157 110h1M3 111h3M7 111h1M9 111h1M11 111h3M147 111h3M151 111h1M5 112h1M7 112h1M11 112h1M149 112h1M151 112h1M154 112h1M156 112h3M6 113h3M10 113h1M12 113h2M150 113h3M156 113h1M2 117h4M11 117h4M146 117h4M155 117h4M3 118h2M7 118h1M11 118h4M147 118h2M151 118h1M155 118h4M2 119h1M4 119h2M11 119h4M146 119h1M149 119h2M155 119h4M11 120h4M155 120h4M11 121h4M155 121h4M13 122h2M157 122h2M2 123h2M5 123h1M13 123h2M146 123h2M149 123h1M157 123h2M6 124h1M13 124h2M150 124h1M4 125h1M6 125h1M14 125h1M150 125h1M15 129h1M3 130h1M6 130h6M13 130h1M15 130h1M22 130h4M29 130h5M44 130h3M48 130h2M51 130h3M57 130h3M61 130h1M65 130h2M68 130h2M75 130h1M78 130h6M85 130h1M88 130h1M95 130h3M102 130h3M106 130h1M116 130h4M121 130h2M124 130h3M130 130h3M134 130h1M137 130h2M143 130h2M146 130h1M150 130h1M154 130h3M2 131h3M6 131h7M22 131h3M31 131h3M39 131h1M41 131h2M44 131h3M49 131h5M57 131h4M66 131h4M74 131h3M78 131h7M89 131h1M95 131h2M104 131h3M112 131h1M114 131h6M122 131h5M130 131h4M137 131h1M139 131h2M150 131h1M153 131h4M1 132h4M6 132h5M12 132h1M16 132h1M24 132h1M32 132h1M41 132h3M46 132h8M57 132h2M60 132h1M64 132h6M73 132h4M78 132h5M84 132h1M89 132h1M95 132h1M98 132h1M114 132h3M118 132h9M130 132h2M133 132h1M139 132h2M145 132h2M153 132h3M1 133h3M5 133h3M10 133h1M13 133h1M15 133h2M20 133h5M33 133h1M41 133h1M44 133h2M47 133h7M58 133h1M61 133h1M64 133h6M73 133h3M77 133h3M82 133h1M85 133h1M88 133h2M93 133h5M106 133h1M114 133h1M117 133h2M120 133h1M122 133h5M131 133h1M134 133h1M137 133h3M145 133h1M153 133h3M158 133h1M1 134h3M5 134h3M9 134h1M15 134h2M20 134h1M22 134h2M29 134h2M32 134h1M43 134h3M48 134h1M50 134h3M57 134h2M65 134h1M67 134h2M73 134h3M77 134h3M81 134h1M88 134h2M93 134h1M95 134h2M102 134h2M105 134h1M111 134h1M116 134h2M122 134h4M130 134h2M137 134h1M143 134h4M153 134h3M157 134h2M157 135h2M71 137h1M3 138h1M13 138h2M18 138h1M32 138h2M37 138h3M42 138h1M47 138h1M56 138h2M61 138h3M75 138h1M85 138h3M91 138h1M103 138h2M108 138h3M114 138h1M119 138h1M129 138h2M134 138h3M141 138h4M1 139h2M10 139h1M12 139h4M18 139h1M23 139h3M31 139h4M36 139h4M43 139h1M47 139h1M50 139h1M52 139h1M56 139h3M60 139h4M66 139h1M68 139h1M73 139h2M78 139h1M82 139h1M84 139h5M91 139h1M96 139h2M102 139h4M107 139h4M115 139h1M119 139h1M122 139h1M124 139h1M129 139h3M133 139h5M141 139h2M144 139h1M147 139h1M149 139h1M154 139h2M1 140h2M10 140h1M12 140h4M18 140h1M20 140h1M23 140h3M29 140h3M33 140h2M36 140h4M43 140h1M47 140h1M51 140h1M54 140h1M57 140h2M60 140h4M67 140h1M70 140h1M72 140h3M82 140h1M84 140h5M91 140h1M93 140h1M96 140h2M101 140h2M104 140h2M107 140h4M115 140h1M119 140h1M123 140h1M126 140h1M130 140h2M133 140h5M141 140h4M148 140h1M151 140h1M153 140h3M2 141h1M11 141h3M15 141h2M19 141h1M21 141h1M23 141h1M33 141h1M35 141h4M42 141h1M50 141h1M57 141h1M59 141h4M66 141h1M74 141h1M83 141h5M89 141h1M92 141h1M94 141h1M96 141h1M104 141h1M106 141h4M114 141h1M122 141h1M130 141h1M132 141h4M137 141h1M141 141h2M147 141h1M155 141h1M2 142h5M14 142h12M37 142h7M47 142h9M61 142h18M101 142h15M119 142h19M141 142h18" />
<path stroke="#515150" d="M36 2h1M118 4h1M121 4h1M4 85h1M11 108h1M157 133h1" />
<path stroke="#feffff" d="M102 3h1M141 3h1M1 5h1M61 14h1M149 25h1M145 29h1M147 30h1M149 64h1M147 66h1M150 75h1M7 92h1M4 122h1M59 139h1M24 141h1" />
<path stroke="#000001" d="M73 4h1M9 26h1M4 52h1M159 74h1M144 77h1M15 110h1M129 128h1M140 135h1M6 143h1M144 143h1" />
<path stroke="#010000" d="M86 4h1M125 7h1M130 14h1M157 20h1M159 33h1M144 93h1M118 128h1M54 132h1M13 143h1" />
<path stroke="#505151" d="M146 4h1M110 10h1M11 25h1M147 99h1M148 125h1M43 131h1M105 132h1M146 133h1" />
<path stroke="#fffeff" d="M62 5h1M38 8h1M156 22h1M157 42h1M149 44h1M152 110h1M39 130h1M61 132h1M35 134h1M49 138h1M50 140h1M80 140h1" />
<path stroke="#515051" d="M158 5h1M59 11h1M89 11h1M104 11h1M154 21h1M5 29h1M8 35h1M22 132h1" />
<path stroke="#a2a3a2" d="M81 10h1M10 75h1M1 99h1M13 105h1M145 117h1" />
<path stroke="#a2a2a3" d="M3 11h1M4 31h1M13 79h1M9 104h1M155 129h1" />
<path stroke="#000100" d="M159 19h1M6 22h1M153 58h1M159 88h1M9 100h1M26 143h1M83 143h1" />
<path stroke="#a3a2a2" d="M9 30h1M140 133h1" />
</svg>