<svg xmlns="http://www.w3.org/2000/svg" viewBox="0 -0.5 160 144" shape-rendering="crispEdges">
<metadata>Made with Pixels to Svg https://codepen.io/shshaw/pen/XbxvNj</metadata>
<path stroke="#000000" d="M0 0h160M0 1h160M0 2h160M0 3h160M0 4h160M0 5h160M0 6h160M0 7h160M0 8h160M0 9h160M0 10h160M0 11h160M0 12h160M0 13h160M0 14h160M0 15h160M0 16h16M144 16h16M0 17h16M144 17h16M0 18h16M144 18h16M0 19h16M144 19h16M0 20h16M144 20h16M0 21h16M144 21h16M0 22h16M144 22h16M0 23h16M144 23h16M0 24h16M144 24h16M0 25h16M144 25h16M0 26h16M144 26h16M0 27h16M144 27h16M0 28h16M144 28h16M0 29h16M144 29h16M0 30h16M144 30h16M0 31h16M144 31h16M0 32h16M144 32h16M0 33h16M144 33h16M0 34h16M144 34h16M0 35h16M144 35h16M0 36h16M144 36h16M0 37h16M144 37h16M0 38h16M144 38h16M0 39h16M144 39h16M0 40h16M144 40h16M0 41h16M144 41h16M0 42h16M144 42h16M0 43h16M144 43h16M0 44h16M144 44h16M0 45h16M144 45h16M0 46h16M144 46h16M0 47h16M144 47h16M0 48h16M144 48h16M0 49h16M144 49h16M0 50h16M144 50h16M0 51h16M144 51h16M0 52h16M144 52h16M0 53h16M144 53h16M0 54h16M144 54h16M0 55h16M144 55h16M0 56h16M144 56h16M0 57h16M144 57h16M0 58h16M144 58h16M0 59h16M144 59h16M0 60h16M144 60h16M0 61h16M144 61h16M0 62h16M144 62h16M0 63h16M144 63h16M0 64h16M144 64h16M0 65h16M144 65h16M0 66h16M144 66h16M0 67h16M144 67h16M0 68h16M144 68h16M0 69h16M144 69h16M0 70h16M144 70h16M0 71h16M144 71h16M0 72h16M144 72h16M0 73h16M144 73h16M0 74h16M144 74h16M0 75h16M144 75h16M0 76h16M144 76h16M0 77h16M144 77h16M0 78h16M144 78h16M0 79h16M144 79h16M0 80h16M144 80h16M0 81h16M144 81h16M0 82h16M144 82h16M0 83h16M144 83h16M0 84h16M144 84h16M0 85h16M144 85h16M0 86h16M144 86h16M0 87h16M144 87h16M0 88h16M144 88h16M0 89h16M144 89h16M0 90h16M144 90h16M0 91h16M144 91h16M0 92h16M144 92h16M0 93h16M144 93h16M0 94h16M144 94h16M0 95h16M144 95h16M0 96h16M144 96h16M0 97h16M144 97h16M0 98h16M144 98h16M0 99h16M144 99h16M0 100h16M144 100h16M0 101h16M144 101h16M0 102h16M144 102h16M0 103h16M144 103h16M0 104h16M144 104h16M0 105h16M144 105h16M0 106h16M144 106h16M0 107h16M144 107h16M0 108h16M144 108h16M0 109h16M144 109h16M0 110h16M144 110h16M0 111h16M144 111h16M0 112h16M144 112h16M0 113h16M144 113h16M0 114h16M144 114h16M0 115h16M144 115h16M0 116h16M144 116h16M0 117h16M144 117h16M0 118h16M144 118h16M0 119h16M144 119h16M0 120h16M144 120h16M0 121h16M144 121h16M0 122h16M144 122h16M0 123h16M144 123h16M0 124h16M144 124h16M0 125h16M144 125h16M0 126h16M144 126h16M0 127h16M144 127h16M0 128h160M0 129h160M0 130h58M102 130h58M0 131h56M63 131h1M67 131h1M69 131h1M71 131h3M76 131h5M82 131h1M85 131h1M89 131h1M93 131h1M104 131h56M0 132h55M63 132h1M67 132h1M69 132h1M71 132h1M74 132h1M78 132h1M82 132h1M85 132h1M88 132h1M90 132h1M93 132h1M105 132h55M0 133h54M64 133h1M66 133h1M69 133h1M71 133h1M74 133h1M78 133h1M82 133h1M85 133h1M88 133h1M90 133h1M93 133h1M106 133h54M0 134h53M64 134h1M66 134h1M69 134h1M71 134h3M78 134h1M82 134h1M85 134h1M87 134h5M93 134h1M107 134h53M0 135h24M65 135h1M69 135h1M71 135h1M74 135h1M78 135h1M83 135h2M87 135h1M91 135h1M93 135h4M136 135h24M0 136h160M0 137h26M29 137h6M38 137h6M47 137h6M54 137h1M56 137h6M65 137h6M74 137h10M87 137h7M95 137h7M103 137h3M107 137h6M116 137h6M125 137h7M133 137h27M0 138h26M29 138h6M38 138h6M45 138h8M55 138h7M64 138h8M73 138h11M85 138h8M96 138h6M104 138h1M107 138h6M115 138h7M125 138h6M134 138h26M0 139h26M28 139h7M38 139h6M45 139h8M55 139h7M63 139h9M73 139h11M85 139h8M96 139h6M103 139h1M105 139h1M107 139h6M114 139h8M124 139h7M134 139h26M0 140h26M27 140h8M38 140h6M47 140h6M54 140h1M56 140h6M65 140h7M73 140h11M87 140h6M94 140h1M96 140h6M103 140h1M105 140h1M107 140h6M116 140h6M123 140h1M125 140h6M132 140h1M134 140h26M0 141h160M0 142h160M0 143h160" />
<path stroke="#ffffff" d="M58 130h44M56 131h7M64 131h3M68 131h1M70 131h1M74 131h2M81 131h1M83 131h2M86 131h3M90 131h3M94 131h10M55 132h8M64 132h3M68 132h1M70 132h1M72 132h2M75 132h3M79 132h3M83 132h2M86 132h2M89 132h1M91 132h2M94 132h11M54 133h10M65 133h1M67 133h2M70 133h1M72 133h2M75 133h3M79 133h3M83 133h2M86 133h2M89 133h1M91 133h2M94 133h12M53 134h11M65 134h1M67 134h2M70 134h1M74 134h4M79 134h3M83 134h2M86 134h1M92 134h1M94 134h13M24 135h41M66 135h3M70 135h1M72 135h2M75 135h3M79 135h4M85 135h2M88 135h3M92 135h1M97 135h39M26 137h3M35 137h3M44 137h3M53 137h1M55 137h1M62 137h3M71 137h3M84 137h3M94 137h1M102 137h1M106 137h1M113 137h3M122 137h3M132 137h1M26 138h1M28 138h1M35 138h1M37 138h1M44 138h1M53 138h2M62 138h2M72 138h1M84 138h1M93 138h1M95 138h1M102 138h2M105 138h2M113 138h2M122 138h1M124 138h1M131 138h1M133 138h1M26 139h2M35 139h1M37 139h1M44 139h1M53 139h2M62 139h1M72 139h1M84 139h1M93 139h3M102 139h1M104 139h1M106 139h1M113 139h1M122 139h2M131 139h3M26 140h1M35 140h3M44 140h3M53 140h1M55 140h1M62 140h3M72 140h1M84 140h3M93 140h1M95 140h1M102 140h1M104 140h1M106 140h1M113 140h3M122 140h1M124 140h1M131 140h1M133 140h1" />
<path stroke="#181821" d="M27 138h1M36 138h1M94 138h1M123 138h1M132 138h1M36 139h1" />
</svg>