<svg xmlns="http://www.w3.org/2000/svg" viewBox="0 -0.5 160 144" shape-rendering="crispEdges">
<metadata>Made with Pixels to Svg https://codepen.io/shshaw/pen/XbxvNj</metadata>
<path stroke="#000000" d="M0 0h1M159 0h1M1 1h1M158 1h2M2 2h1M157 2h1M159 2h1M3 3h1M156 3h1M159 3h1M4 4h1M155 4h1M159 4h1M5 5h1M154 5h1M159 5h1M6 6h148M159 6h1M6 7h147M159 7h1M6 8h3M151 8h1M159 8h1M6 9h2M9 9h1M150 9h1M159 9h1M6 10h2M10 10h1M149 10h1M159 10h1M6 11h2M11 11h1M148 11h1M159 11h1M6 12h2M12 12h1M147 12h2M159 12h1M6 13h2M13 13h1M146 13h3M159 13h1M6 14h2M14 14h1M145 14h1M147 14h2M159 14h1M6 15h2M15 15h1M144 15h1M147 15h2M159 15h1M6 16h2M144 16h1M147 16h2M159 16h1M6 17h2M144 17h1M147 17h2M159 17h1M6 18h2M144 18h1M147 18h2M159 18h1M6 19h2M144 19h1M147 19h2M159 19h1M6 20h2M144 20h1M147 20h2M159 20h1M6 21h2M144 21h1M147 21h2M159 21h1M6 22h2M144 22h1M147 22h2M159 22h1M6 23h2M144 23h1M147 23h2M159 23h1M6 24h2M144 24h1M147 24h2M159 24h1M6 25h2M144 25h1M147 25h2M159 25h1M6 26h2M144 26h1M147 26h2M159 26h1M6 27h2M144 27h1M147 27h2M159 27h1M6 28h2M144 28h1M147 28h2M159 28h1M6 29h2M144 29h1M147 29h2M159 29h1M6 30h2M144 30h1M147 30h2M159 30h1M6 31h2M144 31h1M147 31h2M159 31h1M6 32h2M144 32h1M147 32h2M159 32h1M6 33h2M144 33h1M147 33h2M159 33h1M6 34h2M144 34h1M147 34h2M159 34h1M6 35h2M144 35h1M147 35h2M159 35h1M6 36h2M144 36h1M147 36h2M159 36h1M6 37h2M144 37h1M147 37h2M159 37h1M6 38h2M144 38h1M147 38h2M159 38h1M6 39h2M144 39h1M147 39h2M159 39h1M6 40h2M144 40h1M147 40h2M159 40h1M6 41h2M144 41h1M147 41h2M6 42h2M144 42h1M147 42h2M159 42h1M6 43h2M144 43h1M147 43h2M159 43h1M6 44h2M144 44h1M147 44h2M159 44h1M6 45h2M144 45h1M147 45h2M6 46h2M144 46h1M147 46h2M6 47h2M144 47h1M147 47h2M159 47h1M6 48h2M144 48h1M147 48h1M159 48h1M6 49h2M144 49h1M147 49h2M159 49h1M6 50h2M144 50h1M147 50h2M159 50h1M6 51h2M144 51h1M147 51h2M159 51h1M6 52h2M144 52h1M147 52h2M159 52h1M6 53h2M144 53h1M147 53h2M159 53h1M6 54h2M144 54h1M147 54h2M159 54h1M6 55h2M144 55h1M147 55h2M159 55h1M6 56h2M144 56h1M147 56h2M159 56h1M6 57h2M144 57h1M147 57h2M159 57h1M6 58h2M144 58h1M147 58h2M159 58h1M6 59h2M144 59h1M147 59h2M159 59h1M6 60h2M144 60h1M147 60h2M159 60h1M6 61h2M144 61h1M147 61h2M159 61h1M6 62h2M144 62h1M147 62h2M159 62h1M6 63h2M144 63h1M147 63h2M159 63h1M6 64h2M144 64h1M147 64h2M159 64h1M6 65h2M144 65h1M147 65h2M159 65h1M6 66h2M144 66h1M147 66h2M159 66h1M6 67h2M144 67h1M147 67h2M159 67h1M6 68h2M144 68h1M147 68h2M159 68h1M6 69h2M144 69h1M147 69h2M159 69h1M6 70h2M144 70h1M147 70h2M159 70h1M6 71h2M144 71h1M147 71h2M159 71h1M6 72h2M144 72h1M147 72h2M159 72h1M6 73h2M144 73h1M147 73h2M159 73h1M6 74h2M144 74h1M147 74h2M159 74h1M6 75h2M144 75h1M147 75h2M159 75h1M6 76h2M144 76h1M147 76h2M159 76h1M6 77h2M144 77h1M147 77h2M159 77h1M6 78h2M147 78h2M6 79h2M144 79h1M147 79h2M159 79h1M6 80h2M144 80h1M147 80h2M159 80h1M6 81h2M144 81h1M147 81h2M159 81h1M6 82h2M144 82h1M147 82h2M159 82h1M6 83h2M144 83h1M147 83h2M159 83h1M6 84h2M144 84h1M147 84h2M159 84h1M6 85h2M144 85h1M147 85h2M159 85h1M6 86h2M144 86h1M147 86h2M159 86h1M6 87h2M144 87h1M147 87h2M159 87h1M6 88h2M144 88h1M147 88h2M159 88h1M6 89h2M144 89h1M147 89h2M159 89h1M6 90h2M144 90h1M147 90h2M159 90h1M6 91h2M144 91h1M147 91h2M159 91h1M6 92h2M144 92h1M147 92h2M6 93h2M144 93h1M147 93h2M6 94h2M144 94h1M147 94h2M159 94h1M6 95h2M144 95h1M147 95h2M159 95h1M6 96h2M144 96h1M147 96h2M159 96h1M6 97h2M144 97h1M147 97h2M159 97h1M6 98h2M144 98h1M147 98h2M159 98h1M6 99h2M144 99h1M147 99h2M159 99h1M6 100h2M144 100h1M147 100h2M159 100h1M6 101h2M144 101h1M147 101h2M159 101h1M7 102h1M144 102h1M147 102h2M159 102h1M6 103h2M144 103h1M147 103h2M159 103h1M6 104h2M144 104h1M147 104h2M159 104h1M6 105h2M144 105h1M147 105h2M159 105h1M6 106h2M144 106h1M147 106h2M159 106h1M6 107h2M144 107h1M147 107h2M159 107h1M6 108h2M144 108h1M147 108h2M159 108h1M6 109h2M144 109h1M147 109h2M159 109h1M6 110h2M144 110h1M147 110h2M159 110h1M7 111h1M144 111h1M147 111h2M159 111h1M6 112h2M144 112h1M147 112h2M159 112h1M6 113h2M144 113h1M147 113h2M159 113h1M6 114h2M144 114h1M147 114h2M159 114h1M6 115h2M144 115h1M147 115h2M159 115h1M6 116h2M144 116h1M147 116h2M159 116h1M6 117h1M147 117h2M159 117h1M6 118h2M144 118h1M147 118h2M159 118h1M6 119h2M144 119h1M147 119h2M159 119h1M6 120h2M144 120h1M147 120h2M159 120h1M6 121h2M144 121h1M147 121h2M159 121h1M6 122h2M144 122h1M147 122h2M159 122h1M6 123h2M144 123h1M147 123h2M159 123h1M6 124h2M147 124h2M159 124h1M6 125h2M144 125h1M147 125h2M159 125h1M6 126h2M144 126h1M147 126h2M159 126h1M7 127h1M144 127h1M147 127h2M159 127h1M6 128h2M16 128h129M147 128h2M159 128h1M6 129h2M14 129h1M145 129h1M147 129h2M159 129h1M6 130h2M13 130h1M146 130h3M159 130h1M6 131h2M12 131h23M36 131h1M38 131h5M44 131h47M92 131h47M140 131h9M159 131h1M6 132h2M11 132h97M109 132h40M159 132h1M6 133h2M10 133h1M149 133h1M159 133h1M6 134h2M9 134h1M150 134h1M159 134h1M6 135h3M151 135h1M159 135h1M6 136h2M152 136h1M159 136h1M6 137h1M153 137h1M159 137h1M5 138h1M154 138h1M159 138h1M4 139h1M155 139h1M159 139h1M3 140h1M156 140h1M159 140h1M2 141h1M157 141h1M159 141h1M1 142h1M158 142h2M0 143h58M59 143h101" />
<path stroke="#515151" d="M1 0h158M0 1h1M0 2h1M158 2h1M0 3h1M157 3h2M0 4h1M156 4h3M0 5h1M156 5h3M0 6h1M156 6h3M0 7h1M156 7h3M0 8h1M156 8h3M0 9h1M156 9h3M156 10h3M0 11h1M156 11h3M0 12h1M156 12h3M0 13h1M14 13h2M17 13h25M43 13h85M129 13h17M156 13h2M0 14h1M13 14h1M15 14h125M141 14h4M156 14h3M0 15h1M13 15h2M16 15h115M132 15h12M156 15h3M0 16h1M13 16h1M15 16h1M156 16h3M0 17h1M13 17h3M156 17h3M0 18h1M13 18h3M156 18h3M0 19h1M13 19h3M156 19h3M0 20h1M13 20h3M156 20h3M0 21h1M13 21h3M156 21h3M0 22h1M13 22h3M156 22h3M0 23h1M13 23h3M156 23h3M0 24h1M13 24h3M156 24h3M0 25h1M13 25h3M156 25h3M0 26h1M13 26h3M156 26h3M0 27h1M13 27h3M156 27h3M0 28h1M13 28h3M156 28h3M0 29h1M13 29h3M156 29h3M0 30h1M13 30h3M156 30h3M0 31h1M13 31h3M156 31h3M0 32h1M14 32h2M156 32h3M0 33h1M13 33h3M156 33h3M0 34h1M13 34h3M156 34h3M0 35h1M13 35h3M156 35h3M0 36h1M13 36h3M156 36h3M0 37h1M13 37h3M156 37h3M0 38h1M13 38h3M156 38h3M0 39h1M13 39h3M156 39h3M0 40h1M13 40h3M156 40h3M0 41h1M13 41h3M156 41h3M0 42h1M13 42h3M156 42h3M0 43h1M13 43h3M156 43h3M13 44h3M156 44h3M0 45h1M14 45h2M156 45h3M0 46h1M13 46h3M156 46h3M0 47h1M13 47h3M156 47h3M0 48h1M13 48h3M156 48h3M0 49h1M13 49h1M15 49h1M156 49h3M0 50h1M13 50h3M156 50h3M0 51h1M14 51h2M156 51h3M0 52h1M13 52h3M156 52h3M0 53h1M13 53h3M156 53h3M0 54h1M13 54h3M156 54h2M0 55h1M13 55h3M156 55h3M0 56h1M13 56h3M156 56h3M0 57h1M13 57h3M156 57h3M0 58h1M13 58h3M156 58h3M0 59h1M13 59h3M156 59h3M0 60h1M13 60h3M156 60h3M0 61h1M13 61h3M156 61h3M0 62h1M13 62h3M156 62h3M0 63h1M13 63h3M156 63h3M0 64h1M13 64h3M156 64h3M0 65h1M13 65h3M156 65h3M0 66h1M13 66h3M156 66h3M0 67h1M13 67h3M156 67h3M0 68h1M13 68h3M156 68h3M0 69h1M13 69h3M156 69h3M0 70h1M13 70h3M156 70h3M0 71h1M13 71h3M156 71h3M0 72h1M13 72h3M156 72h3M0 73h1M13 73h3M156 73h3M0 74h1M13 74h3M156 74h3M0 75h1M13 75h3M156 75h3M0 76h1M13 76h3M156 76h1M158 76h1M13 77h3M156 77h3M0 78h1M13 78h3M156 78h3M0 79h1M13 79h3M156 79h3M0 80h1M13 80h3M156 80h3M0 81h1M13 81h3M156 81h3M0 82h1M13 82h3M156 82h3M0 83h1M13 83h3M156 83h3M0 84h1M13 84h3M156 84h3M0 85h1M13 85h3M156 85h3M0 86h1M13 86h3M156 86h3M0 87h1M13 87h3M156 87h3M0 88h1M13 88h3M156 88h3M0 89h1M13 89h3M156 89h3M0 90h1M14 90h1M156 90h3M0 91h1M13 91h3M156 91h2M0 92h1M13 92h3M156 92h3M0 93h1M13 93h3M156 93h3M0 94h1M13 94h3M156 94h3M0 95h1M13 95h3M156 95h3M0 96h1M13 96h3M156 96h3M0 97h1M13 97h3M156 97h3M0 98h1M13 98h3M156 98h3M0 99h1M13 99h3M156 99h3M0 100h1M13 100h3M156 100h3M0 101h1M13 101h3M156 101h3M0 102h1M13 102h3M156 102h3M0 103h1M13 103h3M156 103h3M0 104h1M13 104h3M156 104h3M0 105h1M13 105h3M156 105h3M0 106h1M13 106h3M156 106h3M0 107h1M13 107h3M156 107h3M0 108h1M13 108h3M156 108h3M0 109h1M13 109h3M156 109h3M0 110h1M13 110h3M156 110h3M0 111h1M13 111h3M156 111h3M0 112h1M13 112h3M156 112h3M0 113h1M13 113h3M156 113h3M0 114h1M13 114h3M156 114h3M0 115h1M13 115h3M156 115h3M0 116h1M13 116h3M156 116h3M0 117h1M13 117h3M156 117h3M0 118h1M13 118h3M156 118h3M13 119h3M156 119h3M0 120h1M13 120h3M156 120h3M0 121h1M13 121h1M15 121h1M156 121h3M0 122h1M13 122h3M156 122h3M0 123h1M13 123h3M156 123h3M0 124h1M13 124h3M156 124h3M0 125h1M13 125h3M156 125h3M0 126h1M13 126h3M156 126h3M0 127h1M13 127h2M156 127h3M0 128h1M13 128h3M156 128h3M0 129h1M13 129h1M156 129h3M0 130h1M156 130h3M0 131h1M156 131h3M0 132h1M156 132h3M0 133h1M156 133h3M0 134h1M156 134h3M0 135h1M156 135h3M0 136h1M156 136h3M0 137h1M156 137h3M0 138h1M156 138h2M0 139h1M156 139h3M0 140h1M4 140h34M39 140h117M157 140h2M0 141h1M3 141h67M71 141h86M158 141h1M0 142h1M2 142h113M116 142h42" />
<path stroke="#ffffff" d="M2 1h156M1 2h1M3 2h152M156 2h1M1 3h2M4 3h47M52 3h104M1 4h2M1 5h3M155 5h1M1 6h3M154 6h2M1 7h3M153 7h3M1 8h3M152 8h4M2 9h2M152 9h4M1 10h3M152 10h4M1 11h3M12 11h39M52 11h96M152 11h4M1 12h1M3 12h1M11 12h1M13 12h25M39 12h108M152 12h4M1 13h3M11 13h2M152 13h4M1 14h3M11 14h2M146 14h1M152 14h4M1 15h3M11 15h2M145 15h2M152 15h4M1 16h3M11 16h2M145 16h2M152 16h4M1 17h3M11 17h2M145 17h2M152 17h4M1 18h3M11 18h2M145 18h2M152 18h4M1 19h3M11 19h2M145 19h2M152 19h4M1 20h3M11 20h2M145 20h2M152 20h4M1 21h3M11 21h2M145 21h2M152 21h4M1 22h3M11 22h2M145 22h2M152 22h4M1 23h3M11 23h2M145 23h2M152 23h4M1 24h3M11 24h2M145 24h2M152 24h4M1 25h3M11 25h2M145 25h2M152 25h4M1 26h3M11 26h2M145 26h2M152 26h4M1 27h3M11 27h2M145 27h2M152 27h4M1 28h3M11 28h2M145 28h2M152 28h4M1 29h3M11 29h2M145 29h2M153 29h3M1 30h3M11 30h2M145 30h2M152 30h4M1 31h3M11 31h2M145 31h2M152 31h4M1 32h3M11 32h2M145 32h2M152 32h4M1 33h3M11 33h2M145 33h2M152 33h4M1 34h3M11 34h2M145 34h2M152 34h4M1 35h3M11 35h2M145 35h2M152 35h4M1 36h3M11 36h2M145 36h2M152 36h4M1 37h3M11 37h2M145 37h2M152 37h4M1 38h3M11 38h2M145 38h2M152 38h4M1 39h3M11 39h2M145 39h2M152 39h4M1 40h3M11 40h2M145 40h2M152 40h4M1 41h3M12 41h1M145 41h2M152 41h4M1 42h3M11 42h2M145 42h2M152 42h4M1 43h3M11 43h2M145 43h2M152 43h4M1 44h3M11 44h2M145 44h2M152 44h4M1 45h3M11 45h2M145 45h2M152 45h4M1 46h3M11 46h2M145 46h2M152 46h4M1 47h3M11 47h2M145 47h2M152 47h4M1 48h3M11 48h2M145 48h2M152 48h4M1 49h3M11 49h2M145 49h2M152 49h4M1 50h3M11 50h2M145 50h2M152 50h4M2 51h2M11 51h2M145 51h2M152 51h4M1 52h3M11 52h2M145 52h2M152 52h4M1 53h3M11 53h2M145 53h2M152 53h4M1 54h3M11 54h2M145 54h2M152 54h4M1 55h3M11 55h2M145 55h2M152 55h4M1 56h3M11 56h2M145 56h2M152 56h3M1 57h3M11 57h2M145 57h2M152 57h4M1 58h3M11 58h2M145 58h2M152 58h4M1 59h3M11 59h2M145 59h2M152 59h4M1 60h3M11 60h2M145 60h2M152 60h4M1 61h3M11 61h2M145 61h2M152 61h4M1 62h3M11 62h2M145 62h2M152 62h4M1 63h3M11 63h2M145 63h2M152 63h4M1 64h3M11 64h2M145 64h2M152 64h4M1 65h3M11 65h2M145 65h1M152 65h4M1 66h3M11 66h2M145 66h2M152 66h4M1 67h3M11 67h2M145 67h2M152 67h4M1 68h3M11 68h2M145 68h2M152 68h4M1 69h3M11 69h2M145 69h2M152 69h4M1 70h3M11 70h2M145 70h2M152 70h4M1 71h3M11 71h2M145 71h2M152 71h4M1 72h3M11 72h2M145 72h2M152 72h4M1 73h3M11 73h2M145 73h2M152 73h4M1 74h3M11 74h2M145 74h2M152 74h2M155 74h1M1 75h3M11 75h2M145 75h2M152 75h4M1 76h3M11 76h2M145 76h2M152 76h4M1 77h3M11 77h2M145 77h2M152 77h4M1 78h3M11 78h2M145 78h2M152 78h4M1 79h3M11 79h2M145 79h2M152 79h4M1 80h3M11 80h2M145 80h2M152 80h4M1 81h3M11 81h2M145 81h2M152 81h4M1 82h3M11 82h2M145 82h2M152 82h4M1 83h3M11 83h2M145 83h2M152 83h4M1 84h3M11 84h2M145 84h2M152 84h4M1 85h3M11 85h2M145 85h2M152 85h4M1 86h3M11 86h2M145 86h2M152 86h4M1 87h3M11 87h2M145 87h2M152 87h4M2 88h2M11 88h2M145 88h2M152 88h4M1 89h3M12 89h1M145 89h2M152 89h4M1 90h3M11 90h2M145 90h2M152 90h3M1 91h3M11 91h2M145 91h2M152 91h4M1 92h3M11 92h2M145 92h2M152 92h4M1 93h3M11 93h2M145 93h2M152 93h4M1 94h3M11 94h2M145 94h2M152 94h4M1 95h3M11 95h2M145 95h2M152 95h4M1 96h3M11 96h2M145 96h2M152 96h4M1 97h3M11 97h2M145 97h2M152 97h4M1 98h3M11 98h2M145 98h2M152 98h4M2 99h2M11 99h2M145 99h2M152 99h4M1 100h3M11 100h2M145 100h2M152 100h4M1 101h3M11 101h2M145 101h2M152 101h4M1 102h3M11 102h2M145 102h2M152 102h4M1 103h3M11 103h2M145 103h2M152 103h4M1 104h3M11 104h2M145 104h2M152 104h4M1 105h3M11 105h2M145 105h2M152 105h4M1 106h3M11 106h2M145 106h2M152 106h4M1 107h3M11 107h2M145 107h2M152 107h4M1 108h3M11 108h2M145 108h2M152 108h3M1 109h3M11 109h2M145 109h2M152 109h4M1 110h3M11 110h2M145 110h2M152 110h4M1 111h3M11 111h2M145 111h2M152 111h4M1 112h3M11 112h2M145 112h2M152 112h4M1 113h3M11 113h2M145 113h2M152 113h4M1 114h3M11 114h2M145 114h2M152 114h4M1 115h3M11 115h2M145 115h2M152 115h4M1 116h3M11 116h2M145 116h2M152 116h4M1 117h3M11 117h2M145 117h2M153 117h2M1 118h3M11 118h2M145 118h2M152 118h4M1 119h3M11 119h2M145 119h2M152 119h4M1 120h3M11 120h2M145 120h2M152 120h4M1 121h3M11 121h2M145 121h2M152 121h4M1 122h3M11 122h2M145 122h2M152 122h4M1 123h2M11 123h2M145 123h2M152 123h4M1 124h3M11 124h2M145 124h2M152 124h4M1 125h3M11 125h2M145 125h2M153 125h3M1 126h3M11 126h2M145 126h2M152 126h4M1 127h3M11 127h2M145 127h2M152 127h4M1 128h3M11 128h2M145 128h2M152 128h4M1 129h3M11 129h2M15 129h12M28 129h27M56 129h22M79 129h66M146 129h1M152 129h4M1 130h3M11 130h2M14 130h68M83 130h63M153 130h3M1 131h3M11 131h1M152 131h4M1 132h3M152 132h4M1 133h3M152 133h4M1 134h3M152 134h4M1 135h3M152 135h4M1 136h3M8 136h138M147 136h5M153 136h3M1 137h3M7 137h53M61 137h57M119 137h34M154 137h2M1 138h3M6 138h37M44 138h110M155 138h1M1 139h3M5 139h80M86 139h69M1 140h2M1 141h1" />
<path stroke="#fffeff" d="M155 2h1M3 4h1M1 9h1M152 29h1M11 41h1M1 51h1M155 56h1M146 65h1M11 89h1M1 99h1M152 125h1M55 129h1M43 138h1" />
<path stroke="#feffff" d="M51 3h1M154 74h1M3 123h1M27 129h1M78 129h1M152 130h1M146 136h1M118 137h1" />
<path stroke="#a2a2a2" d="M5 4h2M8 4h72M81 4h74M4 5h1M6 5h144M151 5h3M4 6h2M4 7h2M4 8h2M9 8h17M27 8h10M38 8h88M127 8h24M4 9h2M8 9h1M10 9h71M82 9h43M126 9h24M151 9h1M4 10h2M8 10h2M11 10h138M150 10h2M4 11h2M8 11h3M149 11h3M4 12h2M8 12h3M149 12h3M4 13h2M8 13h3M149 13h3M4 14h2M8 14h3M149 14h3M4 15h2M8 15h3M149 15h3M4 16h2M8 16h3M149 16h3M4 17h2M8 17h3M149 17h3M4 18h2M8 18h3M149 18h3M4 19h2M8 19h3M149 19h3M4 20h2M8 20h3M149 20h3M4 21h2M8 21h3M149 21h3M4 22h2M8 22h3M149 22h3M4 23h2M8 23h3M149 23h3M4 24h2M8 24h3M149 24h3M4 25h2M8 25h3M149 25h3M4 26h2M8 26h3M149 26h1M151 26h1M4 27h2M8 27h3M149 27h3M4 28h2M8 28h3M149 28h3M4 29h2M8 29h3M149 29h3M4 30h2M8 30h3M149 30h3M4 31h2M8 31h3M149 31h3M4 32h2M8 32h3M149 32h3M4 33h2M8 33h3M149 33h3M4 34h2M8 34h3M149 34h3M4 35h2M8 35h3M149 35h1M151 35h1M4 36h2M8 36h3M149 36h3M4 37h2M8 37h3M149 37h1M4 38h2M8 38h3M149 38h3M4 39h2M8 39h3M149 39h3M4 40h2M8 40h3M149 40h3M4 41h2M8 41h3M149 41h3M4 42h2M8 42h3M149 42h3M4 43h2M8 43h3M149 43h3M4 44h2M8 44h3M149 44h3M4 45h2M8 45h3M149 45h3M4 46h1M8 46h3M149 46h3M4 47h2M8 47h3M149 47h3M4 48h2M8 48h3M149 48h3M4 49h2M8 49h3M149 49h3M4 50h2M8 50h3M149 50h3M4 51h2M8 51h3M149 51h3M4 52h2M8 52h3M149 52h3M4 53h2M8 53h3M149 53h3M4 54h2M8 54h1M10 54h1M149 54h3M4 55h2M8 55h3M149 55h3M4 56h2M8 56h3M149 56h3M4 57h2M8 57h3M149 57h3M4 58h2M8 58h3M149 58h3M4 59h2M8 59h3M149 59h3M4 60h2M9 60h2M149 60h3M4 61h2M8 61h3M149 61h3M4 62h2M8 62h3M149 62h3M4 63h2M8 63h3M149 63h3M4 64h2M8 64h3M149 64h3M4 65h2M8 65h3M150 65h2M4 66h2M8 66h3M150 66h2M4 67h2M8 67h3M149 67h3M4 68h2M8 68h3M149 68h3M4 69h2M8 69h3M149 69h3M4 70h2M8 70h3M149 70h3M4 71h2M8 71h3M149 71h3M4 72h2M8 72h3M149 72h3M4 73h2M8 73h3M149 73h3M4 74h2M8 74h3M149 74h3M4 75h2M8 75h3M149 75h3M4 76h2M8 76h3M149 76h3M4 77h2M8 77h3M149 77h3M4 78h2M8 78h3M149 78h3M4 79h2M8 79h3M149 79h3M4 80h2M8 80h3M149 80h3M4 81h2M8 81h3M149 81h3M4 82h2M8 82h3M149 82h3M4 83h2M8 83h3M149 83h1M151 83h1M4 84h2M8 84h3M149 84h3M4 85h2M8 85h3M149 85h3M4 86h2M8 86h3M149 86h3M4 87h2M8 87h3M149 87h3M4 88h2M8 88h3M149 88h3M4 89h2M8 89h3M149 89h3M4 90h2M8 90h3M149 90h3M4 91h2M8 91h3M149 91h1M151 91h1M4 92h2M8 92h3M149 92h3M4 93h2M8 93h3M149 93h3M4 94h2M8 94h3M149 94h3M4 95h2M8 95h3M149 95h3M4 96h2M8 96h3M149 96h3M4 97h2M8 97h3M149 97h3M4 98h2M8 98h3M149 98h3M5 99h1M8 99h3M149 99h3M4 100h2M8 100h3M149 100h3M4 101h2M8 101h3M149 101h3M4 102h2M8 102h3M149 102h3M4 103h2M8 103h3M149 103h3M4 104h2M8 104h3M149 104h3M4 105h2M8 105h3M149 105h3M4 106h2M8 106h3M149 106h3M4 107h2M8 107h3M149 107h3M4 108h2M8 108h3M149 108h3M4 109h2M8 109h3M149 109h3M4 110h2M8 110h3M149 110h3M4 111h2M8 111h3M149 111h3M4 112h2M8 112h3M149 112h3M4 113h2M8 113h3M149 113h3M4 114h2M9 114h2M149 114h3M4 115h2M8 115h3M149 115h3M4 116h2M8 116h3M149 116h3M4 117h2M8 117h3M149 117h3M4 118h2M8 118h3M149 118h3M4 119h2M8 119h3M149 119h3M4 120h2M8 120h3M149 120h3M4 121h2M8 121h3M149 121h3M4 122h2M8 122h3M149 122h3M4 123h2M8 123h3M149 123h3M4 124h2M8 124h3M149 124h3M4 125h2M8 125h3M149 125h3M4 126h2M8 126h3M149 126h3M4 127h2M8 127h3M149 127h3M4 128h2M8 128h3M149 128h3M4 129h2M8 129h3M150 129h2M4 130h2M8 130h3M149 130h3M4 131h2M8 131h3M149 131h3M4 132h2M8 132h3M149 132h3M4 133h2M8 133h2M11 133h8M20 133h109M130 133h19M150 133h2M4 134h2M8 134h1M10 134h26M37 134h20M58 134h92M151 134h1M4 135h2M9 135h23M33 135h82M116 135h35M4 136h2M4 137h2M4 138h1" />
<path stroke="#a2a2a3" d="M7 4h1M150 5h1M126 8h1M125 9h1M150 26h1M150 35h1M151 37h1M8 60h1M149 66h1M150 83h1M8 114h1M149 129h1M19 133h1M36 134h1M57 134h1M32 135h1" />
<path stroke="#a3a2a2" d="M80 4h1M37 8h1M81 9h1M5 46h1M9 54h1" />
<path stroke="#a2a3a2" d="M26 8h1M150 37h1M149 65h1M150 91h1M4 99h1M129 133h1M115 135h1" />
<path stroke="#515051" d="M0 10h1M42 13h1M140 14h1M13 45h1M13 51h1M13 90h1M15 127h1M38 140h1M70 141h1" />
<path stroke="#fffffe" d="M51 11h1M2 12h1M38 12h1M1 88h1M155 90h1M155 108h1M152 117h1M155 117h1M82 130h1M60 137h1M85 139h1" />
<path stroke="#515150" d="M16 13h1M131 15h1M0 44h1M158 54h1M157 76h1M0 77h1M0 119h1M158 138h1M115 142h1" />
<path stroke="#505151" d="M128 13h1M158 13h1M14 16h1M13 32h1M14 49h1M15 90h1M158 91h1M14 121h1" />
<path stroke="#000001" d="M159 41h1M159 92h1" />
<path stroke="#010000" d="M159 45h1M144 78h1M159 78h1M159 93h1M6 102h1M6 111h1M144 117h1M37 131h1M43 131h1M91 131h1M139 131h1M108 132h1M58 143h1" />
<path stroke="#000100" d="M159 46h1M148 48h1M7 117h1M144 124h1M6 127h1M35 131h1" />
</svg>