<svg xmlns="http://www.w3.org/2000/svg" viewBox="0 -0.5 160 144" shape-rendering="crispEdges">
<metadata>Made with Pixels to Svg https://codepen.io/shshaw/pen/XbxvNj</metadata>
<path stroke="#ffffff" d="M0 0h18M19 0h16M36 0h34M71 0h2M74 0h52M127 0h33M0 1h1M0 2h1M0 3h1M0 4h1M0 5h1M0 6h1M0 7h1M0 8h1M0 9h1M0 10h1M0 11h1M0 12h1M150 12h2M0 13h1M149 13h3M0 14h1M150 14h2M0 15h1M149 15h3M0 16h1M149 16h3M0 17h1M149 17h3M0 18h1M149 18h3M0 19h1M149 19h3M0 20h1M149 20h3M0 21h1M149 21h3M0 22h1M149 22h3M0 23h1M149 23h3M0 24h1M149 24h3M0 25h1M149 25h3M0 26h1M149 26h3M0 27h1M149 27h3M0 28h1M149 28h3M0 29h1M149 29h3M0 30h1M149 30h3M0 31h1M149 31h3M0 32h1M149 32h3M0 33h1M150 33h2M0 34h1M149 34h3M0 35h1M149 35h3M0 36h1M149 36h3M149 37h3M0 38h1M149 38h3M0 39h1M149 39h3M0 40h1M150 40h2M0 41h1M149 41h3M0 42h1M149 42h3M0 43h1M149 43h3M0 44h1M149 44h3M0 45h1M149 45h3M0 46h1M149 46h3M0 47h1M149 47h3M0 48h1M149 48h3M0 49h1M149 49h3M0 50h1M149 50h3M0 51h1M149 51h3M0 52h1M149 52h3M0 53h1M149 53h3M0 54h1M149 54h3M0 55h1M149 55h3M0 56h1M149 56h3M0 57h1M149 57h3M0 58h1M150 58h2M0 59h1M149 59h3M0 60h1M149 60h3M0 61h1M149 61h3M0 62h1M149 62h3M0 63h1M149 63h3M0 64h1M149 64h3M0 65h1M149 65h3M0 66h1M149 66h3M0 67h1M149 67h3M0 68h1M149 68h3M0 69h1M149 69h3M0 70h1M149 70h3M0 71h1M149 71h3M0 72h1M149 72h3M0 73h1M149 73h1M151 73h1M0 74h1M149 74h3M0 75h1M149 75h3M0 76h1M149 76h3M0 77h1M149 77h3M0 78h1M149 78h3M0 79h1M149 79h3M0 80h1M149 80h3M0 81h1M149 81h3M0 82h1M149 82h3M0 83h1M149 83h3M0 84h1M149 84h3M0 85h1M149 85h3M0 86h1M149 86h3M0 87h1M149 87h3M0 88h1M149 88h3M0 89h1M149 89h3M0 90h1M149 90h3M0 91h1M149 91h2M0 92h1M149 92h3M0 93h1M149 93h3M0 94h1M149 94h3M0 95h1M149 95h3M0 96h1M149 96h3M0 97h1M149 97h3M0 98h1M149 98h3M0 99h1M149 99h3M0 100h1M149 100h3M0 101h1M149 101h3M0 102h1M149 102h3M0 103h1M149 103h3M0 104h1M149 104h3M0 105h1M149 105h3M0 106h1M149 106h3M0 107h1M149 107h3M0 108h1M149 108h2M0 109h1M149 109h3M0 110h1M149 110h3M0 111h1M149 111h3M0 112h1M149 112h3M0 113h1M149 113h3M0 114h1M149 114h3M0 115h1M149 115h3M0 116h1M149 116h3M0 117h1M149 117h3M0 118h1M149 118h3M0 119h1M149 119h3M0 120h1M149 120h3M0 121h1M149 121h3M0 122h1M149 122h3M0 123h1M149 123h3M0 124h1M149 124h3M0 125h1M149 125h3M0 126h1M149 126h3M0 127h1M149 127h3M0 128h1M149 128h3M0 129h1M149 129h3M0 130h1M8 130h23M32 130h13M46 130h106M0 131h1M0 132h1M74 132h10M0 133h1M0 134h1M0 135h1M0 136h1M0 137h1M2 137h1M4 137h1M6 137h1M8 137h1M10 137h1M12 137h1M14 137h1M16 137h1M18 137h1M20 137h1M22 137h1M24 137h1M26 137h1M28 137h1M30 137h1M32 137h1M34 137h1M36 137h1M38 137h1M40 137h1M42 137h1M44 137h1M46 137h64M111 137h8M120 137h1M122 137h1M124 137h1M126 137h1M128 137h1M130 137h1M132 137h1M159 137h1M0 138h1M47 138h1M111 138h1M0 139h1M47 139h1M111 139h1M0 140h1M47 140h1M111 140h1M137 140h6M144 140h2M0 141h1M47 141h1M111 141h1M137 141h6M144 141h2M0 142h1M47 142h1M111 142h1M159 143h1" />
<path stroke="#feffff" d="M18 0h1M126 0h1M149 40h1M149 58h1" />
<path stroke="#fffffe" d="M35 0h1M149 33h1M151 91h1M31 130h1" />
<path stroke="#fffeff" d="M70 0h1M73 0h1M149 14h1M0 37h1M150 73h1M151 108h1M45 130h1" />
<path stroke="#515151" d="M1 1h158M1 2h31M33 2h34M68 2h91M1 3h158M2 4h157M1 5h73M75 5h37M113 5h9M123 5h27M151 5h4M156 5h3M1 6h122M124 6h35M1 7h102M104 7h55M1 8h62M64 8h95M1 9h33M35 9h45M81 9h78M1 10h70M72 10h87M1 11h7M152 11h7M1 12h7M152 12h7M1 13h7M152 13h7M1 14h7M12 14h137M153 14h6M1 15h7M12 15h3M145 15h4M152 15h5M158 15h1M1 16h7M12 16h3M145 16h4M152 16h7M1 17h7M12 17h3M145 17h4M152 17h7M1 18h7M12 18h3M145 18h4M152 18h7M2 19h6M12 19h3M145 19h4M152 19h7M1 20h7M12 20h3M145 20h4M152 20h7M1 21h7M12 21h3M145 21h4M152 21h7M1 22h7M12 22h3M145 22h4M152 22h7M1 23h3M5 23h3M13 23h2M145 23h4M152 23h4M157 23h2M1 24h7M12 24h3M145 24h4M152 24h7M1 25h7M12 25h3M145 25h4M152 25h3M156 25h3M1 26h7M12 26h3M145 26h4M152 26h7M1 27h7M12 27h3M145 27h4M152 27h7M1 28h7M12 28h3M145 28h4M152 28h7M1 29h7M12 29h3M146 29h3M152 29h5M158 29h1M1 30h7M12 30h3M145 30h4M152 30h7M1 31h5M7 31h1M12 31h3M145 31h4M152 31h7M1 32h7M12 32h1M14 32h1M145 32h4M152 32h7M1 33h7M12 33h3M145 33h4M152 33h7M1 34h7M12 34h3M145 34h4M152 34h7M1 35h7M12 35h3M145 35h4M152 35h7M1 36h2M4 36h4M12 36h3M145 36h4M152 36h3M156 36h3M1 37h7M12 37h3M145 37h4M152 37h7M1 38h7M12 38h3M145 38h4M152 38h7M1 39h7M12 39h3M145 39h4M152 39h7M1 40h7M12 40h3M145 40h4M152 40h7M1 41h7M12 41h3M145 41h4M152 41h7M1 42h7M12 42h3M145 42h4M152 42h7M1 43h4M6 43h2M12 43h3M145 43h4M152 43h7M1 44h4M6 44h2M12 44h3M146 44h3M152 44h7M1 45h7M12 45h3M145 45h4M152 45h7M1 46h7M12 46h3M145 46h4M152 46h7M1 47h7M12 47h3M145 47h4M152 47h7M1 48h7M12 48h3M145 48h4M152 48h7M1 49h7M12 49h3M145 49h4M152 49h7M1 50h7M12 50h3M145 50h4M152 50h7M1 51h7M12 51h3M145 51h4M152 51h7M1 52h4M6 52h2M12 52h3M145 52h4M152 52h7M1 53h7M12 53h3M145 53h4M152 53h7M1 54h7M12 54h3M145 54h4M152 54h7M1 55h7M12 55h3M145 55h4M152 55h5M158 55h1M1 56h7M12 56h3M145 56h4M152 56h7M1 57h7M12 57h3M145 57h4M152 57h7M1 58h7M12 58h3M145 58h4M152 58h7M1 59h7M12 59h3M145 59h4M152 59h7M1 60h2M4 60h4M12 60h3M145 60h4M152 60h7M1 61h2M4 61h4M12 61h3M145 61h4M152 61h7M1 62h7M12 62h3M145 62h4M152 62h3M156 62h3M1 63h7M12 63h3M145 63h4M152 63h7M1 64h7M12 64h3M145 64h4M153 64h6M1 65h7M12 65h3M145 65h4M152 65h1M154 65h5M1 66h7M12 66h3M145 66h4M152 66h6M1 67h7M12 67h3M145 67h4M152 67h5M158 67h1M1 68h7M12 68h3M145 68h4M152 68h4M157 68h1M1 69h7M12 69h3M145 69h4M152 69h3M156 69h1M158 69h1M1 70h7M12 70h3M145 70h4M152 70h4M157 70h1M1 71h7M12 71h3M145 71h4M152 71h3M156 71h1M158 71h1M1 72h5M7 72h1M12 72h3M145 72h4M152 72h2M155 72h1M157 72h1M1 73h7M12 73h3M145 73h4M152 73h1M154 73h1M156 73h1M158 73h1M1 74h7M12 74h3M145 74h4M153 74h1M157 74h1M1 75h7M12 75h3M145 75h4M152 75h1M154 75h1M156 75h1M158 75h1M1 76h7M12 76h3M145 76h4M153 76h1M155 76h1M157 76h1M1 77h7M12 77h3M145 77h4M152 77h1M154 77h1M156 77h1M158 77h1M1 78h7M12 78h3M145 78h4M153 78h1M155 78h1M157 78h1M1 79h7M12 79h3M145 79h3M152 79h1M154 79h1M156 79h1M1 80h7M12 80h3M145 80h4M153 80h1M155 80h1M157 80h1M1 81h6M12 81h3M145 81h4M152 81h1M154 81h1M156 81h1M158 81h1M2 82h6M12 82h3M145 82h4M153 82h1M155 82h1M157 82h1M1 83h7M12 83h3M145 83h4M152 83h1M154 83h1M156 83h1M158 83h1M1 84h7M12 84h3M145 84h4M153 84h1M155 84h1M157 84h1M1 85h7M12 85h3M145 85h4M152 85h1M154 85h1M156 85h1M158 85h1M1 86h7M12 86h3M145 86h4M153 86h1M155 86h1M157 86h1M1 87h7M12 87h3M145 87h4M152 87h1M154 87h1M156 87h1M158 87h1M1 88h7M12 88h3M145 88h4M153 88h1M155 88h1M157 88h1M1 89h7M12 89h3M145 89h4M152 89h1M154 89h1M156 89h1M158 89h1M1 90h7M12 90h3M145 90h4M153 90h1M155 90h1M157 90h1M1 91h7M12 91h3M145 91h4M152 91h1M154 91h1M156 91h1M158 91h1M1 92h7M12 92h3M145 92h4M153 92h1M155 92h1M157 92h1M1 93h7M12 93h3M145 93h4M152 93h1M154 93h1M156 93h1M158 93h1M1 94h7M12 94h3M145 94h4M153 94h1M155 94h1M157 94h1M1 95h7M12 95h3M145 95h4M152 95h1M154 95h1M156 95h1M158 95h1M1 96h7M12 96h3M145 96h4M153 96h1M155 96h1M157 96h1M1 97h7M12 97h3M145 97h4M152 97h1M154 97h1M156 97h1M1 98h7M12 98h3M145 98h4M153 98h1M155 98h1M1 99h7M12 99h3M145 99h4M152 99h1M154 99h1M1 100h7M12 100h3M145 100h4M153 100h1M1 101h7M12 101h3M145 101h4M1 102h7M12 102h3M145 102h4M1 103h3M5 103h3M12 103h3M145 103h4M1 104h7M12 104h3M145 104h4M1 105h7M12 105h3M145 105h4M1 106h7M12 106h3M145 106h4M1 107h7M12 107h3M145 107h4M1 108h7M12 108h3M145 108h4M1 109h1M3 109h5M12 109h3M145 109h4M1 110h7M12 110h3M145 110h4M1 111h7M12 111h3M145 111h3M1 112h1M3 112h5M12 112h3M145 112h4M1 113h7M12 113h3M145 113h4M1 114h7M12 114h3M145 114h4M1 115h7M12 115h3M145 115h4M1 116h7M12 116h3M145 116h4M1 117h7M12 117h3M145 117h4M1 118h7M12 118h3M145 118h4M1 119h7M12 119h3M145 119h4M1 120h7M12 120h3M145 120h4M1 121h7M12 121h3M145 121h4M1 122h7M12 122h3M145 122h4M1 123h7M12 123h3M145 123h4M1 124h7M12 124h3M145 124h4M1 125h7M12 125h3M145 125h4M1 126h7M12 126h3M145 126h4M1 127h7M12 127h3M145 127h4M1 128h7M12 128h3M145 128h4M1 129h7M12 129h1M14 129h130M145 129h4M1 130h7M1 131h19M21 131h81M103 131h1M105 131h1M107 131h1M109 131h1M111 131h1M113 131h1M115 131h1M117 131h1M119 131h1M121 131h1M123 131h1M125 131h1M127 131h1M129 131h1M131 131h1M1 132h72M85 132h14M100 132h1M102 132h1M104 132h1M106 132h1M108 132h1M110 132h1M112 132h1M114 132h1M116 132h1M120 132h1M124 132h1M126 132h1M128 132h1M130 132h1M1 133h42M44 133h29M85 133h10M96 133h1M98 133h2M101 133h1M103 133h1M105 133h1M107 133h1M109 133h1M111 133h1M113 133h1M115 133h1M117 133h1M119 133h1M121 133h1M123 133h1M125 133h1M127 133h1M129 133h1M1 134h58M60 134h14M84 134h15M100 134h1M102 134h1M104 134h1M106 134h1M108 134h1M110 134h1M112 134h1M114 134h1M116 134h1M118 134h1M120 134h1M122 134h1M124 134h1M126 134h1M128 134h1M1 135h74M76 135h60M137 135h1M139 135h1M141 135h1M143 135h1M145 135h1M1 137h1M3 137h1M5 137h1M7 137h1M9 137h1M11 137h1M13 137h1M15 137h1M17 137h1M19 137h1M21 137h1M23 137h1M25 137h1M27 137h1M29 137h1M31 137h1M33 137h1M35 137h1M37 137h1M39 137h1M41 137h1M43 137h1M45 137h1M119 137h1M121 137h1M123 137h1M125 137h1M127 137h1M129 137h1M131 137h1M133 137h26M1 138h46M48 138h24M73 138h14M88 138h2M91 138h2M94 138h2M97 138h2M100 138h2M103 138h1M105 138h1M107 138h1M109 138h1M112 138h1M114 138h2M117 138h2M120 138h2M123 138h2M1 139h46M48 139h38M87 139h2M90 139h2M93 139h2M96 139h2M99 139h2M102 139h1M104 139h1M106 139h1M108 139h1M113 139h2M116 139h2M119 139h2M122 139h2M1 140h46M48 140h37M86 140h2M89 140h2M92 140h2M95 140h2M98 140h2M101 140h1M103 140h1M105 140h1M107 140h1M109 140h1M113 140h1M115 140h2M118 140h2M121 140h2M1 141h35M37 141h10M48 141h36M85 141h2M88 141h2M91 141h2M94 141h2M97 141h2M100 141h1M102 141h1M104 141h1M106 141h1M108 141h1M112 141h1M114 141h2M117 141h2M120 141h2M1 142h46M48 142h35M84 142h2M87 142h2M90 142h2M93 142h2M96 142h2M99 142h1M101 142h1M103 142h1M105 142h1M107 142h1M109 142h1M113 142h2M116 142h2M119 142h2" />
<path stroke="#000000" d="M159 1h1M159 2h1M159 3h1M159 4h1M159 5h1M159 6h1M159 7h1M159 8h1M159 9h1M159 10h1M8 11h57M66 11h84M151 11h1M159 11h1M8 12h45M54 12h1M56 12h94M159 12h1M8 13h141M159 13h1M8 14h4M159 14h1M8 15h4M15 15h31M47 15h98M159 15h1M8 16h4M15 16h1M144 16h1M159 16h1M8 17h4M15 17h1M144 17h1M159 17h1M8 18h4M144 18h1M159 18h1M8 19h4M15 19h1M144 19h1M159 19h1M8 20h4M15 20h1M144 20h1M159 20h1M8 21h4M15 21h1M144 21h1M159 21h1M8 22h4M15 22h1M144 22h1M159 22h1M8 23h4M15 23h1M144 23h1M159 23h1M8 24h4M15 24h1M144 24h1M159 24h1M8 25h4M15 25h1M144 25h1M159 25h1M8 26h4M15 26h1M144 26h1M159 26h1M8 27h4M15 27h1M144 27h1M159 27h1M8 28h4M15 28h1M144 28h1M159 28h1M8 29h4M15 29h1M144 29h1M159 29h1M8 30h4M15 30h1M144 30h1M159 30h1M8 31h4M15 31h1M144 31h1M159 31h1M8 32h4M15 32h1M144 32h1M159 32h1M8 33h4M15 33h1M144 33h1M159 33h1M8 34h4M15 34h1M144 34h1M159 34h1M8 35h4M15 35h1M144 35h1M159 35h1M8 36h4M15 36h1M144 36h1M159 36h1M8 37h4M15 37h1M144 37h1M159 37h1M8 38h4M15 38h1M144 38h1M159 38h1M8 39h4M15 39h1M144 39h1M8 40h4M15 40h1M144 40h1M159 40h1M8 41h4M15 41h1M144 41h1M159 41h1M8 42h4M15 42h1M144 42h1M159 42h1M8 43h4M15 43h1M144 43h1M159 43h1M8 44h4M15 44h1M144 44h1M159 44h1M8 45h4M15 45h1M144 45h1M159 45h1M9 46h3M15 46h1M144 46h1M159 46h1M8 47h4M15 47h1M144 47h1M159 47h1M8 48h4M15 48h1M144 48h1M159 48h1M8 49h4M15 49h1M144 49h1M159 49h1M8 50h4M15 50h1M144 50h1M159 50h1M8 51h4M15 51h1M144 51h1M159 51h1M8 52h4M15 52h1M144 52h1M159 52h1M8 53h4M15 53h1M144 53h1M159 53h1M8 54h4M15 54h1M144 54h1M159 54h1M8 55h4M15 55h1M144 55h1M159 55h1M8 56h4M144 56h1M159 56h1M8 57h4M15 57h1M144 57h1M159 57h1M8 58h4M15 58h1M144 58h1M159 58h1M8 59h4M15 59h1M144 59h1M159 59h1M8 60h4M15 60h1M144 60h1M159 60h1M8 61h4M15 61h1M144 61h1M9 62h3M15 62h1M144 62h1M159 62h1M8 63h4M15 63h1M144 63h1M159 63h1M8 64h4M15 64h1M144 64h1M159 64h1M8 65h4M15 65h1M144 65h1M159 65h1M8 66h4M15 66h1M144 66h1M158 66h2M8 67h4M15 67h1M144 67h1M157 67h1M159 67h1M8 68h4M15 68h1M144 68h1M156 68h1M158 68h2M8 69h2M11 69h1M15 69h1M144 69h1M155 69h1M157 69h1M159 69h1M8 70h4M15 70h1M144 70h1M156 70h1M158 70h2M8 71h4M15 71h1M144 71h1M155 71h1M157 71h1M159 71h1M8 72h4M15 72h1M144 72h1M154 72h1M156 72h1M158 72h2M8 73h4M15 73h1M144 73h1M153 73h1M155 73h1M157 73h1M159 73h1M8 74h4M15 74h1M144 74h1M152 74h1M154 74h1M156 74h1M158 74h2M8 75h4M15 75h1M144 75h1M153 75h1M155 75h1M157 75h1M159 75h1M8 76h4M15 76h1M144 76h1M152 76h1M154 76h1M156 76h1M158 76h2M8 77h3M15 77h1M144 77h1M153 77h1M155 77h1M157 77h1M159 77h1M8 78h4M15 78h1M144 78h1M152 78h1M154 78h1M156 78h1M158 78h2M8 79h4M15 79h1M144 79h1M153 79h1M155 79h1M157 79h1M159 79h1M8 80h3M15 80h1M144 80h1M152 80h1M154 80h1M156 80h1M158 80h2M8 81h2M11 81h1M15 81h1M144 81h1M153 81h1M155 81h1M157 81h1M159 81h1M8 82h4M15 82h1M144 82h1M152 82h1M154 82h1M156 82h1M158 82h2M8 83h4M15 83h1M144 83h1M153 83h1M157 83h1M159 83h1M8 84h4M15 84h1M144 84h1M152 84h1M154 84h1M156 84h1M158 84h2M8 85h4M15 85h1M144 85h1M153 85h1M155 85h1M157 85h1M159 85h1M8 86h4M15 86h1M144 86h1M152 86h1M154 86h1M156 86h1M158 86h2M8 87h4M15 87h1M144 87h1M153 87h1M155 87h1M157 87h1M159 87h1M8 88h4M15 88h1M144 88h1M152 88h1M154 88h1M156 88h1M158 88h2M8 89h2M11 89h1M15 89h1M144 89h1M153 89h1M155 89h1M157 89h1M159 89h1M8 90h4M15 90h1M144 90h1M152 90h1M154 90h1M156 90h1M158 90h2M8 91h4M15 91h1M144 91h1M153 91h1M155 91h1M157 91h1M159 91h1M8 92h4M15 92h1M144 92h1M152 92h1M154 92h1M156 92h1M158 92h2M8 93h4M15 93h1M144 93h1M153 93h1M155 93h1M157 93h1M159 93h1M8 94h4M15 94h1M144 94h1M152 94h1M154 94h1M156 94h1M158 94h2M8 95h4M15 95h1M144 95h1M153 95h1M155 95h1M157 95h1M159 95h1M8 96h4M15 96h1M144 96h1M152 96h1M154 96h1M156 96h1M158 96h2M8 97h4M15 97h1M144 97h1M153 97h1M155 97h1M157 97h3M8 98h4M15 98h1M144 98h1M152 98h1M154 98h1M156 98h4M8 99h4M15 99h1M144 99h1M153 99h1M155 99h5M8 100h4M144 100h1M152 100h1M154 100h6M8 101h4M15 101h1M144 101h1M152 101h8M8 102h4M15 102h1M144 102h1M152 102h7M8 103h4M15 103h1M144 103h1M152 103h8M8 104h2M11 104h1M15 104h1M144 104h1M152 104h8M8 105h4M15 105h1M144 105h1M153 105h7M8 106h4M15 106h1M144 106h1M152 106h8M8 107h4M15 107h1M144 107h1M152 107h8M8 108h4M15 108h1M144 108h1M152 108h8M8 109h4M15 109h1M144 109h1M152 109h8M8 110h4M144 110h1M152 110h8M8 111h4M15 111h1M144 111h1M152 111h8M8 112h4M15 112h1M144 112h1M152 112h8M8 113h4M15 113h1M144 113h1M152 113h8M8 114h4M15 114h1M144 114h1M152 114h8M8 115h4M15 115h1M144 115h1M152 115h8M8 116h4M15 116h1M144 116h1M152 116h8M8 117h4M15 117h1M144 117h1M152 117h8M8 118h4M15 118h1M144 118h1M152 118h8M8 119h4M15 119h1M144 119h1M152 119h8M8 120h4M15 120h1M144 120h1M152 120h8M8 121h4M15 121h1M144 121h1M152 121h8M8 122h4M15 122h1M144 122h1M152 122h8M8 123h4M15 123h1M144 123h1M152 123h8M8 124h4M15 124h1M144 124h1M152 124h8M8 125h4M15 125h1M144 125h1M152 125h8M8 126h4M15 126h1M144 126h1M152 126h8M8 127h4M15 127h1M144 127h1M152 127h8M8 128h4M15 128h130M152 128h8M8 129h3M152 129h8M152 130h7M102 131h1M104 131h1M106 131h1M108 131h1M110 131h1M112 131h1M114 131h1M116 131h1M118 131h1M120 131h1M122 131h1M124 131h1M126 131h1M128 131h1M130 131h1M132 131h28M73 132h1M84 132h1M99 132h1M101 132h1M103 132h1M105 132h1M107 132h1M109 132h1M111 132h1M113 132h1M115 132h1M117 132h1M119 132h1M121 132h1M123 132h1M125 132h1M127 132h1M129 132h1M131 132h14M146 132h14M73 133h1M84 133h1M97 133h1M100 133h1M102 133h1M104 133h1M106 133h1M108 133h1M110 133h1M112 133h1M114 133h1M116 133h1M118 133h1M120 133h1M122 133h1M124 133h1M126 133h1M128 133h1M130 133h30M74 134h10M99 134h1M101 134h1M103 134h1M105 134h1M107 134h1M109 134h1M111 134h1M113 134h1M115 134h1M117 134h1M119 134h1M121 134h1M123 134h1M125 134h1M127 134h1M129 134h17M147 134h13M136 135h1M138 135h1M140 135h1M142 135h1M144 135h1M146 135h14M1 136h159M110 137h1M87 138h1M90 138h1M93 138h1M96 138h1M99 138h1M102 138h1M104 138h1M106 138h1M108 138h1M110 138h1M113 138h1M116 138h1M119 138h1M122 138h1M125 138h35M86 139h1M89 139h1M92 139h1M95 139h1M98 139h1M101 139h1M103 139h1M105 139h1M107 139h1M109 139h2M112 139h1M115 139h1M118 139h1M121 139h1M124 139h36M85 140h1M88 140h1M91 140h1M94 140h1M97 140h1M100 140h1M102 140h1M104 140h1M106 140h1M108 140h1M110 140h1M114 140h1M117 140h1M120 140h1M123 140h14M143 140h1M146 140h14M84 141h1M87 141h1M90 141h1M93 141h1M96 141h1M99 141h1M101 141h1M103 141h1M105 141h1M107 141h1M109 141h2M113 141h1M116 141h1M119 141h1M122 141h15M143 141h1M146 141h3M150 141h10M83 142h1M86 142h1M89 142h1M92 142h1M95 142h1M98 142h1M100 142h1M102 142h1M104 142h1M106 142h1M108 142h1M110 142h1M112 142h1M115 142h1M118 142h1M121 142h39M0 143h148M149 143h10" />
<path stroke="#515051" d="M32 2h1M74 5h1M122 5h1M155 5h1M34 9h1M152 14h1M157 15h1M6 31h1M5 44h1M3 61h1M155 62h1M155 74h1M7 81h1M148 111h1M13 129h1M20 131h1M118 132h1M59 134h1" />
<path stroke="#505151" d="M67 2h1M112 5h1M123 6h1M71 10h1M4 23h1M155 25h1M145 29h1M157 29h1M13 32h1M3 36h1M5 43h1M145 44h1M5 52h1M3 60h1M152 64h1M6 72h1M158 79h1M2 109h1M2 112h1M144 129h1M75 135h1M72 138h1M112 140h1M36 141h1" />
<path stroke="#515150" d="M1 4h1M150 5h1M103 7h1M63 8h1M80 9h1M1 19h1M12 23h1M156 23h1M155 36h1M157 55h1M153 65h1M148 79h1M1 82h1M4 103h1M122 132h1M43 133h1" />
<path stroke="#000100" d="M65 11h1M55 12h1M46 15h1M159 61h1M8 62h1M10 69h1M11 77h1M11 80h1M10 81h1M155 83h1M15 100h1M159 130h1M145 132h1M146 134h1" />
<path stroke="#000001" d="M150 11h1M53 12h1M15 56h1M152 105h1M15 110h1M11 129h1M149 141h1" />
<path stroke="#010000" d="M15 18h1M159 39h1M8 46h1M10 89h1M159 102h1M10 104h1M95 133h1M148 143h1" />
<path stroke="#a2a2a2" d="M74 133h10" />
</svg>