<svg xmlns="http://www.w3.org/2000/svg" viewBox="0 -0.5 160 144" shape-rendering="crispEdges">
<metadata>Made with Pixels to Svg https://codepen.io/shshaw/pen/XbxvNj</metadata>
<path stroke="#000000" d="M0 0h18M19 0h3M23 0h102M126 0h13M140 0h20M0 1h7M8 1h13M24 1h21M48 1h31M82 1h26M109 1h10M120 1h4M127 1h11M141 1h11M153 1h7M0 2h7M8 2h14M23 2h6M32 2h13M48 2h15M64 2h7M77 2h1M80 2h1M90 2h17M110 2h15M126 2h5M134 2h5M140 2h8M149 2h3M153 2h7M0 3h6M9 3h20M32 3h13M48 3h14M65 3h4M92 3h16M109 3h22M134 3h17M154 3h6M0 4h5M10 4h19M32 4h3M36 4h17M54 4h9M64 4h4M77 4h1M93 4h38M134 4h16M155 4h5M0 5h1M14 5h20M37 5h21M59 5h8M76 5h1M84 5h1M94 5h8M103 5h11M117 5h20M138 5h8M159 5h1M0 6h2M13 6h7M23 6h12M36 6h21M60 6h6M75 6h2M84 6h2M95 6h6M104 6h10M117 6h6M126 6h17M144 6h3M158 6h1M0 7h4M11 7h9M23 7h31M63 7h2M74 7h2M85 7h2M96 7h2M107 7h7M117 7h6M126 7h23M156 7h4M0 8h5M10 8h10M23 8h20M44 8h6M53 8h2M62 8h2M72 8h4M85 8h4M97 8h2M106 8h17M126 8h1M128 8h22M155 8h5M0 9h4M11 9h39M53 9h3M58 9h1M61 9h15M85 9h15M102 9h1M105 9h2M108 9h30M141 9h8M156 9h4M0 10h4M6 10h3M11 10h32M46 10h4M53 10h3M57 10h3M61 10h14M86 10h14M101 10h3M105 10h15M121 10h17M141 10h8M151 10h3M156 10h4M0 11h3M5 11h5M12 11h31M46 11h28M87 11h24M114 11h17M133 11h5M141 11h7M150 11h5M157 11h3M0 12h3M4 12h7M12 12h6M19 12h9M30 12h13M46 12h8M55 12h19M87 12h12M100 12h11M114 12h6M121 12h9M134 12h14M149 12h7M157 12h3M0 13h17M20 13h7M31 13h6M40 13h13M56 13h22M83 13h15M101 13h4M106 13h5M114 13h5M122 13h8M134 13h24M159 13h1M0 14h18M19 14h8M31 14h6M40 14h14M55 14h5M61 14h18M82 14h17M100 14h20M121 14h10M133 14h27M1 15h27M30 15h7M40 15h34M75 15h85M0 16h1M2 16h14M144 16h7M152 16h8M3 17h13M144 17h6M153 17h7M0 18h1M2 18h14M144 18h7M152 18h8M0 19h11M12 19h4M144 19h5M150 19h10M0 20h10M13 20h3M144 20h1M146 20h14M0 21h11M12 21h4M147 21h8M158 21h2M0 22h2M3 22h13M144 22h1M146 22h9M158 22h2M0 23h16M144 23h11M158 23h2M0 24h3M6 24h10M144 24h7M152 24h8M0 25h3M6 25h10M144 25h4M149 25h5M155 25h5M0 26h3M6 26h10M144 26h3M150 26h3M156 26h4M0 27h16M144 27h3M150 27h4M155 27h5M0 28h16M144 28h3M150 28h10M0 29h10M13 29h3M144 29h16M1 30h9M13 30h3M144 30h10M157 30h3M3 31h7M13 31h3M144 31h10M157 31h3M3 32h13M147 32h7M157 32h3M3 33h13M147 33h13M0 34h16M147 34h13M0 35h16M144 35h16M0 36h5M6 36h10M144 36h16M0 37h4M7 37h6M14 37h2M144 37h6M151 37h9M0 38h5M6 38h3M10 38h3M14 38h2M144 38h5M152 38h8M0 39h8M9 39h3M15 39h1M144 39h6M151 39h4M158 39h2M0 40h13M14 40h2M144 40h11M158 40h2M0 41h16M144 41h11M158 41h2M0 42h3M6 42h10M144 42h16M0 43h3M6 43h10M144 43h2M147 43h1M151 43h9M0 44h3M6 44h10M144 44h4M151 44h9M0 45h8M9 45h7M144 45h4M151 45h9M0 46h16M144 46h16M0 47h16M144 47h6M151 47h9M0 48h11M13 48h3M144 48h16M0 49h1M2 49h8M14 49h2M144 49h11M157 49h3M3 50h7M14 50h2M144 50h1M146 50h8M158 50h2M0 51h1M2 51h9M13 51h3M147 51h7M158 51h2M0 52h16M144 52h1M146 52h9M157 52h3M0 53h5M7 53h9M144 53h12M157 53h3M0 54h4M7 54h9M144 54h12M157 54h3M0 55h5M6 55h7M14 55h2M144 55h5M152 55h8M0 56h12M15 56h1M144 56h5M153 56h7M0 57h13M14 57h2M144 57h5M152 57h5M158 57h2M0 58h16M144 58h12M159 58h1M0 59h1M2 59h9M12 59h4M144 59h13M158 59h2M3 60h2M10 60h6M144 60h16M0 61h1M2 61h2M12 61h4M144 61h16M0 62h4M13 62h3M144 62h2M149 62h5M157 62h3M0 63h3M13 63h3M144 63h2M157 63h3M0 64h3M13 64h3M144 64h2M157 64h3M0 65h3M13 65h3M144 65h2M157 65h3M0 66h3M13 66h3M144 66h3M156 66h4M0 67h2M13 67h3M144 67h3M156 67h4M0 68h2M13 68h3M144 68h3M156 68h4M0 69h2M13 69h3M144 69h4M155 69h4M0 70h2M13 70h3M144 70h5M154 70h6M0 71h2M13 71h3M144 71h3M156 71h4M0 72h3M12 72h4M144 72h2M157 72h3M0 73h3M12 73h4M144 73h1M158 73h2M0 74h2M13 74h3M144 74h1M158 74h2M0 75h1M14 75h2M144 75h1M158 75h2M0 76h1M14 76h2M144 76h1M158 76h2M0 77h1M14 77h2M144 77h1M158 77h2M0 78h1M14 78h2M144 78h3M156 78h4M0 79h1M14 79h2M144 79h2M156 79h4M0 80h2M13 80h3M144 80h3M156 80h4M0 81h3M12 81h4M144 81h3M155 81h5M0 82h16M144 82h4M155 82h5M0 83h16M144 83h16M0 84h1M2 84h14M144 84h16M3 85h13M144 85h16M0 86h1M2 86h14M144 86h16M0 87h12M13 87h3M144 87h11M156 87h4M0 88h16M144 88h2M147 88h7M157 88h3M0 89h16M144 89h11M156 89h4M0 90h11M12 90h4M144 90h16M0 91h3M6 91h4M11 91h5M144 91h16M0 92h3M6 92h10M144 92h3M150 92h7M158 92h2M0 93h3M6 93h10M144 93h3M150 93h10M0 94h16M144 94h3M150 94h10M0 95h10M13 95h3M144 95h16M0 96h10M13 96h3M144 96h10M157 96h3M0 97h1M2 97h8M13 97h3M144 97h10M157 97h3M3 98h13M147 98h7M157 98h3M0 99h1M2 99h14M147 99h13M0 100h16M147 100h8M156 100h4M0 101h16M144 101h4M149 101h11M0 102h16M144 102h16M0 103h4M5 103h11M144 103h5M150 103h10M0 104h16M144 104h4M151 104h9M0 105h12M13 105h3M144 105h5M150 105h10M0 106h11M14 106h2M144 106h12M157 106h3M0 107h12M13 107h3M144 107h11M158 107h2M0 108h6M7 108h9M144 108h12M157 108h3M0 109h4M5 109h11M144 109h3M150 109h3M154 109h6M0 110h3M6 110h10M144 110h3M150 110h10M0 111h4M6 111h10M144 111h3M150 111h1M152 111h8M0 112h16M144 112h16M0 113h16M144 113h16M0 114h11M13 114h3M144 114h7M152 114h8M0 115h10M14 115h2M144 115h16M0 116h1M2 116h8M14 116h2M144 116h1M146 116h14M0 117h11M13 117h3M147 117h8M157 117h3M0 118h16M144 118h1M146 118h8M158 118h2M0 119h4M5 119h11M144 119h10M158 119h2M0 120h16M144 120h11M157 120h3M0 121h16M144 121h2M149 121h11M0 122h11M13 122h3M144 122h2M149 122h11M0 123h10M14 123h2M144 123h2M149 123h11M0 124h10M14 124h2M144 124h12M157 124h3M0 125h11M13 125h3M145 125h7M153 125h2M158 125h2M0 126h16M144 126h12M157 126h3M0 127h7M8 127h7M144 127h16M0 128h47M48 128h28M77 128h7M85 128h36M122 128h13M136 128h24M0 129h7M8 129h38M49 129h28M78 129h5M86 129h34M123 129h11M137 129h15M153 129h7M0 130h7M8 130h22M31 130h16M48 130h5M56 130h26M87 130h32M120 130h1M122 130h5M130 130h5M136 130h16M153 130h7M0 131h6M9 131h11M21 131h15M39 131h14M56 131h25M88 131h19M108 131h19M130 131h9M141 131h10M154 131h6M0 132h5M10 132h9M22 132h3M28 132h8M39 132h14M56 132h11M68 132h12M89 132h9M100 132h27M130 132h8M142 132h8M155 132h5M0 133h1M14 133h6M21 133h4M28 133h8M39 133h20M60 133h6M69 133h10M90 133h8M101 133h10M114 133h24M142 133h4M159 133h1M0 134h2M13 134h12M28 134h35M72 134h6M91 134h4M104 134h7M114 134h5M122 134h17M141 134h6M158 134h2M0 135h4M11 135h34M48 135h7M56 135h3M62 135h2M71 135h6M90 135h6M103 135h8M114 135h5M122 135h27M156 135h4M0 136h5M10 136h35M48 136h11M62 136h3M67 136h1M70 136h6M89 136h8M99 136h1M102 136h17M122 136h28M155 136h1M157 136h3M0 137h4M11 137h19M31 137h14M48 137h11M62 137h3M66 137h3M70 137h7M88 137h9M98 137h3M102 137h20M123 137h11M137 137h12M156 137h4M0 138h4M6 138h3M11 138h18M32 138h46M87 138h47M137 138h12M151 138h3M156 138h4M0 139h3M5 139h5M12 139h7M21 139h9M31 139h7M39 139h14M55 139h24M86 139h21M108 139h1M112 139h15M129 139h5M137 139h4M142 139h6M150 139h5M157 139h3M0 140h3M4 140h7M12 140h6M22 140h15M40 140h3M44 140h8M56 140h24M85 140h24M112 140h5M118 140h8M130 140h10M143 140h5M149 140h7M157 140h3M0 141h18M22 141h16M39 141h3M45 141h7M56 141h25M84 141h25M112 141h4M119 141h7M130 141h11M143 141h17M0 142h19M21 142h9M31 142h12M44 142h9M55 142h11M67 142h4M72 142h10M83 142h34M118 142h9M129 142h21M152 142h8M0 143h40M41 143h34M76 143h24M101 143h59" />
<path stroke="#010000" d="M18 0h1M119 1h1M148 2h1M53 4h1M159 6h1M43 8h1M127 8h1M158 13h1M0 15h1M149 19h1M2 22h1M0 30h1M146 43h1M156 54h1M159 69h1M146 79h1M146 88h1M157 92h1M155 100h1M148 101h1M6 108h1M76 128h1M119 130h1M59 133h1M107 139h1M71 142h1M40 143h1M100 143h1" />
<path stroke="#a2a2a2" d="M22 0h1M125 0h1M21 1h1M23 1h1M108 1h1M124 1h1M126 1h1M138 1h1M140 1h1M22 2h1M29 2h1M31 2h1M63 2h1M71 2h1M76 2h1M83 2h2M89 2h1M107 2h1M109 2h1M125 2h1M131 2h1M133 2h1M139 2h1M62 3h1M64 3h1M69 3h1M74 3h2M78 3h1M81 3h2M85 3h2M91 3h1M108 3h1M29 4h1M31 4h1M35 4h1M63 4h1M72 4h2M83 4h1M87 4h2M131 4h1M133 4h1M34 5h1M36 5h1M70 5h2M77 5h1M83 5h1M89 5h2M20 6h1M22 6h1M35 6h1M69 6h1M91 6h1M123 6h1M125 6h1M54 7h1M62 7h1M68 7h1M73 7h1M76 7h1M84 7h1M87 7h1M92 7h1M98 7h1M106 7h1M20 8h1M22 8h1M50 8h1M52 8h1M55 8h1M61 8h1M70 8h2M76 8h1M84 8h1M89 8h2M99 8h1M105 8h1M123 8h1M125 8h1M76 9h1M84 9h1M138 9h1M140 9h1M43 10h1M45 10h1M50 10h1M52 10h1M75 10h1M84 10h2M74 11h1M86 11h1M111 11h1M113 11h1M132 11h1M138 11h1M140 11h1M18 12h1M28 12h2M43 12h1M45 12h1M54 12h1M74 12h13M99 12h1M120 12h1M130 12h1M133 12h1M17 13h1M19 13h1M27 13h1M30 13h1M53 13h1M55 13h1M78 13h1M82 13h1M98 13h1M100 13h1M111 13h1M113 13h1M119 13h1M121 13h1M130 13h1M133 13h1M18 14h1M27 14h1M30 14h1M54 14h1M79 14h3M99 14h1M120 14h1M131 14h2M28 15h2M1 16h1M151 16h1M0 17h1M2 17h1M150 17h1M152 17h1M1 18h1M151 18h1M11 19h1M10 20h1M12 20h1M145 20h1M11 21h1M144 21h1M146 21h1M145 22h1M154 25h1M153 26h1M155 26h1M154 27h1M10 29h1M12 29h1M154 30h1M156 30h1M0 31h1M2 31h1M10 31h1M12 31h1M144 32h1M146 32h1M154 32h1M156 32h1M0 33h1M2 33h1M144 34h1M146 34h1M5 36h1M4 37h1M6 37h1M150 37h1M5 38h1M13 38h1M149 38h1M151 38h1M12 39h1M14 39h1M150 39h1M155 39h1M157 39h1M13 40h1M155 41h1M157 41h1M3 42h1M5 42h1M148 43h1M150 43h1M3 44h1M5 44h1M148 45h1M150 45h1M11 48h2M1 49h1M10 49h1M13 49h1M155 49h2M0 50h1M2 50h1M10 50h1M13 50h1M145 50h1M154 50h1M157 50h1M1 51h1M11 51h2M144 51h1M146 51h1M154 51h1M157 51h1M145 52h1M155 52h2M5 53h1M4 54h1M6 54h1M5 55h1M13 55h1M149 55h1M151 55h1M12 56h1M14 56h1M13 57h1M149 57h1M157 57h1M156 58h1M158 58h1M1 59h1M157 59h1M0 60h1M2 60h1M5 60h1M1 61h1M4 61h1M4 62h1M3 63h1M5 64h4M3 65h1M10 65h1M146 65h1M156 65h1M2 67h1M12 67h1M2 71h1M12 71h1M3 72h1M11 72h1M3 73h2M10 73h2M145 73h1M157 73h1M2 74h1M5 74h5M12 74h1M1 75h1M13 75h1M151 78h1M1 79h1M13 79h1M151 79h1M155 79h1M151 80h1M155 80h1M3 81h1M11 81h1M147 81h1M151 81h1M151 82h1M1 84h1M0 85h1M1 86h1M155 87h1M154 88h1M156 88h1M155 89h1M3 91h1M5 91h1M3 93h1M5 93h1M10 95h1M12 95h1M154 96h1M156 96h1M1 97h1M10 97h1M12 97h1M0 98h1M2 98h1M144 98h1M146 98h1M154 98h1M156 98h1M1 99h1M144 100h1M146 100h1M149 103h1M148 104h1M150 104h1M12 105h1M149 105h1M11 106h1M13 106h1M156 106h1M12 107h1M155 107h1M157 107h1M156 108h1M4 109h1M147 109h1M149 109h1M3 110h1M5 110h1M4 111h1M147 111h1M149 111h1M11 114h2M10 115h1M13 115h1M10 116h1M13 116h1M145 116h1M11 117h2M144 117h1M146 117h1M155 117h2M145 118h1M154 118h1M157 118h1M154 119h1M157 119h1M155 120h2M146 121h1M148 121h1M11 122h2M10 123h1M13 123h1M146 123h1M148 123h1M10 124h1M13 124h1M156 124h1M11 125h2M155 125h1M157 125h1M156 126h1M47 128h1M121 128h1M135 128h1M48 129h1M120 129h1M122 129h1M134 129h1M136 129h1M47 130h1M53 130h1M121 130h1M127 130h1M129 130h1M135 130h1M20 131h1M36 131h1M38 131h1M139 131h2M19 132h1M21 132h1M25 132h1M27 132h1M53 132h1M55 132h1M127 132h1M129 132h1M138 132h1M141 132h1M20 133h1M36 133h1M38 133h1M138 133h1M141 133h1M25 134h1M27 134h1M63 134h1M71 134h1M95 134h1M103 134h1M121 134h1M139 134h2M45 135h1M47 135h1M59 135h1M61 135h1M64 135h1M70 135h1M96 135h1M102 135h1M119 136h1M121 136h1M30 137h1M45 137h1M47 137h1M59 137h1M61 137h1M134 137h1M136 137h1M29 138h1M31 138h1M19 139h2M30 139h1M38 139h1M53 139h2M109 139h1M111 139h1M127 139h2M134 139h1M136 139h1M141 139h1M18 140h1M21 140h1M37 140h1M39 140h1M43 140h1M52 140h1M55 140h1M117 140h1M126 140h1M129 140h1M140 140h1M18 141h1M21 141h1M38 141h1M42 141h1M44 141h1M52 141h1M55 141h1M109 141h1M111 141h1M116 141h1M118 141h1M126 141h1M129 141h1M141 141h1M19 142h2M43 142h1M53 142h2M117 142h1M127 142h2" />
<path stroke="#a2a3a2" d="M139 0h1M79 3h1M131 11h1M151 57h1M46 129h1M119 134h1" />
<path stroke="#ffffff" d="M7 1h1M22 1h1M45 1h3M79 1h3M125 1h1M139 1h1M152 1h1M7 2h1M30 2h1M45 2h3M72 2h4M78 2h2M81 2h2M85 2h4M108 2h1M132 2h1M152 2h1M6 3h3M29 3h3M45 3h3M63 3h1M70 3h1M72 3h2M76 3h2M80 3h1M83 3h2M87 3h4M131 3h3M151 3h3M5 4h5M30 4h1M68 4h4M74 4h3M78 4h5M84 4h3M89 4h4M132 4h1M150 4h5M1 5h12M35 5h1M58 5h1M67 5h3M72 5h4M78 5h5M85 5h4M91 5h3M102 5h1M114 5h3M146 5h13M2 6h11M21 6h1M57 6h3M66 6h3M70 6h5M77 6h7M86 6h5M92 6h3M101 6h3M114 6h3M124 6h1M147 6h11M4 7h7M20 7h3M55 7h7M65 7h3M69 7h4M77 7h7M88 7h4M93 7h3M99 7h7M114 7h3M123 7h3M149 7h7M5 8h5M21 8h1M51 8h1M56 8h5M64 8h6M77 8h7M91 8h6M100 8h5M124 8h1M150 8h5M4 9h7M50 9h3M56 9h2M59 9h2M77 9h7M100 9h2M103 9h2M139 9h1M150 9h6M4 10h2M9 10h2M44 10h1M51 10h1M56 10h1M60 10h1M76 10h8M100 10h1M104 10h1M138 10h3M149 10h2M154 10h2M3 11h2M10 11h2M43 11h3M75 11h11M112 11h1M139 11h1M148 11h2M155 11h2M3 12h1M11 12h1M44 12h1M111 12h3M131 12h2M148 12h1M156 12h1M18 13h1M28 13h2M37 13h3M54 13h1M79 13h3M99 13h1M112 13h1M120 13h1M131 13h2M28 14h2M37 14h3M37 15h3M1 17h1M151 17h1M11 20h1M145 21h1M155 21h3M155 22h3M155 23h3M3 24h3M3 25h3M3 26h3M147 26h3M154 26h1M147 27h3M147 28h3M11 29h1M10 30h3M155 30h1M1 31h1M154 31h3M0 32h3M145 32h1M155 32h1M1 33h1M144 33h3M145 34h1M5 37h1M150 38h1M13 39h1M156 39h1M155 40h3M156 41h1M4 42h1M3 43h3M149 43h1M4 44h1M148 44h3M149 45h1M11 49h2M1 50h1M11 50h2M155 50h2M145 51h1M155 51h2M5 54h1M150 55h1M13 56h1M149 56h1M151 56h1M150 57h1M157 58h1M1 60h1M146 62h3M155 62h2M146 63h1M148 63h7M156 63h1M146 64h1M148 64h7M156 64h1M4 65h6M147 65h9M3 66h9M147 66h2M150 66h3M154 66h2M3 67h1M6 67h3M11 67h1M147 67h4M152 67h4M2 68h11M147 68h3M151 68h1M153 68h3M2 69h3M6 69h3M10 69h3M148 69h7M2 70h11M149 70h5M3 71h3M9 71h3M147 71h2M151 71h1M154 71h2M4 72h7M146 72h3M154 72h3M5 73h5M146 73h3M150 73h3M154 73h3M3 74h2M10 74h2M146 74h12M2 75h3M6 75h7M145 75h3M149 75h5M155 75h3M1 76h13M145 76h13M1 77h13M145 77h2M148 77h6M156 77h2M1 78h13M147 78h4M152 78h4M2 79h11M147 79h4M152 79h3M2 80h11M147 80h4M152 80h3M4 81h7M148 81h3M152 81h3M148 82h3M152 82h3M1 85h1M12 87h1M155 88h1M4 91h1M3 92h3M147 92h3M4 93h1M147 93h3M147 94h3M11 95h1M10 96h3M155 96h1M11 97h1M154 97h3M1 98h1M145 98h1M155 98h1M144 99h3M145 100h1M4 103h1M149 104h1M12 106h1M156 107h1M148 109h1M4 110h1M147 110h3M148 111h1M11 115h2M1 116h1M11 116h2M145 117h1M155 118h2M4 119h1M155 119h2M147 121h1M146 122h3M11 123h2M147 123h1M11 124h2M156 125h1M84 128h1M7 129h1M47 129h1M83 129h2M121 129h1M135 129h1M152 129h1M7 130h1M54 130h1M82 130h3M86 130h1M128 130h1M152 130h1M6 131h3M37 131h1M53 131h3M81 131h6M127 131h3M151 131h3M5 132h5M20 132h1M26 132h1M36 132h3M54 132h1M67 132h1M80 132h3M84 132h3M88 132h1M99 132h1M128 132h1M139 132h2M150 132h5M1 133h13M25 133h3M37 133h1M66 133h3M79 133h3M83 133h2M86 133h3M98 133h3M111 133h3M139 133h2M146 133h13M2 134h11M26 134h1M64 134h7M78 134h3M82 134h2M85 134h4M90 134h1M96 134h7M111 134h3M120 134h1M147 134h11M4 135h7M46 135h1M60 135h1M65 135h5M77 135h2M80 135h6M89 135h1M97 135h5M111 135h3M119 135h3M149 135h7M5 136h5M46 136h2M59 136h3M65 136h2M68 136h2M76 136h1M78 136h4M83 136h3M88 136h1M97 136h2M100 136h2M120 136h1M150 136h5M4 137h7M46 137h1M60 137h1M65 137h1M69 137h1M78 137h3M82 137h6M97 137h1M101 137h1M135 137h1M149 137h7M4 138h2M9 138h2M30 138h1M78 138h1M80 138h7M134 138h3M149 138h2M154 138h2M3 139h2M10 139h2M80 139h6M110 139h1M135 139h1M148 139h2M155 139h2M3 140h1M11 140h1M19 140h2M38 140h1M53 140h2M80 140h1M82 140h3M109 140h3M127 140h2M141 140h1M148 140h1M156 140h1M19 141h2M43 141h1M53 141h2M82 141h2M110 141h1M117 141h1M127 141h2M82 142h1" />
<path stroke="#fffffe" d="M71 3h1M149 9h1M150 56h1M5 75h1" />
<path stroke="#feffff" d="M13 5h1M11 31h1M154 62h1M145 74h1M154 77h1" />
<path stroke="#000100" d="M137 5h1M120 10h1M105 13h1M151 24h1M152 56h1M11 59h1M153 109h1M151 111h1M151 114h1M152 125h1M15 127h1M30 130h1M107 131h1M55 135h1M156 136h1M122 137h1M142 141h1M30 142h1M66 142h1M150 142h1" />
<path stroke="#000001" d="M143 6h1M107 9h1M60 14h1M74 15h1M148 25h1M13 37h1M9 38h1M8 39h1M8 45h1M150 47h1M6 53h1M156 53h1M11 90h1M10 91h1M5 111h1M144 125h1M7 127h1M77 129h1M98 132h1M151 142h1M75 143h1" />
<path stroke="#515151" d="M6 60h4M5 61h7M5 62h8M4 63h9M147 63h1M155 63h1M3 64h2M9 64h4M147 64h1M155 64h1M11 65h2M12 66h1M149 66h1M153 66h1M4 67h1M9 67h2M151 67h1M150 68h1M152 68h1M5 69h1M9 69h1M6 71h3M149 71h2M152 71h2M149 72h5M149 73h1M153 73h1M148 75h1M154 75h1M147 77h1M155 77h1M85 129h1M85 130h1M87 131h1M83 132h1M87 132h1M82 133h1M85 133h1M89 133h1M81 134h1M84 134h1M89 134h1M79 135h1M86 135h1M77 136h1M82 136h1M86 136h2M77 137h1M81 137h1M79 138h1M79 139h1M81 140h1M81 141h1" />
<path stroke="#505151" d="M5 67h1M87 135h1" />
<path stroke="#a3a2a2" d="M2 85h1M142 140h1" />
<path stroke="#a2a2a3" d="M55 130h1" />
<path stroke="#fffeff" d="M88 135h1M45 136h1" />
</svg>