<svg xmlns="http://www.w3.org/2000/svg" viewBox="0 -0.5 160 144" shape-rendering="crispEdges">
<metadata>Made with Pixels to Svg https://codepen.io/shshaw/pen/XbxvNj</metadata>
<path stroke="#ffffff" d="M0 0h22M23 0h8M32 0h36M69 0h38M108 0h52M0 1h1M0 2h1M0 3h1M0 4h1M0 5h1M0 6h1M0 7h1M0 8h1M0 9h1M0 10h1M0 11h1M0 12h1M0 13h1M0 14h1M0 15h1M0 16h1M0 17h1M0 18h1M0 19h1M0 20h1M0 21h1M0 22h1M0 23h1M0 24h1M0 25h1M0 26h1M0 27h1M0 28h1M0 29h1M0 30h1M0 31h1M0 32h1M0 33h1M0 34h1M0 35h1M0 36h1M0 37h1M0 38h1M0 39h1M0 40h1M0 41h1M0 42h1M0 43h1M0 44h1M0 45h1M0 46h1M0 47h1M0 48h1M0 49h1M0 50h1M0 51h1M0 52h1M0 53h1M0 54h1M0 55h1M0 56h1M0 57h1M0 58h1M0 59h1M0 60h1M0 61h1M0 62h1M0 63h1M0 64h1M0 65h1M0 66h1M0 67h1M0 68h1M0 69h1M0 70h1M0 71h1M0 72h1M0 73h1M0 74h1M0 75h1M0 76h1M0 77h1M0 78h1M0 79h1M0 80h1M0 81h1M0 82h1M0 83h1M0 84h1M0 85h1M0 86h1M0 87h1M0 88h1M0 89h1M0 90h1M0 91h1M0 92h1M0 93h1M0 94h1M0 95h1M0 96h1M0 97h1M0 98h1M0 99h1M0 100h1M0 101h1M0 102h1M0 103h1M0 104h1M0 105h1M0 106h1M0 107h1M0 108h1M0 109h1M0 110h1M0 111h1M0 112h1M0 113h1M0 114h1M0 115h1M0 116h1M0 117h1M0 118h1M0 119h1M0 120h1M0 121h1M0 123h1M0 124h1M0 125h1M0 126h1M0 127h1M0 128h1M0 129h1M0 130h1M0 131h1M0 132h1M0 134h1M0 135h1M0 136h1M0 137h1M0 138h1M0 139h1M0 140h1M0 141h1M0 142h1M0 143h1" />
<path stroke="#fffeff" d="M22 0h1M31 0h1M0 133h1" />
<path stroke="#fffffe" d="M68 0h1M107 0h1M0 122h1" />
<path stroke="#a2a2a2" d="M1 1h1M7 1h52M60 1h90M153 1h6M1 2h3M6 2h10M19 2h5M26 2h2M38 2h1M40 2h1M48 2h15M65 2h2M68 2h2M79 2h2M82 2h1M87 2h2M90 2h10M103 2h4M111 2h2M114 2h2M123 2h1M130 2h16M147 2h4M156 2h3M1 3h14M16 3h3M21 3h3M25 3h2M28 3h2M38 3h1M40 3h1M45 3h2M48 3h9M61 3h2M64 3h6M75 3h1M79 3h1M82 3h2M85 3h1M87 3h2M90 3h2M94 3h7M102 3h2M105 3h3M111 3h1M114 3h2M120 3h2M127 3h2M130 3h2M134 3h12M149 3h1M151 3h4M157 3h2M1 4h3M5 4h7M14 4h2M22 4h1M25 4h5M33 4h1M37 4h1M40 4h2M43 4h1M45 4h2M48 4h2M52 4h6M61 4h1M64 4h6M78 4h1M80 4h6M87 4h5M94 4h10M105 4h4M110 4h2M114 4h3M118 4h1M120 4h2M123 4h1M125 4h1M127 4h2M130 4h1M134 4h9M144 4h2M154 4h1M157 4h2M1 5h2M7 5h5M14 5h1M21 5h2M27 5h2M36 5h1M38 5h6M45 5h4M52 5h7M60 5h2M66 5h3M78 5h3M82 5h2M86 5h5M92 5h2M95 5h8M104 5h7M112 5h7M120 5h6M127 5h4M132 5h2M135 5h3M139 5h1M143 5h4M148 5h2M151 5h1M155 5h4M1 6h2M8 6h4M13 6h2M21 6h3M25 6h5M35 6h4M40 6h2M44 6h5M50 6h2M53 6h8M62 6h1M64 6h6M76 6h1M78 6h1M80 6h3M86 6h3M92 6h1M95 6h7M104 6h6M112 6h2M115 6h2M119 6h3M123 6h1M126 6h5M132 6h1M135 6h3M140 6h1M143 6h4M148 6h11M1 7h1M3 7h1M8 7h6M20 7h10M35 7h2M38 7h3M44 7h3M50 7h1M53 7h7M62 7h5M68 7h2M76 7h2M86 7h1M88 7h2M92 7h1M95 7h5M101 7h1M104 7h6M112 7h4M119 7h4M126 7h3M132 7h1M135 7h6M142 7h6M149 7h1M151 7h6M158 7h1M1 8h1M3 8h1M8 8h7M16 8h11M28 8h2M32 8h2M44 8h1M46 8h2M50 8h1M53 8h5M59 8h1M62 8h5M73 8h2M80 8h2M85 8h5M91 8h1M94 8h2M97 8h2M101 8h1M104 8h4M115 8h2M126 8h4M132 8h1M134 8h4M139 8h6M146 8h4M151 8h8M1 9h1M3 9h1M8 9h2M11 9h1M13 9h2M16 9h11M30 9h1M35 9h1M38 9h2M43 9h5M49 9h1M52 9h2M55 9h2M59 9h1M62 9h5M70 9h1M79 9h1M82 9h2M85 9h1M87 9h5M95 9h2M102 9h4M111 9h1M120 9h2M125 9h5M131 9h1M135 9h2M139 9h2M142 9h8M152 9h1M155 9h4M1 10h1M4 10h1M11 10h4M17 10h2M21 10h4M30 10h2M33 10h1M37 10h1M40 10h2M43 10h1M45 10h6M53 10h2M60 10h7M68 10h4M75 10h1M78 10h3M86 10h6M94 10h2M97 10h1M99 10h1M101 10h7M109 10h4M116 10h1M119 10h1M122 10h2M125 10h1M127 10h6M134 10h9M144 10h1M146 10h6M154 10h5M1 11h2M4 11h3M8 11h4M13 11h5M21 11h6M28 11h6M36 11h3M44 11h6M52 11h2M55 11h1M57 11h1M59 11h5M65 11h8M74 11h1M77 11h4M83 11h4M88 11h4M96 11h4M101 11h4M106 11h8M115 11h1M118 11h3M126 11h6M134 11h2M137 11h2M144 11h2M147 11h7M155 11h4M1 12h3M6 12h5M14 12h4M21 12h3M26 12h1M29 12h4M36 12h3M41 12h4M46 12h4M54 12h4M59 12h4M66 12h1M69 12h6M77 12h14M94 12h6M102 12h2M107 12h1M110 12h6M118 12h3M123 12h4M128 12h4M136 12h2M139 12h1M144 12h3M148 12h2M151 12h1M155 12h4M1 13h3M7 13h2M10 13h2M13 13h5M19 13h6M27 13h2M30 13h1M32 13h9M42 13h7M52 13h6M61 13h2M67 13h2M70 13h2M73 13h1M77 13h27M108 13h2M111 13h2M114 13h1M118 13h13M134 13h6M141 13h1M144 13h2M147 13h1M149 13h4M155 13h4M1 14h5M7 14h4M14 14h47M62 14h77M140 14h13M154 14h1M156 14h3M1 15h11M13 15h1M145 15h4M150 15h9M1 16h1M3 16h1M8 16h2M11 16h3M145 16h5M151 16h8M1 17h1M3 17h1M8 17h3M12 17h2M145 17h3M149 17h10M1 18h2M8 18h3M12 18h2M145 18h2M148 18h11M1 19h2M8 19h2M12 19h2M145 19h2M148 19h2M151 19h1M155 19h4M1 20h3M5 20h3M11 20h3M145 20h1M154 20h1M157 20h2M1 21h9M11 21h3M145 21h1M149 21h1M151 21h4M157 21h2M1 22h3M6 22h1M8 22h6M145 22h1M147 22h4M156 22h3M1 23h1M7 23h5M13 23h1M145 23h4M153 23h6M1 24h1M3 24h2M6 24h4M11 24h1M145 24h7M153 24h2M158 24h1M1 25h4M6 25h4M11 25h1M145 25h12M158 25h1M1 26h2M4 26h4M13 26h1M145 26h2M148 26h9M158 26h1M1 27h1M3 27h6M11 27h1M13 27h1M145 27h4M150 27h4M158 27h1M1 28h1M3 28h2M6 28h3M11 28h2M145 28h3M149 28h2M154 28h2M158 28h1M1 29h1M9 29h5M145 29h3M154 29h1M158 29h1M1 30h1M10 30h3M145 30h3M149 30h1M153 30h6M1 31h1M8 31h1M11 31h3M145 31h2M149 31h1M152 31h1M154 31h1M158 31h1M1 32h1M4 32h1M8 32h1M10 32h2M13 32h1M145 32h2M150 32h1M152 32h5M158 32h1M1 33h1M13 33h1M145 33h4M150 33h1M152 33h5M158 33h1M1 34h1M6 34h2M9 34h1M13 34h1M145 34h5M152 34h2M158 34h1M1 35h1M5 35h3M11 35h3M145 35h4M154 35h2M158 35h1M1 36h1M4 36h1M6 36h1M10 36h4M145 36h1M154 36h1M158 36h1M1 37h3M5 37h3M9 37h1M11 37h3M145 37h1M149 37h1M151 37h1M153 37h3M158 37h1M1 38h1M5 38h1M7 38h1M9 38h1M13 38h1M145 38h1M147 38h2M151 38h3M155 38h4M1 39h3M5 39h3M10 39h1M13 39h1M145 39h3M152 39h1M154 39h5M1 40h1M4 40h3M10 40h1M12 40h2M145 40h1M147 40h2M152 40h3M158 40h1M1 41h1M12 41h2M145 41h5M152 41h3M157 41h2M1 42h1M4 42h2M10 42h1M12 42h2M145 42h6M155 42h4M1 43h1M6 43h4M11 43h3M145 43h1M147 43h3M154 43h2M158 43h1M1 44h1M3 44h9M13 44h1M145 44h2M148 44h2M152 44h3M158 44h1M1 45h1M3 45h11M145 45h2M148 45h1M152 45h4M158 45h1M1 46h1M5 46h2M8 46h6M145 46h1M147 46h3M151 46h6M158 46h1M1 47h6M10 47h4M145 47h1M148 47h2M151 47h8M1 48h4M9 48h4M145 48h1M149 48h10M1 49h3M6 49h3M10 49h1M145 49h1M148 49h7M157 49h2M1 50h3M6 50h1M145 50h6M155 50h4M1 51h5M9 51h1M11 51h1M13 51h1M145 51h6M154 51h3M158 51h1M1 52h11M13 52h1M145 52h2M148 52h2M151 52h5M158 52h1M1 53h8M10 53h1M12 53h2M145 53h2M153 53h4M158 53h1M1 54h6M8 54h2M11 54h3M145 54h5M152 54h7M1 55h9M12 55h2M145 55h4M151 55h8M1 56h2M4 56h5M11 56h3M145 56h5M151 56h8M1 57h2M5 57h3M145 57h4M150 57h1M152 57h7M1 58h2M6 58h4M11 58h2M145 58h3M149 58h10M1 59h2M5 59h2M10 59h3M145 59h3M149 59h1M151 59h1M155 59h4M1 60h5M10 60h4M145 60h2M154 60h1M157 60h2M1 61h1M3 61h1M6 61h8M145 61h2M150 61h1M152 61h3M157 61h2M1 62h1M7 62h5M145 62h2M148 62h4M155 62h4M1 63h1M3 63h2M6 63h5M145 63h6M154 63h5M1 64h4M6 64h6M145 64h8M154 64h2M158 64h1M1 65h12M145 65h14M1 66h1M3 66h4M11 66h1M13 66h1M145 66h3M149 66h10M1 67h7M10 67h2M13 67h1M145 67h5M151 67h4M158 67h1M1 68h4M6 68h2M10 68h3M145 68h4M150 68h2M155 68h2M158 68h1M1 69h1M9 69h5M145 69h4M155 69h1M158 69h1M1 70h1M10 70h4M145 70h4M150 70h1M154 70h3M158 70h1M1 71h1M11 71h2M145 71h3M150 71h1M153 71h6M1 72h1M8 72h1M12 72h2M145 72h3M151 72h1M153 72h1M155 72h1M158 72h1M1 73h1M8 73h1M11 73h2M145 73h5M151 73h1M153 73h3M157 73h2M1 74h1M3 74h1M10 74h1M145 74h6M154 74h1M156 74h3M1 75h1M6 75h2M145 75h5M153 75h2M158 75h1M1 76h1M5 76h1M7 76h1M11 76h3M145 76h4M152 76h1M154 76h1M158 76h1M1 77h1M4 77h3M10 77h4M145 77h1M152 77h2M158 77h1M1 78h3M5 78h1M9 78h5M145 78h1M149 78h1M156 78h1M158 78h1M1 79h2M4 79h3M8 79h1M10 79h4M145 79h1M147 79h2M151 79h1M158 79h1M1 80h1M4 80h1M6 80h1M8 80h1M12 80h2M145 80h3M151 80h1M158 80h1M1 81h5M9 81h1M12 81h2M145 81h1M147 81h2M158 81h1M1 82h1M3 82h3M9 82h1M11 82h3M145 82h5M158 82h1M1 83h1M4 83h1M11 83h2M145 83h6M158 83h1M1 84h1M3 84h2M8 84h2M11 84h3M145 84h1M147 84h3M152 84h2M155 84h4M1 85h1M5 85h4M10 85h4M145 85h2M148 85h2M152 85h7M1 86h10M12 86h2M145 86h2M148 86h1M153 86h4M158 86h1M1 87h13M145 87h1M147 87h12M1 88h1M4 88h2M7 88h7M145 88h1M148 88h6M155 88h4M1 89h5M9 89h5M145 89h1M149 89h1M151 89h3M155 89h1M158 89h1M1 90h4M8 90h4M13 90h1M145 90h1M148 90h5M158 90h1M1 91h2M5 91h3M9 91h1M13 91h1M145 91h9M156 91h3M1 92h2M5 92h1M13 92h1M145 92h5M154 92h5M1 93h4M8 93h1M10 93h1M12 93h2M145 93h1M147 93h3M153 93h2M157 93h2M1 94h10M12 94h2M145 94h1M147 94h2M150 94h4M157 94h2M1 95h7M9 95h1M11 95h3M145 95h1M152 95h3M157 95h2M1 96h8M10 96h4M145 96h4M151 96h5M157 96h2M1 97h8M11 97h1M13 97h1M145 97h3M150 97h9M1 98h7M10 98h4M145 98h4M150 98h7M158 98h1M1 99h1M3 99h4M13 99h1M145 99h3M149 99h1M151 99h8M4 100h5M10 100h1M13 100h1M146 100h1M148 100h11M1 101h1M3 101h3M9 101h5M145 101h2M148 101h1M150 101h1M154 101h5M1 102h4M9 102h5M145 102h1M153 102h1M156 102h3M1 103h2M5 103h7M145 103h1M149 103h1M151 103h3M156 103h3M1 104h10M145 104h1M147 104h4M155 104h4M1 105h8M10 105h2M145 105h5M153 105h6M1 106h1M3 106h6M10 106h3M145 106h7M153 106h2M158 106h1M1 107h1M4 107h4M11 107h1M13 107h1M145 107h12M158 107h1M1 108h1M5 108h3M10 108h2M13 108h1M145 108h2M148 108h9M158 108h1M1 109h1M4 109h2M10 109h3M145 109h4M150 109h4M158 109h1M1 110h4M9 110h5M145 110h3M149 110h2M154 110h2M158 110h1M1 111h2M5 111h3M10 111h4M145 111h2M154 111h1M158 111h1M1 112h1M5 112h3M11 112h2M145 112h3M149 112h1M153 112h3M158 112h1M1 113h5M7 113h1M12 113h2M145 113h2M149 113h1M152 113h7M1 114h8M11 114h2M145 114h2M150 114h1M152 114h1M154 114h1M158 114h1M1 115h1M4 115h3M8 115h1M10 115h1M145 115h4M150 115h1M152 115h3M156 115h3M1 116h1M5 116h1M145 116h5M153 116h1M155 116h1M158 116h1M1 117h1M4 117h2M11 117h3M145 117h4M152 117h3M158 117h1M1 118h1M6 118h2M10 118h4M145 118h2M150 118h1M152 118h2M158 118h1M1 119h1M3 119h5M9 119h1M11 119h3M145 119h2M158 119h1M1 120h1M3 120h5M9 120h1M13 120h1M145 120h2M148 120h2M151 120h1M155 120h1M158 120h1M1 121h1M5 121h1M7 121h1M10 121h1M13 121h1M145 121h4M151 121h1M158 121h1M1 122h6M10 122h1M12 122h2M145 122h1M147 122h3M158 122h1M1 123h1M5 123h1M12 123h2M145 123h6M158 123h1M1 124h1M4 124h2M9 124h2M12 124h2M145 124h1M147 124h2M151 124h3M155 124h2M158 124h1M1 125h1M6 125h4M11 125h2M145 125h2M148 125h1M151 125h6M158 125h1M1 126h1M3 126h9M13 126h1M145 126h2M152 126h4M157 126h2M1 127h1M3 127h11M145 127h1M147 127h2M150 127h4M155 127h4M1 128h1M5 128h2M8 128h6M145 128h1M148 128h1M150 128h4M155 128h2M158 128h1M1 129h6M10 129h4M145 129h8M158 129h1M1 130h3M9 130h4M14 130h16M36 130h1M44 130h2M47 130h2M53 130h4M60 130h10M71 130h2M77 130h1M79 130h2M90 130h2M93 130h2M97 130h15M119 130h1M121 130h1M132 130h2M136 130h5M144 130h10M156 130h3M1 131h2M5 131h4M10 131h1M14 131h12M28 131h2M31 131h2M36 131h1M38 131h2M44 131h2M48 131h1M52 131h3M56 131h2M59 131h7M68 131h2M71 131h2M74 131h1M76 131h2M80 131h1M84 131h1M90 131h6M97 131h2M103 131h9M113 131h2M119 131h1M121 131h1M130 131h2M133 131h2M136 131h3M141 131h3M145 131h14M1 132h2M5 132h1M14 132h2M17 132h9M29 132h1M31 132h2M34 132h1M36 132h1M38 132h2M41 132h1M43 132h3M48 132h2M51 132h4M56 132h10M68 132h5M74 132h1M76 132h4M81 132h1M90 132h6M98 132h1M102 132h6M110 132h2M113 132h2M116 132h1M118 132h2M122 132h1M126 132h1M130 132h5M137 132h1M144 132h2M148 132h7M156 132h3M1 133h4M8 133h1M10 133h2M13 133h4M20 133h1M22 133h3M26 133h2M29 133h2M32 133h1M34 133h6M41 133h7M49 133h7M57 133h8M66 133h2M69 133h5M76 133h2M79 133h4M91 133h3M98 133h2M101 133h7M111 133h4M116 133h6M123 133h1M131 133h2M137 133h2M145 133h1M148 133h1M150 133h3M157 133h2M1 134h11M13 134h4M19 134h1M22 134h3M27 134h1M29 134h5M36 134h1M38 134h3M43 134h2M46 134h2M50 134h6M58 134h7M67 134h1M71 134h3M77 134h3M81 134h1M83 134h1M90 134h6M97 134h1M99 134h1M101 134h6M108 134h2M111 134h5M118 134h2M121 134h4M130 134h5M136 134h3M145 134h2M148 134h4M157 134h2M1 135h10M12 135h6M19 135h3M23 135h2M27 135h1M32 135h2M37 135h4M44 135h4M50 135h6M58 135h1M60 135h5M67 135h1M70 135h4M82 135h2M90 135h2M93 135h5M100 135h7M109 135h1M113 135h3M119 135h3M123 135h2M130 135h10M146 135h6M156 135h1M158 135h1M1 136h8M10 136h11M22 136h4M27 136h1M30 136h4M43 136h2M52 136h4M58 136h1M61 136h2M64 136h2M68 136h1M70 136h5M78 136h2M86 136h1M93 136h5M100 136h1M102 136h5M109 136h1M112 136h4M127 136h1M130 136h2M133 136h3M137 136h7M145 136h7M156 136h1M158 136h1M1 137h4M7 137h1M10 137h8M19 137h2M23 137h2M28 137h1M30 137h5M38 137h2M48 137h1M54 137h4M63 137h2M67 137h6M74 137h1M76 137h2M80 137h1M89 137h1M93 137h1M95 137h3M100 137h1M103 137h2M106 137h2M110 137h1M112 137h5M120 137h2M124 137h1M129 137h1M133 137h3M140 137h4M145 137h2M148 137h1M150 137h2M156 137h1M158 137h1M1 138h5M7 138h7M15 138h11M27 138h6M34 138h1M36 138h2M40 138h1M43 138h1M47 138h4M52 138h7M60 138h1M62 138h1M64 138h2M68 138h6M79 138h1M81 138h1M84 138h1M88 138h4M93 138h2M96 138h4M105 138h2M109 138h6M116 138h1M118 138h2M122 138h1M126 138h1M128 138h2M135 138h2M140 138h3M145 138h4M155 138h1M157 138h2M1 139h4M6 139h7M14 139h3M18 139h5M24 139h2M28 139h6M39 139h3M44 139h1M46 139h8M55 139h4M60 139h4M68 139h4M73 139h4M79 139h4M85 139h1M87 139h8M96 139h5M102 139h1M104 139h1M106 139h2M110 139h6M121 139h3M126 139h6M133 139h4M142 139h10M153 139h6M1 140h4M8 140h1M10 140h2M13 140h5M19 140h5M28 140h4M33 140h3M39 140h3M44 140h6M52 140h1M56 140h2M60 140h3M64 140h2M69 140h14M85 140h6M93 140h1M97 140h4M102 140h4M110 140h4M115 140h4M121 140h1M123 140h1M128 140h3M133 140h1M136 140h2M141 140h5M147 140h7M156 140h3M1 141h4M7 141h4M12 141h1M14 141h3M18 141h1M20 141h6M29 141h13M45 141h1M48 141h1M50 141h2M56 141h27M86 141h1M88 141h2M91 141h2M97 141h2M102 141h6M111 141h17M129 141h1M131 141h2M135 141h12M148 141h2M151 141h2M156 141h3M1 142h3M5 142h15M22 142h41M64 142h39M104 142h42M147 142h1M149 142h10" />
<path stroke="#515151" d="M2 1h5M150 1h3M159 1h1M4 2h2M16 2h3M24 2h2M28 2h10M39 2h1M41 2h2M44 2h4M63 2h2M67 2h1M70 2h9M81 2h1M84 2h3M89 2h1M100 2h3M107 2h4M113 2h1M116 2h2M119 2h4M124 2h6M146 2h1M151 2h5M159 2h1M15 3h1M19 3h2M24 3h1M27 3h1M30 3h8M39 3h1M41 3h4M47 3h1M57 3h4M63 3h1M70 3h5M76 3h3M80 3h2M84 3h1M86 3h1M89 3h1M92 3h2M101 3h1M104 3h1M108 3h3M112 3h2M116 3h4M122 3h1M124 3h3M129 3h1M132 3h2M146 3h3M150 3h1M155 3h2M159 3h1M4 4h1M12 4h2M16 4h6M23 4h2M30 4h3M34 4h3M38 4h2M42 4h1M44 4h1M47 4h1M51 4h1M58 4h3M62 4h2M70 4h8M79 4h1M92 4h2M104 4h1M112 4h2M117 4h1M119 4h1M122 4h1M124 4h1M126 4h1M129 4h1M131 4h3M143 4h1M146 4h8M155 4h2M159 4h1M3 5h4M12 5h2M15 5h6M23 5h4M29 5h7M37 5h1M44 5h1M49 5h3M59 5h1M62 5h4M69 5h8M81 5h1M84 5h2M91 5h1M94 5h1M103 5h1M111 5h1M119 5h1M126 5h1M131 5h1M134 5h1M138 5h1M140 5h1M142 5h1M147 5h1M152 5h3M159 5h1M3 6h5M12 6h1M15 6h6M24 6h1M30 6h5M39 6h1M42 6h2M49 6h1M52 6h1M61 6h1M63 6h1M70 6h6M77 6h1M79 6h1M83 6h3M89 6h3M93 6h2M102 6h2M110 6h2M114 6h1M117 6h2M122 6h1M124 6h2M131 6h1M133 6h2M138 6h2M141 6h2M147 6h1M159 6h1M2 7h1M4 7h4M14 7h6M30 7h5M37 7h1M41 7h3M47 7h3M51 7h2M60 7h2M67 7h1M70 7h4M75 7h1M78 7h8M90 7h2M93 7h2M100 7h1M102 7h2M110 7h2M116 7h3M123 7h3M129 7h3M133 7h2M141 7h1M148 7h1M159 7h1M2 8h1M4 8h4M15 8h1M27 8h1M30 8h2M34 8h10M48 8h2M51 8h2M58 8h1M60 8h2M67 8h6M75 8h5M82 8h3M90 8h1M92 8h2M96 8h1M99 8h2M102 8h2M108 8h7M117 8h2M120 8h6M130 8h2M133 8h1M138 8h1M150 8h1M159 8h1M2 9h1M4 9h4M10 9h1M12 9h1M15 9h1M27 9h3M31 9h4M36 9h2M40 9h3M48 9h1M50 9h2M54 9h1M57 9h2M60 9h2M67 9h3M71 9h8M80 9h2M84 9h1M86 9h1M93 9h2M97 9h5M106 9h5M112 9h8M122 9h3M130 9h1M132 9h3M137 9h2M141 9h1M150 9h2M153 9h2M159 9h1M3 10h1M5 10h6M15 10h2M19 10h2M25 10h5M32 10h1M34 10h3M38 10h2M42 10h1M44 10h1M51 10h2M55 10h5M67 10h1M72 10h3M76 10h2M81 10h5M92 10h2M96 10h1M98 10h1M100 10h1M108 10h1M113 10h3M117 10h2M120 10h2M124 10h1M126 10h1M133 10h1M143 10h1M145 10h1M153 10h1M159 10h1M7 11h1M12 11h1M18 11h3M27 11h1M34 11h2M39 11h1M41 11h3M50 11h2M54 11h1M56 11h1M58 11h1M64 11h1M73 11h1M75 11h2M81 11h2M87 11h1M92 11h4M100 11h1M105 11h1M114 11h1M116 11h2M121 11h5M132 11h2M136 11h1M139 11h5M146 11h1M154 11h1M159 11h1M4 12h2M11 12h3M18 12h3M24 12h2M27 12h2M33 12h3M39 12h2M45 12h1M50 12h4M58 12h1M63 12h3M67 12h2M75 12h2M91 12h3M100 12h2M104 12h3M108 12h2M116 12h2M121 12h2M127 12h1M132 12h3M138 12h1M140 12h4M147 12h1M150 12h1M152 12h3M159 12h1M4 13h3M9 13h1M12 13h1M18 13h1M25 13h2M29 13h1M31 13h1M49 13h3M58 13h3M63 13h4M69 13h1M72 13h1M74 13h3M104 13h4M110 13h1M113 13h1M115 13h3M131 13h3M140 13h1M142 13h2M146 13h1M153 13h2M159 13h1M11 14h2M139 14h1M155 14h1M159 14h1M12 15h1M15 15h130M159 15h1M2 16h1M4 16h4M10 16h1M15 16h1M144 16h1M150 16h1M159 16h1M2 17h1M4 17h4M11 17h1M15 17h1M144 17h1M148 17h1M159 17h1M3 18h5M11 18h1M15 18h1M144 18h1M147 18h1M159 18h1M3 19h5M10 19h2M15 19h1M144 19h1M147 19h1M150 19h1M152 19h3M159 19h1M4 20h1M8 20h3M15 20h1M144 20h1M146 20h8M155 20h2M159 20h1M10 21h1M15 21h1M146 21h3M150 21h1M155 21h2M159 21h1M4 22h2M15 22h1M144 22h1M146 22h1M151 22h5M159 22h1M2 23h5M12 23h1M15 23h1M144 23h1M150 23h3M159 23h1M2 24h1M5 24h1M10 24h1M12 24h2M15 24h1M144 24h1M152 24h1M155 24h3M159 24h1M5 25h1M10 25h1M13 25h1M15 25h1M144 25h1M157 25h1M159 25h1M3 26h1M8 26h5M15 26h1M144 26h1M147 26h1M157 26h1M2 27h1M9 27h2M12 27h1M15 27h1M144 27h1M149 27h1M154 27h4M159 27h1M2 28h1M5 28h1M9 28h2M13 28h1M15 28h1M144 28h1M148 28h1M151 28h3M156 28h2M159 28h1M2 29h7M15 29h1M144 29h1M148 29h6M155 29h3M159 29h1M2 30h8M13 30h1M15 30h1M144 30h1M148 30h1M150 30h3M159 30h1M2 31h2M5 31h3M9 31h2M15 31h1M144 31h1M147 31h2M150 31h2M153 31h1M155 31h3M159 31h1M2 32h2M5 32h3M9 32h1M12 32h1M15 32h1M144 32h1M147 32h3M151 32h1M157 32h1M159 32h1M2 33h11M15 33h1M144 33h1M149 33h1M151 33h1M157 33h1M159 33h1M2 34h4M8 34h1M10 34h3M15 34h1M144 34h1M150 34h2M154 34h4M159 34h1M2 35h3M8 35h3M15 35h1M144 35h1M149 35h3M153 35h1M156 35h2M159 35h1M2 36h1M5 36h1M7 36h3M15 36h1M144 36h1M146 36h8M155 36h3M159 36h1M4 37h1M8 37h1M10 37h1M15 37h1M144 37h1M146 37h3M150 37h1M152 37h1M156 37h2M159 37h1M2 38h3M6 38h1M8 38h1M10 38h3M15 38h1M144 38h1M146 38h1M149 38h2M159 38h1M8 39h2M11 39h2M15 39h1M144 39h1M148 39h4M153 39h1M159 39h1M2 40h2M7 40h3M11 40h1M15 40h1M144 40h1M146 40h1M149 40h3M155 40h3M159 40h1M2 41h3M6 41h6M15 41h1M144 41h1M150 41h2M155 41h2M159 41h1M2 42h2M6 42h3M11 42h1M15 42h1M144 42h1M151 42h4M159 42h1M2 43h4M10 43h1M15 43h1M144 43h1M146 43h1M150 43h4M156 43h2M159 43h1M2 44h1M12 44h1M15 44h1M144 44h1M147 44h1M150 44h2M155 44h3M159 44h1M2 45h1M15 45h1M144 45h1M147 45h1M149 45h3M156 45h2M159 45h1M2 46h3M7 46h1M15 46h1M144 46h1M146 46h1M157 46h1M159 46h1M7 47h3M15 47h1M144 47h1M146 47h2M150 47h1M159 47h1M5 48h4M13 48h1M15 48h1M144 48h1M146 48h3M159 48h1M4 49h2M9 49h1M11 49h3M15 49h1M144 49h1M146 49h2M155 49h2M159 49h1M4 50h2M7 50h7M15 50h1M144 50h1M151 50h4M159 50h1M6 51h3M10 51h1M12 51h1M15 51h1M144 51h1M151 51h3M157 51h1M159 51h1M12 52h1M15 52h1M144 52h1M147 52h1M150 52h1M156 52h2M159 52h1M9 53h1M11 53h1M15 53h1M144 53h1M147 53h4M152 53h1M157 53h1M10 54h1M15 54h1M144 54h1M150 54h2M159 54h1M10 55h2M15 55h1M144 55h1M149 55h2M159 55h1M3 56h1M9 56h2M15 56h1M144 56h1M150 56h1M159 56h1M3 57h2M8 57h2M11 57h3M15 57h1M144 57h1M149 57h1M151 57h1M159 57h1M3 58h3M10 58h1M13 58h1M15 58h1M144 58h1M148 58h1M159 58h1M3 59h2M7 59h3M13 59h1M15 59h1M144 59h1M148 59h1M150 59h1M152 59h3M159 59h1M6 60h4M15 60h1M144 60h1M147 60h7M155 60h2M159 60h1M4 61h2M15 61h1M144 61h1M147 61h3M151 61h1M155 61h2M159 61h1M2 62h5M12 62h2M15 62h1M144 62h1M147 62h1M152 62h3M159 62h1M2 63h1M5 63h1M11 63h3M15 63h1M144 63h1M151 63h3M159 63h1M5 64h1M12 64h2M15 64h1M144 64h1M156 64h2M159 64h1M13 65h1M15 65h1M144 65h1M159 65h1M2 66h1M7 66h4M12 66h1M15 66h1M144 66h1M148 66h1M159 66h1M8 67h2M12 67h1M15 67h1M144 67h1M150 67h1M155 67h3M159 67h1M5 68h1M8 68h2M13 68h1M15 68h1M144 68h1M149 68h1M152 68h3M157 68h1M159 68h1M2 69h7M15 69h1M144 69h1M149 69h6M156 69h2M159 69h1M2 70h8M15 70h1M144 70h1M149 70h1M151 70h3M157 70h1M159 70h1M2 71h9M13 71h1M15 71h1M144 71h1M148 71h2M151 71h2M159 71h1M2 72h5M9 72h2M15 72h1M144 72h1M148 72h3M152 72h1M154 72h1M156 72h2M159 72h1M2 73h6M9 73h2M13 73h1M15 73h1M144 73h1M150 73h1M152 73h1M156 73h1M159 73h1M2 74h1M4 74h6M11 74h3M15 74h1M144 74h1M151 74h3M159 74h1M2 75h1M4 75h2M8 75h6M15 75h1M144 75h1M150 75h3M156 75h2M159 75h1M2 76h3M6 76h1M8 76h3M15 76h1M144 76h1M149 76h3M153 76h1M155 76h3M159 76h1M2 77h2M7 77h3M15 77h1M144 77h1M146 77h4M151 77h1M154 77h4M159 77h1M4 78h1M6 78h2M15 78h1M144 78h1M146 78h3M150 78h6M157 78h1M159 78h1M3 79h1M7 79h1M9 79h1M15 79h1M144 79h1M146 79h1M149 79h2M152 79h6M159 79h1M2 80h2M5 80h1M7 80h1M9 80h3M15 80h1M144 80h1M148 80h3M152 80h1M154 80h4M159 80h1M7 81h2M10 81h2M15 81h1M144 81h1M146 81h1M149 81h9M159 81h1M2 82h1M6 82h3M10 82h1M15 82h1M144 82h1M150 82h8M159 82h1M2 83h2M5 83h6M15 83h1M144 83h1M151 83h7M159 83h1M2 84h1M5 84h3M10 84h1M15 84h1M144 84h1M146 84h1M150 84h2M154 84h1M159 84h1M2 85h2M9 85h1M15 85h1M144 85h1M147 85h1M150 85h2M159 85h1M11 86h1M15 86h1M144 86h1M147 86h1M149 86h4M157 86h1M159 86h1M15 87h1M144 87h1M146 87h1M159 87h1M2 88h2M6 88h1M15 88h1M144 88h1M146 88h2M154 88h1M159 88h1M6 89h3M15 89h1M144 89h1M146 89h3M154 89h1M157 89h1M159 89h1M5 90h3M12 90h1M15 90h1M144 90h1M146 90h2M153 90h2M156 90h2M159 90h1M3 91h2M8 91h1M10 91h3M15 91h1M144 91h1M154 91h2M159 91h1M3 92h2M6 92h7M15 92h1M144 92h1M150 92h4M159 92h1M5 93h3M9 93h1M11 93h1M15 93h1M144 93h1M146 93h1M150 93h3M155 93h2M159 93h1M11 94h1M15 94h1M144 94h1M146 94h1M149 94h1M154 94h3M159 94h1M8 95h1M10 95h1M15 95h1M144 95h1M146 95h6M155 95h2M159 95h1M9 96h1M15 96h1M144 96h1M149 96h2M156 96h1M159 96h1M9 97h2M15 97h1M144 97h1M148 97h2M159 97h1M8 98h2M15 98h1M144 98h1M149 98h1M159 98h1M2 99h1M7 99h6M15 99h1M144 99h1M148 99h1M150 99h1M159 99h1M2 100h2M9 100h1M12 100h1M15 100h1M144 100h1M147 100h1M159 100h1M2 101h1M6 101h3M15 101h1M144 101h1M147 101h1M149 101h1M151 101h3M159 101h1M5 102h4M15 102h1M144 102h1M146 102h7M154 102h2M159 102h1M3 103h2M12 103h2M15 103h1M144 103h1M146 103h3M150 103h1M154 103h2M159 103h1M11 104h3M15 104h1M146 104h1M151 104h4M159 104h1M9 105h1M12 105h2M15 105h1M144 105h1M150 105h3M159 105h1M2 106h1M9 106h1M13 106h1M15 106h1M144 106h1M152 106h1M155 106h3M159 106h1M2 107h2M8 107h3M12 107h1M15 107h1M144 107h1M157 107h1M2 108h3M8 108h2M12 108h1M15 108h1M144 108h1M147 108h1M157 108h1M159 108h1M2 109h2M6 109h4M13 109h1M15 109h1M144 109h1M149 109h1M154 109h4M159 109h1M5 110h4M15 110h1M144 110h1M148 110h1M151 110h3M156 110h2M159 110h1M3 111h2M8 111h2M15 111h1M144 111h1M148 111h6M155 111h3M159 111h1M2 112h3M8 112h3M13 112h1M15 112h1M144 112h1M148 112h1M150 112h3M156 112h2M159 112h1M6 113h1M8 113h4M15 113h1M144 113h1M147 113h2M150 113h2M159 113h1M9 114h2M13 114h1M15 114h1M144 114h1M147 114h3M151 114h1M153 114h1M155 114h3M159 114h1M2 115h2M7 115h1M9 115h1M11 115h3M15 115h1M144 115h1M149 115h1M151 115h1M155 115h1M159 115h1M2 116h3M6 116h8M15 116h1M144 116h1M150 116h3M154 116h1M156 116h2M159 116h1M2 117h2M6 117h5M15 117h1M144 117h1M149 117h3M155 117h3M159 117h1M2 118h4M8 118h2M15 118h1M144 118h1M147 118h3M151 118h1M154 118h4M159 118h1M2 119h1M8 119h1M10 119h1M15 119h1M144 119h1M147 119h11M159 119h1M2 120h1M8 120h1M10 120h3M15 120h1M144 120h1M147 120h1M150 120h1M152 120h3M156 120h2M159 120h1M2 121h3M6 121h1M8 121h2M11 121h2M15 121h1M144 121h1M149 121h2M152 121h6M159 121h1M7 122h3M11 122h1M15 122h1M144 122h1M146 122h1M150 122h8M159 122h1M2 123h3M6 123h6M15 123h1M144 123h1M151 123h7M159 123h1M2 124h2M6 124h3M11 124h1M15 124h1M144 124h1M146 124h1M149 124h2M154 124h1M157 124h1M159 124h1M2 125h4M10 125h1M15 125h1M144 125h1M147 125h1M149 125h2M157 125h1M159 125h1M2 126h1M12 126h1M15 126h1M144 126h1M147 126h5M156 126h1M159 126h1M2 127h1M15 127h1M144 127h1M146 127h1M149 127h1M154 127h1M159 127h1M2 128h3M7 128h1M15 128h103M119 128h26M146 128h2M149 128h1M154 128h1M157 128h1M159 128h1M7 129h3M153 129h5M159 129h1M4 130h5M13 130h1M30 130h6M37 130h7M46 130h1M49 130h4M57 130h2M70 130h1M73 130h4M78 130h1M81 130h9M92 130h1M95 130h2M112 130h7M120 130h1M122 130h10M134 130h2M141 130h3M154 130h2M159 130h1M3 131h2M9 131h1M11 131h3M26 131h2M30 131h1M33 131h3M37 131h1M40 131h4M46 131h2M49 131h3M55 131h1M58 131h1M66 131h2M70 131h1M73 131h1M75 131h1M78 131h2M81 131h3M85 131h5M96 131h1M99 131h4M112 131h1M115 131h4M120 131h1M122 131h8M132 131h1M135 131h1M139 131h2M144 131h1M159 131h1M3 132h2M6 132h8M16 132h1M26 132h3M30 132h1M33 132h1M35 132h1M37 132h1M40 132h1M42 132h1M46 132h2M50 132h1M55 132h1M66 132h2M73 132h1M80 132h1M82 132h8M96 132h2M99 132h3M108 132h2M112 132h1M115 132h1M117 132h1M120 132h2M123 132h3M127 132h3M135 132h2M138 132h6M146 132h2M155 132h1M159 132h1M5 133h3M9 133h1M12 133h1M17 133h3M21 133h1M25 133h1M28 133h1M33 133h1M40 133h1M48 133h1M56 133h1M65 133h1M68 133h1M74 133h2M78 133h1M83 133h8M94 133h4M100 133h1M108 133h3M115 133h1M122 133h1M124 133h7M133 133h4M139 133h6M146 133h2M153 133h4M159 133h1M12 134h1M17 134h2M20 134h2M25 134h2M28 134h1M34 134h2M37 134h1M41 134h2M45 134h1M48 134h2M56 134h2M65 134h2M69 134h2M74 134h3M80 134h1M82 134h1M84 134h6M96 134h1M98 134h1M107 134h1M110 134h1M116 134h2M120 134h1M125 134h5M135 134h1M139 134h6M147 134h1M152 134h5M159 134h1M11 135h1M18 135h1M25 135h2M28 135h3M34 135h3M41 135h3M48 135h2M56 135h2M59 135h1M65 135h2M68 135h2M74 135h8M84 135h6M92 135h1M98 135h2M107 135h2M110 135h3M116 135h3M122 135h1M125 135h5M140 135h6M152 135h4M157 135h1M159 135h1M9 136h1M21 136h1M26 136h1M28 136h2M34 136h9M45 136h7M56 136h2M59 136h2M63 136h1M66 136h2M69 136h1M75 136h3M80 136h5M87 136h6M98 136h2M101 136h1M107 136h2M110 136h2M116 136h10M128 136h2M132 136h1M136 136h1M144 136h1M152 136h4M157 136h1M159 136h1M5 137h2M8 137h2M18 137h1M21 137h2M25 137h3M29 137h1M35 137h3M40 137h8M49 137h5M58 137h5M65 137h2M73 137h1M75 137h1M78 137h2M81 137h8M90 137h3M98 137h2M101 137h2M105 137h1M108 137h2M111 137h1M117 137h3M122 137h2M125 137h4M130 137h3M136 137h4M144 137h1M147 137h1M149 137h1M152 137h4M157 137h1M159 137h1M6 138h1M14 138h1M26 138h1M33 138h1M35 138h1M38 138h2M41 138h2M44 138h3M51 138h1M59 138h1M61 138h1M63 138h1M66 138h2M74 138h5M82 138h2M85 138h3M92 138h1M100 138h5M107 138h2M115 138h1M117 138h1M120 138h2M123 138h3M127 138h1M130 138h5M137 138h3M143 138h2M149 138h6M156 138h1M159 138h1M5 139h1M13 139h1M17 139h1M23 139h1M26 139h2M34 139h5M42 139h2M45 139h1M54 139h1M59 139h1M64 139h4M72 139h1M77 139h2M83 139h2M86 139h1M95 139h1M101 139h1M103 139h1M105 139h1M108 139h2M116 139h5M124 139h2M132 139h1M137 139h5M152 139h1M159 139h1M5 140h3M9 140h1M12 140h1M18 140h1M24 140h4M32 140h1M37 140h2M42 140h2M50 140h2M53 140h1M55 140h1M58 140h2M66 140h3M83 140h2M91 140h2M94 140h3M101 140h1M106 140h4M114 140h1M119 140h2M124 140h3M131 140h2M134 140h2M138 140h3M146 140h1M154 140h2M159 140h1M5 141h2M11 141h1M13 141h1M17 141h1M19 141h1M26 141h3M42 141h3M46 141h1M49 141h1M52 141h4M83 141h3M87 141h1M90 141h1M93 141h4M99 141h3M108 141h3M128 141h1M130 141h1M133 141h2M147 141h1M150 141h1M153 141h3M159 141h1M4 142h1M20 142h1M146 142h1M148 142h1M159 142h1M1 143h30M32 143h128" />
<path stroke="#a3a2a2" d="M59 1h1M123 3h1M145 8h1M2 10h1M152 10h1M41 13h1M61 14h1M154 38h1M9 42h1M2 61h1M6 81h1M13 83h1M157 98h1M11 100h1M147 111h1M13 125h1M75 132h1M149 133h1M100 134h1M94 137h1M127 140h1" />
<path stroke="#505151" d="M43 2h1M118 2h1M50 4h1M86 4h1M74 7h1M40 11h1M135 12h1M13 14h1M144 21h1M3 36h1M151 53h1M3 75h1M118 128h1M59 130h1M31 143h1" />
<path stroke="#515051" d="M83 2h1M119 8h1M152 35h1M150 46h1M10 57h1M153 64h1M7 72h1M155 74h1M68 134h1" />
<path stroke="#515150" d="M109 4h1M141 5h1M150 5h1M148 13h1M159 26h1M4 31h1M159 53h1M11 72h1M150 77h1M8 78h1M153 80h1M4 85h1M155 90h1M144 104h1M159 107h1M54 140h1" />
<path stroke="#a2a3a2" d="M77 5h1M87 7h1M150 7h1M149 23h1M12 25h1M4 39h1M5 41h1M7 54h1M12 97h1M22 135h1M31 135h1M126 136h1M122 140h1M21 142h1M63 142h1" />
<path stroke="#a2a2a3" d="M157 7h1M45 8h1M92 9h1M3 11h1M6 14h1M153 14h1M149 15h1M7 22h1M155 75h1M150 89h1M156 89h1M1 100h1M145 100h1M31 133h1M85 136h1M80 138h1M95 138h1M36 140h1M63 140h1M47 141h1M103 142h1" />
<path stroke="#000001" d="M14 15h1" />
<path stroke="#000000" d="M14 16h1M14 17h1M14 18h1M14 19h1M14 20h1M14 21h1M14 22h1M14 23h1M14 24h1M14 25h1M14 26h1M14 27h1M14 28h1M14 29h1M14 30h1M14 31h1M14 32h1M14 33h1M14 34h1M14 35h1M14 36h1M14 37h1M14 38h1M14 39h1M14 40h1M14 41h1M14 42h1M14 43h1M14 44h1M14 45h1M14 46h1M14 47h1M14 48h1M14 49h1M14 50h1M14 51h1M14 52h1M14 53h1M14 54h1M14 55h1M14 56h1M14 57h1M14 58h1M14 59h1M14 60h1M14 61h1M14 62h1M14 63h1M14 64h1M14 65h1M14 66h1M14 67h1M14 68h1M14 69h1M14 70h1M14 71h1M14 72h1M14 73h1M14 74h1M14 75h1M14 76h1M14 77h1M14 78h1M14 79h1M14 80h1M14 81h1M14 82h1M14 83h1M14 84h1M14 85h1M14 86h1M14 87h1M14 88h1M14 89h1M14 90h1M14 91h1M14 92h1M14 93h1M14 94h1M14 95h1M14 96h1M14 97h1M14 98h1M14 99h1M14 100h1M14 101h1M14 102h1M14 103h1M14 104h1M14 105h1M14 106h1M14 107h1M14 108h1M14 109h1M14 110h1M14 111h1M14 112h1M14 113h1M14 114h1M14 115h1M14 116h1M14 117h1M14 118h1M14 119h1M14 120h1M14 121h1M14 122h1M14 123h1M14 124h1M14 125h1M14 126h1M14 127h1M14 128h1M14 129h106M121 129h24" />
<path stroke="#010000" d="M120 129h1" />
</svg>