<svg xmlns="http://www.w3.org/2000/svg" viewBox="0 -0.5 160 144" shape-rendering="crispEdges">
<metadata>Made with Pixels to Svg https://codepen.io/shshaw/pen/XbxvNj</metadata>
<path stroke="#a2a2a2" d="M0 0h3M6 0h3M10 0h1M12 0h9M24 0h3M28 0h1M30 0h9M42 0h3M46 0h1M48 0h9M60 0h3M64 0h1M66 0h9M78 0h3M82 0h1M84 0h9M96 0h3M100 0h1M102 0h9M114 0h3M118 0h1M120 0h9M132 0h3M136 0h1M138 0h9M150 0h3M154 0h1M156 0h2M159 0h1M0 1h3M7 1h3M11 1h1M13 1h8M24 1h4M29 1h1M31 1h8M42 1h4M47 1h1M49 1h8M60 1h4M65 1h1M67 1h8M78 1h4M83 1h1M85 1h8M96 1h4M101 1h1M103 1h8M114 1h4M119 1h1M121 1h8M132 1h4M137 1h1M139 1h8M150 1h4M155 1h1M157 1h3M0 2h3M6 2h3M10 2h1M12 2h9M24 2h3M28 2h1M30 2h9M42 2h3M46 2h1M48 2h9M60 2h3M64 2h1M66 2h9M78 2h3M82 2h1M84 2h9M96 2h3M100 2h1M102 2h9M114 2h3M118 2h1M120 2h9M132 2h3M136 2h1M138 2h9M150 2h3M154 2h1M156 2h4M0 3h3M6 3h4M11 3h1M13 3h8M24 3h4M29 3h1M31 3h8M42 3h4M47 3h1M49 3h8M60 3h4M65 3h1M67 3h8M78 3h4M83 3h1M85 3h8M96 3h4M101 3h1M103 3h8M114 3h4M119 3h1M121 3h2M124 3h5M132 3h4M137 3h1M139 3h8M150 3h4M155 3h1M157 3h3M0 4h3M6 4h3M10 4h1M12 4h9M24 4h3M28 4h1M30 4h9M42 4h3M46 4h1M48 4h5M54 4h3M60 4h3M64 4h1M66 4h1M68 4h7M78 4h3M82 4h1M84 4h4M89 4h4M96 4h3M100 4h1M102 4h7M110 4h1M114 4h3M118 4h1M120 4h9M132 4h3M136 4h1M139 4h8M150 4h3M154 4h1M156 4h4M0 7h3M6 7h4M11 7h1M13 7h8M24 7h4M29 7h1M31 7h8M42 7h4M47 7h1M49 7h8M60 7h4M65 7h1M67 7h8M78 7h4M83 7h1M85 7h8M96 7h4M101 7h1M103 7h8M114 7h4M119 7h1M121 7h8M132 7h4M137 7h1M139 7h8M150 7h4M155 7h1M157 7h3M0 8h3M6 8h3M10 8h1M12 8h9M24 8h3M28 8h1M30 8h9M42 8h3M46 8h1M48 8h9M60 8h3M64 8h1M66 8h9M78 8h3M82 8h1M84 8h9M96 8h3M100 8h1M102 8h9M114 8h3M118 8h1M120 8h9M132 8h3M136 8h1M138 8h5M144 8h3M150 8h3M154 8h1M156 8h4M0 9h3M6 9h4M11 9h1M13 9h8M24 9h4M29 9h1M31 9h8M42 9h4M47 9h1M49 9h8M60 9h4M65 9h1M67 9h8M78 9h4M83 9h1M85 9h8M96 9h4M101 9h1M103 9h8M114 9h4M119 9h1M121 9h8M132 9h4M137 9h1M139 9h8M150 9h4M155 9h1M157 9h3M0 10h3M6 10h3M10 10h1M12 10h9M24 10h3M28 10h1M30 10h9M42 10h2M46 10h1M48 10h9M60 10h3M64 10h1M66 10h9M78 10h3M82 10h1M84 10h9M96 10h3M100 10h1M102 10h9M114 10h3M118 10h1M120 10h9M132 10h3M136 10h1M138 10h9M150 10h2M154 10h1M156 10h4M3 11h3M9 11h1M11 11h1M21 11h3M27 11h1M29 11h1M39 11h3M45 11h1M47 11h1M57 11h3M63 11h1M65 11h1M75 11h3M81 11h1M83 11h1M93 11h3M99 11h1M101 11h1M111 11h3M117 11h1M119 11h1M129 11h3M135 11h1M137 11h1M147 11h3M153 11h1M155 11h1M3 12h3M10 12h1M12 12h1M21 12h3M28 12h1M30 12h1M39 12h3M46 12h1M48 12h1M57 12h3M64 12h1M66 12h1M75 12h3M82 12h1M84 12h1M93 12h3M100 12h1M102 12h1M111 12h3M118 12h1M120 12h1M129 12h3M136 12h1M138 12h1M147 12h3M154 12h1M156 12h1M3 13h3M9 13h1M11 13h1M21 13h3M27 13h1M29 13h1M39 13h3M45 13h1M47 13h1M57 13h3M63 13h1M65 13h1M75 13h3M81 13h1M83 13h1M93 13h3M99 13h1M101 13h1M111 13h3M117 13h1M119 13h1M129 13h3M135 13h1M137 13h1M147 13h3M153 13h1M155 13h1M0 14h3M6 14h3M10 14h1M13 14h8M24 14h3M30 14h9M42 14h3M46 14h1M48 14h9M60 14h3M64 14h1M66 14h9M78 14h3M82 14h1M84 14h9M96 14h3M100 14h1M102 14h9M114 14h3M118 14h1M120 14h9M132 14h3M136 14h1M138 14h9M150 14h3M154 14h1M156 14h4M0 15h3M6 15h4M11 15h1M13 15h8M24 15h4M29 15h1M31 15h8M42 15h4M47 15h1M49 15h8M60 15h4M65 15h1M67 15h8M78 15h4M83 15h1M85 15h8M96 15h4M101 15h1M103 15h8M114 15h4M119 15h1M121 15h8M132 15h4M137 15h1M139 15h8M150 15h4M155 15h1M157 15h3M0 16h3M6 16h3M10 16h1M12 16h4M144 16h3M150 16h3M154 16h1M156 16h4M0 17h3M6 17h4M11 17h1M13 17h3M144 17h3M150 17h4M155 17h1M157 17h3M0 18h3M6 18h3M10 18h1M12 18h4M144 18h3M151 18h2M154 18h1M156 18h4M0 19h3M6 19h4M11 19h1M13 19h3M144 19h3M150 19h4M155 19h1M157 19h3M0 20h3M6 20h3M10 20h1M12 20h4M144 20h3M150 20h3M154 20h1M156 20h4M0 23h3M6 23h4M11 23h1M13 23h3M144 23h3M150 23h4M155 23h1M157 23h3M0 24h3M6 24h3M10 24h1M12 24h4M144 24h2M150 24h3M154 24h1M156 24h4M0 25h3M6 25h4M11 25h1M13 25h3M144 25h3M150 25h4M155 25h1M157 25h3M0 26h3M6 26h3M10 26h1M12 26h4M144 26h3M150 26h3M154 26h1M156 26h4M3 27h3M9 27h1M11 27h1M147 27h3M153 27h1M155 27h1M3 28h3M10 28h1M12 28h1M147 28h3M154 28h1M156 28h1M3 29h3M9 29h1M11 29h1M147 29h3M153 29h1M155 29h1M0 30h3M6 30h3M10 30h1M12 30h4M144 30h3M150 30h3M154 30h1M156 30h4M0 31h3M6 31h2M9 31h1M11 31h1M13 31h3M144 31h3M150 31h4M155 31h1M157 31h3M0 32h3M6 32h3M10 32h1M12 32h4M144 32h3M150 32h3M154 32h1M156 32h4M0 33h3M6 33h4M11 33h1M13 33h3M144 33h3M150 33h4M155 33h1M157 33h3M0 34h3M6 34h3M10 34h1M12 34h4M144 34h3M150 34h3M154 34h1M156 34h4M0 35h3M6 35h4M11 35h1M13 35h3M144 35h3M150 35h4M155 35h1M157 35h3M0 36h3M6 36h3M10 36h1M12 36h4M144 36h3M150 36h3M154 36h1M156 36h4M0 39h3M6 39h4M11 39h1M13 39h3M144 39h3M150 39h4M155 39h1M157 39h2M0 40h1M2 40h1M6 40h3M10 40h1M12 40h4M144 40h3M150 40h3M154 40h1M156 40h4M0 41h3M6 41h4M11 41h1M13 41h3M144 41h3M150 41h4M155 41h1M157 41h3M0 42h3M6 42h3M10 42h1M12 42h4M144 42h3M150 42h3M154 42h1M156 42h4M3 43h3M9 43h1M11 43h1M147 43h3M153 43h1M155 43h1M3 44h3M12 44h1M147 44h3M154 44h1M156 44h1M3 45h3M9 45h1M11 45h1M147 45h3M153 45h1M155 45h1M0 46h3M6 46h3M10 46h1M12 46h4M144 46h3M150 46h3M154 46h1M156 46h4M0 47h3M6 47h4M11 47h1M13 47h3M144 47h3M150 47h4M155 47h1M157 47h3M0 48h3M6 48h3M10 48h1M12 48h1M14 48h2M144 48h3M150 48h3M154 48h1M156 48h4M0 49h3M6 49h4M11 49h1M13 49h3M144 49h3M150 49h4M155 49h1M157 49h3M0 50h3M6 50h3M10 50h1M12 50h4M144 50h3M150 50h3M154 50h1M156 50h4M0 51h3M6 51h4M11 51h1M13 51h3M144 51h3M150 51h4M155 51h1M157 51h3M0 52h3M6 52h3M10 52h1M12 52h4M144 52h3M150 52h3M154 52h1M156 52h4M0 55h3M6 55h4M11 55h1M13 55h3M144 55h3M150 55h4M155 55h1M157 55h3M0 56h3M6 56h3M10 56h1M12 56h4M144 56h3M150 56h3M154 56h1M156 56h4M0 57h3M6 57h4M11 57h1M13 57h3M144 57h3M150 57h4M155 57h1M157 57h3M0 58h3M6 58h3M12 58h4M144 58h3M150 58h3M154 58h1M156 58h4M3 59h3M9 59h1M11 59h1M147 59h3M153 59h1M155 59h1M3 60h3M10 60h1M12 60h1M147 60h3M154 60h1M156 60h1M3 61h3M9 61h1M11 61h1M147 61h3M153 61h1M155 61h1M0 62h3M6 62h3M10 62h1M12 62h4M144 62h3M150 62h3M154 62h1M156 62h4M0 63h1M2 63h1M6 63h4M13 63h2M144 63h3M150 63h4M155 63h1M157 63h3M0 64h3M6 64h2M10 64h1M12 64h4M144 64h3M150 64h3M154 64h1M156 64h4M0 65h3M6 65h4M11 65h1M13 65h3M144 65h3M150 65h4M155 65h1M157 65h3M0 66h3M6 66h3M10 66h1M12 66h4M144 66h3M150 66h3M154 66h1M156 66h4M0 67h3M6 67h4M11 67h1M13 67h3M144 67h3M150 67h4M155 67h1M157 67h3M0 68h3M6 68h3M10 68h1M12 68h4M144 68h3M150 68h3M154 68h1M156 68h4M0 71h1M2 71h1M6 71h4M11 71h1M13 71h3M144 71h3M150 71h4M155 71h1M157 71h3M0 72h3M6 72h3M10 72h1M12 72h4M144 72h3M150 72h3M154 72h1M156 72h4M0 73h3M6 73h4M11 73h1M13 73h3M144 73h3M150 73h4M155 73h1M157 73h3M0 74h3M6 74h3M10 74h1M12 74h4M144 74h3M150 74h3M154 74h1M156 74h4M3 75h3M9 75h1M11 75h1M147 75h3M153 75h1M155 75h1M3 76h3M10 76h1M12 76h1M147 76h3M154 76h1M156 76h1M3 77h3M9 77h1M11 77h1M147 77h3M153 77h1M155 77h1M0 78h3M6 78h3M10 78h1M12 78h4M144 78h3M150 78h3M154 78h1M156 78h4M0 79h3M6 79h4M11 79h1M13 79h3M144 79h3M150 79h4M155 79h1M157 79h3M0 80h3M6 80h3M10 80h1M12 80h4M144 80h3M150 80h3M154 80h1M156 80h4M0 81h3M6 81h4M11 81h1M13 81h3M144 81h3M150 81h4M155 81h1M157 81h3M0 82h1M2 82h1M6 82h3M10 82h1M12 82h4M144 82h3M150 82h3M154 82h1M156 82h4M0 83h3M7 83h3M11 83h1M13 83h3M144 83h3M150 83h4M155 83h1M157 83h3M0 84h3M6 84h3M10 84h1M12 84h4M144 84h3M150 84h3M154 84h1M156 84h4M0 87h3M6 87h4M11 87h1M13 87h3M145 87h2M150 87h4M155 87h1M157 87h3M0 88h3M6 88h3M10 88h1M12 88h4M144 88h3M150 88h3M154 88h1M156 88h4M0 89h3M6 89h4M11 89h1M13 89h3M144 89h3M150 89h4M155 89h1M157 89h3M0 90h3M6 90h3M10 90h1M12 90h4M144 90h3M150 90h3M154 90h1M156 90h4M3 91h3M9 91h1M11 91h1M147 91h3M153 91h1M155 91h1M3 92h3M10 92h1M12 92h1M147 92h3M154 92h1M156 92h1M3 93h3M9 93h1M11 93h1M147 93h3M153 93h1M155 93h1M0 94h3M6 94h3M10 94h1M12 94h4M144 94h3M150 94h3M154 94h1M156 94h1M158 94h2M0 95h3M6 95h4M11 95h1M13 95h3M144 95h3M150 95h4M155 95h1M157 95h3M0 96h3M6 96h3M10 96h1M12 96h4M144 96h3M150 96h3M154 96h1M156 96h4M0 97h3M6 97h4M11 97h1M13 97h3M144 97h1M146 97h1M150 97h4M155 97h1M157 97h3M0 98h3M6 98h3M10 98h1M12 98h4M144 98h3M150 98h3M154 98h1M156 98h4M0 99h3M6 99h2M9 99h1M11 99h1M13 99h3M144 99h3M150 99h4M155 99h1M157 99h3M0 100h3M6 100h3M10 100h1M12 100h2M15 100h1M144 100h3M150 100h3M154 100h1M156 100h2M159 100h1M0 103h3M6 103h4M11 103h1M13 103h3M144 103h3M150 103h4M155 103h1M157 103h3M0 104h3M6 104h3M10 104h1M12 104h4M144 104h3M150 104h3M154 104h1M156 104h4M0 105h3M6 105h4M11 105h1M13 105h3M144 105h3M150 105h4M155 105h1M157 105h3M0 106h3M6 106h3M10 106h1M12 106h4M144 106h3M150 106h3M156 106h4M3 107h3M9 107h1M11 107h1M147 107h3M153 107h1M155 107h1M3 108h3M10 108h1M12 108h1M147 108h3M154 108h1M156 108h1M3 109h3M9 109h1M11 109h1M147 109h3M153 109h1M155 109h1M0 110h3M6 110h3M10 110h1M12 110h4M144 110h3M150 110h3M154 110h1M156 110h4M0 111h3M6 111h4M11 111h1M13 111h3M144 111h3M150 111h4M155 111h1M157 111h3M0 112h3M6 112h3M10 112h1M12 112h4M144 112h3M150 112h3M154 112h1M156 112h4M0 113h3M6 113h4M11 113h1M13 113h3M144 113h3M150 113h4M155 113h1M157 113h3M0 114h3M6 114h3M10 114h1M12 114h4M144 114h3M150 114h3M154 114h1M156 114h4M0 115h3M6 115h4M11 115h1M13 115h3M144 115h3M150 115h2M153 115h1M155 115h1M157 115h3M0 116h3M6 116h3M10 116h1M12 116h4M144 116h2M150 116h3M154 116h1M156 116h4M0 119h3M6 119h4M11 119h1M13 119h3M144 119h3M150 119h4M155 119h1M157 119h3M0 120h3M6 120h3M10 120h1M12 120h4M144 120h3M150 120h3M154 120h1M156 120h4M0 121h3M6 121h4M11 121h1M13 121h3M144 121h3M150 121h4M155 121h1M157 121h3M0 122h3M6 122h3M10 122h1M12 122h4M144 122h3M150 122h3M154 122h1M156 122h4M3 123h3M9 123h1M11 123h1M147 123h3M153 123h1M155 123h1M3 124h3M10 124h1M12 124h1M147 124h1M149 124h1M154 124h1M156 124h1M3 125h3M9 125h1M11 125h1M147 125h3M153 125h1M155 125h1M0 126h3M6 126h3M10 126h1M12 126h4M144 126h3M150 126h3M154 126h1M156 126h4M0 127h3M6 127h4M11 127h1M13 127h3M144 127h3M150 127h4M155 127h1M157 127h3M0 128h3M6 128h3M10 128h1M12 128h5M18 128h3M24 128h3M28 128h1M30 128h9M42 128h3M46 128h1M48 128h9M60 128h3M64 128h1M66 128h9M78 128h3M82 128h1M84 128h9M96 128h3M100 128h1M102 128h9M114 128h3M118 128h1M120 128h9M132 128h3M136 128h1M138 128h3M142 128h5M150 128h3M154 128h1M156 128h4M0 129h3M6 129h4M11 129h1M13 129h8M24 129h4M29 129h1M31 129h8M42 129h4M47 129h1M49 129h8M60 129h4M65 129h1M67 129h8M78 129h4M83 129h1M85 129h8M96 129h4M101 129h1M103 129h8M114 129h4M119 129h1M121 129h8M132 129h4M137 129h1M139 129h8M150 129h4M155 129h1M157 129h3M0 130h3M6 130h3M10 130h1M12 130h9M24 130h3M28 130h1M30 130h9M42 130h3M46 130h1M48 130h9M60 130h3M64 130h1M66 130h9M78 130h3M82 130h1M84 130h9M96 130h3M100 130h1M102 130h9M114 130h3M118 130h1M120 130h9M132 130h3M136 130h1M138 130h9M150 130h3M154 130h1M156 130h4M0 131h3M6 131h4M11 131h1M13 131h8M24 131h4M29 131h1M31 131h8M42 131h4M47 131h1M49 131h8M60 131h4M65 131h1M67 131h8M78 131h4M83 131h1M85 131h8M96 131h4M101 131h1M104 131h7M114 131h4M119 131h1M122 131h7M132 131h4M137 131h1M139 131h8M150 131h4M155 131h1M157 131h3M0 132h3M6 132h3M10 132h1M12 132h9M24 132h3M28 132h1M30 132h9M42 132h3M46 132h1M48 132h9M60 132h3M64 132h1M66 132h9M78 132h3M82 132h1M84 132h9M96 132h3M100 132h1M102 132h9M114 132h3M118 132h1M120 132h9M132 132h3M136 132h1M138 132h9M150 132h3M154 132h1M156 132h4M0 135h3M6 135h4M11 135h1M13 135h8M24 135h4M29 135h1M31 135h2M34 135h5M42 135h4M47 135h1M49 135h8M60 135h4M65 135h1M67 135h8M78 135h4M83 135h1M85 135h8M96 135h4M101 135h1M103 135h8M114 135h4M119 135h1M121 135h8M132 135h4M137 135h1M139 135h8M150 135h4M155 135h1M157 135h3M0 136h3M6 136h3M10 136h1M12 136h9M24 136h3M28 136h1M30 136h9M42 136h3M46 136h1M48 136h9M60 136h3M64 136h1M66 136h9M78 136h3M82 136h1M84 136h9M96 136h3M100 136h1M102 136h8M114 136h3M120 136h9M132 136h3M136 136h1M138 136h9M150 136h3M154 136h1M156 136h4M0 137h3M6 137h4M11 137h1M13 137h8M24 137h4M29 137h1M31 137h8M43 137h3M47 137h1M49 137h8M60 137h4M65 137h1M67 137h8M78 137h4M83 137h1M85 137h8M96 137h4M101 137h1M103 137h8M114 137h4M119 137h1M121 137h8M132 137h4M137 137h1M139 137h8M150 137h4M155 137h1M157 137h3M0 138h3M6 138h3M10 138h1M12 138h9M24 138h3M28 138h1M30 138h9M42 138h3M46 138h1M48 138h9M60 138h3M64 138h1M66 138h9M78 138h3M82 138h1M85 138h8M96 138h3M100 138h1M102 138h9M114 138h3M118 138h1M120 138h9M132 138h3M136 138h1M138 138h9M150 138h3M154 138h1M156 138h4M3 139h3M9 139h1M11 139h1M21 139h3M27 139h1M29 139h1M39 139h3M45 139h1M47 139h1M57 139h3M63 139h1M65 139h1M75 139h3M81 139h1M83 139h1M93 139h3M99 139h1M101 139h1M111 139h3M117 139h1M119 139h1M129 139h3M135 139h1M137 139h1M147 139h3M153 139h1M155 139h1M3 140h3M10 140h1M12 140h1M21 140h3M28 140h1M30 140h1M39 140h3M46 140h1M48 140h1M57 140h3M64 140h1M66 140h1M75 140h3M82 140h1M84 140h1M93 140h3M100 140h1M102 140h1M111 140h3M118 140h1M120 140h1M129 140h3M136 140h1M138 140h1M147 140h3M154 140h1M156 140h1M3 141h3M9 141h1M11 141h1M21 141h3M27 141h1M29 141h1M39 141h3M45 141h1M47 141h1M57 141h2M63 141h1M65 141h1M75 141h3M81 141h1M83 141h1M93 141h1M95 141h1M99 141h1M101 141h1M111 141h3M117 141h1M119 141h1M129 141h3M135 141h1M137 141h1M147 141h3M153 141h1M155 141h1M0 142h3M6 142h3M10 142h1M12 142h9M24 142h3M28 142h1M30 142h9M42 142h3M46 142h1M48 142h9M60 142h3M64 142h1M66 142h9M78 142h3M82 142h1M84 142h9M96 142h3M100 142h1M102 142h9M114 142h3M120 142h9M132 142h3M136 142h1M138 142h9M150 142h3M154 142h1M156 142h4M0 143h3M6 143h4M11 143h1M13 143h8M24 143h4M29 143h1M31 143h8M42 143h4M47 143h1M49 143h8M60 143h4M65 143h1M67 143h8M78 143h4M83 143h1M85 143h8M96 143h4M101 143h1M103 143h8M114 143h4M119 143h1M121 143h8M132 143h4M137 143h1M139 143h8M150 143h4M155 143h1M157 143h3" />
<path stroke="#ffffff" d="M3 0h3M21 0h3M39 0h3M57 0h3M75 0h3M93 0h3M111 0h3M129 0h3M147 0h3M3 1h3M21 1h3M39 1h3M57 1h3M75 1h3M93 1h3M111 1h3M129 1h3M147 1h3M3 2h3M21 2h3M39 2h3M57 2h3M75 2h3M93 2h3M111 2h3M129 2h3M147 2h3M3 3h3M21 3h3M39 3h3M57 3h3M75 3h3M93 3h3M111 3h3M129 3h3M147 3h3M3 4h3M21 4h3M39 4h3M57 4h3M75 4h3M93 4h3M111 4h3M129 4h1M131 4h1M147 4h3M0 5h10M11 5h1M13 5h15M29 5h1M31 5h8M40 5h6M47 5h1M49 5h15M65 5h1M67 5h9M77 5h5M83 5h1M85 5h15M101 5h1M103 5h15M119 5h1M121 5h15M137 5h1M139 5h2M142 5h12M155 5h1M157 5h3M0 6h9M10 6h1M12 6h15M28 6h1M30 6h15M46 6h1M48 6h15M64 6h1M66 6h15M82 6h1M84 6h15M100 6h1M102 6h15M118 6h1M120 6h14M136 6h1M138 6h15M154 6h1M156 6h4M3 7h3M21 7h3M39 7h3M57 7h3M75 7h3M93 7h3M111 7h3M129 7h3M147 7h3M3 8h3M21 8h3M39 8h3M57 8h3M75 8h3M93 8h3M111 8h3M129 8h3M147 8h2M3 9h3M21 9h3M39 9h3M57 9h3M76 9h2M93 9h3M111 9h3M129 9h3M147 9h3M3 10h3M21 10h3M39 10h3M57 10h3M75 10h3M93 10h3M111 10h3M129 10h3M147 10h3M3 14h3M21 14h3M39 14h3M57 14h3M75 14h3M93 14h3M111 14h3M129 14h3M147 14h3M3 15h3M21 15h3M39 15h3M57 15h3M75 15h3M93 15h3M111 15h3M129 15h3M147 15h3M3 16h3M147 16h3M3 17h3M147 17h3M3 18h3M147 18h3M3 19h3M147 19h3M3 20h3M147 20h3M0 21h10M11 21h1M13 21h3M144 21h10M155 21h1M157 21h3M0 22h9M10 22h1M12 22h4M144 22h9M154 22h1M156 22h4M3 23h3M147 23h3M3 24h3M147 24h3M3 25h3M147 25h3M3 26h3M147 26h3M3 30h3M147 30h3M3 31h3M147 31h3M3 32h1M5 32h1M147 32h3M3 33h3M147 33h3M3 34h3M147 34h3M3 35h3M147 35h3M3 36h2M147 36h3M0 37h10M11 37h1M13 37h3M144 37h10M157 37h3M0 38h9M10 38h1M12 38h4M144 38h9M154 38h1M156 38h4M3 39h3M147 39h3M3 40h3M147 40h3M3 41h3M147 41h3M3 42h3M147 42h3M3 46h3M147 46h3M3 47h3M147 47h3M3 48h3M147 48h3M3 49h3M147 49h3M3 50h3M147 50h3M3 51h3M148 51h2M3 52h3M147 52h3M0 53h10M11 53h1M13 53h3M144 53h10M155 53h1M157 53h3M0 54h9M10 54h1M12 54h4M144 54h9M154 54h1M156 54h4M3 55h3M147 55h3M3 56h3M147 56h3M3 57h3M147 57h3M3 58h3M147 58h3M3 62h3M147 62h3M3 63h3M147 63h3M3 64h3M147 64h3M3 65h3M147 65h3M3 66h3M147 66h3M3 67h3M147 67h3M3 68h3M147 68h3M0 69h10M11 69h1M14 69h2M144 69h6M152 69h2M155 69h1M157 69h3M0 70h9M10 70h1M12 70h4M144 70h9M154 70h1M156 70h4M3 71h3M147 71h3M3 72h3M147 72h3M3 73h3M147 73h3M3 74h3M147 74h3M3 78h3M147 78h3M3 79h3M147 79h3M3 80h3M147 80h3M3 81h3M147 81h3M3 82h3M147 82h3M3 83h3M147 83h3M3 84h3M147 84h3M0 85h10M11 85h1M13 85h2M144 85h10M155 85h1M157 85h3M0 86h2M3 86h6M10 86h1M12 86h4M144 86h9M154 86h1M156 86h4M3 87h3M147 87h3M3 88h3M147 88h3M3 89h3M147 89h3M3 90h3M147 90h3M3 94h3M147 94h3M3 95h3M147 95h3M3 96h3M147 96h3M3 97h3M147 97h3M3 98h3M147 98h3M3 99h3M147 99h3M3 100h3M147 100h3M0 101h10M11 101h1M13 101h3M144 101h10M155 101h1M157 101h3M0 102h9M10 102h1M12 102h4M144 102h9M154 102h1M156 102h4M3 103h3M147 103h3M3 104h3M147 104h3M3 105h3M147 105h3M3 106h3M147 106h3M3 110h3M147 110h3M3 111h3M147 111h3M3 112h3M147 112h3M3 113h3M147 113h3M3 114h3M147 114h3M3 115h3M148 115h2M3 116h3M147 116h3M0 117h10M11 117h1M13 117h3M144 117h6M151 117h3M155 117h1M157 117h3M0 118h9M10 118h1M12 118h4M144 118h9M154 118h1M156 118h4M3 119h3M147 119h3M3 120h3M147 120h3M3 121h3M147 121h3M3 122h3M147 122h3M3 126h3M147 126h3M3 127h3M147 127h3M3 128h3M21 128h3M39 128h3M57 128h3M75 128h3M93 128h3M111 128h3M129 128h3M147 128h3M3 129h3M21 129h2M39 129h3M57 129h3M75 129h3M93 129h3M111 129h3M129 129h3M147 129h3M3 130h3M21 130h3M39 130h3M57 130h3M75 130h3M93 130h3M111 130h3M129 130h3M147 130h3M3 131h3M21 131h3M39 131h3M57 131h3M75 131h3M93 131h3M111 131h3M129 131h3M147 131h3M3 132h3M21 132h3M39 132h3M57 132h3M75 132h1M77 132h1M93 132h1M95 132h1M111 132h3M129 132h3M147 132h3M0 133h9M11 133h1M13 133h15M29 133h1M31 133h15M47 133h1M49 133h15M65 133h1M67 133h15M83 133h1M85 133h15M101 133h1M103 133h15M119 133h1M121 133h15M137 133h1M139 133h15M155 133h1M157 133h3M0 134h9M10 134h1M12 134h15M28 134h1M30 134h15M46 134h1M48 134h15M64 134h1M66 134h15M82 134h1M84 134h15M100 134h1M102 134h15M118 134h1M120 134h15M136 134h1M138 134h15M154 134h1M156 134h4M3 135h3M21 135h3M39 135h3M57 135h3M75 135h3M93 135h3M111 135h3M129 135h3M147 135h3M3 136h3M21 136h3M39 136h3M57 136h3M75 136h3M93 136h3M111 136h3M129 136h3M147 136h3M3 137h3M21 137h3M39 137h3M57 137h3M75 137h3M93 137h3M111 137h3M129 137h3M147 137h3M3 138h3M21 138h3M39 138h3M57 138h3M75 138h3M93 138h3M111 138h3M129 138h3M147 138h3M3 142h3M21 142h3M39 142h3M57 142h3M75 142h3M93 142h3M111 142h3M129 142h3M147 142h3M3 143h3M21 143h3M39 143h3M57 143h3M76 143h2M93 143h3M111 143h3M129 143h3M147 143h3" />
<path stroke="#515151" d="M9 0h1M11 0h1M27 0h1M29 0h1M45 0h1M47 0h1M63 0h1M65 0h1M81 0h1M83 0h1M99 0h1M101 0h1M117 0h1M119 0h1M135 0h1M137 0h1M153 0h1M155 0h1M10 1h1M12 1h1M28 1h1M30 1h1M46 1h1M48 1h1M64 1h1M66 1h1M82 1h1M84 1h1M100 1h1M102 1h1M118 1h1M120 1h1M136 1h1M138 1h1M154 1h1M156 1h1M9 2h1M11 2h1M27 2h1M29 2h1M45 2h1M47 2h1M63 2h1M65 2h1M81 2h1M83 2h1M101 2h1M117 2h1M119 2h1M135 2h1M137 2h1M153 2h1M155 2h1M10 3h1M12 3h1M28 3h1M30 3h1M46 3h1M48 3h1M64 3h1M66 3h1M82 3h1M84 3h1M100 3h1M102 3h1M118 3h1M120 3h1M136 3h1M138 3h1M154 3h1M156 3h1M9 4h1M11 4h1M27 4h1M29 4h1M45 4h1M47 4h1M63 4h1M65 4h1M81 4h1M83 4h1M99 4h1M101 4h1M117 4h1M119 4h1M135 4h1M137 4h1M153 4h1M155 4h1M10 5h1M12 5h1M28 5h1M30 5h1M46 5h1M48 5h1M64 5h1M66 5h1M82 5h1M84 5h1M100 5h1M102 5h1M118 5h1M120 5h1M136 5h1M138 5h1M154 5h1M156 5h1M9 6h1M11 6h1M27 6h1M29 6h1M45 6h1M47 6h1M63 6h1M65 6h1M81 6h1M83 6h1M99 6h1M101 6h1M119 6h1M135 6h1M137 6h1M153 6h1M155 6h1M10 7h1M12 7h1M28 7h1M30 7h1M46 7h1M48 7h1M64 7h1M66 7h1M82 7h1M84 7h1M100 7h1M102 7h1M118 7h1M120 7h1M136 7h1M138 7h1M154 7h1M156 7h1M9 8h1M11 8h1M27 8h1M29 8h1M45 8h1M47 8h1M63 8h1M65 8h1M81 8h1M83 8h1M99 8h1M101 8h1M117 8h1M119 8h1M137 8h1M153 8h1M155 8h1M10 9h1M12 9h1M28 9h1M30 9h1M46 9h1M48 9h1M64 9h1M66 9h1M82 9h1M84 9h1M100 9h1M102 9h1M118 9h1M120 9h1M136 9h1M138 9h1M154 9h1M156 9h1M9 10h1M11 10h1M27 10h1M29 10h1M45 10h1M47 10h1M63 10h1M65 10h1M81 10h1M83 10h1M99 10h1M101 10h1M117 10h1M119 10h1M135 10h1M137 10h1M153 10h1M155 10h1M0 11h3M6 11h3M10 11h1M12 11h9M24 11h3M28 11h1M30 11h9M42 11h3M46 11h1M48 11h9M60 11h3M64 11h1M66 11h9M78 11h3M82 11h1M84 11h9M96 11h3M100 11h1M102 11h9M114 11h3M118 11h1M120 11h9M132 11h3M136 11h1M138 11h3M142 11h5M150 11h3M154 11h1M156 11h4M0 12h3M6 12h4M11 12h1M13 12h8M24 12h4M29 12h1M31 12h8M42 12h4M47 12h1M49 12h8M60 12h4M65 12h1M67 12h8M78 12h4M83 12h1M85 12h8M96 12h4M101 12h1M103 12h8M114 12h4M119 12h1M121 12h8M132 12h4M137 12h1M139 12h8M150 12h4M155 12h1M157 12h3M0 13h3M6 13h3M10 13h1M12 13h9M24 13h1M26 13h1M28 13h1M30 13h9M42 13h3M46 13h1M48 13h9M60 13h3M64 13h1M66 13h9M78 13h3M82 13h1M84 13h9M96 13h3M100 13h1M102 13h9M114 13h3M118 13h1M120 13h9M132 13h3M136 13h1M138 13h9M150 13h3M154 13h1M156 13h4M9 14h1M11 14h1M27 14h1M29 14h1M45 14h1M47 14h1M63 14h1M65 14h1M81 14h1M83 14h1M99 14h1M101 14h1M117 14h1M119 14h1M135 14h1M137 14h1M153 14h1M155 14h1M10 15h1M12 15h1M28 15h1M30 15h1M46 15h1M48 15h1M64 15h1M66 15h1M82 15h1M100 15h1M102 15h1M118 15h1M136 15h1M138 15h1M154 15h1M156 15h1M9 16h1M11 16h1M153 16h1M155 16h1M10 17h1M12 17h1M154 17h1M156 17h1M9 18h1M11 18h1M155 18h1M10 19h1M12 19h1M154 19h1M156 19h1M9 20h1M11 20h1M153 20h1M155 20h1M10 21h1M12 21h1M154 21h1M156 21h1M9 22h1M11 22h1M153 22h1M155 22h1M10 23h1M12 23h1M156 23h1M9 24h1M11 24h1M153 24h1M155 24h1M10 25h1M12 25h1M154 25h1M156 25h1M9 26h1M11 26h1M153 26h1M155 26h1M0 27h3M6 27h3M10 27h1M12 27h4M144 27h3M150 27h3M154 27h1M156 27h4M0 28h1M2 28h1M6 28h4M11 28h1M13 28h3M144 28h3M150 28h4M155 28h1M157 28h3M0 29h3M6 29h3M10 29h1M12 29h4M144 29h3M150 29h3M154 29h1M156 29h4M9 30h1M11 30h1M153 30h1M155 30h1M12 31h1M154 31h1M156 31h1M9 32h1M11 32h1M153 32h1M155 32h1M10 33h1M12 33h1M154 33h1M156 33h1M9 34h1M11 34h1M153 34h1M155 34h1M10 35h1M12 35h1M154 35h1M156 35h1M9 36h1M11 36h1M153 36h1M155 36h1M10 37h1M12 37h1M154 37h1M156 37h1M9 38h1M11 38h1M153 38h1M155 38h1M10 39h1M12 39h1M154 39h1M156 39h1M9 40h1M11 40h1M153 40h1M155 40h1M10 41h1M12 41h1M154 41h1M156 41h1M9 42h1M11 42h1M153 42h1M155 42h1M0 43h3M6 43h2M10 43h1M12 43h4M144 43h3M150 43h3M154 43h1M156 43h4M0 44h3M6 44h4M11 44h1M13 44h3M144 44h3M150 44h4M155 44h1M157 44h3M0 45h3M6 45h3M10 45h1M12 45h4M144 45h3M150 45h3M154 45h1M156 45h4M9 46h1M11 46h1M153 46h1M155 46h1M10 47h1M12 47h1M154 47h1M156 47h1M9 48h1M11 48h1M153 48h1M155 48h1M10 49h1M12 49h1M154 49h1M156 49h1M9 50h1M11 50h1M153 50h1M155 50h1M10 51h1M12 51h1M154 51h1M156 51h1M9 52h1M11 52h1M153 52h1M155 52h1M10 53h1M12 53h1M154 53h1M156 53h1M9 54h1M11 54h1M153 54h1M155 54h1M10 55h1M12 55h1M154 55h1M156 55h1M9 56h1M11 56h1M153 56h1M155 56h1M10 57h1M12 57h1M154 57h1M156 57h1M9 58h1M11 58h1M153 58h1M155 58h1M0 59h3M6 59h3M10 59h1M12 59h4M144 59h3M150 59h3M154 59h1M156 59h4M0 60h3M6 60h4M11 60h1M13 60h3M144 60h3M150 60h4M155 60h1M157 60h3M0 61h3M6 61h3M10 61h1M12 61h4M144 61h3M150 61h3M154 61h1M156 61h4M9 62h1M11 62h1M153 62h1M155 62h1M10 63h1M12 63h1M154 63h1M156 63h1M9 64h1M11 64h1M153 64h1M155 64h1M10 65h1M12 65h1M154 65h1M156 65h1M9 66h1M11 66h1M153 66h1M155 66h1M10 67h1M12 67h1M154 67h1M156 67h1M9 68h1M11 68h1M153 68h1M155 68h1M10 69h1M12 69h1M154 69h1M156 69h1M9 70h1M11 70h1M153 70h1M155 70h1M10 71h1M12 71h1M154 71h1M156 71h1M9 72h1M11 72h1M153 72h1M155 72h1M12 73h1M154 73h1M156 73h1M9 74h1M11 74h1M153 74h1M155 74h1M0 75h3M6 75h3M10 75h1M12 75h4M144 75h3M150 75h3M154 75h1M156 75h4M0 76h3M6 76h4M11 76h1M13 76h3M144 76h3M150 76h4M155 76h1M157 76h3M0 77h3M6 77h3M10 77h1M12 77h4M144 77h3M150 77h3M154 77h1M156 77h4M9 78h1M11 78h1M153 78h1M155 78h1M10 79h1M12 79h1M154 79h1M156 79h1M9 80h1M11 80h1M153 80h1M155 80h1M10 81h1M12 81h1M154 81h1M156 81h1M9 82h1M11 82h1M153 82h1M155 82h1M10 83h1M12 83h1M154 83h1M156 83h1M9 84h1M11 84h1M153 84h1M155 84h1M10 85h1M12 85h1M154 85h1M156 85h1M9 86h1M11 86h1M153 86h1M155 86h1M10 87h1M12 87h1M154 87h1M9 88h1M11 88h1M153 88h1M155 88h1M10 89h1M12 89h1M154 89h1M156 89h1M9 90h1M11 90h1M153 90h1M155 90h1M0 91h3M6 91h3M10 91h1M12 91h4M144 91h3M150 91h3M154 91h1M156 91h3M0 92h3M6 92h4M11 92h1M13 92h3M144 92h3M150 92h4M155 92h1M157 92h3M0 93h3M6 93h3M10 93h1M12 93h4M144 93h3M150 93h3M154 93h1M156 93h4M9 94h1M11 94h1M153 94h1M155 94h1M10 95h1M12 95h1M154 95h1M156 95h1M9 96h1M11 96h1M153 96h1M155 96h1M10 97h1M12 97h1M154 97h1M156 97h1M9 98h1M11 98h1M153 98h1M155 98h1M10 99h1M12 99h1M154 99h1M156 99h1M9 100h1M153 100h1M155 100h1M10 101h1M12 101h1M154 101h1M156 101h1M9 102h1M11 102h1M153 102h1M155 102h1M10 103h1M12 103h1M154 103h1M156 103h1M9 104h1M11 104h1M153 104h1M10 105h1M12 105h1M154 105h1M156 105h1M9 106h1M11 106h1M153 106h1M0 107h3M6 107h3M10 107h1M12 107h4M144 107h3M151 107h2M154 107h1M156 107h4M0 108h3M6 108h4M11 108h1M13 108h3M144 108h3M150 108h4M155 108h1M157 108h3M0 109h3M6 109h3M10 109h1M12 109h4M144 109h3M150 109h3M154 109h1M156 109h4M9 110h1M11 110h1M153 110h1M155 110h1M10 111h1M12 111h1M154 111h1M156 111h1M9 112h1M11 112h1M153 112h1M155 112h1M10 113h1M12 113h1M154 113h1M156 113h1M9 114h1M11 114h1M153 114h1M155 114h1M10 115h1M12 115h1M154 115h1M156 115h1M9 116h1M11 116h1M153 116h1M155 116h1M10 117h1M12 117h1M154 117h1M156 117h1M9 118h1M11 118h1M153 118h1M155 118h1M10 119h1M12 119h1M154 119h1M156 119h1M9 120h1M11 120h1M153 120h1M10 121h1M12 121h1M154 121h1M156 121h1M9 122h1M11 122h1M153 122h1M155 122h1M0 123h3M6 123h3M10 123h1M12 123h4M144 123h3M150 123h3M154 123h1M156 123h4M0 124h3M6 124h4M11 124h1M13 124h3M144 124h3M150 124h4M155 124h1M157 124h3M0 125h3M6 125h3M10 125h1M12 125h4M144 125h3M150 125h3M154 125h1M156 125h4M9 126h1M11 126h1M153 126h1M155 126h1M10 127h1M12 127h1M154 127h1M156 127h1M9 128h1M11 128h1M27 128h1M29 128h1M45 128h1M47 128h1M63 128h1M65 128h1M81 128h1M83 128h1M99 128h1M101 128h1M117 128h1M119 128h1M135 128h1M137 128h1M153 128h1M155 128h1M10 129h1M12 129h1M28 129h1M30 129h1M46 129h1M48 129h1M64 129h1M66 129h1M82 129h1M84 129h1M100 129h1M102 129h1M118 129h1M120 129h1M136 129h1M138 129h1M154 129h1M156 129h1M9 130h1M11 130h1M27 130h1M29 130h1M45 130h1M47 130h1M63 130h1M65 130h1M81 130h1M83 130h1M101 130h1M117 130h1M119 130h1M135 130h1M137 130h1M153 130h1M155 130h1M10 131h1M12 131h1M28 131h1M30 131h1M46 131h1M48 131h1M64 131h1M66 131h1M82 131h1M84 131h1M102 131h1M118 131h1M120 131h1M136 131h1M138 131h1M154 131h1M156 131h1M9 132h1M11 132h1M27 132h1M29 132h1M45 132h1M47 132h1M63 132h1M65 132h1M81 132h1M83 132h1M99 132h1M101 132h1M117 132h1M119 132h1M135 132h1M137 132h1M153 132h1M155 132h1M10 133h1M12 133h1M28 133h1M30 133h1M46 133h1M48 133h1M64 133h1M66 133h1M82 133h1M84 133h1M100 133h1M102 133h1M118 133h1M120 133h1M136 133h1M138 133h1M154 133h1M156 133h1M9 134h1M11 134h1M27 134h1M29 134h1M45 134h1M47 134h1M63 134h1M65 134h1M81 134h1M83 134h1M99 134h1M101 134h1M117 134h1M119 134h1M135 134h1M137 134h1M153 134h1M155 134h1M10 135h1M12 135h1M28 135h1M30 135h1M46 135h1M48 135h1M64 135h1M66 135h1M82 135h1M84 135h1M100 135h1M102 135h1M118 135h1M120 135h1M136 135h1M138 135h1M154 135h1M156 135h1M9 136h1M11 136h1M27 136h1M29 136h1M45 136h1M47 136h1M63 136h1M65 136h1M81 136h1M83 136h1M99 136h1M101 136h1M117 136h1M119 136h1M135 136h1M137 136h1M153 136h1M155 136h1M10 137h1M12 137h1M28 137h1M30 137h1M46 137h1M48 137h1M64 137h1M66 137h1M82 137h1M84 137h1M100 137h1M102 137h1M118 137h1M120 137h1M136 137h1M138 137h1M154 137h1M156 137h1M9 138h1M11 138h1M27 138h1M29 138h1M45 138h1M47 138h1M63 138h1M65 138h1M81 138h1M83 138h1M99 138h1M101 138h1M117 138h1M119 138h1M135 138h1M137 138h1M153 138h1M155 138h1M0 139h3M6 139h3M10 139h1M12 139h9M24 139h3M28 139h1M30 139h9M42 139h3M46 139h1M48 139h9M60 139h3M64 139h1M66 139h9M78 139h3M82 139h1M84 139h9M96 139h3M100 139h1M102 139h2M105 139h6M114 139h3M118 139h1M120 139h9M132 139h3M136 139h1M138 139h4M143 139h4M150 139h3M154 139h1M156 139h4M0 140h3M6 140h4M11 140h1M13 140h8M24 140h4M29 140h1M31 140h8M42 140h4M47 140h1M49 140h8M60 140h4M65 140h1M67 140h8M78 140h4M83 140h1M85 140h8M96 140h4M101 140h1M103 140h8M114 140h4M119 140h1M121 140h8M132 140h4M137 140h1M139 140h8M150 140h4M155 140h1M157 140h3M0 141h3M6 141h3M10 141h1M12 141h9M24 141h3M28 141h1M30 141h9M42 141h3M46 141h1M48 141h9M60 141h3M64 141h1M66 141h9M78 141h3M82 141h1M84 141h9M96 141h3M100 141h1M102 141h9M114 141h3M118 141h1M120 141h9M133 141h2M136 141h1M138 141h9M151 141h2M154 141h1M156 141h4M9 142h1M11 142h1M27 142h1M29 142h1M45 142h1M47 142h1M63 142h1M65 142h1M81 142h1M83 142h1M99 142h1M101 142h1M117 142h1M119 142h1M135 142h1M137 142h1M153 142h1M10 143h1M12 143h1M28 143h1M46 143h1M48 143h1M64 143h1M66 143h1M82 143h1M84 143h1M100 143h1M102 143h1M118 143h1M120 143h1M136 143h1M138 143h1M154 143h1M156 143h1" />
<path stroke="#a2a2a3" d="M158 0h1M67 4h1M88 4h1M109 4h1M12 14h1M146 24h1M1 40h1M10 58h1M11 63h1M1 82h1M6 83h1M157 94h1M145 97h1M8 99h1M154 106h1M148 124h1M141 128h1M118 136h1M42 137h1M59 141h1M118 142h1" />
<path stroke="#a2a3a2" d="M6 1h1M138 4h1M143 8h1M13 48h1M1 63h1M146 116h1M17 128h1M94 141h1" />
<path stroke="#515150" d="M99 2h1M135 8h1M141 11h1M25 13h1M1 28h1M10 31h1M10 73h1M150 107h1M155 120h1M142 139h1M30 143h1" />
<path stroke="#a3a2a2" d="M123 3h1M53 4h1M44 10h1M152 10h1M28 14h1M150 18h1M8 31h1M159 39h1M10 44h1M15 63h1M8 64h1M1 71h1M144 87h1M14 100h1M158 100h1M152 115h1M103 131h1M121 131h1M33 135h1M110 136h1M84 138h1" />
<path stroke="#fffffe" d="M130 4h1M39 5h1M141 5h1M134 6h1M5 36h1M23 129h1M75 143h1" />
<path stroke="#feffff" d="M76 5h1M75 9h1M4 32h1M155 37h1M147 51h1M150 69h1M150 117h1" />
<path stroke="#505151" d="M117 6h1M84 15h1M120 15h1M153 18h1M154 23h1M8 43h1M156 87h1M11 100h1M155 106h1M100 131h1M104 139h1M132 141h1M150 141h1M155 142h1" />
<path stroke="#fffeff" d="M149 8h1M13 69h1M151 69h1M15 85h1M2 86h1M147 115h1M76 132h1M94 132h1M9 133h1" />
<path stroke="#515051" d="M159 91h1M155 104h1M99 130h1" />
</svg>