<svg xmlns="http://www.w3.org/2000/svg" viewBox="0 -0.5 160 144" shape-rendering="crispEdges">
<metadata>Made with Pixels to Svg https://codepen.io/shshaw/pen/XbxvNj</metadata>
<path stroke="#000000" d="M0 0h79M80 0h44M125 0h34M0 1h60M61 1h27M89 1h71M0 2h2M14 2h2M32 2h2M46 2h2M64 2h2M78 2h2M96 2h2M110 2h2M128 2h2M140 2h2M158 2h2M0 3h2M14 3h2M32 3h2M46 3h2M64 3h2M78 3h2M96 3h2M110 3h2M128 3h2M140 3h2M158 3h2M0 4h2M4 4h8M14 4h2M18 4h12M32 4h2M36 4h8M46 4h2M50 4h12M64 4h2M68 4h8M78 4h2M82 4h12M96 4h2M100 4h8M110 4h2M114 4h12M128 4h2M132 4h7M140 4h2M144 4h12M158 4h2M0 5h2M4 5h2M11 5h1M14 5h2M18 5h2M28 5h2M32 5h2M36 5h2M43 5h1M46 5h2M50 5h2M60 5h2M64 5h2M68 5h2M75 5h1M78 5h2M82 5h2M92 5h2M96 5h2M100 5h2M107 5h1M110 5h2M114 5h2M124 5h2M128 5h2M132 5h2M138 5h1M140 5h2M144 5h2M154 5h2M158 5h2M0 6h2M4 6h2M11 6h1M14 6h2M18 6h2M28 6h2M32 6h2M36 6h2M43 6h1M46 6h2M50 6h2M60 6h2M64 6h2M68 6h2M75 6h1M78 6h2M82 6h2M92 6h2M96 6h2M100 6h2M107 6h1M110 6h2M114 6h2M124 6h2M128 6h2M132 6h2M138 6h1M140 6h2M144 6h2M154 6h2M158 6h2M0 7h2M4 7h2M8 7h4M14 7h2M18 7h2M22 7h4M28 7h2M32 7h2M36 7h2M40 7h4M46 7h1M50 7h2M54 7h4M60 7h2M64 7h2M68 7h2M72 7h4M78 7h2M82 7h2M86 7h4M92 7h2M96 7h2M100 7h2M104 7h4M110 7h2M114 7h2M118 7h4M124 7h2M128 7h2M132 7h2M136 7h3M140 7h2M144 7h2M148 7h2M151 7h1M154 7h2M158 7h2M0 8h2M4 8h2M8 8h4M14 8h2M18 8h2M22 8h2M25 8h1M28 8h2M32 8h2M36 8h2M40 8h4M46 8h2M50 8h2M54 8h4M60 8h2M64 8h2M68 8h2M72 8h4M78 8h2M82 8h2M86 8h4M92 8h2M96 8h2M100 8h2M104 8h4M110 8h2M114 8h2M118 8h4M124 8h2M128 8h2M132 8h2M136 8h2M140 8h2M144 8h2M148 8h4M154 8h2M158 8h2M0 9h2M4 9h2M14 9h2M18 9h2M22 9h1M28 9h2M32 9h2M36 9h2M46 9h2M50 9h2M54 9h1M60 9h2M64 9h2M68 9h2M78 9h2M82 9h2M86 9h1M92 9h2M96 9h2M100 9h2M110 9h2M114 9h2M118 9h1M124 9h2M128 9h1M132 9h2M140 9h2M144 9h2M148 9h1M154 9h2M158 9h2M0 10h2M4 10h2M14 10h2M18 10h2M22 10h1M28 10h2M32 10h2M36 10h2M46 10h2M50 10h2M54 10h1M60 10h2M64 10h2M68 10h2M78 10h2M82 10h2M86 10h1M92 10h2M96 10h2M100 10h2M110 10h2M114 10h2M118 10h1M124 10h2M128 10h2M132 10h2M140 10h2M144 10h2M148 10h1M154 10h2M158 10h2M0 11h2M4 11h12M18 11h2M22 11h8M32 11h2M36 11h12M50 11h2M54 11h8M64 11h2M68 11h12M82 11h2M86 11h8M96 11h2M100 11h8M109 11h3M114 11h2M118 11h8M128 11h2M132 11h10M144 11h2M148 11h8M158 11h2M0 12h2M18 12h2M32 12h2M50 12h2M64 12h1M82 12h2M96 12h2M114 12h2M128 12h2M144 12h2M158 12h2M0 13h2M18 13h2M32 13h2M50 13h2M64 13h2M82 13h2M96 13h2M115 13h1M128 13h2M144 13h2M158 13h2M0 14h79M81 14h13M95 14h28M124 14h36M0 15h160M0 16h2M14 16h2M144 16h2M158 16h2M0 17h2M14 17h1M144 17h2M158 17h2M0 18h2M4 18h8M14 18h2M144 18h2M148 18h8M158 18h2M0 19h2M4 19h8M14 19h2M144 19h2M148 19h5M154 19h2M158 19h2M0 20h2M4 20h1M11 20h1M14 20h2M144 20h2M148 20h1M155 20h1M158 20h2M0 21h2M4 21h1M11 21h1M14 21h2M144 21h2M148 21h1M155 21h1M158 21h2M0 22h2M4 22h1M7 22h2M11 22h1M14 22h1M144 22h2M148 22h1M151 22h2M155 22h1M158 22h2M0 23h2M4 23h1M7 23h2M11 23h1M14 23h2M144 23h2M148 23h1M151 23h2M155 23h1M158 23h2M0 24h2M4 24h1M7 24h2M11 24h1M14 24h2M144 24h2M148 24h1M151 24h2M155 24h1M158 24h2M0 25h2M4 25h1M7 25h5M14 25h2M144 25h2M148 25h1M151 25h5M158 25h2M0 26h2M4 26h1M14 26h2M144 26h2M148 26h1M158 26h2M0 27h2M4 27h1M14 27h2M144 27h2M148 27h1M158 27h2M0 28h2M4 28h12M144 28h2M148 28h12M0 29h1M4 29h12M144 29h2M148 29h12M0 30h2M14 30h2M144 30h2M158 30h2M0 31h2M14 31h2M144 31h2M158 31h2M0 32h12M14 32h2M144 32h12M158 32h2M0 33h1M2 33h10M14 33h2M144 33h12M158 33h2M0 34h2M11 34h1M14 34h2M144 34h2M155 34h1M158 34h2M0 35h2M11 35h1M14 35h2M144 35h2M155 35h1M158 35h2M0 36h2M4 36h5M11 36h1M14 36h2M144 36h2M148 36h5M155 36h1M158 36h2M0 37h2M4 37h1M7 37h2M11 37h1M15 37h1M144 37h2M148 37h1M151 37h2M155 37h1M158 37h2M0 38h2M4 38h1M7 38h2M11 38h1M14 38h2M144 38h2M148 38h1M151 38h2M155 38h1M159 38h1M0 39h2M4 39h1M7 39h2M11 39h1M14 39h2M144 39h2M148 39h1M151 39h2M155 39h1M158 39h2M0 40h2M4 40h1M11 40h1M14 40h2M144 40h2M148 40h1M155 40h1M158 40h2M0 41h2M4 41h1M11 41h1M14 41h2M144 41h2M148 41h1M155 41h1M158 41h2M0 42h2M4 42h8M14 42h2M144 42h2M148 42h8M158 42h2M0 43h2M4 43h8M14 43h2M144 43h2M148 43h8M158 43h2M0 44h2M14 44h2M144 44h2M158 44h2M0 45h2M14 45h2M144 45h2M158 45h2M0 46h8M9 46h7M144 46h16M0 47h16M144 47h16M0 48h2M14 48h2M144 48h2M158 48h2M0 49h2M14 49h2M144 49h2M158 49h2M0 50h2M4 50h8M14 50h2M144 50h2M148 50h8M158 50h2M0 51h2M4 51h8M14 51h2M144 51h2M148 51h8M158 51h2M0 52h2M4 52h1M11 52h1M14 52h2M144 52h2M148 52h1M155 52h1M158 52h2M0 53h2M4 53h1M11 53h1M14 53h2M144 53h2M148 53h1M155 53h1M158 53h2M0 54h2M4 54h1M7 54h2M11 54h1M14 54h2M144 54h2M148 54h1M151 54h2M155 54h1M158 54h2M0 55h2M4 55h1M7 55h2M11 55h1M14 55h1M144 55h2M148 55h1M151 55h2M155 55h1M158 55h2M0 56h2M4 56h1M7 56h2M11 56h1M14 56h2M144 56h2M148 56h1M151 56h2M155 56h1M158 56h2M0 57h2M4 57h1M7 57h5M14 57h2M144 57h2M148 57h1M151 57h5M158 57h2M0 58h2M4 58h1M14 58h2M144 58h2M148 58h1M158 58h2M0 59h2M4 59h1M15 59h1M144 59h2M148 59h1M158 59h2M0 60h2M4 60h12M144 60h2M148 60h12M0 61h2M4 61h12M144 61h2M148 61h12M0 62h2M14 62h2M144 62h2M158 62h2M0 63h2M14 63h2M144 63h2M158 63h2M0 64h12M14 64h2M144 64h12M158 64h2M0 65h12M14 65h2M144 65h12M158 65h2M0 66h2M11 66h1M14 66h2M144 66h2M155 66h1M158 66h2M0 67h1M11 67h1M14 67h2M144 67h2M155 67h1M158 67h2M0 68h2M4 68h5M11 68h1M14 68h1M144 68h2M148 68h5M155 68h1M158 68h2M0 69h2M4 69h1M7 69h2M11 69h1M14 69h2M144 69h2M148 69h1M151 69h2M155 69h1M158 69h2M0 70h2M4 70h1M7 70h1M11 70h1M14 70h2M144 70h2M148 70h1M151 70h2M155 70h1M158 70h2M0 71h2M4 71h1M7 71h2M11 71h1M14 71h2M144 71h2M148 71h1M151 71h2M155 71h1M158 71h2M0 72h2M4 72h1M11 72h1M14 72h2M144 72h2M148 72h1M155 72h1M158 72h2M0 73h2M4 73h1M11 73h1M14 73h2M144 73h2M148 73h1M155 73h1M158 73h2M0 74h2M4 74h8M14 74h2M144 74h2M148 74h8M158 74h2M0 75h2M4 75h8M14 75h2M144 75h2M148 75h8M158 75h2M0 76h2M14 76h2M145 76h1M158 76h2M0 77h2M14 77h2M144 77h2M158 77h2M0 78h16M144 78h16M0 79h16M144 79h16M0 80h2M14 80h2M144 80h2M158 80h2M0 81h2M14 81h2M144 81h2M158 81h2M0 82h2M4 82h8M14 82h2M144 82h2M148 82h8M158 82h2M0 83h2M4 83h6M11 83h1M14 83h2M144 83h2M148 83h8M158 83h2M0 84h2M4 84h1M11 84h1M14 84h2M144 84h2M148 84h1M155 84h1M158 84h2M0 85h2M4 85h1M11 85h1M14 85h2M144 85h2M148 85h1M155 85h1M158 85h2M0 86h2M4 86h1M7 86h2M11 86h1M14 86h2M144 86h2M148 86h1M151 86h2M155 86h1M158 86h2M0 87h2M4 87h1M7 87h2M11 87h1M14 87h2M144 87h2M148 87h1M151 87h2M155 87h1M158 87h2M0 88h2M4 88h1M7 88h2M11 88h1M14 88h2M144 88h2M148 88h1M151 88h2M155 88h1M158 88h2M0 89h2M4 89h1M7 89h2M10 89h2M14 89h2M144 89h2M148 89h1M151 89h5M158 89h2M0 90h2M4 90h1M14 90h2M144 90h2M148 90h1M158 90h2M0 91h2M4 91h1M14 91h2M144 91h2M148 91h1M158 91h2M0 92h2M4 92h12M144 92h2M148 92h12M0 93h2M4 93h12M144 93h2M148 93h12M0 94h2M14 94h2M144 94h2M158 94h2M0 95h2M14 95h2M144 95h2M158 95h2M0 96h12M14 96h2M144 96h12M158 96h2M0 97h12M14 97h2M144 97h12M158 97h2M0 98h2M11 98h1M14 98h2M144 98h2M158 98h2M0 99h2M11 99h1M14 99h2M144 99h2M155 99h1M158 99h2M0 100h2M4 100h5M11 100h1M14 100h2M144 100h2M148 100h5M155 100h1M158 100h2M0 101h2M4 101h1M7 101h2M11 101h1M14 101h2M144 101h2M148 101h1M151 101h2M155 101h1M158 101h2M0 102h2M4 102h1M7 102h2M11 102h1M14 102h2M144 102h2M148 102h1M151 102h2M155 102h1M158 102h2M0 103h2M4 103h1M7 103h2M11 103h1M14 103h2M144 103h2M148 103h1M151 103h2M155 103h1M158 103h2M0 104h2M4 104h1M11 104h1M14 104h2M144 104h2M148 104h1M155 104h1M158 104h2M0 105h2M4 105h1M11 105h1M14 105h2M144 105h2M148 105h1M155 105h1M158 105h2M0 106h2M4 106h3M8 106h4M14 106h2M144 106h2M148 106h8M158 106h2M0 107h2M4 107h8M14 107h2M144 107h2M148 107h8M158 107h2M0 108h2M14 108h2M144 108h2M158 108h2M0 109h2M14 109h2M144 109h2M158 109h2M0 110h16M144 110h16M0 111h16M144 111h16M0 112h2M14 112h2M144 112h2M158 112h2M0 113h2M14 113h2M144 113h2M158 113h2M0 114h2M4 114h8M14 114h2M144 114h2M148 114h8M158 114h2M0 115h2M4 115h8M14 115h2M144 115h2M148 115h8M158 115h2M0 116h2M4 116h1M11 116h1M14 116h2M144 116h2M148 116h1M155 116h1M158 116h2M0 117h2M4 117h1M11 117h1M14 117h1M144 117h2M148 117h1M155 117h1M158 117h2M0 118h2M4 118h1M7 118h2M11 118h1M14 118h2M144 118h2M148 118h1M151 118h2M155 118h1M158 118h2M0 119h2M4 119h1M7 119h2M11 119h1M14 119h2M144 119h2M148 119h1M151 119h2M155 119h1M158 119h2M0 120h2M4 120h1M7 120h2M11 120h1M14 120h2M144 120h2M148 120h1M151 120h2M155 120h1M158 120h2M0 121h2M4 121h1M7 121h5M14 121h2M144 121h2M148 121h1M151 121h5M158 121h2M0 122h2M4 122h1M14 122h2M144 122h2M148 122h1M158 122h2M0 123h2M4 123h1M15 123h1M144 123h2M148 123h1M158 123h2M0 124h2M4 124h12M144 124h2M148 124h12M0 125h2M4 125h1M6 125h10M144 125h2M148 125h12M0 126h2M14 126h2M144 126h2M158 126h2M0 127h2M14 127h2M144 127h2M158 127h2M0 128h12M14 128h51M66 128h71M138 128h18M158 128h2M0 129h12M14 129h52M67 129h89M158 129h2M0 130h2M11 130h1M14 130h2M30 130h2M48 130h2M62 130h2M80 130h2M94 130h2M112 130h2M126 130h2M144 130h2M155 130h1M158 130h2M0 131h2M11 131h1M14 131h2M30 131h2M48 131h2M62 131h2M80 131h2M94 131h2M112 131h2M126 131h2M144 131h2M155 131h1M158 131h2M0 132h2M4 132h5M11 132h1M14 132h2M18 132h10M30 132h2M34 132h10M45 132h1M48 132h2M52 132h8M62 132h2M66 132h12M80 132h2M84 132h8M94 132h2M98 132h12M112 132h2M116 132h8M126 132h2M130 132h12M144 132h2M148 132h5M155 132h1M158 132h2M0 133h2M4 133h1M7 133h2M11 133h1M14 133h2M18 133h2M27 133h1M31 133h1M34 133h2M44 133h2M48 133h2M52 133h2M59 133h1M62 133h2M66 133h2M76 133h2M80 133h2M84 133h2M91 133h1M94 133h2M98 133h2M108 133h2M112 133h2M116 133h2M123 133h1M126 133h2M130 133h2M140 133h2M144 133h2M148 133h1M151 133h2M155 133h1M158 133h2M0 134h2M4 134h1M7 134h2M11 134h1M14 134h2M18 134h2M27 134h1M30 134h2M34 134h2M44 134h2M48 134h2M52 134h2M59 134h1M62 134h2M66 134h2M76 134h2M80 134h2M84 134h2M91 134h1M94 134h2M98 134h2M108 134h2M112 134h2M116 134h2M123 134h1M126 134h2M130 134h2M140 134h2M144 134h2M148 134h1M151 134h2M155 134h1M158 134h2M0 135h2M4 135h1M7 135h2M11 135h1M14 135h2M18 135h2M22 135h6M30 135h2M34 135h2M38 135h4M44 135h2M48 135h2M52 135h2M56 135h4M62 135h2M66 135h2M70 135h4M76 135h2M80 135h2M84 135h2M88 135h4M94 135h2M98 135h2M102 135h4M108 135h2M112 135h2M116 135h2M120 135h4M126 135h2M130 135h2M134 135h4M140 135h2M144 135h2M148 135h1M151 135h2M155 135h1M158 135h2M0 136h2M4 136h1M11 136h1M14 136h2M18 136h1M22 136h6M30 136h2M34 136h2M38 136h4M44 136h2M48 136h2M52 136h2M56 136h4M62 136h2M66 136h2M70 136h4M76 136h2M80 136h2M84 136h2M88 136h4M94 136h2M98 136h2M102 136h4M108 136h2M112 136h2M116 136h2M120 136h4M126 136h2M130 136h2M134 136h4M140 136h2M144 136h2M148 136h1M155 136h1M158 136h2M0 137h2M4 137h1M11 137h1M14 137h2M18 137h2M30 137h2M34 137h2M38 137h1M44 137h2M48 137h2M52 137h2M62 137h2M66 137h2M70 137h1M76 137h2M80 137h2M84 137h2M94 137h2M98 137h2M102 137h1M108 137h2M112 137h2M116 137h2M126 137h2M130 137h2M134 137h1M140 137h2M144 137h2M148 137h1M155 137h1M158 137h2M0 138h2M4 138h8M14 138h2M18 138h2M30 138h2M34 138h2M38 138h1M44 138h2M48 138h2M52 138h2M62 138h2M66 138h2M70 138h1M76 138h2M80 138h2M84 138h2M94 138h2M98 138h2M108 138h2M112 138h2M116 138h2M126 138h2M130 138h2M134 138h1M140 138h2M144 138h2M148 138h8M158 138h2M0 139h2M4 139h8M14 139h2M18 139h14M34 139h2M38 139h8M48 139h2M52 139h12M66 139h2M70 139h1M72 139h6M80 139h2M84 139h12M98 139h2M102 139h3M106 139h4M112 139h2M116 139h12M130 139h2M134 139h8M144 139h2M148 139h8M158 139h2M0 140h2M14 140h2M34 140h2M48 140h2M66 140h2M80 140h2M98 140h2M112 140h2M130 140h2M144 140h2M158 140h2M0 141h2M14 141h2M34 141h2M48 141h2M66 141h2M80 141h2M98 141h2M112 141h2M130 141h2M144 141h2M158 141h2M0 142h160M0 143h69M70 143h90" />
<path stroke="#000100" d="M79 0h1M124 0h1M60 1h1M150 7h1M114 13h1M80 14h1M153 19h1M15 22h1M1 33h1M158 38h1M15 55h1M14 59h1M144 76h1M155 98h1M5 125h1M65 128h1M137 128h1M30 133h1M105 139h1" />
<path stroke="#010000" d="M159 0h1M47 7h1M129 9h1M79 14h1M94 14h1M1 29h1M14 37h1M8 46h1M8 70h1M10 83h1M15 117h1M66 129h1M102 138h1M71 139h1" />
<path stroke="#000001" d="M88 1h1M24 8h1M138 8h1M108 11h1M65 12h1M123 14h1M15 17h1M1 67h1M15 68h1M9 89h1M7 106h1M14 123h1M44 132h1M19 136h1M69 143h1" />
<path stroke="#ffffff" d="M2 2h12M16 2h16M34 2h12M48 2h16M66 2h12M80 2h10M91 2h5M98 2h12M112 2h16M130 2h10M142 2h16M2 3h12M17 3h15M34 3h12M48 3h16M66 3h12M80 3h14M95 3h1M98 3h12M112 3h16M130 3h10M142 3h16M2 4h2M12 4h2M16 4h2M30 4h2M34 4h2M44 4h2M48 4h2M62 4h2M66 4h2M76 4h2M80 4h2M94 4h2M98 4h2M108 4h2M112 4h2M126 4h2M130 4h2M139 4h1M142 4h2M156 4h2M2 5h2M6 5h5M12 5h2M16 5h2M20 5h8M30 5h2M34 5h2M38 5h5M44 5h2M48 5h2M52 5h8M62 5h2M66 5h2M70 5h5M76 5h2M80 5h2M84 5h8M94 5h2M98 5h2M102 5h5M108 5h2M112 5h2M116 5h8M126 5h2M130 5h2M134 5h2M137 5h1M139 5h1M142 5h2M146 5h8M156 5h2M2 6h2M6 6h5M12 6h2M16 6h2M20 6h8M30 6h2M34 6h2M38 6h5M44 6h2M48 6h2M52 6h8M62 6h2M66 6h2M70 6h5M76 6h2M80 6h2M84 6h8M94 6h2M98 6h2M102 6h5M108 6h2M112 6h2M116 6h8M126 6h2M130 6h2M134 6h4M139 6h1M142 6h2M146 6h8M156 6h2M2 7h2M6 7h2M12 7h2M16 7h2M20 7h2M26 7h2M30 7h2M34 7h2M38 7h2M44 7h2M48 7h2M52 7h2M58 7h2M62 7h2M66 7h2M70 7h2M76 7h2M80 7h2M84 7h2M90 7h2M94 7h2M98 7h2M102 7h2M108 7h2M112 7h2M116 7h2M122 7h2M126 7h2M130 7h2M134 7h2M139 7h1M142 7h2M146 7h2M152 7h2M156 7h2M2 8h2M6 8h2M12 8h2M16 8h2M20 8h1M26 8h2M30 8h2M34 8h2M38 8h2M44 8h2M48 8h2M52 8h2M58 8h2M62 8h2M66 8h2M70 8h2M76 8h2M80 8h2M84 8h2M90 8h2M94 8h2M98 8h2M102 8h2M108 8h2M112 8h2M116 8h2M122 8h2M126 8h2M130 8h2M134 8h2M139 8h1M142 8h2M146 8h2M152 8h2M156 8h2M2 9h2M6 9h8M16 9h2M20 9h2M23 9h5M30 9h2M34 9h2M38 9h5M44 9h2M48 9h2M52 9h2M55 9h5M62 9h2M66 9h2M70 9h8M80 9h2M84 9h2M87 9h5M94 9h2M98 9h2M102 9h8M112 9h2M116 9h2M119 9h5M126 9h2M130 9h2M134 9h6M142 9h2M146 9h2M149 9h5M156 9h2M2 10h2M6 10h8M16 10h2M20 10h2M23 10h5M30 10h2M34 10h2M38 10h8M48 10h2M52 10h2M55 10h5M62 10h2M66 10h2M70 10h8M80 10h2M84 10h2M87 10h5M94 10h2M98 10h2M102 10h8M112 10h2M116 10h2M119 10h5M126 10h2M130 10h2M134 10h6M142 10h2M146 10h2M149 10h5M156 10h2M2 11h1M16 11h2M20 11h2M30 11h2M34 11h2M48 11h2M52 11h2M62 11h2M66 11h2M80 11h2M84 11h2M94 11h2M98 11h2M112 11h2M116 11h2M126 11h2M130 11h2M142 11h2M146 11h2M156 11h2M2 12h16M20 12h12M34 12h10M45 12h5M52 12h12M66 12h16M84 12h12M98 12h16M116 12h12M130 12h14M146 12h8M155 12h3M2 13h16M20 13h12M34 13h16M52 13h12M66 13h16M84 13h9M94 13h2M98 13h16M116 13h12M130 13h14M146 13h12M2 16h12M146 16h12M2 17h12M146 17h12M2 18h2M12 18h2M146 18h2M156 18h2M2 19h2M12 19h2M146 19h2M156 19h2M2 20h2M5 20h6M12 20h2M146 20h2M149 20h6M156 20h2M2 21h2M5 21h6M12 21h2M146 21h2M149 21h6M156 21h2M2 22h2M5 22h2M9 22h2M12 22h2M146 22h2M149 22h2M153 22h2M156 22h2M2 23h2M5 23h2M9 23h2M12 23h2M146 23h2M149 23h2M153 23h2M156 23h2M2 24h2M5 24h2M9 24h2M12 24h2M146 24h2M149 24h2M153 24h2M156 24h2M2 25h2M5 25h2M12 25h2M146 25h2M149 25h2M156 25h2M2 26h2M5 26h5M11 26h3M146 26h2M149 26h9M2 27h2M5 27h9M147 27h1M149 27h9M2 28h2M146 28h2M2 29h2M146 29h2M2 30h12M146 30h12M2 31h12M146 31h12M12 32h2M156 32h2M12 33h2M156 33h2M2 34h9M12 34h2M146 34h9M156 34h2M2 35h2M5 35h6M12 35h2M146 35h9M156 35h2M2 36h2M9 36h2M12 36h2M146 36h2M153 36h2M156 36h2M2 37h2M5 37h2M9 37h2M12 37h2M146 37h2M149 37h2M153 37h2M156 37h2M2 38h2M5 38h2M9 38h2M12 38h2M146 38h2M149 38h2M153 38h2M156 38h2M2 39h2M5 39h2M9 39h2M12 39h2M146 39h2M149 39h2M153 39h2M156 39h2M2 40h2M5 40h6M12 40h2M146 40h2M149 40h6M156 40h2M2 41h2M5 41h6M12 41h2M146 41h2M149 41h6M156 41h2M2 42h2M12 42h2M147 42h1M156 42h2M2 43h2M12 43h2M146 43h2M156 43h2M2 44h12M146 44h12M2 45h12M146 45h12M2 48h12M146 48h12M2 49h12M146 49h12M2 50h2M12 50h2M146 50h2M156 50h2M2 51h2M12 51h2M146 51h2M156 51h2M2 52h2M5 52h6M12 52h2M146 52h2M149 52h6M156 52h2M2 53h2M5 53h6M12 53h2M146 53h2M149 53h6M156 53h2M2 54h2M5 54h2M9 54h2M12 54h2M146 54h2M149 54h1M153 54h2M156 54h2M3 55h1M5 55h2M10 55h1M12 55h2M146 55h2M149 55h2M153 55h2M156 55h2M2 56h2M5 56h2M9 56h2M12 56h2M146 56h2M149 56h2M153 56h2M156 56h2M3 57h1M5 57h2M12 57h2M146 57h2M149 57h2M156 57h2M2 58h2M5 58h9M146 58h2M149 58h9M2 59h2M5 59h9M146 59h2M149 59h9M2 60h2M146 60h1M2 61h2M146 61h2M2 62h12M146 62h12M2 63h12M146 63h7M154 63h4M12 64h2M156 64h2M12 65h2M156 65h2M2 66h9M12 66h2M146 66h4M151 66h4M156 66h2M2 67h9M12 67h2M146 67h9M156 67h2M2 68h2M9 68h2M12 68h2M146 68h2M153 68h2M156 68h2M2 69h2M5 69h2M9 69h2M12 69h2M146 69h2M149 69h2M153 69h2M156 69h2M2 70h2M5 70h2M9 70h2M12 70h2M146 70h2M149 70h2M153 70h2M156 70h2M2 71h2M5 71h2M9 71h2M12 71h2M146 71h2M149 71h2M153 71h2M156 71h2M2 72h2M5 72h6M12 72h2M146 72h2M149 72h6M156 72h2M2 73h2M5 73h6M12 73h2M146 73h2M149 73h6M156 73h2M2 74h2M12 74h2M146 74h2M156 74h2M2 75h2M12 75h2M146 75h2M156 75h2M2 76h12M146 76h12M2 77h12M146 77h12M2 80h12M146 80h12M2 81h11M146 81h10M157 81h1M2 82h2M12 82h2M146 82h2M156 82h2M2 83h2M12 83h2M146 83h2M156 83h2M2 84h2M5 84h6M12 84h2M146 84h2M149 84h6M156 84h2M2 85h2M5 85h6M12 85h2M146 85h2M149 85h6M156 85h2M2 86h2M5 86h2M9 86h2M12 86h2M146 86h2M149 86h2M153 86h2M156 86h2M2 87h2M5 87h2M9 87h2M12 87h2M146 87h2M149 87h2M153 87h2M156 87h2M2 88h2M5 88h2M9 88h2M12 88h2M146 88h2M149 88h2M153 88h2M156 88h2M2 89h2M5 89h2M12 89h2M146 89h2M149 89h2M156 89h2M2 90h2M5 90h9M146 90h2M149 90h9M2 91h2M5 91h9M146 91h2M150 91h8M2 92h2M146 92h2M2 93h2M146 93h2M2 94h12M146 94h12M2 95h12M146 95h12M12 96h2M156 96h2M13 97h1M156 97h2M2 98h9M13 98h1M146 98h9M156 98h2M2 99h9M12 99h2M146 99h9M156 99h1M2 100h2M9 100h2M12 100h2M146 100h2M153 100h2M156 100h2M2 101h2M5 101h2M9 101h2M12 101h2M146 101h2M149 101h2M153 101h2M156 101h2M2 102h2M5 102h2M9 102h2M12 102h2M146 102h2M149 102h2M153 102h2M156 102h2M2 103h2M5 103h2M9 103h2M12 103h2M146 103h2M149 103h2M153 103h2M156 103h2M2 104h2M5 104h6M12 104h2M146 104h2M149 104h6M156 104h2M2 105h2M5 105h6M12 105h2M146 105h2M149 105h6M156 105h2M2 106h2M12 106h2M146 106h2M156 106h2M2 107h2M12 107h2M146 107h2M156 107h2M2 108h12M146 108h12M2 109h12M146 109h12M2 112h12M146 112h12M2 113h12M146 113h12M2 114h2M12 114h2M146 114h2M156 114h2M2 115h2M12 115h2M146 115h2M156 115h2M2 116h2M5 116h6M12 116h2M146 116h2M149 116h6M156 116h2M2 117h2M5 117h6M12 117h2M146 117h2M149 117h6M156 117h2M2 118h2M5 118h2M9 118h2M12 118h2M146 118h2M149 118h2M153 118h2M156 118h2M2 119h2M5 119h2M9 119h2M12 119h2M146 119h2M149 119h2M153 119h2M156 119h2M2 120h2M5 120h2M9 120h2M12 120h2M146 120h2M149 120h2M153 120h2M156 120h2M2 121h2M5 121h2M12 121h2M146 121h2M149 121h2M156 121h2M2 122h2M5 122h9M146 122h2M149 122h9M2 123h2M5 123h9M146 123h2M149 123h9M2 124h2M146 124h2M2 125h2M146 125h2M2 126h12M146 126h12M2 127h12M146 127h12M12 128h2M156 128h2M12 129h2M157 129h1M2 130h9M12 130h2M16 130h14M32 130h16M50 130h12M64 130h16M82 130h12M96 130h16M114 130h12M128 130h16M146 130h9M156 130h2M2 131h9M12 131h2M16 131h14M32 131h16M50 131h12M64 131h16M82 131h12M96 131h16M114 131h12M128 131h4M133 131h11M146 131h9M156 131h2M2 132h2M9 132h2M12 132h2M16 132h2M28 132h2M32 132h2M46 132h2M50 132h2M60 132h2M64 132h2M78 132h2M83 132h1M92 132h2M96 132h2M110 132h2M114 132h2M124 132h2M128 132h2M142 132h2M146 132h2M153 132h2M156 132h2M2 133h2M5 133h2M9 133h2M12 133h2M16 133h2M20 133h7M28 133h2M32 133h2M37 133h7M46 133h2M50 133h2M54 133h5M60 133h2M64 133h2M68 133h8M78 133h2M82 133h2M86 133h5M92 133h2M96 133h2M100 133h8M110 133h2M114 133h2M118 133h5M124 133h2M128 133h2M132 133h8M142 133h2M146 133h2M149 133h2M153 133h2M156 133h2M2 134h2M5 134h2M9 134h2M12 134h1M16 134h2M20 134h7M28 134h2M32 134h2M36 134h8M46 134h2M50 134h2M54 134h5M60 134h2M64 134h2M68 134h8M78 134h2M82 134h2M86 134h5M92 134h2M96 134h2M100 134h8M110 134h2M114 134h2M118 134h5M124 134h2M128 134h2M132 134h8M142 134h1M146 134h2M149 134h2M153 134h2M156 134h2M2 135h2M5 135h2M9 135h2M12 135h2M16 135h2M20 135h2M28 135h2M32 135h2M36 135h2M42 135h2M46 135h2M50 135h2M54 135h2M60 135h2M64 135h2M68 135h2M74 135h2M78 135h2M82 135h2M86 135h2M92 135h2M96 135h2M100 135h2M106 135h2M110 135h2M114 135h2M118 135h2M124 135h2M128 135h2M132 135h2M138 135h2M142 135h2M146 135h2M149 135h2M153 135h2M156 135h2M2 136h2M5 136h6M12 136h2M16 136h2M20 136h2M28 136h2M32 136h2M36 136h2M42 136h2M46 136h2M50 136h2M54 136h2M60 136h2M64 136h2M69 136h1M74 136h2M78 136h2M82 136h2M86 136h2M92 136h2M96 136h2M100 136h2M106 136h2M110 136h2M114 136h2M118 136h2M124 136h2M128 136h2M132 136h2M138 136h2M142 136h2M146 136h2M149 136h6M156 136h2M2 137h2M5 137h6M12 137h2M16 137h2M20 137h10M32 137h2M36 137h2M39 137h5M46 137h2M50 137h2M54 137h8M64 137h2M68 137h2M71 137h5M78 137h2M82 137h2M86 137h8M96 137h2M100 137h2M103 137h5M110 137h2M114 137h2M118 137h8M128 137h2M132 137h2M135 137h5M142 137h2M146 137h2M149 137h6M156 137h2M2 138h2M12 138h2M16 138h2M20 138h10M32 138h2M36 138h2M39 138h5M46 138h2M50 138h2M54 138h8M64 138h2M68 138h2M71 138h5M78 138h2M82 138h2M86 138h8M96 138h2M100 138h2M103 138h5M110 138h2M114 138h2M118 138h8M128 138h2M132 138h2M135 138h5M142 138h2M146 138h2M156 138h2M2 139h2M12 139h2M16 139h2M32 139h2M36 139h2M46 139h2M50 139h2M64 139h2M68 139h2M78 139h2M82 139h2M96 139h2M100 139h2M110 139h2M114 139h2M128 139h2M132 139h2M142 139h2M146 139h2M156 139h2M2 140h12M16 140h13M30 140h4M36 140h12M50 140h16M68 140h12M82 140h16M100 140h12M114 140h16M132 140h12M146 140h11M2 141h12M16 141h18M36 141h12M50 141h16M68 141h12M82 141h16M100 141h12M114 141h16M132 141h12M146 141h12" />
<path stroke="#fffffe" d="M90 2h1M21 8h1M3 11h1M44 12h1M146 27h1M146 42h1M2 57h1M12 98h1M132 131h1" />
<path stroke="#fffeff" d="M16 3h1M94 3h1M43 9h1M154 12h1M93 13h1M9 55h1M13 81h1M12 97h1M157 99h1M82 132h1M36 133h1M143 134h1M29 140h1" />
<path stroke="#feffff" d="M136 5h1M10 26h1M4 35h1M150 54h1M2 55h1M147 60h1M153 63h1M150 66h1M156 81h1M149 91h1M156 129h1M13 134h1M68 136h1M157 140h1" />
</svg>