<svg xmlns="http://www.w3.org/2000/svg" viewBox="0 -0.5 160 144" shape-rendering="crispEdges">
<metadata>Made with Pixels to Svg https://codepen.io/shshaw/pen/XbxvNj</metadata>
<path stroke="#000000" d="M0 0h160M0 1h45M49 1h111M0 2h43M51 2h109M0 3h42M52 3h15M69 3h12M82 3h6M93 3h67M0 4h41M52 4h15M70 4h10M83 4h4M94 4h66M0 5h41M51 5h5M58 5h5M65 5h2M70 5h1M72 5h3M78 5h2M83 5h3M95 5h2M100 5h2M103 5h2M107 5h1M110 5h4M117 5h3M121 5h1M123 5h3M129 5h31M0 6h40M59 6h2M73 6h1M79 6h1M84 6h2M89 6h3M101 6h1M111 6h2M118 6h1M130 6h30M0 7h40M84 7h2M89 7h6M131 7h29M0 8h40M47 8h3M56 8h2M63 8h2M83 8h3M89 8h3M94 8h1M108 8h1M122 8h2M130 8h30M0 9h40M56 9h2M63 9h2M83 9h3M89 9h3M108 9h1M122 9h2M130 9h30M0 10h41M84 10h2M108 10h1M115 10h1M122 10h2M131 10h29M0 11h41M52 11h2M60 11h1M70 11h1M85 11h2M94 11h1M104 11h1M108 11h1M112 11h1M122 11h2M131 11h29M0 12h42M51 12h4M58 12h4M66 12h1M69 12h2M73 12h2M78 12h3M84 12h4M92 12h4M101 12h1M104 12h2M108 12h1M111 12h3M118 12h2M122 12h3M128 12h1M131 12h29M0 13h44M50 13h110M0 14h160M0 15h160M0 16h16M144 16h16M0 17h16M144 17h16M0 18h16M144 18h16M0 19h5M7 19h4M13 19h3M144 19h16M0 20h5M7 20h4M13 20h3M144 20h16M0 21h5M7 21h4M13 21h3M144 21h16M0 22h5M7 22h4M13 22h3M144 22h16M0 23h5M7 23h4M13 23h3M144 23h16M0 24h5M7 24h4M13 24h3M144 24h16M0 25h5M7 25h4M13 25h3M144 25h16M0 26h5M13 26h3M144 26h16M0 27h5M13 27h3M144 27h4M157 27h3M0 28h16M144 28h3M158 28h2M0 29h5M13 29h3M144 29h3M158 29h2M0 30h5M13 30h3M144 30h3M158 30h2M0 31h5M7 31h1M11 31h5M144 31h3M158 31h2M0 32h5M7 32h1M10 32h6M144 32h3M158 32h2M0 33h5M7 33h1M10 33h6M144 33h3M151 33h6M158 33h2M0 34h5M7 34h1M10 34h6M144 34h3M158 34h2M0 35h5M7 35h1M10 35h6M144 35h3M153 35h4M158 35h2M0 36h5M13 36h3M144 36h3M152 36h1M156 36h1M158 36h2M0 37h5M13 37h3M144 37h3M152 37h1M156 37h1M158 37h2M0 38h16M144 38h3M153 38h3M158 38h2M0 39h16M144 39h3M158 39h2M0 40h16M144 40h3M152 40h5M158 40h2M0 41h16M144 41h3M156 41h1M158 41h2M0 42h16M144 42h3M152 42h4M158 42h2M0 43h5M13 43h3M144 43h3M158 43h2M0 44h5M13 44h3M144 44h3M152 44h1M158 44h2M0 45h5M7 45h1M10 45h6M144 45h3M151 45h6M158 45h2M0 46h5M7 46h1M10 46h6M144 46h3M158 46h2M0 47h5M7 47h1M10 47h6M144 47h3M152 47h1M158 47h2M0 48h5M7 48h1M10 48h6M144 48h3M153 48h1M158 48h2M0 49h5M13 49h3M144 49h3M152 49h5M158 49h2M0 50h5M13 50h3M144 50h3M158 50h2M0 51h16M144 51h3M152 51h1M154 51h3M158 51h2M0 52h5M13 52h3M144 52h3M158 52h2M0 53h5M13 53h3M144 53h3M152 53h4M158 53h2M0 54h5M7 54h2M11 54h5M144 54h3M156 54h1M158 54h2M0 55h5M7 55h2M11 55h5M144 55h3M152 55h4M158 55h2M0 56h5M7 56h2M11 56h5M144 56h3M158 56h2M0 57h5M7 57h2M11 57h5M144 57h3M157 57h3M0 58h5M13 58h3M144 58h16M0 59h5M13 59h3M144 59h7M158 59h2M0 60h5M7 60h4M13 60h3M144 60h3M158 60h2M0 61h5M7 61h4M13 61h3M144 61h3M158 61h2M0 62h5M7 62h4M13 62h3M144 62h3M157 62h3M0 63h5M7 63h4M13 63h3M144 63h3M154 63h6M0 64h5M7 64h4M13 64h3M144 64h5M156 64h4M0 65h5M7 65h4M13 65h3M144 65h7M158 65h2M0 66h5M7 66h4M13 66h3M144 66h7M158 66h2M0 67h5M13 67h3M144 67h3M158 67h2M0 68h5M13 68h3M144 68h3M156 68h4M0 69h16M144 69h3M152 69h8M0 70h5M7 70h1M13 70h3M144 70h3M156 70h4M0 71h5M7 71h1M13 71h3M144 71h4M158 71h2M0 72h5M7 72h1M10 72h1M13 72h3M144 72h7M158 72h2M0 73h5M7 73h1M10 73h1M13 73h3M144 73h10M158 73h2M0 74h5M7 74h1M10 74h1M13 74h3M144 74h11M158 74h2M0 75h5M7 75h1M10 75h1M13 75h3M144 75h5M158 75h2M0 76h5M10 76h1M13 76h3M144 76h3M158 76h2M0 77h5M10 77h1M13 77h3M144 77h3M157 77h3M0 78h16M144 78h3M152 78h2M156 78h4M0 79h5M13 79h3M144 79h3M156 79h4M0 80h5M13 80h3M144 80h5M157 80h3M0 81h5M7 81h4M13 81h3M144 81h7M158 81h2M0 82h5M7 82h4M13 82h3M144 82h9M158 82h2M0 83h5M7 83h4M13 83h3M144 83h11M158 83h2M0 84h5M7 84h4M13 84h3M144 84h3M149 84h6M158 84h2M0 85h5M13 85h3M144 85h3M149 85h6M158 85h2M0 86h5M13 86h3M144 86h3M149 86h6M158 86h2M0 87h16M144 87h3M150 87h5M158 87h2M0 88h16M144 88h3M150 88h5M158 88h2M0 89h16M144 89h3M150 89h5M158 89h2M0 90h16M144 90h3M151 90h4M158 90h2M0 91h16M144 91h4M158 91h2M0 92h5M13 92h3M144 92h4M157 92h3M0 93h5M13 93h3M144 93h5M157 93h3M0 94h5M10 94h1M13 94h3M144 94h8M154 94h6M0 95h5M7 95h1M10 95h1M13 95h3M144 95h4M151 95h1M157 95h3M0 96h5M7 96h1M10 96h1M13 96h3M144 96h3M158 96h2M0 97h5M7 97h1M10 97h1M13 97h3M144 97h3M158 97h2M0 98h5M7 98h1M10 98h1M13 98h3M144 98h3M154 98h1M158 98h2M0 99h5M7 99h1M10 99h1M13 99h3M144 99h3M154 99h1M158 99h2M0 100h5M10 100h1M13 100h3M144 100h3M153 100h3M158 100h2M0 101h5M10 101h1M13 101h3M144 101h3M158 101h2M0 102h5M10 102h1M13 102h3M144 102h3M158 102h2M0 103h5M7 103h1M10 103h1M13 103h3M144 103h5M158 103h2M0 104h5M7 104h1M10 104h1M13 104h3M144 104h12M158 104h2M0 105h5M7 105h1M10 105h1M13 105h3M144 105h3M149 105h3M153 105h7M0 106h5M7 106h1M13 106h3M144 106h3M149 106h3M158 106h2M0 107h5M7 107h1M13 107h3M144 107h3M149 107h3M158 107h2M0 108h5M13 108h3M144 108h3M150 108h2M158 108h2M0 109h5M13 109h3M144 109h3M150 109h2M154 109h1M158 109h2M0 110h5M8 110h2M13 110h3M144 110h3M150 110h2M154 110h1M158 110h2M0 111h5M7 111h4M13 111h3M144 111h3M150 111h5M158 111h2M0 112h5M7 112h4M13 112h3M144 112h3M151 112h4M158 112h2M0 113h5M7 113h4M13 113h3M144 113h4M158 113h2M0 114h5M13 114h3M144 114h4M157 114h3M0 115h5M13 115h3M144 115h5M157 115h3M0 116h5M10 116h1M13 116h3M144 116h7M155 116h5M0 117h5M10 117h1M13 117h3M144 117h16M0 118h5M10 118h1M13 118h3M144 118h16M0 119h5M7 119h1M10 119h1M13 119h3M144 119h16M0 120h5M7 120h1M10 120h1M13 120h3M144 120h16M0 121h5M7 121h1M10 121h1M13 121h3M144 121h16M0 122h5M7 122h1M13 122h3M144 122h16M0 123h5M7 123h1M13 123h3M144 123h16M0 124h16M144 124h16M0 125h16M144 125h16M0 126h16M144 126h16M0 127h16M144 127h16M0 128h160M0 129h160M0 130h160M0 131h160M0 132h118M126 132h34M0 133h42M48 133h14M65 133h11M78 133h5M89 133h6M98 133h8M108 133h8M127 133h33M0 134h41M48 134h14M65 134h10M78 134h4M90 134h5M98 134h8M109 134h7M127 134h33M0 135h41M44 135h2M49 135h1M54 135h3M61 135h1M65 135h1M68 135h1M74 135h1M80 135h2M98 135h1M104 135h1M110 135h1M115 135h1M127 135h33M0 136h41M55 136h1M68 136h1M80 136h2M98 136h1M118 136h1M127 136h33M0 137h41M51 137h1M55 137h1M58 137h1M67 137h1M78 137h4M89 137h1M94 137h1M98 137h1M105 137h1M118 137h1M127 137h33M0 138h41M47 138h1M51 138h1M58 138h4M67 138h1M78 138h4M88 138h2M93 138h2M98 138h1M101 138h1M105 138h1M118 138h1M127 138h33M0 139h41M44 139h4M51 139h1M58 139h2M74 139h1M78 139h4M85 139h5M93 139h2M98 139h1M101 139h1M105 139h1M118 139h1M127 139h33M0 140h41M44 140h4M55 140h1M80 140h2M86 140h4M93 140h2M98 140h1M101 140h1M105 140h1M118 140h1M127 140h33M0 141h41M44 141h5M54 141h2M61 141h1M65 141h1M68 141h1M74 141h2M80 141h3M85 141h5M93 141h2M98 141h1M101 141h1M105 141h1M115 141h1M127 141h33M0 142h42M43 142h8M53 142h5M60 142h3M64 142h7M73 142h4M79 142h12M92 142h4M97 142h6M104 142h3M109 142h3M114 142h2M127 142h33M0 143h117M126 143h34" />
<path stroke="#5a5a6b" d="M45 1h4M43 2h1M50 2h1M42 3h1M51 3h1M67 3h1M81 3h1M88 3h5M41 4h1M46 4h3M50 4h2M69 4h1M80 4h1M87 4h1M93 4h1M46 5h2M56 5h2M63 5h2M71 5h1M75 5h3M80 5h1M86 5h1M90 5h1M94 5h1M97 5h3M102 5h1M105 5h2M108 5h2M114 5h3M120 5h1M122 5h1M126 5h3M40 6h1M46 6h2M51 6h1M53 6h1M66 6h1M69 6h2M86 6h1M94 6h2M100 6h1M119 6h1M124 6h1M129 6h1M46 7h2M50 7h2M60 7h1M63 7h1M72 7h2M76 7h1M80 7h1M83 7h1M101 7h1M111 7h2M115 7h1M119 7h1M130 7h1M46 8h1M50 8h1M55 8h1M66 8h1M80 8h1M92 8h2M95 8h1M101 8h1M104 8h2M119 8h1M124 8h1M40 9h1M46 9h2M55 9h1M62 9h1M65 9h2M72 9h1M79 9h2M94 9h1M101 9h1M104 9h2M118 9h2M46 10h2M52 10h2M56 10h2M63 10h2M77 10h1M79 10h2M83 10h1M86 10h1M90 10h1M94 10h1M97 10h2M101 10h1M104 10h2M112 10h1M116 10h1M118 10h2M126 10h2M130 10h1M41 11h1M46 11h1M59 11h1M66 11h1M69 11h1M79 11h2M87 11h1M93 11h1M101 11h1M105 11h1M111 11h1M118 11h2M42 12h1M55 12h1M62 12h1M65 12h1M67 12h1M71 12h1M75 12h1M77 12h1M81 12h1M88 12h2M98 12h2M102 12h1M107 12h1M109 12h1M114 12h1M116 12h2M121 12h1M125 12h1M127 12h1M130 12h1M148 27h9M147 28h1M157 56h1M147 57h1M156 57h1M118 132h8M47 133h1M62 133h1M64 133h1M88 133h1M95 133h1M97 133h1M75 134h1M82 134h1M89 134h1M95 134h1M108 134h1M53 135h1M62 135h1M69 135h1M73 135h1M78 135h2M82 135h1M85 135h1M90 135h1M95 135h1M97 135h1M100 135h1M109 135h1M44 136h2M48 136h1M62 136h1M74 136h1M79 136h1M82 136h1M85 136h2M109 136h1M115 136h1M119 136h2M48 137h1M52 137h1M59 137h1M62 137h1M71 137h1M75 137h1M82 137h1M93 137h1M101 137h1M108 137h2M112 137h2M119 137h1M46 138h1M52 138h1M62 138h1M75 138h1M82 138h1M87 138h1M108 138h2M52 139h1M55 139h1M62 139h1M67 139h1M75 139h1M82 139h1M108 139h2M115 139h1M48 140h1M62 140h1M65 140h1M68 140h1M71 140h1M75 140h1M79 140h1M82 140h1M85 140h1M113 140h1M41 141h1M49 141h1M56 141h1M62 141h1M64 141h1M66 141h1M69 141h1M79 141h1M92 141h1M95 141h1M97 141h1M102 141h1M106 141h1M110 141h1M118 141h1M42 142h1M51 142h2M58 142h2M63 142h1M71 142h2M77 142h2M91 142h1M96 142h1M103 142h1M107 142h2M112 142h2M116 142h1M126 142h1M117 143h9" />
<path stroke="#ffffff" d="M44 2h5M43 3h4M49 3h2M42 4h4M68 4h1M81 4h1M88 4h5M41 5h5M48 5h2M68 5h1M81 5h2M87 5h2M92 5h2M41 6h5M48 6h3M55 6h3M62 6h4M68 6h1M71 6h1M75 6h3M80 6h4M87 6h2M93 6h1M96 6h4M102 6h9M114 6h3M120 6h4M125 6h4M41 7h5M48 7h1M52 7h1M54 7h2M58 7h1M61 7h2M65 7h1M68 7h1M70 7h2M74 7h2M77 7h2M81 7h2M87 7h1M96 7h1M99 7h2M102 7h3M106 7h2M109 7h2M113 7h1M116 7h2M120 7h2M125 7h1M128 7h2M41 8h5M51 8h2M54 8h1M58 8h2M61 8h1M68 8h3M74 8h1M77 8h2M81 8h2M87 8h1M98 8h3M103 8h1M106 8h2M110 8h1M112 8h2M116 8h2M120 8h1M128 8h2M41 9h5M48 9h4M54 9h1M58 9h2M61 9h1M68 9h4M74 9h1M81 9h2M87 9h2M93 9h1M96 9h1M99 9h2M102 9h2M106 9h1M110 9h1M112 9h2M120 9h1M125 9h1M128 9h2M41 10h5M48 10h4M54 10h2M58 10h1M61 10h2M65 10h1M68 10h1M71 10h1M74 10h1M81 10h2M87 10h2M92 10h2M95 10h2M99 10h2M102 10h2M106 10h1M110 10h1M113 10h1M120 10h1M124 10h2M128 10h2M42 11h4M48 11h4M55 11h4M62 11h4M68 11h1M71 11h2M75 11h4M81 11h3M88 11h5M96 11h5M102 11h2M106 11h1M110 11h1M114 11h4M120 11h1M124 11h6M43 12h8M44 13h5M5 19h1M12 19h1M5 20h1M12 20h1M5 21h1M12 21h1M5 22h1M12 22h1M5 23h1M12 23h1M5 24h1M12 24h1M6 26h1M11 26h1M8 27h2M148 28h9M148 29h10M6 30h7M148 30h9M8 31h1M148 31h9M5 32h1M8 32h1M148 32h9M5 33h1M8 33h1M148 33h3M157 33h1M5 34h1M8 34h1M148 34h10M5 35h1M8 35h1M148 35h5M5 36h1M8 36h1M148 36h4M153 36h3M5 37h8M148 37h4M153 37h3M157 37h1M148 38h5M156 38h2M148 39h10M148 40h4M157 40h1M148 41h8M157 41h1M148 42h4M156 42h2M11 43h2M148 43h10M8 44h2M148 44h4M153 44h4M8 45h1M148 45h3M157 45h1M5 46h1M8 46h1M148 46h10M5 47h1M8 47h1M148 47h4M153 47h5M5 48h1M8 48h1M148 48h5M154 48h3M5 49h1M8 49h1M148 49h4M157 49h1M5 50h8M148 50h10M148 51h4M153 51h1M157 51h1M8 52h5M148 52h9M6 53h1M9 53h1M148 53h4M156 53h2M9 54h1M148 54h8M157 54h1M5 55h1M9 55h1M148 55h4M156 55h2M5 56h1M9 56h1M148 56h9M9 57h1M6 58h1M9 58h1M8 59h5M151 60h7M5 61h1M12 61h1M147 61h10M5 62h1M12 62h1M148 62h2M5 63h1M12 63h1M150 63h1M5 64h1M12 64h1M152 64h1M5 65h1M12 65h1M154 65h1M154 66h3M6 67h1M11 67h1M152 67h4M8 68h2M148 68h4M147 69h3M5 70h1M148 70h4M5 71h1M151 71h4M5 72h1M155 72h3M5 73h1M8 73h1M12 73h1M5 74h1M8 74h1M12 74h1M8 75h1M12 75h1M155 75h3M8 76h1M12 76h1M149 76h8M12 77h1M147 77h2M154 77h2M148 78h1M154 78h2M8 79h2M150 79h1M154 79h2M6 80h1M11 80h1M152 80h4M12 81h1M154 81h2M5 82h1M12 82h1M156 82h2M5 83h1M12 83h1M6 85h1M11 85h1M148 85h1M156 85h1M8 86h2M148 86h1M156 86h1M148 87h1M156 87h1M148 88h1M156 88h1M148 89h1M156 89h1M148 90h1M156 90h1M149 91h2M155 91h2M150 92h6M6 93h7M153 93h1M8 94h1M12 94h1M5 95h1M8 95h1M12 95h1M5 96h1M8 96h1M12 96h1M149 96h1M153 96h3M5 97h1M8 97h1M12 97h1M148 97h1M152 97h1M156 97h1M5 98h1M8 98h1M12 98h1M148 98h1M151 98h2M156 98h1M5 99h1M8 99h1M12 99h1M148 99h1M151 99h2M156 99h2M147 100h2M151 100h2M156 100h2M6 101h3M12 101h1M147 101h3M151 101h2M156 101h2M8 102h1M12 102h1M149 102h9M5 103h1M8 103h1M12 103h1M156 103h2M5 104h1M8 104h1M12 104h1M5 105h1M12 105h1M5 106h1M9 106h1M12 106h1M148 106h1M152 106h1M5 107h1M11 107h2M148 107h1M152 107h5M148 108h1M152 108h2M156 108h1M6 109h6M148 109h1M152 109h2M156 109h1M148 110h1M156 110h1M5 111h1M12 111h1M148 111h1M156 111h1M5 112h1M12 112h1M148 112h2M156 112h1M149 113h1M155 113h2M6 114h1M11 114h1M150 114h6M8 115h2M152 115h2M6 117h3M12 117h1M8 118h1M12 118h1M5 119h1M8 119h1M12 119h1M5 120h1M8 120h1M12 120h1M5 121h1M12 121h1M5 122h1M9 122h1M12 122h1M5 123h1M11 123h2M63 133h1M86 133h1M96 133h1M117 133h9M42 134h2M46 134h2M63 134h1M76 134h2M83 134h2M87 134h2M96 134h1M106 134h2M117 134h9M42 135h1M47 135h1M63 135h1M76 135h2M83 135h2M88 135h1M96 135h1M106 135h2M117 135h1M119 135h1M122 135h4M42 136h2M46 136h2M50 136h4M57 136h4M63 136h1M66 136h1M69 136h5M75 136h4M83 136h2M88 136h1M91 136h4M96 136h2M99 136h5M106 136h3M111 136h4M117 136h1M122 136h4M42 137h6M49 137h1M53 137h2M56 137h1M60 137h2M63 137h3M69 137h1M73 137h1M76 137h2M83 137h6M91 137h1M96 137h2M99 137h2M103 137h1M106 137h2M110 137h2M114 137h1M116 137h2M120 137h6M42 138h4M49 138h1M54 138h1M56 138h1M63 138h4M69 138h6M76 138h1M83 138h4M91 138h1M96 138h2M99 138h1M103 138h1M106 138h2M110 138h5M116 138h2M120 138h6M42 139h1M49 139h1M53 139h2M56 139h1M61 139h1M63 139h2M66 139h1M69 139h2M76 139h1M83 139h2M91 139h1M96 139h2M99 139h1M103 139h1M106 139h2M110 139h2M117 139h1M120 139h6M42 140h1M49 140h2M53 140h1M56 140h2M60 140h2M63 140h1M66 140h2M69 140h2M73 140h1M76 140h2M83 140h2M91 140h1M96 140h2M99 140h1M103 140h1M106 140h2M110 140h2M114 140h1M117 140h1M120 140h6M51 141h2M58 141h2M63 141h1M71 141h2M77 141h2M91 141h1M107 141h2M112 141h2M117 141h1M119 141h7M117 142h9" />
<path stroke="#adadb5" d="M49 2h1M47 3h2M68 3h1M49 4h1M67 4h1M82 4h1M50 5h1M67 5h1M69 5h1M89 5h1M91 5h1M52 6h1M54 6h1M58 6h1M61 6h1M67 6h1M72 6h1M74 6h1M78 6h1M92 6h1M113 6h1M117 6h1M40 7h1M49 7h1M53 7h1M56 7h2M59 7h1M64 7h1M66 7h2M69 7h1M79 7h1M86 7h1M88 7h1M95 7h1M97 7h2M105 7h1M108 7h1M114 7h1M118 7h1M122 7h3M126 7h2M40 8h1M53 8h1M60 8h1M62 8h1M65 8h1M67 8h1M71 8h1M73 8h1M75 8h2M79 8h1M86 8h1M88 8h1M96 8h2M102 8h1M109 8h1M111 8h1M114 8h2M118 8h1M121 8h1M125 8h3M52 9h2M60 9h1M67 9h1M73 9h1M75 9h4M86 9h1M92 9h1M95 9h1M97 9h2M107 9h1M109 9h1M111 9h1M114 9h4M121 9h1M124 9h1M126 9h2M59 10h2M66 10h2M69 10h2M72 10h2M75 10h1M78 10h1M89 10h1M91 10h1M107 10h1M109 10h1M111 10h1M114 10h1M117 10h1M121 10h1M47 11h1M54 11h1M61 11h1M67 11h1M73 11h2M84 11h1M95 11h1M107 11h1M109 11h1M113 11h1M121 11h1M130 11h1M56 12h2M63 12h2M68 12h1M72 12h1M76 12h1M82 12h2M90 12h2M96 12h2M100 12h1M103 12h1M106 12h1M110 12h1M115 12h1M120 12h1M126 12h1M129 12h1M49 13h1M157 28h1M147 29h1M147 30h1M157 30h1M147 31h1M157 31h1M147 32h1M157 32h1M147 33h1M147 34h1M147 35h1M157 35h1M147 36h1M157 36h1M147 37h1M147 38h1M147 39h1M147 40h1M147 41h1M147 42h1M147 43h1M147 44h1M157 44h1M147 45h1M147 46h1M147 47h1M147 48h1M157 48h1M147 49h1M147 50h1M147 51h1M147 52h1M157 52h1M147 53h1M147 54h1M147 55h1M147 56h1M148 57h8M42 133h5M76 133h2M83 133h3M87 133h1M106 133h2M116 133h1M126 133h1M41 134h1M44 134h2M62 134h1M64 134h1M85 134h2M97 134h1M116 134h1M126 134h1M41 135h1M43 135h1M46 135h1M48 135h1M50 135h3M57 135h4M64 135h1M66 135h2M70 135h3M75 135h1M87 135h1M89 135h1M91 135h4M99 135h1M101 135h3M105 135h1M108 135h1M111 135h4M116 135h1M118 135h1M120 135h2M126 135h1M41 136h1M49 136h1M54 136h1M56 136h1M61 136h1M64 136h2M67 136h1M87 136h1M89 136h2M95 136h1M104 136h2M110 136h1M116 136h1M121 136h1M126 136h1M41 137h1M50 137h1M57 137h1M66 137h1M68 137h1M70 137h1M72 137h1M74 137h1M90 137h1M92 137h1M95 137h1M102 137h1M104 137h1M115 137h1M126 137h1M41 138h1M48 138h1M50 138h1M53 138h1M55 138h1M57 138h1M68 138h1M77 138h1M90 138h1M92 138h1M95 138h1M100 138h1M102 138h1M104 138h1M115 138h1M119 138h1M126 138h1M41 139h1M43 139h1M48 139h1M50 139h1M57 139h1M60 139h1M65 139h1M68 139h1M71 139h3M77 139h1M90 139h1M92 139h1M95 139h1M100 139h1M102 139h1M104 139h1M112 139h3M116 139h1M119 139h1M126 139h1M41 140h1M43 140h1M51 140h2M54 140h1M58 140h2M64 140h1M72 140h1M74 140h1M78 140h1M90 140h1M92 140h1M95 140h1M100 140h1M102 140h1M104 140h1M108 140h2M112 140h1M115 140h2M119 140h1M126 140h1M42 141h2M50 141h1M53 141h1M57 141h1M60 141h1M67 141h1M70 141h1M73 141h1M76 141h1M83 141h2M90 141h1M96 141h1M99 141h2M103 141h2M109 141h1M111 141h1M114 141h1M116 141h1M126 141h1" />
<path stroke="#181821" d="M72 8h1M76 10h1M86 135h1" />
<path stroke="#e5e5e5" d="M6 19h1M11 19h1M6 20h1M11 20h1M6 21h1M11 21h1M6 22h1M11 22h1M6 23h1M11 23h1M6 24h1M11 24h1M6 31h1M6 32h1M9 32h1M6 33h1M9 33h1M6 34h1M9 34h1M6 35h1M9 35h1M6 45h1M6 46h1M9 46h1M6 47h1M9 47h1M6 48h1M9 48h1M10 54h1M6 55h1M10 55h1M6 56h1M10 56h1M10 57h1M6 61h1M11 61h1M6 62h1M11 62h1M147 62h1M6 63h1M11 63h1M6 64h1M11 64h1M6 65h1M11 65h1M6 70h1M6 71h1M6 72h1M9 72h1M11 72h1M6 73h1M9 73h1M11 73h1M6 74h1M9 74h1M11 74h1M6 75h1M11 75h1M11 76h1M8 77h1M11 77h1M6 82h1M11 82h1M6 83h1M11 83h1M9 94h1M11 94h1M6 95h1M9 95h1M11 95h1M6 96h1M9 96h1M11 96h1M6 97h1M9 97h1M11 97h1M6 98h1M9 98h1M11 98h1M6 99h1M9 99h1M11 99h1M11 101h1M11 102h1M6 103h1M9 103h1M11 103h1M6 104h1M9 104h1M11 104h1M6 105h1M11 105h1M6 106h1M153 106h1M6 107h1M6 111h1M11 111h1M6 112h1M11 112h1M11 117h1M11 118h1M6 119h1M9 119h1M11 119h1M6 120h1M9 120h1M11 120h1M6 121h1M11 121h1M6 122h1M6 123h1" />
<path stroke="#fbfbfb" d="M5 25h1M12 25h1M10 27h1M10 70h1M7 77h1M10 107h1M10 123h1" />
<path stroke="#eeeeee" d="M6 25h1M11 25h1M154 75h1M149 78h1M153 81h1M152 96h1" />
<path stroke="#e3e3e3" d="M5 26h1M8 26h2M11 29h2M7 36h1M10 36h3M157 66h1" />
<path stroke="#ececec" d="M7 26h1M8 43h1M149 63h1M8 71h1M147 109h1" />
<path stroke="#ededed" d="M10 26h1M6 43h1M5 44h1M12 71h1M5 76h1M6 77h1M149 77h1M155 97h1M151 115h1" />
<path stroke="#e4e4e4" d="M12 26h1M6 27h1M11 27h1M152 70h1M9 75h1M150 96h1M9 107h1M157 111h1M9 123h1" />
<path stroke="#737373" d="M5 27h1M12 27h1M150 93h1" />
<path stroke="#fcfcfc" d="M7 27h1M7 43h1M10 43h1M7 52h1M7 59h1M7 68h1M10 68h1M154 72h1M7 79h1M10 79h1M156 81h1M7 86h1M10 86h1M149 90h1M152 93h1M8 105h1M7 115h1M10 115h1M8 121h1" />
<path stroke="#5a5a5a" d="M5 29h1" />
<path stroke="#cbcbcb" d="M6 29h1" />
<path stroke="#dfdfdf" d="M7 29h1M10 29h1M157 87h1M10 106h1M10 122h1" />
<path stroke="#cacaca" d="M8 29h1M157 107h1" />
<path stroke="#c5c5c5" d="M9 29h1M150 67h1M149 92h1" />
<path stroke="#dddddd" d="M5 30h1M10 44h1M7 53h1M7 58h1M7 80h1M10 80h1M7 85h1M10 85h1" />
<path stroke="#fafafa" d="M5 31h1M157 73h1M149 97h1M147 108h1M150 113h1" />
<path stroke="#f4f4f4" d="M9 31h1M150 60h1M149 79h1M12 80h1M147 87h1M148 102h1M147 107h1M6 110h1M11 110h1" />
<path stroke="#4f4f4f" d="M10 31h1M155 84h1" />
<path stroke="#f9f9f9" d="M6 36h1M9 36h1M151 67h1M5 102h1M157 109h1M12 110h1M5 118h1" />
<path stroke="#8b8b8b" d="M5 43h1" />
<path stroke="#e8e8e8" d="M9 43h1M149 60h1M12 67h1M11 86h1M12 114h1" />
<path stroke="#f6f6f6" d="M6 44h1M6 49h1M9 49h1M10 53h1M10 58h1M9 71h1M11 71h1M6 76h1M148 96h1M11 106h1M11 122h1" />
<path stroke="#d4d4d4" d="M7 44h1M11 44h2M7 49h1M10 49h3M8 53h1M11 53h2M8 58h1M11 58h2M8 67h2M10 71h1M7 76h1M8 80h2M8 85h2M8 92h5M151 93h1M12 100h1M8 108h2M8 114h2M12 116h1" />
<path stroke="#fefefe" d="M5 45h1M5 54h1M5 57h1M8 72h1M12 72h1M5 75h1M5 81h1M5 84h1M12 84h1" />
<path stroke="#eaeaea" d="M9 45h1M6 54h1M6 57h1M155 71h1M6 81h1M11 81h1M6 84h1M11 84h1M147 98h1" />
<path stroke="#808080" d="M5 52h1M5 59h1M5 79h1M5 86h1M12 86h1" />
<path stroke="#e7e7e7" d="M6 52h1M6 59h1M5 67h1M6 79h1M157 83h1M6 86h1M5 114h1" />
<path stroke="#ebebeb" d="M5 53h1M5 58h1M6 66h1M11 66h1M9 70h1M11 70h1M11 79h1M5 80h1M155 82h1M5 85h1M12 85h1M9 105h1M157 108h1M6 113h1M11 113h1M9 121h1" />
<path stroke="#010101" d="M151 59h1M149 99h1" />
<path stroke="#0c0c0c" d="M152 59h1M150 100h1M148 114h1" />
<path stroke="#181818" d="M153 59h1" />
<path stroke="#242424" d="M154 59h1M155 89h1" />
<path stroke="#303030" d="M155 59h1" />
<path stroke="#3c3c3c" d="M156 59h1M151 96h1M153 98h1M152 113h1" />
<path stroke="#484848" d="M157 59h1M157 71h1M149 110h1" />
<path stroke="#bcbcbc" d="M5 60h1M12 60h1M148 84h1M157 97h1" />
<path stroke="#a8a8a8" d="M6 60h1M11 60h1M154 97h1" />
<path stroke="#d0d0d0" d="M147 60h1" />
<path stroke="#dcdcdc" d="M148 60h1M154 93h1" />
<path stroke="#f5f5f5" d="M157 61h1M157 98h1" />
<path stroke="#f0f0f0" d="M150 62h1" />
<path stroke="#727272" d="M151 62h1" />
<path stroke="#333333" d="M152 62h1M157 96h1" />
<path stroke="#272727" d="M153 62h1" />
<path stroke="#1b1b1b" d="M154 62h1" />
<path stroke="#0e0e0e" d="M155 62h1M149 64h1M153 82h1M157 84h1M148 92h1" />
<path stroke="#020202" d="M156 62h1M155 70h1M156 93h1M152 94h1M150 99h1M149 108h1" />
<path stroke="#080808" d="M147 63h1M157 65h1M149 87h1M149 115h1M156 115h1" />
<path stroke="#757575" d="M148 63h1" />
<path stroke="#fdfdfd" d="M151 63h1M5 66h1M12 66h1M151 79h1M150 97h1M147 99h1M150 101h1M5 113h1M12 113h1" />
<path stroke="#a4a4a4" d="M152 63h1" />
<path stroke="#202020" d="M153 63h1" />
<path stroke="#828282" d="M150 64h1" />
<path stroke="#f2f2f2" d="M151 64h1" />
<path stroke="#f8f8f8" d="M153 64h1M147 68h1M147 86h1M5 94h1M5 110h1M157 110h1M154 115h1" />
<path stroke="#8e8e8e" d="M154 64h1M150 78h1M148 79h1M151 113h1" />
<path stroke="#121212" d="M155 64h1" />
<path stroke="#141414" d="M151 65h1" />
<path stroke="#8f8f8f" d="M152 65h1" />
<path stroke="#f7f7f7" d="M153 65h1M147 78h1M157 88h1M151 97h1" />
<path stroke="#efefef" d="M155 65h1" />
<path stroke="#777777" d="M156 65h1" />
<path stroke="#0a0a0a" d="M151 66h1M155 83h1" />
<path stroke="#464646" d="M152 66h1" />
<path stroke="#a5a5a5" d="M153 66h1" />
<path stroke="#dedede" d="M7 67h1M10 67h1M9 102h1M7 114h1M10 114h1M9 118h1" />
<path stroke="#090909" d="M147 67h1M152 105h1" />
<path stroke="#434343" d="M148 67h1" />
<path stroke="#848484" d="M149 67h1M150 115h1" />
<path stroke="#d5d5d5" d="M156 67h1" />
<path stroke="#949494" d="M157 67h1M152 75h1" />
<path stroke="#797979" d="M5 68h1M5 115h1" />
<path stroke="#e6e6e6" d="M6 68h1M11 68h1M147 85h1M8 106h1M6 115h1M11 115h1M8 122h1" />
<path stroke="#7a7a7a" d="M12 68h1M154 101h1M12 115h1" />
<path stroke="#dbdbdb" d="M152 68h1M147 88h1" />
<path stroke="#9a9a9a" d="M153 68h1M156 71h1" />
<path stroke="#585858" d="M154 68h1" />
<path stroke="#171717" d="M155 68h1M154 73h1M155 109h1" />
<path stroke="#e0e0e0" d="M150 69h1M147 106h1" />
<path stroke="#565656" d="M151 69h1M150 90h1" />
<path stroke="#868686" d="M8 70h1M157 74h1M152 103h1M154 108h1" />
<path stroke="#878787" d="M12 70h1" />
<path stroke="#d1d1d1" d="M147 70h1M9 76h1" />
<path stroke="#929292" d="M153 70h1" />
<path stroke="#404040" d="M154 70h1" />
<path stroke="#232323" d="M148 71h1" />
<path stroke="#767676" d="M149 71h1M8 107h1M8 123h1" />
<path stroke="#c9c9c9" d="M150 71h1M150 77h1" />
<path stroke="#1d1d1d" d="M151 72h1" />
<path stroke="#6f6f6f" d="M152 72h1" />
<path stroke="#c2c2c2" d="M153 72h1M154 106h1" />
<path stroke="#686868" d="M155 73h1M9 77h1" />
<path stroke="#bbbbbb" d="M156 73h1M147 97h1" />
<path stroke="#1a1a1a" d="M155 74h1M149 103h1" />
<path stroke="#474747" d="M156 74h1M7 94h1M152 110h1" />
<path stroke="#0f0f0f" d="M149 75h1M150 95h1" />
<path stroke="#3b3b3b" d="M150 75h1M155 98h1" />
<path stroke="#676767" d="M151 75h1" />
<path stroke="#c1c1c1" d="M153 75h1M157 90h1" />
<path stroke="#b4b4b4" d="M147 76h1M147 84h1" />
<path stroke="#e1e1e1" d="M148 76h1" />
<path stroke="#e9e9e9" d="M157 76h1M153 97h1" />
<path stroke="#898989" d="M5 77h1" />
<path stroke="#aaaaaa" d="M151 77h1M155 85h1M153 103h1" />
<path stroke="#8a8a8a" d="M152 77h1" />
<path stroke="#6b6b6b" d="M153 77h1" />
<path stroke="#151515" d="M156 77h1M149 80h1M149 109h1" />
<path stroke="#252525" d="M151 78h1" />
<path stroke="#939393" d="M12 79h1M154 113h1" />
<path stroke="#191919" d="M147 79h1" />
<path stroke="#bababa" d="M152 79h1M6 100h1M6 116h1" />
<path stroke="#505050" d="M153 79h1" />
<path stroke="#888888" d="M150 80h1" />
<path stroke="#f1f1f1" d="M151 80h1M157 89h1M6 102h1M155 103h1M6 118h1" />
<path stroke="#2c2c2c" d="M156 80h1" />
<path stroke="#111111" d="M151 81h1" />
<path stroke="#818181" d="M152 81h1" />
<path stroke="#a2a2a2" d="M157 81h1M153 101h1" />
<path stroke="#7b7b7b" d="M154 82h1M156 106h1" />
<path stroke="#747474" d="M156 83h1M155 93h1" />
<path stroke="#323232" d="M156 84h1M153 116h1" />
<path stroke="#656565" d="M157 85h1" />
<path stroke="#525252" d="M155 86h1M155 101h1" />
<path stroke="#b1b1b1" d="M157 86h1M6 92h1M6 108h1M11 108h1M157 112h1" />
<path stroke="#222222" d="M155 87h1" />
<path stroke="#2f2f2f" d="M149 88h1" />
<path stroke="#070707" d="M155 88h1M155 110h1" />
<path stroke="#a1a1a1" d="M147 89h1" />
<path stroke="#909090" d="M149 89h1M155 112h1" />
<path stroke="#414141" d="M147 90h1M150 98h1" />
<path stroke="#959595" d="M155 90h1" />
<path stroke="#afafaf" d="M148 91h1M154 91h1" />
<path stroke="#b0b0b0" d="M151 91h1" />
<path stroke="#646464" d="M152 91h1M153 110h1" />
<path stroke="#636363" d="M153 91h1" />
<path stroke="#5f5f5f" d="M157 91h1" />
<path stroke="#353535" d="M5 92h1M5 108h1M12 108h1" />
<path stroke="#cfcfcf" d="M7 92h1M7 108h1M10 108h1" />
<path stroke="#acacac" d="M156 92h1" />
<path stroke="#d2d2d2" d="M5 93h1M147 102h1M5 109h1" />
<path stroke="#050505" d="M149 93h1M153 99h1" />
<path stroke="#f3f3f3" d="M6 94h1M156 96h1" />
<path stroke="#060606" d="M153 94h1" />
<path stroke="#1e1e1e" d="M148 95h1" />
<path stroke="#4a4a4a" d="M149 95h1" />
<path stroke="#262626" d="M152 95h1M156 95h1" />
<path stroke="#9c9c9c" d="M153 95h1" />
<path stroke="#c3c3c3" d="M154 95h1M149 114h1" />
<path stroke="#9d9d9d" d="M155 95h1" />
<path stroke="#3e3e3e" d="M147 96h1M150 103h1M157 106h1" />
<path stroke="#313131" d="M149 98h1M147 112h1" />
<path stroke="#030303" d="M155 99h1" />
<path stroke="#454545" d="M5 100h1M5 116h1" />
<path stroke="#cecece" d="M7 100h1M154 103h1M7 116h1" />
<path stroke="#ababab" d="M8 100h1M149 111h1M8 116h1" />
<path stroke="#1c1c1c" d="M9 100h1M9 116h1" />
<path stroke="#bebebe" d="M11 100h1M11 116h1" />
<path stroke="#3a3a3a" d="M149 100h1" />
<path stroke="#d7d7d7" d="M5 101h1M5 117h1" />
<path stroke="#b5b5b5" d="M9 101h1M9 117h1" />
<path stroke="#717171" d="M7 102h1M7 118h1" />
<path stroke="#626262" d="M151 103h1" />
<path stroke="#161616" d="M156 104h1" />
<path stroke="#393939" d="M157 104h1" />
<path stroke="#8c8c8c" d="M147 105h1" />
<path stroke="#9b9b9b" d="M148 105h1" />
<path stroke="#9e9e9e" d="M155 106h1" />
<path stroke="#b7b7b7" d="M155 108h1M156 114h1" />
<path stroke="#d3d3d3" d="M12 109h1" />
<path stroke="#4b4b4b" d="M7 110h1M10 110h1" />
<path stroke="#cccccc" d="M147 110h1" />
<path stroke="#919191" d="M147 111h1" />
<path stroke="#282828" d="M155 111h1" />
<path stroke="#535353" d="M150 112h1" />
<path stroke="#a3a3a3" d="M148 113h1" />
<path stroke="#3f3f3f" d="M153 113h1" />
<path stroke="#555555" d="M157 113h1" />
<path stroke="#979797" d="M155 115h1" />
<path stroke="#040404" d="M151 116h1" />
<path stroke="#292929" d="M152 116h1" />
<path stroke="#0d0d0d" d="M154 116h1" />
</svg>