<svg xmlns="http://www.w3.org/2000/svg" viewBox="0 -0.5 160 144" shape-rendering="crispEdges">
<metadata>Made with Pixels to Svg https://codepen.io/shshaw/pen/XbxvNj</metadata>
<path stroke="#ffffff" d="M0 0h3M8 0h5M18 0h5M28 0h5M38 0h5M48 0h5M58 0h5M68 0h5M78 0h5M88 0h5M98 0h5M108 0h5M118 0h3M122 0h1M128 0h2M131 0h2M138 0h4M147 0h4M156 0h4M0 1h3M4 1h3M8 1h5M14 1h3M18 1h5M24 1h3M28 1h5M34 1h3M38 1h5M44 1h3M48 1h5M54 1h3M58 1h5M64 1h3M68 1h5M74 1h3M78 1h5M84 1h3M88 1h5M94 1h3M98 1h5M104 1h3M108 1h5M114 1h3M118 1h5M124 1h3M128 1h5M134 1h3M138 1h4M143 1h3M147 1h5M153 1h2M156 1h4M0 2h3M4 2h3M8 2h5M14 2h3M18 2h5M24 2h3M28 2h5M34 2h3M38 2h5M44 2h3M48 2h5M54 2h3M58 2h5M64 2h3M68 2h5M74 2h3M78 2h5M84 2h3M88 2h5M94 2h3M98 2h5M104 2h3M108 2h5M114 2h3M118 2h5M124 2h3M128 2h5M134 2h3M138 2h4M143 2h3M147 2h5M153 2h2M156 2h4M0 3h2M3 3h5M9 3h3M13 3h5M19 3h3M23 3h5M29 3h3M33 3h5M39 3h3M43 3h5M49 3h3M53 3h5M59 3h3M63 3h5M69 3h3M73 3h5M79 3h3M83 3h5M89 3h3M93 3h5M99 3h3M103 3h5M109 3h3M113 3h5M119 3h3M123 3h5M129 3h3M133 3h5M139 3h2M142 3h5M148 3h3M152 3h1M154 3h2M157 3h3M2 4h7M12 4h7M22 4h7M32 4h7M42 4h7M52 4h7M62 4h7M72 4h7M82 4h7M92 4h7M102 4h7M112 4h7M122 4h7M132 4h7M141 4h7M151 4h6M1 5h158M1 6h13M15 6h144M1 7h61M63 7h45M109 7h50M3 8h53M57 8h100M0 9h3M4 9h20M25 9h131M157 9h2M0 10h4M5 10h137M143 10h12M156 10h4M0 11h4M5 11h63M69 11h4M74 11h81M156 11h4M0 12h4M5 12h55M61 12h32M94 12h61M156 12h4M0 13h3M4 13h102M107 13h49M157 13h3M3 14h3M7 14h7M146 14h11M1 15h13M146 15h13M1 16h13M146 16h13M1 17h13M146 17h13M3 18h7M11 18h3M146 18h11M0 19h3M4 19h10M146 19h10M157 19h2M0 20h4M5 20h9M146 20h9M156 20h4M0 21h4M5 21h9M146 21h9M156 21h4M0 22h4M5 22h6M12 22h2M146 22h9M156 22h4M0 23h3M4 23h10M146 23h10M157 23h3M3 24h2M6 24h8M146 24h11M1 25h3M6 25h4M11 25h3M146 25h3M150 25h9M1 26h13M146 26h13M1 27h13M146 27h2M149 27h10M3 28h11M146 28h7M154 28h3M0 29h3M4 29h10M146 29h10M157 29h3M0 30h4M5 30h9M146 30h9M156 30h4M0 31h4M5 31h3M9 31h5M146 31h9M156 31h1M158 31h2M0 32h2M3 32h1M5 32h1M7 32h2M10 32h4M146 32h9M156 32h4M0 33h3M5 33h9M146 33h10M157 33h3M3 34h11M146 34h11M1 35h13M146 35h13M1 36h13M146 36h13M1 37h13M146 37h13M3 38h11M146 38h11M0 39h3M4 39h10M146 39h10M157 39h3M0 40h4M5 40h9M146 40h9M156 40h4M0 41h4M5 41h9M146 41h9M156 41h4M0 42h4M5 42h9M146 42h9M156 42h4M0 43h3M4 43h10M146 43h10M157 43h3M3 44h11M146 44h11M1 45h13M146 45h13M1 46h13M146 46h4M152 46h7M1 47h13M146 47h3M150 47h9M3 48h11M146 48h11M0 49h3M4 49h10M146 49h10M157 49h3M0 50h4M5 50h9M146 50h9M156 50h4M0 51h4M5 51h9M146 51h9M156 51h4M0 52h4M5 52h9M146 52h9M156 52h4M0 53h3M4 53h10M146 53h10M157 53h3M3 54h11M146 54h11M1 55h13M146 55h13M1 56h13M146 56h13M1 57h13M146 57h13M3 58h11M146 58h11M0 59h3M4 59h10M146 59h10M157 59h3M0 60h4M5 60h9M146 60h9M156 60h4M0 61h4M5 61h9M146 61h9M156 61h4M0 62h4M5 62h9M146 62h9M156 62h4M0 63h3M4 63h10M146 63h10M157 63h3M3 64h11M146 64h11M1 65h13M146 65h13M1 66h13M146 66h12M1 67h13M146 67h13M3 68h11M146 68h11M0 69h3M4 69h10M146 69h10M157 69h3M0 70h4M5 70h9M146 70h9M156 70h4M0 71h4M6 71h8M146 71h1M148 71h7M156 71h4M0 72h4M5 72h8M146 72h7M154 72h1M156 72h4M0 73h3M4 73h10M146 73h10M157 73h3M3 74h11M146 74h11M1 75h13M146 75h13M1 76h13M146 76h13M1 77h13M146 77h13M3 78h11M146 78h11M0 79h3M4 79h5M10 79h4M146 79h10M157 79h3M0 80h4M5 80h9M146 80h1M148 80h7M156 80h4M0 81h4M5 81h9M146 81h9M156 81h4M0 82h4M6 82h8M146 82h9M156 82h4M0 83h3M4 83h10M146 83h10M157 83h3M3 84h11M146 84h11M1 85h13M146 85h13M1 86h2M4 86h10M146 86h13M1 87h13M146 87h13M3 88h1M5 88h9M146 88h11M0 89h3M4 89h10M146 89h10M157 89h3M0 90h4M5 90h9M146 90h1M148 90h7M156 90h4M0 91h4M5 91h9M146 91h9M156 91h4M0 92h4M5 92h9M146 92h9M156 92h4M0 93h3M4 93h10M146 93h10M157 93h3M3 94h11M146 94h1M148 94h9M1 95h13M146 95h13M1 96h13M146 96h13M1 97h13M146 97h13M3 98h11M146 98h5M152 98h5M0 99h3M4 99h10M146 99h10M157 99h3M0 100h4M5 100h9M146 100h9M156 100h4M0 101h4M5 101h9M146 101h9M156 101h4M0 102h4M5 102h9M146 102h9M156 102h4M0 103h3M4 103h10M146 103h10M157 103h3M3 104h11M146 104h11M1 105h13M146 105h13M1 106h13M146 106h13M1 107h13M146 107h13M3 108h11M146 108h11M0 109h3M4 109h10M146 109h10M157 109h3M0 110h4M5 110h9M146 110h9M156 110h4M0 111h4M5 111h9M146 111h9M156 111h1M158 111h2M0 112h4M5 112h9M146 112h9M156 112h4M0 113h3M4 113h10M146 113h10M157 113h3M3 114h11M146 114h11M1 115h13M146 115h3M150 115h9M1 116h13M146 116h13M1 117h7M9 117h5M146 117h13M3 118h11M146 118h11M0 119h3M4 119h10M146 119h10M157 119h3M0 120h4M5 120h9M147 120h8M157 120h3M0 121h4M5 121h9M146 121h9M156 121h4M0 122h4M5 122h9M146 122h9M156 122h4M0 123h3M4 123h10M146 123h10M157 123h3M3 124h5M9 124h5M146 124h11M1 125h13M146 125h13M1 126h13M146 126h13M1 127h13M146 127h13M3 128h11M146 128h11M0 129h3M4 129h10M146 129h10M157 129h3M0 130h4M5 130h15M21 130h7M29 130h26M56 130h7M64 130h89M154 130h1M156 130h4M0 131h4M5 131h109M115 131h40M156 131h4M0 132h4M5 132h12M18 132h82M101 132h54M156 132h4M0 133h3M4 133h29M34 133h39M74 133h82M157 133h3M3 134h1M5 134h99M105 134h52M1 135h158M1 136h158M1 137h12M14 137h13M28 137h33M62 137h15M78 137h81M2 138h80M83 138h74M0 139h2M3 139h6M12 139h7M22 139h7M32 139h7M42 139h7M52 139h7M62 139h7M72 139h7M82 139h7M92 139h7M102 139h7M112 139h7M122 139h7M132 139h7M141 139h7M151 139h5M157 139h3M0 140h3M4 140h4M9 140h3M13 140h5M19 140h3M23 140h5M29 140h3M33 140h5M39 140h3M43 140h5M49 140h3M53 140h5M59 140h3M63 140h5M69 140h3M73 140h5M79 140h3M83 140h5M89 140h1M91 140h1M93 140h5M99 140h3M103 140h5M109 140h3M113 140h5M119 140h3M123 140h5M129 140h3M133 140h2M136 140h2M139 140h2M142 140h5M148 140h3M152 140h3M156 140h4M1 141h2M4 141h3M8 141h5M14 141h3M18 141h5M24 141h3M28 141h5M34 141h3M38 141h5M44 141h3M48 141h1M50 141h3M54 141h3M58 141h5M64 141h3M68 141h5M74 141h3M78 141h5M84 141h3M88 141h5M94 141h3M98 141h5M104 141h3M108 141h5M114 141h3M118 141h5M124 141h3M128 141h5M134 141h3M138 141h4M143 141h3M147 141h5M153 141h2M156 141h4M0 142h3M4 142h3M8 142h5M14 142h3M18 142h5M24 142h3M28 142h5M34 142h3M38 142h5M44 142h3M48 142h5M54 142h3M58 142h5M64 142h3M68 142h5M74 142h3M78 142h2M81 142h2M84 142h3M88 142h5M94 142h3M98 142h5M104 142h3M108 142h5M114 142h3M118 142h5M124 142h3M128 142h5M134 142h3M138 142h4M143 142h3M147 142h5M153 142h2M156 142h4M0 143h3M8 143h5M18 143h5M28 143h5M38 143h5M48 143h5M58 143h4M68 143h5M78 143h5M88 143h5M98 143h5M108 143h3M112 143h1M118 143h5M128 143h5M138 143h4M147 143h5M156 143h4" />
<path stroke="#000000" d="M3 0h5M13 0h5M23 0h5M33 0h5M43 0h5M53 0h5M63 0h5M73 0h5M83 0h2M86 0h2M93 0h5M103 0h3M107 0h1M113 0h5M123 0h5M133 0h5M142 0h5M152 0h4M3 1h1M7 1h1M13 1h1M17 1h1M23 1h1M27 1h1M33 1h1M37 1h1M43 1h1M47 1h1M53 1h1M57 1h1M63 1h1M67 1h1M73 1h1M77 1h1M83 1h1M87 1h1M93 1h1M97 1h1M103 1h1M107 1h1M113 1h1M117 1h1M123 1h1M127 1h1M133 1h1M137 1h1M146 1h1M152 1h1M155 1h1M3 2h1M7 2h1M13 2h1M17 2h1M23 2h1M27 2h1M33 2h1M37 2h1M43 2h1M47 2h1M53 2h1M57 2h1M63 2h1M67 2h1M73 2h1M77 2h1M83 2h1M87 2h1M93 2h1M97 2h1M103 2h1M107 2h1M113 2h1M117 2h1M123 2h1M127 2h1M133 2h1M137 2h1M142 2h1M146 2h1M152 2h1M155 2h1M2 3h1M8 3h1M12 3h1M18 3h1M22 3h1M28 3h1M32 3h1M38 3h1M42 3h1M48 3h1M52 3h1M58 3h1M62 3h1M68 3h1M72 3h1M78 3h1M82 3h1M88 3h1M92 3h1M98 3h1M102 3h1M108 3h1M112 3h1M118 3h1M122 3h1M128 3h1M132 3h1M138 3h1M141 3h1M147 3h1M151 3h1M156 3h1M0 4h2M9 4h3M19 4h3M29 4h3M39 4h3M49 4h3M59 4h3M69 4h3M79 4h3M89 4h3M99 4h3M109 4h3M119 4h3M130 4h2M139 4h2M148 4h3M157 4h2M0 5h1M159 5h1M0 6h1M159 6h1M0 7h1M159 7h1M0 8h3M157 8h3M3 9h1M156 9h1M4 10h1M155 10h1M4 11h1M155 11h1M4 12h1M155 12h1M3 13h1M156 13h1M0 14h3M14 14h10M25 14h121M157 14h3M0 15h1M14 15h70M85 15h61M159 15h1M0 16h1M14 16h2M144 16h2M159 16h1M0 17h1M14 17h2M144 17h2M159 17h1M0 18h3M14 18h2M144 18h2M157 18h3M3 19h1M14 19h2M144 19h2M156 19h1M4 20h1M14 20h2M144 20h2M155 20h1M4 21h1M14 21h2M144 21h2M155 21h1M4 22h1M14 22h2M144 22h2M155 22h1M3 23h1M14 23h2M144 23h2M156 23h1M0 24h3M14 24h2M144 24h2M157 24h3M0 25h1M14 25h2M144 25h2M159 25h1M0 26h1M14 26h2M144 26h2M159 26h1M0 27h1M14 27h2M144 27h2M159 27h1M0 28h3M14 28h2M144 28h2M157 28h3M3 29h1M14 29h2M144 29h2M156 29h1M4 30h1M14 30h2M144 30h2M155 30h1M4 31h1M14 31h2M144 31h2M155 31h1M4 32h1M14 32h2M144 32h2M155 32h1M3 33h1M14 33h2M144 33h2M156 33h1M0 34h3M14 34h2M144 34h2M157 34h3M0 35h1M14 35h2M144 35h2M159 35h1M0 36h1M14 36h2M144 36h2M159 36h1M0 37h1M14 37h2M144 37h2M159 37h1M0 38h3M14 38h2M144 38h2M157 38h3M3 39h1M14 39h2M144 39h2M156 39h1M4 40h1M14 40h2M144 40h2M155 40h1M4 41h1M14 41h2M144 41h2M155 41h1M4 42h1M14 42h2M144 42h2M155 42h1M3 43h1M14 43h2M144 43h2M156 43h1M0 44h3M14 44h2M144 44h2M157 44h3M0 45h1M14 45h2M144 45h2M159 45h1M0 46h1M14 46h2M144 46h2M159 46h1M0 47h1M14 47h2M144 47h2M159 47h1M0 48h3M14 48h2M144 48h2M157 48h3M3 49h1M14 49h2M144 49h2M156 49h1M4 50h1M14 50h2M144 50h2M155 50h1M4 51h1M14 51h2M145 51h1M155 51h1M4 52h1M14 52h2M144 52h2M155 52h1M3 53h1M14 53h2M144 53h2M156 53h1M0 54h3M14 54h2M144 54h2M157 54h3M0 55h1M14 55h2M144 55h2M159 55h1M0 56h1M14 56h1M144 56h2M159 56h1M0 57h1M14 57h2M144 57h2M159 57h1M0 58h3M14 58h2M144 58h2M157 58h3M3 59h1M14 59h2M144 59h2M156 59h1M4 60h1M14 60h2M144 60h2M155 60h1M4 61h1M14 61h2M144 61h2M155 61h1M4 62h1M14 62h2M144 62h2M155 62h1M3 63h1M15 63h1M144 63h2M156 63h1M0 64h3M14 64h2M144 64h2M157 64h3M0 65h1M14 65h2M144 65h2M159 65h1M0 66h1M14 66h2M144 66h2M159 66h1M0 67h1M14 67h2M144 67h2M159 67h1M0 68h3M14 68h2M144 68h2M157 68h3M3 69h1M14 69h2M144 69h2M156 69h1M4 70h1M14 70h2M144 70h2M155 70h1M4 71h1M14 71h2M144 71h2M155 71h1M4 72h1M14 72h2M144 72h2M155 72h1M3 73h1M14 73h2M144 73h2M156 73h1M0 74h3M14 74h2M144 74h2M157 74h3M0 75h1M14 75h2M144 75h2M159 75h1M0 76h1M14 76h2M144 76h2M159 76h1M0 77h1M14 77h2M144 77h2M159 77h1M0 78h3M14 78h2M144 78h2M157 78h3M14 79h2M144 79h2M156 79h1M4 80h1M14 80h2M144 80h2M155 80h1M4 81h1M14 81h2M144 81h2M155 81h1M4 82h1M14 82h2M144 82h2M155 82h1M3 83h1M14 83h2M144 83h2M156 83h1M0 84h3M14 84h2M144 84h2M157 84h3M0 85h1M14 85h2M144 85h2M159 85h1M0 86h1M14 86h2M144 86h2M159 86h1M0 87h1M14 87h2M144 87h2M159 87h1M0 88h3M14 88h2M144 88h2M157 88h3M3 89h1M14 89h2M144 89h2M156 89h1M4 90h1M14 90h2M144 90h2M155 90h1M4 91h1M14 91h2M144 91h2M155 91h1M4 92h1M14 92h2M144 92h2M155 92h1M3 93h1M14 93h2M144 93h2M156 93h1M0 94h3M14 94h2M144 94h2M157 94h3M0 95h1M14 95h2M144 95h2M159 95h1M0 96h1M14 96h2M144 96h2M159 96h1M0 97h1M14 97h2M144 97h2M159 97h1M0 98h3M14 98h2M144 98h2M157 98h3M3 99h1M14 99h2M144 99h2M156 99h1M4 100h1M14 100h2M144 100h2M155 100h1M4 101h1M14 101h2M144 101h2M155 101h1M4 102h1M14 102h2M144 102h2M155 102h1M3 103h1M15 103h1M144 103h2M156 103h1M0 104h3M14 104h2M144 104h2M157 104h3M0 105h1M14 105h2M144 105h2M159 105h1M0 106h1M14 106h2M144 106h2M159 106h1M0 107h1M14 107h2M144 107h2M159 107h1M0 108h3M14 108h2M144 108h2M157 108h3M3 109h1M14 109h1M144 109h2M156 109h1M4 110h1M14 110h2M144 110h2M155 110h1M4 111h1M14 111h2M144 111h2M155 111h1M4 112h1M14 112h2M144 112h2M155 112h1M3 113h1M14 113h2M144 113h2M156 113h1M0 114h3M14 114h2M144 114h2M157 114h3M0 115h1M14 115h2M144 115h2M159 115h1M0 116h1M14 116h2M144 116h2M159 116h1M0 117h1M14 117h2M144 117h2M159 117h1M0 118h3M14 118h2M144 118h2M157 118h3M3 119h1M14 119h2M144 119h2M156 119h1M4 120h1M14 120h2M144 120h2M155 120h1M4 121h1M14 121h2M144 121h2M155 121h1M4 122h1M14 122h2M144 122h2M155 122h1M3 123h1M14 123h2M144 123h2M156 123h1M0 124h3M14 124h2M144 124h2M158 124h2M0 125h1M14 125h2M144 125h2M159 125h1M0 126h1M14 126h2M144 126h2M159 126h1M0 127h1M14 127h2M144 127h2M159 127h1M0 128h3M14 128h45M60 128h86M157 128h3M14 129h72M87 129h59M156 129h1M4 130h1M155 130h1M4 131h1M155 131h1M4 132h1M155 132h1M3 133h1M156 133h1M0 134h3M157 134h3M0 135h1M159 135h1M0 136h1M159 136h1M0 137h1M159 137h1M1 138h1M157 138h3M2 139h1M9 139h3M19 139h3M29 139h3M39 139h3M49 139h3M59 139h3M69 139h3M79 139h3M89 139h3M99 139h2M109 139h3M119 139h3M129 139h3M139 139h2M148 139h3M156 139h1M3 140h1M8 140h1M12 140h1M18 140h1M22 140h1M28 140h1M32 140h1M38 140h1M42 140h1M48 140h1M52 140h1M58 140h1M62 140h1M68 140h1M72 140h1M78 140h1M82 140h1M88 140h1M92 140h1M98 140h1M102 140h1M108 140h1M112 140h1M118 140h1M122 140h1M128 140h1M132 140h1M138 140h1M141 140h1M147 140h1M151 140h1M155 140h1M3 141h1M7 141h1M13 141h1M17 141h1M23 141h1M27 141h1M33 141h1M37 141h1M43 141h1M47 141h1M53 141h1M57 141h1M63 141h1M67 141h1M73 141h1M77 141h1M83 141h1M87 141h1M93 141h1M97 141h1M103 141h1M107 141h1M113 141h1M117 141h1M123 141h1M127 141h1M137 141h1M142 141h1M146 141h1M152 141h1M155 141h1M3 142h1M7 142h1M13 142h1M17 142h1M23 142h1M27 142h1M33 142h1M37 142h1M43 142h1M47 142h1M53 142h1M57 142h1M63 142h1M73 142h1M77 142h1M83 142h1M87 142h1M93 142h1M97 142h1M103 142h1M107 142h1M113 142h1M117 142h1M123 142h1M127 142h1M133 142h1M137 142h1M142 142h1M146 142h1M152 142h1M155 142h1M3 143h5M13 143h5M23 143h5M33 143h5M43 143h5M53 143h5M63 143h5M73 143h5M83 143h5M93 143h5M103 143h5M113 143h5M123 143h5M134 143h4M142 143h5M152 143h4" />
<path stroke="#000100" d="M85 0h1M106 0h1M129 4h1M159 4h1M3 79h1M15 109h1M59 128h1M133 141h1" />
<path stroke="#fffeff" d="M121 0h1M130 0h1M151 0h1M108 7h1M56 8h1M68 11h1M10 18h1M159 19h1M148 27h1M153 28h1M2 32h1M4 33h1M150 46h1M149 47h1M5 71h1M13 72h1M9 79h1M147 94h1M157 111h1M63 130h1M153 130h1M100 132h1M33 133h1M104 134h1M77 137h1M82 138h1M49 141h1M62 143h1" />
<path stroke="#000001" d="M142 1h1M24 14h1M15 56h1M14 63h1M157 124h1M86 129h1M67 142h1" />
<path stroke="#feffff" d="M153 3h1M62 7h1M24 9h1M159 9h1M73 11h1M60 12h1M93 12h1M11 22h1M5 25h1M149 25h1M8 31h1M153 72h1M5 82h1M147 90h1M151 98h1M149 115h1M156 120h1M8 124h1M20 130h1M4 134h1M13 137h1M61 137h1M0 141h1M80 142h1" />
<path stroke="#fffffe" d="M14 6h1M142 10h1M106 13h1M6 14h1M5 24h1M4 25h1M10 25h1M157 31h1M6 32h1M9 32h1M151 46h1M158 66h1M147 71h1M147 80h1M3 86h1M4 88h1M8 117h1M146 120h1M28 130h1M55 130h1M114 131h1M17 132h1M73 133h1M27 137h1M90 140h1M135 140h1M111 143h1" />
<path stroke="#010000" d="M84 15h1M144 51h1M14 103h1M3 129h1M0 138h1M101 139h1M133 143h1" />
</svg>