<svg xmlns="http://www.w3.org/2000/svg" viewBox="0 -0.5 160 144" shape-rendering="crispEdges">
<metadata>Made with Pixels to Svg https://codepen.io/shshaw/pen/XbxvNj</metadata>
<path stroke="#000000" d="M0 0h147M148 0h12M0 1h32M33 1h1M35 1h99M135 1h25M0 2h24M25 2h25M54 2h5M63 2h2M66 2h41M110 2h50M0 3h36M37 3h13M54 3h5M63 3h1M67 3h40M110 3h3M115 3h45M0 4h48M49 4h2M54 4h5M62 4h2M67 4h7M75 4h5M83 4h8M92 4h10M103 4h4M110 4h2M116 4h44M0 5h51M55 5h3M62 5h18M84 5h23M110 5h2M116 5h44M0 6h2M3 6h48M55 6h3M62 6h2M67 6h1M71 6h1M76 6h2M85 6h1M89 6h4M96 6h4M105 6h2M110 6h3M115 6h45M0 7h52M55 7h3M61 7h3M67 7h1M73 7h1M77 7h3M83 7h3M89 7h4M96 7h2M101 7h2M106 7h1M110 7h50M0 8h52M56 8h1M62 8h2M67 8h1M72 8h8M83 8h3M89 8h4M100 8h3M106 8h1M110 8h10M121 8h1M123 8h4M128 8h32M0 9h23M24 9h28M56 9h1M60 9h4M67 9h1M71 9h9M83 9h3M89 9h4M96 9h1M100 9h3M106 9h1M110 9h36M147 9h13M0 10h53M60 10h4M67 10h1M71 10h9M83 10h3M89 10h4M96 10h1M100 10h3M106 10h1M110 10h50M0 11h44M45 11h8M60 11h4M67 11h1M71 11h9M83 11h3M89 11h4M96 11h1M100 11h3M106 11h1M110 11h6M117 11h17M135 11h25M0 12h54M59 12h5M67 12h1M71 12h9M83 12h3M89 12h4M96 12h2M101 12h2M106 12h1M110 12h35M146 12h14M0 13h54M59 13h5M67 13h1M71 13h9M83 13h5M96 13h3M106 13h1M110 13h39M150 13h10M0 14h23M24 14h128M153 14h7M0 15h123M124 15h36M0 16h3M4 16h12M144 16h16M0 17h16M144 17h16M0 18h16M144 18h10M155 18h5M0 19h16M144 19h16M0 20h16M144 20h16M0 21h16M144 21h16M0 22h14M15 22h1M144 22h16M0 23h16M144 23h16M0 24h16M144 24h16M0 25h16M144 25h16M0 26h6M7 26h9M144 26h16M0 27h16M144 27h16M0 28h11M12 28h4M144 28h16M0 29h16M144 29h16M0 30h16M144 30h16M0 31h16M144 31h16M0 32h16M144 32h16M0 33h11M12 33h4M144 33h16M0 34h16M144 34h16M0 35h13M14 35h2M144 35h16M0 36h16M144 36h16M0 37h16M144 37h16M0 38h16M144 38h16M0 39h16M144 39h16M0 40h1M2 40h14M144 40h16M0 41h16M144 41h16M0 42h16M144 42h16M0 43h16M144 43h16M0 44h16M144 44h16M0 45h16M144 45h16M0 46h12M13 46h3M144 46h16M0 47h16M144 47h16M0 48h16M144 48h9M154 48h6M0 49h16M144 49h16M0 50h16M144 50h16M0 51h16M144 51h9M154 51h6M0 52h16M144 52h5M150 52h10M0 53h16M144 53h4M149 53h11M0 54h16M144 54h8M153 54h7M0 55h8M9 55h6M144 55h16M0 56h16M144 56h16M0 57h16M144 57h16M0 58h16M144 58h16M0 59h2M3 59h13M144 59h6M151 59h9M0 60h16M144 60h16M0 61h16M144 61h9M154 61h6M0 62h16M144 62h16M0 63h5M6 63h10M144 63h11M156 63h4M0 64h16M144 64h16M0 65h16M144 65h16M0 66h16M144 66h16M0 67h16M144 67h16M0 68h16M144 68h16M0 69h16M144 69h16M0 70h16M144 70h16M0 71h16M144 71h16M0 72h11M12 72h4M144 72h16M0 73h16M144 73h16M0 74h16M144 74h16M0 75h16M144 75h16M0 76h16M144 76h16M0 77h16M144 77h16M0 78h16M144 78h16M0 79h11M12 79h4M144 79h12M157 79h3M0 80h16M144 80h16M0 81h16M144 81h16M1 82h15M144 82h16M0 83h16M144 83h16M0 84h16M144 84h16M0 85h10M11 85h5M144 85h16M0 86h16M144 86h16M0 87h16M144 87h16M0 88h16M144 88h16M0 89h16M144 89h16M0 90h16M144 90h16M0 91h16M144 91h16M0 92h16M144 92h16M0 93h16M144 93h16M0 94h16M144 94h16M0 95h16M144 95h16M0 96h16M144 96h16M0 97h16M144 97h16M0 98h1M2 98h14M144 98h16M0 99h16M144 99h16M0 100h16M144 100h16M0 101h16M144 101h16M0 102h16M144 102h12M157 102h3M0 103h16M144 103h16M0 104h16M144 104h16M0 105h16M144 105h16M0 106h16M144 106h16M0 107h16M144 107h16M0 108h12M13 108h3M144 108h16M0 109h16M144 109h16M0 110h16M144 110h16M0 111h16M144 111h16M0 112h16M144 112h16M0 113h16M144 113h9M154 113h6M0 114h16M144 114h16M0 115h16M144 115h2M147 115h13M0 116h16M144 116h16M0 117h16M144 117h16M1 118h15M144 118h16M0 119h16M144 119h16M0 120h16M144 120h16M0 121h16M144 121h16M0 122h16M144 122h16M0 123h16M144 123h16M0 124h16M144 124h16M0 125h16M144 125h16M0 126h14M15 126h1M144 126h16M0 127h16M144 127h6M151 127h9M0 128h42M43 128h11M55 128h86M142 128h14M157 128h3M0 129h160M0 130h92M93 130h15M111 130h1M113 130h1M115 130h45M1 131h4M6 131h43M57 131h1M66 131h8M82 131h4M90 131h4M99 131h3M106 131h3M110 131h2M115 131h45M0 132h20M21 132h26M57 132h1M67 132h6M82 132h3M90 132h4M99 132h3M106 132h3M110 132h2M115 132h45M0 133h31M32 133h14M52 133h3M57 133h1M62 133h1M67 133h5M77 133h3M82 133h3M91 133h3M99 133h2M106 133h54M0 134h28M29 134h17M50 134h8M62 134h1M67 134h5M76 134h9M91 134h2M100 134h1M106 134h42M149 134h11M0 135h13M14 135h31M49 135h9M66 135h5M75 135h9M91 135h2M106 135h54M0 136h45M49 136h2M57 136h1M66 136h5M75 136h9M87 136h1M91 136h2M106 136h31M138 136h22M0 137h45M49 137h2M57 137h1M67 137h4M75 137h2M78 137h5M87 137h1M91 137h2M96 137h1M103 137h1M106 137h54M0 138h26M27 138h18M49 138h4M56 138h1M61 138h3M68 138h3M75 138h8M91 138h1M96 138h1M102 138h2M106 138h40M147 138h13M0 139h46M50 139h3M56 139h1M61 139h2M67 139h3M76 139h3M86 139h2M91 139h1M96 139h1M101 139h3M106 139h54M0 140h46M56 140h1M67 140h5M84 140h5M91 140h1M95 140h2M100 140h1M102 140h2M106 140h54M0 141h47M56 141h1M66 141h7M84 141h5M91 141h1M95 141h3M100 141h4M106 141h54M0 142h47M48 142h57M106 142h54M0 143h10M11 143h41M53 143h24M78 143h82" />
<path stroke="#010000" d="M147 0h1M32 1h1M134 1h1M36 3h1M74 4h1M61 8h1M127 8h1M149 13h1M123 15h1M14 22h1M11 28h1M13 35h1M153 48h1M153 51h1M149 52h1M148 53h1M8 55h1M11 79h1M1 98h1M156 102h1M12 108h1M146 115h1M92 130h1M28 134h1M148 134h1M137 136h1M47 142h1M10 143h1M52 143h1" />
<path stroke="#000001" d="M34 1h1M24 2h1M91 4h1M2 6h1M96 8h1M120 8h1M23 9h1M146 9h1M6 26h1M11 33h1M1 40h1M152 54h1M150 59h1M5 63h1M155 63h1M11 72h1M10 85h1M153 113h1M14 126h1M42 128h1M54 128h1M141 128h1M156 128h1M0 131h1M20 132h1M31 133h1M26 138h1M146 138h1M70 139h1" />
<path stroke="#ffffff" d="M50 2h4M59 2h4M107 2h3M50 3h4M59 3h4M64 3h3M107 3h3M113 3h2M51 4h3M59 4h3M64 4h3M80 4h3M107 4h3M112 4h4M51 5h2M54 5h1M58 5h4M80 5h3M108 5h2M112 5h4M51 6h4M58 6h4M64 6h3M68 6h3M73 6h3M78 6h7M86 6h3M93 6h3M100 6h5M107 6h3M113 6h2M52 7h3M58 7h3M64 7h3M68 7h5M74 7h3M80 7h3M86 7h3M93 7h3M98 7h3M103 7h3M107 7h3M52 8h4M57 8h4M64 8h3M68 8h4M80 8h3M86 8h3M93 8h3M97 8h3M103 8h3M107 8h3M52 9h4M57 9h1M59 9h1M64 9h3M68 9h3M80 9h3M86 9h3M93 9h3M97 9h3M103 9h3M107 9h3M53 10h7M64 10h3M68 10h3M80 10h3M86 10h3M93 10h3M97 10h3M103 10h3M107 10h3M53 11h2M56 11h4M64 11h3M68 11h3M80 11h3M86 11h3M93 11h3M97 11h3M103 11h3M108 11h2M54 12h5M64 12h3M68 12h3M80 12h3M86 12h3M93 12h3M98 12h3M103 12h3M107 12h3M54 13h5M64 13h3M68 13h3M80 13h3M88 13h8M99 13h7M107 13h3M108 130h3M112 130h1M114 130h1M52 131h4M60 131h3M77 131h4M87 131h2M96 131h2M104 131h2M109 131h1M112 131h3M49 132h7M60 132h5M75 132h6M87 132h2M95 132h3M103 132h3M109 132h1M112 132h3M48 133h2M65 133h1M74 133h2M86 133h3M95 133h3M102 133h4M47 134h1M73 134h2M86 134h1M88 134h2M95 134h1M97 134h2M102 134h4M47 135h1M59 135h1M64 135h1M73 135h1M85 135h1M89 135h1M94 135h2M97 135h2M101 135h5M46 136h1M59 136h5M72 136h2M85 136h1M89 136h1M94 136h1M97 136h2M100 136h6M46 137h1M52 137h3M59 137h1M65 137h1M72 137h2M84 137h2M89 137h1M94 137h1M98 137h1M100 137h3M104 137h2M47 138h1M54 138h1M59 138h1M65 138h1M73 138h1M84 138h6M93 138h2M98 138h4M104 138h2M47 139h1M54 139h1M59 139h1M65 139h1M73 139h2M80 139h1M83 139h3M88 139h3M93 139h2M98 139h3M104 139h2M48 140h3M52 140h3M63 140h3M75 140h6M83 140h1M89 140h2M93 140h2M99 140h1M104 140h2M50 141h5M59 141h5M75 141h5M82 141h2M89 141h2M92 141h2M104 141h2" />
<path stroke="#000100" d="M65 2h1M48 4h1M102 4h1M83 5h1M122 8h1M44 11h1M116 11h1M134 11h1M145 12h1M23 14h1M152 14h1M3 16h1M154 18h1M12 46h1M15 55h1M2 59h1M153 61h1M156 79h1M0 82h1M0 118h1M150 127h1M5 131h1M13 135h1M77 137h1M101 140h1M105 142h1M77 143h1" />
<path stroke="#fffeff" d="M53 5h1M107 5h1M58 9h1M107 11h1M59 140h1M74 140h1" />
<path stroke="#feffff" d="M72 6h1M55 11h1" />
<path stroke="#3a3a66" d="M49 131h1" />
<path stroke="#90b6db" d="M50 131h1M74 141h1" />
<path stroke="#dbffff" d="M51 131h1M59 133h1M73 133h1M59 134h1M63 135h1M72 135h1M64 137h1M72 138h1M58 140h1M73 140h1M58 141h1" />
<path stroke="#db9066" d="M56 131h1" />
<path stroke="#00003a" d="M58 131h1M74 131h1M94 131h1M102 131h1M47 132h1M85 132h1M55 133h1M80 133h1M93 134h1M57 138h1M63 139h1M71 139h1M97 140h1M47 141h1" />
<path stroke="#90dbff" d="M59 131h1M95 131h1M103 131h1M48 132h1M86 132h1M94 134h1M88 135h1M58 138h1M64 139h1M72 139h1M98 140h1" />
<path stroke="#ffdbdb" d="M63 131h1" />
<path stroke="#dbdbb6" d="M64 131h1M55 136h1" />
<path stroke="#663a00" d="M65 131h1M75 134h1" />
<path stroke="#6690b6" d="M75 131h1M48 141h1" />
<path stroke="#dbdbff" d="M76 131h1M51 140h1" />
<path stroke="#dbb666" d="M81 131h1M50 133h1M65 135h1" />
<path stroke="#0066b6" d="M86 131h1M85 133h1M58 135h1M45 136h1M51 136h1M71 136h1M93 136h1M45 137h1M71 137h1M97 138h1M92 139h1" />
<path stroke="#db903a" d="M89 131h1M56 132h1M81 132h1M98 133h1M48 135h1M74 135h1M86 136h1M90 136h1M66 137h1M60 138h1M55 139h1M55 140h1" />
<path stroke="#660000" d="M98 131h1M66 132h1M61 134h1M90 134h1M99 135h1M56 136h1M95 139h1M81 140h1" />
<path stroke="#000066" d="M58 132h1M46 133h1M101 133h1M63 134h1M45 135h1M100 135h1M92 138h1M57 139h1M46 140h1" />
<path stroke="#b6ffff" d="M59 132h1M64 133h1M64 134h1M58 139h1" />
<path stroke="#a2a2a2" d="M65 132h1M60 133h1M48 134h1M65 134h1M46 135h1M60 135h1M47 136h1M64 136h1M47 137h1M46 138h1M66 138h1M60 140h1M49 141h1M64 141h1" />
<path stroke="#003a90" d="M73 132h1M94 132h1M58 133h1M72 133h1M58 134h1M71 135h1M84 135h1M93 135h1M83 137h1M45 138h1M71 138h1M82 139h1M97 139h1M57 140h1M72 140h1M57 141h1M81 141h1" />
<path stroke="#b6dbff" d="M74 132h1M47 133h1M47 140h1" />
<path stroke="#ffb666" d="M89 132h1M90 137h1M95 137h1M55 138h1M66 139h1" />
<path stroke="#903a00" d="M98 132h1M61 133h1M49 134h1M66 134h1M90 135h1M48 136h1M74 136h1M48 137h1M74 137h1M86 137h1M81 139h1M65 141h1" />
<path stroke="#3a90db" d="M102 132h1M94 133h1M101 134h1M58 136h1M51 137h1M98 141h1" />
<path stroke="#3a3a00" d="M51 133h1M56 133h1M81 133h1" />
<path stroke="#003a66" d="M63 133h1M73 141h1" />
<path stroke="#b66600" d="M66 133h1M99 136h1M48 138h1M74 138h1M60 139h1M66 140h1M55 141h1M94 141h1" />
<path stroke="#b6663a" d="M76 133h1M49 139h1M80 141h1" />
<path stroke="#ffdb90" d="M89 133h1M55 137h1M90 138h1M99 141h1" />
<path stroke="#3a0000" d="M90 133h1M99 134h1M56 137h1M67 138h1" />
<path stroke="#66b6ff" d="M46 134h1M72 134h1M85 134h1M84 136h1M88 136h1M58 137h1M88 137h1M93 137h1M97 137h1M53 138h1M64 138h1M83 138h1M46 139h1M53 139h1M82 140h1M92 140h1" />
<path stroke="#ffffb6" d="M60 134h1M86 135h1M95 136h1" />
<path stroke="#b66666" d="M87 134h1" />
<path stroke="#dbdbdb" d="M96 134h1M52 136h3M61 140h2" />
<path stroke="#dbb6b6" d="M61 135h1M99 137h1" />
<path stroke="#b6b6db" d="M62 135h1" />
<path stroke="#66003a" d="M87 135h1M96 136h1" />
<path stroke="#906690" d="M96 135h1" />
<path stroke="#b6903a" d="M65 136h1" />
<path stroke="#ffb667" d="M60 137h1" />
<path stroke="#3a3a3a" d="M61 137h2" />
<path stroke="#3a66b6" d="M63 137h1" />
<path stroke="#b66601" d="M95 138h1" />
<path stroke="#ffffdb" d="M48 139h1" />
<path stroke="#90663a" d="M75 139h1" />
<path stroke="#3a6691" d="M79 139h1" />
</svg>