<svg xmlns="http://www.w3.org/2000/svg" viewBox="0 -0.5 160 144" shape-rendering="crispEdges">
<metadata>Made with Pixels to Svg https://codepen.io/shshaw/pen/XbxvNj</metadata>
<path stroke="#000000" d="M0 0h160M0 1h160M0 2h50M54 2h5M63 2h44M110 2h50M0 3h50M54 3h5M63 3h1M67 3h40M110 3h3M115 3h45M0 4h51M54 4h5M62 4h2M67 4h13M83 4h24M110 4h2M116 4h44M0 5h51M55 5h3M62 5h18M83 5h24M110 5h2M116 5h44M0 6h51M55 6h3M62 6h2M67 6h1M71 6h1M76 6h2M85 6h1M89 6h4M96 6h4M105 6h2M110 6h3M115 6h45M0 7h52M55 7h3M61 7h3M67 7h1M73 7h1M77 7h3M83 7h3M89 7h4M96 7h2M101 7h2M106 7h1M110 7h50M0 8h52M56 8h1M61 8h3M67 8h1M72 8h8M83 8h3M89 8h4M96 8h1M100 8h3M106 8h1M110 8h50M0 9h52M56 9h1M60 9h4M67 9h1M71 9h9M83 9h3M89 9h4M96 9h1M100 9h3M106 9h1M110 9h50M0 10h53M60 10h4M67 10h1M71 10h9M83 10h3M89 10h4M96 10h1M100 10h3M106 10h1M110 10h50M0 11h53M60 11h4M67 11h1M71 11h9M83 11h3M89 11h4M96 11h1M100 11h3M106 11h1M110 11h50M0 12h54M59 12h5M67 12h1M71 12h9M83 12h3M89 12h4M96 12h2M101 12h2M106 12h1M110 12h50M0 13h54M59 13h5M67 13h1M71 13h9M83 13h5M96 13h3M106 13h1M110 13h50M0 14h160M0 15h160M0 16h16M144 16h16M0 17h16M144 17h16M0 18h16M144 18h16M0 19h16M144 19h16M0 20h16M144 20h16M0 21h16M144 21h16M0 22h16M144 22h16M0 23h16M144 23h16M0 24h16M144 24h16M0 25h16M144 25h16M0 26h16M144 26h16M0 27h16M144 27h16M0 28h16M144 28h16M0 29h16M144 29h16M0 30h16M144 30h16M0 31h16M144 31h16M0 32h16M144 32h16M0 33h16M144 33h16M0 34h16M144 34h16M0 35h16M144 35h16M0 36h16M144 36h16M0 37h16M144 37h16M0 38h16M144 38h16M0 39h16M144 39h16M0 40h16M144 40h16M0 41h16M144 41h16M0 42h16M144 42h16M0 43h16M144 43h16M0 44h16M144 44h16M0 45h16M144 45h16M0 46h16M144 46h16M0 47h16M144 47h16M0 48h16M144 48h16M0 49h16M144 49h16M0 50h16M144 50h16M0 51h16M144 51h16M0 52h16M144 52h16M0 53h16M144 53h16M0 54h16M144 54h16M0 55h16M144 55h16M0 56h16M144 56h16M0 57h16M144 57h16M0 58h16M144 58h16M0 59h16M144 59h16M0 60h16M144 60h16M0 61h16M144 61h16M0 62h16M144 62h16M0 63h16M144 63h16M0 64h16M144 64h16M0 65h16M144 65h16M0 66h16M144 66h16M0 67h16M144 67h16M0 68h16M144 68h16M0 69h16M144 69h16M0 70h16M144 70h16M0 71h16M144 71h16M0 72h16M144 72h16M0 73h16M144 73h16M0 74h16M144 74h16M0 75h16M144 75h16M0 76h16M144 76h16M0 77h16M144 77h16M0 78h16M144 78h16M0 79h16M144 79h16M0 80h16M144 80h16M0 81h16M144 81h16M0 82h16M144 82h16M0 83h16M144 83h16M0 84h16M144 84h16M0 85h16M144 85h16M0 86h16M144 86h16M0 87h16M144 87h16M0 88h16M144 88h16M0 89h16M144 89h16M0 90h16M144 90h16M0 91h16M144 91h16M0 92h16M144 92h16M0 93h16M144 93h16M0 94h16M144 94h16M0 95h16M144 95h16M0 96h16M144 96h16M0 97h16M144 97h16M0 98h16M144 98h16M0 99h16M144 99h16M0 100h16M144 100h16M0 101h16M144 101h16M0 102h16M144 102h16M0 103h16M144 103h16M0 104h16M144 104h16M0 105h16M144 105h16M0 106h16M144 106h16M0 107h16M144 107h16M0 108h16M144 108h16M0 109h16M144 109h16M0 110h16M144 110h16M0 111h16M144 111h16M0 112h16M144 112h16M0 113h16M144 113h16M0 114h16M144 114h16M0 115h16M144 115h16M0 116h16M144 116h16M0 117h16M144 117h16M0 118h16M144 118h16M0 119h16M144 119h16M0 120h16M144 120h16M0 121h16M144 121h16M0 122h16M144 122h16M0 123h16M144 123h16M0 124h16M144 124h16M0 125h16M144 125h16M0 126h16M144 126h16M0 127h16M144 127h16M0 128h160M0 129h160M0 130h110M113 130h1M115 130h1M117 130h43M0 131h55M63 131h2M72 131h5M84 131h4M92 131h5M101 131h3M108 131h3M112 131h2M117 131h43M0 132h53M63 132h2M73 132h2M84 132h4M92 132h4M101 132h3M108 132h3M112 132h2M117 132h43M0 133h52M60 133h4M73 133h1M81 133h6M93 133h3M101 133h2M108 133h52M0 134h52M56 134h8M73 134h1M78 134h9M93 134h3M101 134h2M108 134h52M0 135h51M55 135h9M72 135h2M77 135h9M93 135h2M109 135h51M0 136h51M55 136h2M63 136h1M77 136h9M89 136h1M93 136h2M98 136h1M109 136h51M0 137h51M55 137h2M62 137h2M67 137h1M77 137h8M89 137h1M93 137h2M98 137h1M109 137h51M0 138h51M55 138h4M62 138h2M67 138h3M73 138h1M77 138h8M93 138h1M98 138h1M104 138h1M109 138h51M0 139h52M62 139h2M67 139h1M73 139h1M98 139h1M104 139h1M109 139h51M0 140h52M62 140h1M73 140h1M88 140h2M97 140h3M103 140h2M109 140h51M0 141h54M62 141h1M72 141h4M87 141h4M97 141h3M103 141h3M109 141h51M0 142h160M0 143h160" />
<path stroke="#ffffff" d="M50 2h4M59 2h4M107 2h3M50 3h4M59 3h4M64 3h3M107 3h3M113 3h2M51 4h3M59 4h3M64 4h3M80 4h3M107 4h3M112 4h4M51 5h4M58 5h4M80 5h3M107 5h3M112 5h4M51 6h4M58 6h4M64 6h3M68 6h3M72 6h4M78 6h7M86 6h3M93 6h3M100 6h5M107 6h3M113 6h2M52 7h3M58 7h3M64 7h3M68 7h5M74 7h3M80 7h3M86 7h3M93 7h3M98 7h3M103 7h3M107 7h3M52 8h4M57 8h4M64 8h3M68 8h4M80 8h3M86 8h3M93 8h3M97 8h3M103 8h3M107 8h3M52 9h4M57 9h3M64 9h3M68 9h3M80 9h3M86 9h3M93 9h3M97 9h3M103 9h3M107 9h3M53 10h7M64 10h3M68 10h3M80 10h3M86 10h3M93 10h3M97 10h3M103 10h3M107 10h3M53 11h7M64 11h3M68 11h3M80 11h3M86 11h3M93 11h3M97 11h3M103 11h3M107 11h3M54 12h5M64 12h3M68 12h3M80 12h3M86 12h3M93 12h3M98 12h3M103 12h3M107 12h3M54 13h5M64 13h3M68 13h3M80 13h3M88 13h8M99 13h7M107 13h3M110 130h3M114 130h1M116 130h1M66 131h2M90 131h1M98 131h1M106 131h1M111 131h1M114 131h3M55 132h7M66 132h5M77 132h6M89 132h2M97 132h3M105 132h2M111 132h1M114 132h3M54 133h2M65 133h2M71 133h1M76 133h1M91 133h1M97 133h3M105 133h2M53 134h1M65 134h1M75 134h2M88 134h1M91 134h1M97 134h1M99 134h1M104 134h1M106 134h1M53 135h1M65 135h5M75 135h1M91 135h1M96 135h2M99 135h1M106 135h2M52 136h2M58 136h4M65 136h6M75 136h1M87 136h1M91 136h1M96 136h1M100 136h1M103 136h1M106 136h2M52 137h2M58 137h3M65 137h1M71 137h1M74 137h2M87 137h1M91 137h1M96 137h1M100 137h1M106 137h2M53 138h1M60 138h1M65 138h1M71 138h1M75 138h1M86 138h6M96 138h1M100 138h3M106 138h2M53 139h2M60 139h1M65 139h1M71 139h1M75 139h2M86 139h7M95 139h1M100 139h2M106 139h2M54 140h7M64 140h7M76 140h7M85 140h1M91 140h2M95 140h1M101 140h1M106 140h2M64 141h5M85 141h1M92 141h1M95 141h1M107 141h1" />
<path stroke="#313131" d="M55 131h1M69 133h1" />
<path stroke="#919191" d="M56 131h1" />
<path stroke="#cccccc" d="M57 131h1" />
<path stroke="#ececec" d="M58 131h1M104 133h1" />
<path stroke="#fafafa" d="M59 131h1M70 133h1M54 134h1M94 141h1" />
<path stroke="#f4f4f4" d="M60 131h1M80 131h1M65 132h1M88 133h1M107 134h1" />
<path stroke="#e0e0e0" d="M61 131h1M98 134h1" />
<path stroke="#8c8c8c" d="M62 131h1" />
<path stroke="#d2d2d2" d="M65 131h1" />
<path stroke="#fdfdfd" d="M68 131h1M66 134h1M70 134h1M88 135h1M104 135h1" />
<path stroke="#eaeaea" d="M69 131h1M96 139h1" />
<path stroke="#bbbbbb" d="M70 131h1M94 140h1" />
<path stroke="#3e3e3e" d="M71 131h1M64 134h1M61 141h1" />
<path stroke="#414141" d="M77 131h1M69 134h1" />
<path stroke="#a1a1a1" d="M78 131h1" />
<path stroke="#dbdbdb" d="M79 131h1M99 136h1" />
<path stroke="#f8f8f8" d="M81 131h1M99 131h1M103 137h1M52 138h1M57 141h1" />
<path stroke="#e6e6e6" d="M82 131h1" />
<path stroke="#b4b4b4" d="M83 131h1M91 131h1" />
<path stroke="#191919" d="M88 131h1" />
<path stroke="#f7f7f7" d="M89 131h1M70 135h1M102 137h1M79 141h1" />
<path stroke="#d1d1d1" d="M97 131h1" />
<path stroke="#090909" d="M100 131h1M62 136h1" />
<path stroke="#080808" d="M104 131h1M52 133h1M80 133h1M52 140h1M102 141h1" />
<path stroke="#e5e5e5" d="M105 131h1M61 137h1" />
<path stroke="#d0d0d0" d="M107 131h1" />
<path stroke="#0c0c0c" d="M53 132h1M67 134h1M108 136h1" />
<path stroke="#a3a3a3" d="M54 132h1" />
<path stroke="#9b9b9b" d="M62 132h1" />
<path stroke="#f6f6f6" d="M71 132h1" />
<path stroke="#1e1e1e" d="M72 132h1" />
<path stroke="#0e0e0e" d="M75 132h1M103 133h1M85 137h1M105 139h1M83 141h1" />
<path stroke="#afafaf" d="M76 132h1M76 138h1" />
<path stroke="#bcbcbc" d="M83 132h1M70 141h1" />
<path stroke="#8e8e8e" d="M88 132h1M89 134h1M54 135h1M103 138h1" />
<path stroke="#e1e1e1" d="M91 132h1" />
<path stroke="#232323" d="M96 132h1" />
<path stroke="#434343" d="M100 132h1" />
<path stroke="#757575" d="M104 132h1" />
<path stroke="#dcdcdc" d="M107 132h1M74 138h1" />
<path stroke="#c3c3c3" d="M53 133h1M72 138h1" />
<path stroke="#ababab" d="M56 133h1" />
<path stroke="#484848" d="M57 133h1M96 141h1M108 141h1" />
<path stroke="#151515" d="M58 133h1M87 133h1M90 140h1" />
<path stroke="#020202" d="M59 133h1M68 134h1M73 136h1M97 139h1M74 140h1M105 140h1" />
<path stroke="#1a1a1a" d="M64 133h1M93 139h1" />
<path stroke="#3a3a3a" d="M67 133h1" />
<path stroke="#010101" d="M68 133h1M108 135h1" />
<path stroke="#4a4a4a" d="M72 133h1" />
<path stroke="#050505" d="M74 133h1M68 137h1" />
<path stroke="#c5c5c5" d="M75 133h1M100 134h1" />
<path stroke="#fcfcfc" d="M77 133h1M74 136h1M95 138h1M86 140h1" />
<path stroke="#909090" d="M78 133h1M55 139h1" />
<path stroke="#2f2f2f" d="M79 133h1" />
<path stroke="#eeeeee" d="M89 133h1M71 136h1M86 137h1M92 138h1" />
<path stroke="#ededed" d="M90 133h1M52 135h1M70 139h1" />
<path stroke="#0f0f0f" d="M92 133h1M72 134h1" />
<path stroke="#767676" d="M96 133h1" />
<path stroke="#848484" d="M100 133h1M52 134h1" />
<path stroke="#e8e8e8" d="M107 133h1" />
<path stroke="#535353" d="M55 134h1" />
<path stroke="#e4e4e4" d="M71 134h1M97 136h1M56 141h1" />
<path stroke="#737373" d="M74 134h1" />
<path stroke="#565656" d="M77 134h1M98 135h1" />
<path stroke="#888888" d="M87 134h1" />
<path stroke="#c9c9c9" d="M90 134h1M96 134h1" />
<path stroke="#3b3b3b" d="M92 134h1M69 139h1" />
<path stroke="#828282" d="M103 134h1" />
<path stroke="#f0f0f0" d="M105 134h1" />
<path stroke="#040404" d="M51 135h1" />
<path stroke="#626262" d="M64 135h1" />
<path stroke="#3c3c3c" d="M71 135h1M54 136h1M69 137h1M108 140h1" />
<path stroke="#d4d4d4" d="M74 135h1" />
<path stroke="#b0b0b0" d="M76 135h1" />
<path stroke="#111111" d="M86 135h1" />
<path stroke="#f1f1f1" d="M87 135h1M64 139h1M78 141h1" />
<path stroke="#252525" d="M89 135h1" />
<path stroke="#aaaaaa" d="M90 135h1M64 137h1M82 139h1" />
<path stroke="#676767" d="M92 135h1" />
<path stroke="#1d1d1d" d="M95 135h1" />
<path stroke="#f9f9f9" d="M100 135h1M58 141h1" />
<path stroke="#0a0a0a" d="M101 135h1M84 139h1" />
<path stroke="#141414" d="M102 135h1" />
<path stroke="#f2f2f2" d="M103 135h1" />
<path stroke="#727272" d="M105 135h1" />
<path stroke="#292929" d="M51 136h1" />
<path stroke="#474747" d="M57 136h1M93 140h1" />
<path stroke="#868686" d="M64 136h1M59 138h1M93 141h1" />
<path stroke="#262626" d="M72 136h1M72 140h1" />
<path stroke="#646464" d="M76 136h1M57 137h1" />
<path stroke="#818181" d="M86 136h1" />
<path stroke="#bababa" d="M88 136h1" />
<path stroke="#8a8a8a" d="M90 136h1" />
<path stroke="#949494" d="M92 136h1M100 141h1" />
<path stroke="#6f6f6f" d="M95 136h1" />
<path stroke="#464646" d="M101 136h1" />
<path stroke="#8f8f8f" d="M102 136h1" />
<path stroke="#a4a4a4" d="M104 136h1" />
<path stroke="#333333" d="M105 136h1M71 141h1" />
<path stroke="#323232" d="M51 137h1M83 140h1" />
<path stroke="#3f3f3f" d="M54 137h1" />
<path stroke="#a2a2a2" d="M66 137h1M86 141h1" />
<path stroke="#e9e9e9" d="M70 137h1M91 141h1" />
<path stroke="#9c9c9c" d="M72 137h1" />
<path stroke="#060606" d="M73 137h1" />
<path stroke="#636363" d="M76 137h1" />
<path stroke="#505050" d="M88 137h1" />
<path stroke="#6b6b6b" d="M90 137h1" />
<path stroke="#c1c1c1" d="M92 137h1M77 141h1" />
<path stroke="#c2c2c2" d="M95 137h1M61 138h1" />
<path stroke="#929292" d="M97 137h1" />
<path stroke="#9a9a9a" d="M99 137h1M96 140h1" />
<path stroke="#a5a5a5" d="M101 137h1" />
<path stroke="#202020" d="M104 137h1" />
<path stroke="#272727" d="M105 137h1" />
<path stroke="#181818" d="M108 137h1" />
<path stroke="#0d0d0d" d="M51 138h1" />
<path stroke="#939393" d="M54 138h1" />
<path stroke="#cecece" d="M64 138h1" />
<path stroke="#7a7a7a" d="M66 138h1" />
<path stroke="#a8a8a8" d="M70 138h1" />
<path stroke="#7b7b7b" d="M85 138h1M61 140h1" />
<path stroke="#171717" d="M94 138h1M58 139h1M99 139h1" />
<path stroke="#404040" d="M97 138h1" />
<path stroke="#585858" d="M99 138h1" />
<path stroke="#1b1b1b" d="M105 138h1" />
<path stroke="#242424" d="M108 138h1M78 139h1" />
<path stroke="#979797" d="M52 139h1" />
<path stroke="#282828" d="M56 139h1" />
<path stroke="#070707" d="M57 139h1M79 139h1" />
<path stroke="#b7b7b7" d="M59 139h1M53 140h1" />
<path stroke="#9e9e9e" d="M61 139h1" />
<path stroke="#525252" d="M66 139h1M81 139h1" />
<path stroke="#030303" d="M68 139h1" />
<path stroke="#9d9d9d" d="M72 139h1" />
<path stroke="#747474" d="M74 139h1M84 140h1" />
<path stroke="#959595" d="M77 139h1" />
<path stroke="#222222" d="M80 139h1" />
<path stroke="#4f4f4f" d="M83 139h1" />
<path stroke="#ebebeb" d="M85 139h1M59 141h1" />
<path stroke="#686868" d="M94 139h1" />
<path stroke="#efefef" d="M102 139h1" />
<path stroke="#121212" d="M103 139h1" />
<path stroke="#303030" d="M108 139h1" />
<path stroke="#161616" d="M63 140h1" />
<path stroke="#f3f3f3" d="M71 140h1" />
<path stroke="#acacac" d="M75 140h1" />
<path stroke="#2c2c2c" d="M87 140h1" />
<path stroke="#d5d5d5" d="M100 140h1" />
<path stroke="#777777" d="M102 140h1" />
<path stroke="#555555" d="M54 141h1" />
<path stroke="#b1b1b1" d="M55 141h1M81 141h1" />
<path stroke="#cacaca" d="M60 141h1" />
<path stroke="#393939" d="M63 141h1" />
<path stroke="#f5f5f5" d="M69 141h1M106 141h1" />
<path stroke="#5f5f5f" d="M76 141h1" />
<path stroke="#dfdfdf" d="M80 141h1" />
<path stroke="#656565" d="M82 141h1" />
<path stroke="#e7e7e7" d="M84 141h1" />
<path stroke="#e3e3e3" d="M101 141h1" />
</svg>