<svg xmlns="http://www.w3.org/2000/svg" viewBox="0 -0.5 160 144" shape-rendering="crispEdges">
<metadata>Made with Pixels to Svg https://codepen.io/shshaw/pen/XbxvNj</metadata>
<path stroke="#ffffff" d="M0 0h5M156 0h4M0 1h3M6 1h149M158 1h2M0 2h2M4 2h52M62 2h15M89 2h68M159 2h1M0 3h1M3 3h5M38 3h8M50 3h1M55 3h1M62 3h15M89 3h2M95 3h11M110 3h3M117 3h5M152 3h6M159 3h1M0 4h1M2 4h44M50 4h1M55 4h2M63 4h17M85 4h6M95 4h11M110 4h3M117 4h41M2 5h6M38 5h7M49 5h3M56 5h1M63 5h13M88 5h2M102 5h3M109 5h3M116 5h6M152 5h7M1 6h44M49 6h3M56 6h20M88 6h2M102 6h3M109 6h3M116 6h43M1 7h7M38 7h6M48 7h5M57 7h22M83 7h9M97 7h2M102 7h2M108 7h3M115 7h7M152 7h7M1 8h43M48 8h5M57 8h6M75 8h4M83 8h10M97 8h7M108 8h3M115 8h44M1 9h7M38 9h5M47 9h7M58 9h5M75 9h3M82 9h12M98 9h5M107 9h3M114 9h1M118 9h4M152 9h7M1 10h42M47 10h7M58 10h20M82 10h12M98 10h5M107 10h3M118 10h41M1 11h7M38 11h4M46 11h9M59 11h18M81 11h14M99 11h3M106 11h3M117 11h5M152 11h7M1 12h41M46 12h9M59 12h18M81 12h14M99 12h3M106 12h3M115 12h44M1 13h158M1 14h14M145 14h14M1 15h13M146 15h13M1 16h12M147 16h12M1 17h12M147 17h12M1 18h12M147 18h12M1 19h12M147 19h12M1 20h12M147 20h12M1 21h12M147 21h12M1 22h12M147 22h12M1 23h12M147 23h12M1 24h12M147 24h12M1 25h12M147 25h12M1 26h12M147 26h12M1 27h12M147 27h12M1 28h12M147 28h12M1 29h12M147 29h12M1 30h12M147 30h12M1 31h12M147 31h12M1 32h12M147 32h12M1 33h12M147 33h12M1 34h12M147 34h12M1 35h12M147 35h12M1 36h12M147 36h12M1 37h12M147 37h12M1 38h12M147 38h12M1 39h12M147 39h12M1 40h12M147 40h12M1 41h12M147 41h12M1 42h12M147 42h12M1 43h12M147 43h12M1 44h12M147 44h12M1 45h12M147 45h12M1 46h12M147 46h12M1 47h12M147 47h12M1 48h12M147 48h12M1 49h12M147 49h12M1 50h12M147 50h12M1 51h12M147 51h12M1 52h12M147 52h12M1 53h12M147 53h12M1 54h12M147 54h12M1 55h12M147 55h12M1 56h12M147 56h12M1 57h12M147 57h12M1 58h12M147 58h12M1 59h12M147 59h12M1 60h12M147 60h12M1 61h12M147 61h12M1 62h12M147 62h12M1 63h12M147 63h12M1 64h12M147 64h12M1 65h12M147 65h12M1 66h12M147 66h12M1 67h12M147 67h12M1 68h12M147 68h12M1 69h12M147 69h12M1 70h12M147 70h12M1 71h12M147 71h12M1 72h12M147 72h12M1 73h12M147 73h12M1 74h12M147 74h12M1 75h12M147 75h12M1 76h12M147 76h12M1 77h12M147 77h12M1 78h12M147 78h12M1 79h12M147 79h12M1 80h12M147 80h12M1 81h12M147 81h12M1 82h12M147 82h12M1 83h12M147 83h12M1 84h12M147 84h12M1 85h12M147 85h12M1 86h12M147 86h12M1 87h12M147 87h12M1 88h12M147 88h12M1 89h12M147 89h12M1 90h12M147 90h12M1 91h12M147 91h12M1 92h12M147 92h12M1 93h12M147 93h12M1 94h12M147 94h12M1 95h12M147 95h12M1 96h12M147 96h12M1 97h12M147 97h12M1 98h12M147 98h12M1 99h12M147 99h12M1 100h12M147 100h12M1 101h12M147 101h12M1 102h12M147 102h12M1 103h12M147 103h12M1 104h12M147 104h12M1 105h12M147 105h12M1 106h12M147 106h12M1 107h12M147 107h12M1 108h12M147 108h12M1 109h12M147 109h12M1 110h12M147 110h12M1 111h12M147 111h12M1 112h12M147 112h12M1 113h12M147 113h12M1 114h12M147 114h12M1 115h12M147 115h12M1 116h12M147 116h12M1 117h12M147 117h12M1 118h12M147 118h12M1 119h12M147 119h12M1 120h12M147 120h12M1 121h12M147 121h12M1 122h12M147 122h12M1 123h12M147 123h12M1 124h12M147 124h12M1 125h12M147 125h12M1 126h12M147 126h12M1 127h12M147 127h12M1 128h12M147 128h12M1 129h13M146 129h13M1 130h158M1 131h9M11 131h10M24 131h28M56 131h80M139 131h10M150 131h9M1 132h10M12 132h8M21 132h3M25 132h21M50 132h1M53 132h1M60 132h19M83 132h9M96 132h39M136 132h3M140 132h8M149 132h10M1 133h11M13 133h7M21 133h1M23 133h1M25 133h21M52 133h1M55 133h1M60 133h19M83 133h9M96 133h3M103 133h3M110 133h3M123 133h12M136 133h1M138 133h1M140 133h7M148 133h11M1 134h14M30 134h11M54 134h1M67 134h11M82 134h9M95 134h5M104 134h1M109 134h4M123 134h7M145 134h14M1 135h14M16 135h3M26 135h3M30 135h11M53 135h2M67 135h11M82 135h9M95 135h6M108 135h22M131 135h3M141 135h3M145 135h14M1 136h7M13 136h2M21 136h3M30 136h14M48 136h6M58 136h1M63 136h3M72 136h5M86 136h1M99 136h3M107 136h5M122 136h8M136 136h3M145 136h2M152 136h7M1 137h14M20 137h1M24 137h1M30 137h14M48 137h6M58 137h1M63 137h3M72 137h5M86 137h1M99 137h3M108 137h3M122 137h8M135 137h1M139 137h1M145 137h14M2 138h13M20 138h1M24 138h1M30 138h8M42 138h1M47 138h1M52 138h6M62 138h3M71 138h1M75 138h1M80 138h10M93 138h1M98 138h3M109 138h8M121 138h9M135 138h1M139 138h1M145 138h13M0 139h1M2 139h10M13 139h2M20 139h1M24 139h1M30 139h8M42 139h1M47 139h1M52 139h6M62 139h3M74 139h2M80 139h9M92 139h2M98 139h3M104 139h2M110 139h7M121 139h9M135 139h1M139 139h1M145 139h2M148 139h10M159 139h1M0 140h1M3 140h8M12 140h3M16 140h3M21 140h3M26 140h3M30 140h7M41 140h1M46 140h1M51 140h6M61 140h9M73 140h2M79 140h10M92 140h1M97 140h3M104 140h12M120 140h10M131 140h3M136 140h3M141 140h3M145 140h3M149 140h8M159 140h1M0 141h2M4 141h6M11 141h4M30 141h7M41 141h1M46 141h1M51 141h6M61 141h8M72 141h3M79 141h9M91 141h2M97 141h3M103 141h13M120 141h10M145 141h4M150 141h6M158 141h2M0 142h3M6 142h148M157 142h3M0 143h5M155 143h5" />
<path stroke="#000000" d="M5 0h151M3 1h3M155 1h3M2 2h2M157 2h2M1 3h2M158 3h1M1 4h1M83 4h1M158 4h2M0 5h2M80 5h4M91 5h2M159 5h1M0 6h1M79 6h4M91 6h2M159 6h1M0 7h1M159 7h1M0 8h1M159 8h1M0 9h1M115 9h2M159 9h1M0 10h1M113 10h4M159 10h1M0 11h1M112 11h3M159 11h1M0 12h1M112 12h1M159 12h1M0 13h1M159 13h1M0 14h1M159 14h1M0 15h1M159 15h1M0 16h1M159 16h1M0 17h1M159 17h1M0 18h1M159 18h1M0 19h1M159 19h1M0 20h1M159 20h1M0 21h1M159 21h1M0 22h1M159 22h1M0 23h1M159 23h1M0 24h1M159 24h1M0 25h1M159 25h1M0 26h1M159 26h1M0 27h1M159 27h1M0 28h1M159 28h1M0 29h1M159 29h1M0 30h1M159 30h1M0 31h1M159 31h1M0 32h1M159 32h1M0 33h1M159 33h1M0 34h1M159 34h1M0 35h1M159 35h1M0 36h1M159 36h1M0 37h1M159 37h1M0 38h1M159 38h1M0 39h1M159 39h1M0 40h1M159 40h1M0 41h1M159 41h1M0 42h1M159 42h1M0 43h1M159 43h1M0 44h1M159 44h1M0 45h1M159 45h1M0 46h1M159 46h1M0 47h1M159 47h1M0 48h1M159 48h1M0 49h1M159 49h1M0 50h1M159 50h1M0 51h1M159 51h1M0 52h1M159 52h1M0 53h1M159 53h1M0 54h1M159 54h1M0 55h1M159 55h1M0 56h1M159 56h1M0 57h1M159 57h1M0 58h1M159 58h1M0 59h1M159 59h1M0 60h1M159 60h1M0 61h1M159 61h1M0 62h1M159 62h1M0 63h1M159 63h1M0 64h1M159 64h1M0 65h1M159 65h1M0 66h1M159 66h1M0 67h1M159 67h1M0 68h1M159 68h1M0 69h1M159 69h1M0 70h1M159 70h1M0 71h1M159 71h1M0 72h1M159 72h1M0 73h1M159 73h1M0 74h1M159 74h1M0 75h1M159 75h1M0 76h1M159 76h1M0 77h1M159 77h1M0 78h1M159 78h1M0 79h1M159 79h1M0 80h1M159 80h1M0 81h1M159 81h1M0 82h1M159 82h1M0 83h1M159 83h1M0 84h1M159 84h1M0 85h1M159 85h1M0 86h1M159 86h1M0 87h1M159 87h1M0 88h1M159 88h1M0 89h1M159 89h1M0 90h1M159 90h1M0 91h1M159 91h1M0 92h1M159 92h1M0 93h1M159 93h1M0 94h1M159 94h1M0 95h1M159 95h1M0 96h1M159 96h1M0 97h1M159 97h1M0 98h1M159 98h1M0 99h1M159 99h1M0 100h1M159 100h1M0 101h1M159 101h1M0 102h1M159 102h1M0 103h1M159 103h1M0 104h1M159 104h1M0 105h1M159 105h1M0 106h1M159 106h1M0 107h1M159 107h1M0 108h1M159 108h1M0 109h1M159 109h1M0 110h1M159 110h1M0 111h1M159 111h1M0 112h1M159 112h1M0 113h1M159 113h1M0 114h1M159 114h1M0 115h1M159 115h1M0 116h1M159 116h1M0 117h1M159 117h1M0 118h1M159 118h1M0 119h1M159 119h1M0 120h1M159 120h1M0 121h1M159 121h1M0 122h1M159 122h1M0 123h1M159 123h1M0 124h1M159 124h1M0 125h1M159 125h1M0 126h1M159 126h1M0 127h1M159 127h1M0 128h1M159 128h1M0 129h1M159 129h1M0 130h1M159 130h1M0 131h1M159 131h1M0 132h1M159 132h1M0 133h1M159 133h1M0 134h1M159 134h1M0 135h1M159 135h1M0 136h1M159 136h1M0 137h1M159 137h1M0 138h2M158 138h2M1 139h1M158 139h1M1 140h2M157 140h2M2 141h2M156 141h2M3 142h3M154 142h3M5 143h150" />
<path stroke="#515151" d="M56 2h1M59 2h1M88 2h1M49 3h1M51 3h1M58 3h1M61 3h1M77 3h1M91 3h1M109 3h1M116 3h1M46 4h1M54 4h1M57 4h1M60 4h1M94 4h1M106 4h1M113 4h1M48 5h1M52 5h1M59 5h1M62 5h1M87 5h1M90 5h1M108 5h1M115 5h1M45 6h1M55 6h1M76 6h1M105 6h1M112 6h1M47 7h1M53 7h1M79 7h1M92 7h1M107 7h1M114 7h1M44 8h1M56 8h1M74 8h1M79 8h1M96 8h1M104 8h1M111 8h1M46 9h1M54 9h1M63 9h1M81 9h1M94 9h1M106 9h1M113 9h1M43 10h1M57 10h1M78 10h1M97 10h1M103 10h1M110 10h1M117 10h1M45 11h1M55 11h1M80 11h1M95 11h1M105 11h1M115 11h1M42 12h1M58 12h1M77 12h1M98 12h1M102 12h1M109 12h1M113 12h1M49 132h1M59 132h1M95 132h1M46 133h1M56 133h1M79 133h1M92 133h1M106 133h1M109 133h1M122 133h1M66 134h1M81 134h1M94 134h1M105 134h1M108 134h1M113 134h1M41 135h1M55 135h1M78 135h1M91 135h1M104 135h1M107 135h1M16 136h2M26 136h2M47 136h1M57 136h1M62 136h1M68 136h1M71 136h1M85 136h1M98 136h1M106 136h1M121 136h1M131 136h2M141 136h2M16 137h2M26 137h2M44 137h1M54 137h1M59 137h1M66 137h1M69 137h1M77 137h1M87 137h1M111 137h1M131 137h2M141 137h2M16 138h2M26 138h2M41 138h1M46 138h1M61 138h1M67 138h1M70 138h1M79 138h1M92 138h1M97 138h1M120 138h1M131 138h2M141 138h2M16 139h2M26 139h2M38 139h1M43 139h1M58 139h1M65 139h1M68 139h1M76 139h1M89 139h1M94 139h1M117 139h1M131 139h2M141 139h2M40 140h1M45 140h1M60 140h1M78 140h1M91 140h1M96 140h1M103 140h1M119 140h1M37 141h1M42 141h1M57 141h1M75 141h1M88 141h1M93 141h1M102 141h1M116 141h1" />
<path stroke="#181821" d="M57 2h1M60 2h1M78 2h10M8 3h30M47 3h2M52 3h2M57 3h1M60 3h1M78 3h10M92 3h2M107 3h2M114 3h2M122 3h30M47 4h2M52 4h2M58 4h1M61 4h1M81 4h2M92 4h2M107 4h2M114 4h2M8 5h30M46 5h2M53 5h2M58 5h1M61 5h1M77 5h3M84 5h3M93 5h8M106 5h2M113 5h2M122 5h30M46 6h2M53 6h2M77 6h2M83 6h4M93 6h8M106 6h2M113 6h2M8 7h30M45 7h2M54 7h2M80 7h2M93 7h3M99 7h2M105 7h2M112 7h2M122 7h30M45 8h2M54 8h2M64 8h10M80 8h2M94 8h2M105 8h2M112 8h2M8 9h30M44 9h2M55 9h2M64 9h10M79 9h2M95 9h2M104 9h2M111 9h2M122 9h30M44 10h2M55 10h2M79 10h2M95 10h2M104 10h2M111 10h2M8 11h30M43 11h2M56 11h2M78 11h2M96 11h2M103 11h2M110 11h2M122 11h30M43 12h2M56 12h2M78 12h2M96 12h2M103 12h2M110 12h2M15 14h130M14 15h132M13 16h3M144 16h3M13 17h3M144 17h3M13 18h3M144 18h3M13 19h3M144 19h3M13 20h3M144 20h3M13 21h3M144 21h3M13 22h3M144 22h3M13 23h3M144 23h3M13 24h3M144 24h3M13 25h3M144 25h3M13 26h3M144 26h3M13 27h3M144 27h3M13 28h3M144 28h3M13 29h3M144 29h3M13 30h3M144 30h3M13 31h3M144 31h3M13 32h3M144 32h3M13 33h3M144 33h3M13 34h3M144 34h3M13 35h3M144 35h3M13 36h3M144 36h3M13 37h3M144 37h3M13 38h3M144 38h3M13 39h3M144 39h3M13 40h3M144 40h3M13 41h3M144 41h3M13 42h3M144 42h3M13 43h3M144 43h3M13 44h3M144 44h3M13 45h3M144 45h3M13 46h3M144 46h3M13 47h3M144 47h3M13 48h3M144 48h3M13 49h3M144 49h3M13 50h3M144 50h3M13 51h3M144 51h3M13 52h3M144 52h3M13 53h3M144 53h3M13 54h3M144 54h3M13 55h3M144 55h3M13 56h3M144 56h3M13 57h3M144 57h3M13 58h3M144 58h3M13 59h3M144 59h3M13 60h3M144 60h3M13 61h3M144 61h3M13 62h3M144 62h3M13 63h3M144 63h3M13 64h3M144 64h3M13 65h3M144 65h3M13 66h3M144 66h3M13 67h3M144 67h3M13 68h3M144 68h3M13 69h3M144 69h3M13 70h3M144 70h3M13 71h3M144 71h3M13 72h3M144 72h3M13 73h3M144 73h3M13 74h3M144 74h3M13 75h3M144 75h3M13 76h3M144 76h3M13 77h3M144 77h3M13 78h3M144 78h3M13 79h3M144 79h3M13 80h3M144 80h3M13 81h3M144 81h3M13 82h3M144 82h3M13 83h3M144 83h3M13 84h3M144 84h3M13 85h3M144 85h3M13 86h3M144 86h3M13 87h3M144 87h3M13 88h3M144 88h3M13 89h3M144 89h3M13 90h3M144 90h3M13 91h3M144 91h3M13 92h3M144 92h3M13 93h3M144 93h3M13 94h3M144 94h3M13 95h3M144 95h3M13 96h3M144 96h3M13 97h3M144 97h3M13 98h3M144 98h3M13 99h3M144 99h3M13 100h3M144 100h3M13 101h3M144 101h3M13 102h3M144 102h3M13 103h3M144 103h3M13 104h3M144 104h3M13 105h3M144 105h3M13 106h3M144 106h3M13 107h3M144 107h3M13 108h3M144 108h3M13 109h3M144 109h3M13 110h3M144 110h3M13 111h3M144 111h3M13 112h3M144 112h3M13 113h3M144 113h3M13 114h3M144 114h3M13 115h3M144 115h3M13 116h3M144 116h3M13 117h3M144 117h3M13 118h3M144 118h3M13 119h3M144 119h3M13 120h3M144 120h3M13 121h3M144 121h3M13 122h3M144 122h3M13 123h3M144 123h3M13 124h3M144 124h3M13 125h3M144 125h3M13 126h3M144 126h3M13 127h3M144 127h3M13 128h134M14 129h132M10 131h1M21 131h3M52 131h4M136 131h3M149 131h1M11 132h1M20 132h1M24 132h1M47 132h2M51 132h2M54 132h2M57 132h2M80 132h3M93 132h2M135 132h1M139 132h1M148 132h1M12 133h1M20 133h1M22 133h1M24 133h1M47 133h2M50 133h2M53 133h2M57 133h2M80 133h2M93 133h2M100 133h3M107 133h2M114 133h8M135 133h1M137 133h1M139 133h1M147 133h1M15 134h15M42 134h12M56 134h10M79 134h2M92 134h2M101 134h3M106 134h2M114 134h8M130 134h15M15 135h1M19 135h7M29 135h1M42 135h10M56 135h10M79 135h2M92 135h2M102 135h2M105 135h2M130 135h1M134 135h7M144 135h1M8 136h5M15 136h1M18 136h3M24 136h2M28 136h2M45 136h2M55 136h2M60 136h2M67 136h1M70 136h1M78 136h7M88 136h10M103 136h3M112 136h9M130 136h1M133 136h3M139 136h2M143 136h2M147 136h5M15 137h1M18 137h2M22 137h2M25 137h1M28 137h2M45 137h2M55 137h2M60 137h2M67 137h1M70 137h1M78 137h7M88 137h10M103 137h5M112 137h9M130 137h1M133 137h2M137 137h2M140 137h1M143 137h2M15 138h1M18 138h2M21 138h3M25 138h1M28 138h2M39 138h2M44 138h2M49 138h3M59 138h2M66 138h1M69 138h1M72 138h3M77 138h2M90 138h2M95 138h2M102 138h3M106 138h3M118 138h2M130 138h1M133 138h2M136 138h3M140 138h1M143 138h2M12 139h1M15 139h1M18 139h2M21 139h3M25 139h1M28 139h2M39 139h2M44 139h2M48 139h3M59 139h2M66 139h1M69 139h1M71 139h3M77 139h2M90 139h2M95 139h2M101 139h3M107 139h3M118 139h2M130 139h1M133 139h2M136 139h3M140 139h1M143 139h2M147 139h1M11 140h1M15 140h1M19 140h2M24 140h2M29 140h1M38 140h2M43 140h2M48 140h3M58 140h2M70 140h3M76 140h2M89 140h2M94 140h2M100 140h3M117 140h2M130 140h1M134 140h2M139 140h2M144 140h1M148 140h1M10 141h1M15 141h15M38 141h2M43 141h2M47 141h3M58 141h2M69 141h3M76 141h2M89 141h2M94 141h2M100 141h2M117 141h2M130 141h15M149 141h1" />
<path stroke="#a2a2a2" d="M58 2h1M61 2h1M77 2h1M46 3h1M54 3h1M56 3h1M59 3h1M88 3h1M94 3h1M106 3h1M113 3h1M49 4h1M51 4h1M59 4h1M62 4h1M80 4h1M84 4h1M91 4h1M109 4h1M116 4h1M45 5h1M55 5h1M57 5h1M60 5h1M76 5h1M101 5h1M105 5h1M112 5h1M48 6h1M52 6h1M87 6h1M90 6h1M101 6h1M108 6h1M115 6h1M44 7h1M56 7h1M82 7h1M96 7h1M101 7h1M104 7h1M111 7h1M47 8h1M53 8h1M63 8h1M82 8h1M93 8h1M107 8h1M114 8h1M43 9h1M57 9h1M74 9h1M78 9h1M97 9h1M103 9h1M110 9h1M117 9h1M46 10h1M54 10h1M81 10h1M94 10h1M106 10h1M42 11h1M58 11h1M77 11h1M98 11h1M102 11h1M109 11h1M116 11h1M45 12h1M55 12h1M80 12h1M95 12h1M105 12h1M114 12h1M46 132h1M56 132h1M79 132h1M92 132h1M49 133h1M59 133h1M82 133h1M95 133h1M99 133h1M113 133h1M41 134h1M55 134h1M78 134h1M91 134h1M100 134h1M122 134h1M52 135h1M66 135h1M81 135h1M94 135h1M101 135h1M44 136h1M54 136h1M59 136h1M66 136h1M69 136h1M77 136h1M87 136h1M102 136h1M47 137h1M57 137h1M62 137h1M68 137h1M71 137h1M85 137h1M98 137h1M102 137h1M121 137h1M38 138h1M43 138h1M48 138h1M58 138h1M65 138h1M68 138h1M76 138h1M94 138h1M101 138h1M105 138h1M117 138h1M41 139h1M46 139h1M51 139h1M61 139h1M67 139h1M70 139h1M79 139h1M97 139h1M106 139h1M120 139h1M37 140h1M42 140h1M47 140h1M57 140h1M75 140h1M93 140h1M116 140h1M40 141h1M45 141h1M50 141h1M60 141h1M78 141h1M96 141h1M119 141h1" />
<path stroke="#adadb5" d="M21 137h1M136 137h1" />
</svg>