<svg xmlns="http://www.w3.org/2000/svg" viewBox="0 -0.5 160 144" shape-rendering="crispEdges">
<metadata>Made with Pixels to Svg https://codepen.io/shshaw/pen/XbxvNj</metadata>
<path stroke="#000000" d="M0 0h106M107 0h53M0 1h116M117 1h43M0 2h7M8 2h15M24 2h15M40 2h3M44 2h11M56 2h15M72 2h16M89 2h15M105 2h15M121 2h15M137 2h7M145 2h7M153 2h7M0 3h6M9 3h2M12 3h10M25 3h13M41 3h13M57 3h13M74 3h13M90 3h13M107 3h12M122 3h13M138 3h13M154 3h6M0 4h5M10 4h11M26 4h11M42 4h11M58 4h11M74 4h12M91 4h10M107 4h11M123 4h11M139 4h11M155 4h5M0 5h4M11 5h9M27 5h9M43 5h9M59 5h9M75 5h10M92 5h9M108 5h9M124 5h5M130 5h3M140 5h9M156 5h4M0 6h3M12 6h7M28 6h7M44 6h7M60 6h7M76 6h8M93 6h7M109 6h3M113 6h3M125 6h7M141 6h7M157 6h3M0 7h2M13 7h5M29 7h5M45 7h5M61 7h5M77 7h6M94 7h5M110 7h5M126 7h3M130 7h1M142 7h5M158 7h2M0 8h1M14 8h3M30 8h3M46 8h3M62 8h3M78 8h4M95 8h3M111 8h3M127 8h3M143 8h3M159 8h1M0 9h2M13 9h5M29 9h5M45 9h5M61 9h5M77 9h6M94 9h5M110 9h5M126 9h5M142 9h5M158 9h2M0 10h3M12 10h7M28 10h7M44 10h2M47 10h4M60 10h7M76 10h8M93 10h7M109 10h7M125 10h7M141 10h7M157 10h3M0 11h4M11 11h9M27 11h9M43 11h9M59 11h9M75 11h10M92 11h9M108 11h9M124 11h9M140 11h9M156 11h4M0 12h5M10 12h9M20 12h1M26 12h11M42 12h11M58 12h11M74 12h12M91 12h11M107 12h11M123 12h11M139 12h11M155 12h5M0 13h6M9 13h13M25 13h13M41 13h13M57 13h8M66 13h4M73 13h14M90 13h7M98 13h5M106 13h13M122 13h13M138 13h13M154 13h6M0 14h7M8 14h15M24 14h15M40 14h15M56 14h4M61 14h10M72 14h16M89 14h15M105 14h15M121 14h11M133 14h3M137 14h15M153 14h7M0 15h11M12 15h148M0 16h16M144 16h16M0 17h16M144 17h16M0 18h7M8 18h8M144 18h8M153 18h7M0 19h6M9 19h7M144 19h7M154 19h6M0 20h5M10 20h6M144 20h6M155 20h5M0 21h4M11 21h5M144 21h5M156 21h4M0 22h3M12 22h4M144 22h1M146 22h2M157 22h3M0 23h2M13 23h3M144 23h3M158 23h2M0 24h1M14 24h2M144 24h2M159 24h1M0 25h2M13 25h3M144 25h3M158 25h2M0 26h3M12 26h4M144 26h4M157 26h3M0 27h4M11 27h5M145 27h4M156 27h4M0 28h5M10 28h6M144 28h6M155 28h5M0 29h6M9 29h7M144 29h7M154 29h6M0 30h7M8 30h7M144 30h8M153 30h7M0 31h16M144 31h16M0 32h16M144 32h2M147 32h13M0 33h4M5 33h11M144 33h16M0 34h2M3 34h4M8 34h8M144 34h8M153 34h7M0 35h5M9 35h7M144 35h7M154 35h6M0 36h5M10 36h6M144 36h6M155 36h5M0 37h4M11 37h5M144 37h5M156 37h4M0 38h2M12 38h4M144 38h4M157 38h3M0 39h2M13 39h3M144 39h3M158 39h2M0 40h1M14 40h2M144 40h2M159 40h1M0 41h2M13 41h3M144 41h3M158 41h2M0 42h3M12 42h4M144 42h4M157 42h3M0 43h4M11 43h5M144 43h5M156 43h4M0 44h5M10 44h6M144 44h1M146 44h4M155 44h5M0 45h6M9 45h7M144 45h7M154 45h6M0 46h7M8 46h8M144 46h8M153 46h7M0 47h16M144 47h16M0 48h16M144 48h8M153 48h7M0 49h1M2 49h14M144 49h16M0 50h7M8 50h8M144 50h8M153 50h6M0 51h6M9 51h7M144 51h7M154 51h1M156 51h4M0 52h5M10 52h6M144 52h6M155 52h5M0 53h4M11 53h5M144 53h5M156 53h4M0 54h3M12 54h4M144 54h4M157 54h3M0 55h2M13 55h3M144 55h3M158 55h2M0 56h1M14 56h2M144 56h2M159 56h1M0 57h2M13 57h3M144 57h3M158 57h2M0 58h3M12 58h4M144 58h4M157 58h3M0 59h4M11 59h5M144 59h5M156 59h4M0 60h5M10 60h6M144 60h6M155 60h5M0 61h6M9 61h7M144 61h5M150 61h1M154 61h6M0 62h7M8 62h8M144 62h8M153 62h7M0 63h16M144 63h16M0 64h16M144 64h16M0 65h16M144 65h16M0 66h7M10 66h6M144 66h8M153 66h7M0 67h6M9 67h7M144 67h7M154 67h6M0 68h5M10 68h6M144 68h6M155 68h5M0 69h4M11 69h5M144 69h5M156 69h4M0 70h3M12 70h4M144 70h4M157 70h3M0 71h2M13 71h3M144 71h3M158 71h2M0 72h1M14 72h2M144 72h2M159 72h1M0 73h2M13 73h3M144 73h3M158 73h2M0 74h3M12 74h4M144 74h4M157 74h3M0 75h4M11 75h5M144 75h5M156 75h4M0 76h5M10 76h6M144 76h6M155 76h5M0 77h6M9 77h7M144 77h7M154 77h6M0 78h7M8 78h8M144 78h8M153 78h7M0 79h16M144 79h2M147 79h10M158 79h2M0 80h16M144 80h16M0 81h3M4 81h12M144 81h16M0 82h7M8 82h8M144 82h8M153 82h7M0 83h6M10 83h6M144 83h7M154 83h6M0 84h5M10 84h6M144 84h3M148 84h2M155 84h5M0 85h4M11 85h5M144 85h5M157 85h3M0 86h3M12 86h4M144 86h4M157 86h3M0 87h2M13 87h3M144 87h3M158 87h2M0 88h1M14 88h2M144 88h2M159 88h1M0 89h2M13 89h3M144 89h3M158 89h2M0 90h3M12 90h4M144 90h4M157 90h3M0 91h4M11 91h5M144 91h5M156 91h4M0 92h5M10 92h6M144 92h6M155 92h5M0 93h6M9 93h7M144 93h7M154 93h6M0 94h7M8 94h8M144 94h8M153 94h7M0 95h16M144 95h16M0 96h16M144 96h16M0 97h16M144 97h1M146 97h14M0 98h7M8 98h8M144 98h8M153 98h7M0 99h6M9 99h7M144 99h5M150 99h1M154 99h6M0 100h5M10 100h6M144 100h6M155 100h5M0 101h4M11 101h5M144 101h5M156 101h4M0 102h3M12 102h4M144 102h4M157 102h3M0 103h2M13 103h3M144 103h3M158 103h2M0 104h1M14 104h2M144 104h2M159 104h1M0 105h2M13 105h3M144 105h3M158 105h2M0 106h3M12 106h4M144 106h4M157 106h3M0 107h4M11 107h5M144 107h5M156 107h4M0 108h5M10 108h6M144 108h6M155 108h5M0 109h6M9 109h7M144 109h7M154 109h6M0 110h7M8 110h8M144 110h8M153 110h7M0 111h5M6 111h10M144 111h16M0 112h16M144 112h16M0 113h2M3 113h10M14 113h2M144 113h16M0 114h7M8 114h8M144 114h8M153 114h7M0 115h6M9 115h7M144 115h7M154 115h6M0 116h5M10 116h3M14 116h2M144 116h6M155 116h5M0 117h4M11 117h5M144 117h5M156 117h4M0 118h3M12 118h4M144 118h4M157 118h3M0 119h2M13 119h3M144 119h3M158 119h2M0 120h1M14 120h2M144 120h2M159 120h1M0 121h2M13 121h3M144 121h3M158 121h2M0 122h3M12 122h4M144 122h4M157 122h3M0 123h4M11 123h5M144 123h5M156 123h4M0 124h5M10 124h6M144 124h6M155 124h5M0 125h6M9 125h7M144 125h7M154 125h6M0 126h7M8 126h8M144 126h8M153 126h7M0 127h16M144 127h16M0 128h59M60 128h62M123 128h37M0 129h115M116 129h44M0 130h7M8 130h15M24 130h15M40 130h10M51 130h4M56 130h15M72 130h16M89 130h15M105 130h15M121 130h15M137 130h15M153 130h7M0 131h6M9 131h13M25 131h13M41 131h13M57 131h13M73 131h14M90 131h13M106 131h13M122 131h13M138 131h13M154 131h6M0 132h5M10 132h7M18 132h2M26 132h11M42 132h8M51 132h2M58 132h11M74 132h12M91 132h11M107 132h6M114 132h4M123 132h11M139 132h11M155 132h5M0 133h4M11 133h9M27 133h9M43 133h4M48 133h4M59 133h9M75 133h10M92 133h9M108 133h9M124 133h9M140 133h9M156 133h1M158 133h2M0 134h3M12 134h7M28 134h4M33 134h2M44 134h7M60 134h7M76 134h8M93 134h7M109 134h7M125 134h7M141 134h7M157 134h3M0 135h2M13 135h5M29 135h5M45 135h5M61 135h5M77 135h6M94 135h5M110 135h5M126 135h5M142 135h5M158 135h2M0 136h1M14 136h3M30 136h3M46 136h3M62 136h3M78 136h4M95 136h3M111 136h3M127 136h3M143 136h3M159 136h1M0 137h2M13 137h5M29 137h5M45 137h5M61 137h5M77 137h6M94 137h5M110 137h5M126 137h5M142 137h5M158 137h2M0 138h3M12 138h7M28 138h7M44 138h7M60 138h7M76 138h8M93 138h7M109 138h7M125 138h7M141 138h7M157 138h3M0 139h4M11 139h9M27 139h9M43 139h9M59 139h9M75 139h10M92 139h9M108 139h1M110 139h7M124 139h9M140 139h9M156 139h4M0 140h5M10 140h11M26 140h11M42 140h11M58 140h11M74 140h12M91 140h11M107 140h11M123 140h11M139 140h1M141 140h9M155 140h5M0 141h6M9 141h13M25 141h13M41 141h10M52 141h2M57 141h13M73 141h14M90 141h13M106 141h13M122 141h13M138 141h13M154 141h6M0 142h7M8 142h15M24 142h15M40 142h15M56 142h15M72 142h16M89 142h8M98 142h6M105 142h15M121 142h4M126 142h10M137 142h15M153 142h3M157 142h3M0 143h4M5 143h21M27 143h21M49 143h111" />
<path stroke="#000100" d="M106 0h1M73 3h1M106 3h1M112 6h1M129 7h1M19 12h1M146 32h1M4 33h1M5 35h1M2 38h1M156 85h1M2 113h1M59 128h1M122 128h1M115 129h1M32 134h1M140 140h1M156 142h1M26 143h1" />
<path stroke="#010000" d="M116 1h1M43 2h1M101 4h1M65 13h1M144 27h1M15 30h1M2 34h1M145 44h1M149 61h1M9 66h1M146 79h1M3 81h1M147 84h1M13 113h1M13 116h1M50 130h1M47 133h1M51 141h1M125 142h1M4 143h1" />
<path stroke="#ffffff" d="M7 2h1M23 2h1M39 2h1M55 2h1M71 2h1M88 2h1M104 2h1M120 2h1M136 2h1M152 2h1M6 3h3M22 3h3M38 3h3M54 3h3M70 3h3M87 3h3M103 3h3M119 3h3M135 3h3M151 3h3M5 4h5M21 4h5M37 4h5M53 4h5M69 4h5M86 4h1M88 4h3M102 4h5M118 4h5M134 4h5M150 4h5M4 5h7M20 5h7M36 5h7M52 5h7M68 5h7M85 5h7M101 5h7M117 5h7M133 5h7M149 5h7M3 6h9M19 6h9M35 6h9M51 6h9M67 6h9M84 6h9M100 6h9M116 6h9M132 6h9M148 6h4M153 6h4M2 7h11M18 7h11M34 7h11M50 7h11M66 7h11M83 7h11M99 7h11M115 7h11M131 7h11M147 7h11M1 8h13M17 8h13M33 8h2M36 8h10M49 8h13M65 8h13M82 8h13M98 8h13M114 8h13M130 8h13M146 8h13M2 9h11M18 9h11M34 9h11M50 9h11M66 9h11M83 9h11M100 9h10M115 9h11M131 9h11M147 9h11M3 10h9M19 10h9M35 10h9M51 10h9M67 10h9M84 10h9M100 10h9M116 10h9M132 10h3M136 10h5M148 10h5M154 10h3M4 11h7M20 11h7M36 11h7M52 11h7M68 11h4M73 11h2M85 11h7M101 11h7M117 11h7M133 11h7M149 11h7M5 12h5M21 12h5M37 12h5M53 12h5M69 12h5M87 12h4M102 12h5M118 12h5M134 12h5M150 12h5M6 13h3M22 13h3M38 13h3M54 13h3M70 13h3M87 13h3M103 13h3M119 13h3M135 13h3M151 13h3M7 14h1M23 14h1M39 14h1M55 14h1M71 14h1M88 14h1M104 14h1M120 14h1M136 14h1M152 14h1M152 18h1M6 19h3M151 19h3M5 20h5M150 20h5M4 21h7M149 21h7M3 22h9M148 22h9M2 23h11M147 23h11M1 24h13M146 24h13M2 25h11M147 25h11M3 26h9M148 26h9M4 27h7M149 27h7M5 28h5M150 28h5M6 29h3M151 29h3M7 30h1M152 30h1M7 34h1M152 34h1M6 35h3M151 35h3M5 36h5M150 36h5M4 37h2M7 37h4M149 37h4M154 37h2M3 38h9M148 38h9M2 39h11M147 39h11M1 40h13M146 40h13M2 41h11M147 41h11M3 42h9M148 42h8M4 43h7M149 43h7M5 44h5M150 44h5M6 45h3M151 45h3M7 46h1M152 46h1M7 50h1M152 50h1M6 51h3M151 51h3M5 52h5M150 52h5M4 53h7M149 53h7M3 54h9M148 54h5M154 54h3M2 55h11M147 55h11M1 56h13M146 56h13M2 57h6M9 57h4M147 57h11M3 58h9M148 58h9M4 59h7M149 59h7M5 60h5M150 60h5M6 61h3M151 61h3M7 62h1M152 62h1M7 66h1M152 66h1M6 67h3M151 67h3M5 68h5M150 68h5M4 69h7M149 69h7M3 70h9M148 70h9M2 71h11M147 71h2M150 71h8M1 72h13M146 72h13M2 73h11M147 73h11M3 74h9M148 74h9M4 75h7M149 75h7M5 76h5M150 76h5M6 77h3M151 77h3M7 78h1M152 78h1M7 82h1M152 82h1M6 83h3M151 83h3M5 84h5M150 84h5M4 85h7M149 85h7M3 86h9M148 86h9M2 87h11M147 87h11M1 88h13M146 88h13M2 89h11M147 89h11M3 90h9M148 90h8M4 91h7M149 91h7M5 92h5M150 92h5M6 93h3M151 93h3M7 94h1M152 94h1M7 98h1M152 98h1M6 99h3M151 99h3M5 100h5M150 100h5M4 101h7M149 101h7M3 102h9M148 102h9M2 103h4M7 103h6M147 103h11M1 104h13M146 104h13M2 105h11M147 105h11M3 106h9M148 106h2M151 106h6M4 107h7M149 107h7M5 108h5M150 108h5M6 109h3M151 109h3M7 110h1M152 110h1M7 114h1M152 114h1M6 115h3M152 115h2M5 116h5M150 116h5M4 117h7M149 117h7M3 118h9M148 118h9M2 119h11M147 119h11M1 120h13M146 120h13M2 121h11M147 121h4M152 121h6M3 122h9M148 122h9M4 123h7M149 123h7M5 124h5M150 124h5M6 125h3M151 125h2M7 126h1M152 126h1M7 130h1M23 130h1M39 130h1M55 130h1M71 130h1M88 130h1M104 130h1M120 130h1M136 130h1M152 130h1M6 131h3M22 131h3M38 131h3M54 131h3M70 131h3M87 131h3M103 131h3M119 131h3M135 131h3M151 131h3M5 132h5M21 132h5M37 132h5M53 132h5M69 132h5M86 132h5M102 132h5M118 132h5M134 132h5M151 132h4M4 133h7M20 133h7M36 133h7M52 133h7M68 133h7M85 133h7M101 133h2M104 133h4M117 133h7M133 133h7M149 133h7M3 134h9M19 134h9M35 134h9M51 134h9M67 134h9M84 134h9M100 134h1M102 134h7M116 134h7M124 134h1M132 134h9M148 134h9M2 135h11M18 135h11M34 135h11M50 135h11M66 135h11M83 135h11M99 135h11M115 135h11M131 135h11M147 135h11M1 136h13M17 136h13M33 136h13M49 136h13M65 136h13M82 136h13M98 136h13M114 136h13M130 136h13M146 136h13M2 137h11M18 137h11M34 137h11M50 137h11M66 137h11M83 137h11M99 137h11M115 137h6M122 137h4M131 137h11M147 137h11M3 138h9M19 138h9M35 138h9M51 138h3M55 138h5M67 138h9M84 138h9M100 138h3M104 138h5M116 138h9M132 138h9M148 138h9M4 139h1M6 139h5M20 139h7M36 139h7M52 139h7M68 139h7M85 139h7M101 139h7M117 139h7M133 139h7M149 139h7M5 140h5M21 140h5M37 140h5M53 140h5M69 140h5M86 140h5M102 140h5M118 140h5M134 140h5M150 140h5M6 141h3M22 141h3M38 141h3M54 141h3M70 141h3M87 141h3M103 141h3M119 141h3M135 141h3M151 141h3M7 142h1M23 142h1M39 142h1M55 142h1M71 142h1M88 142h1M104 142h1M120 142h1M136 142h1M152 142h1" />
<path stroke="#000001" d="M144 2h1M11 3h1M129 5h1M46 10h1M97 13h1M60 14h1M132 14h1M11 15h1M145 22h1M152 48h1M1 49h1M159 50h1M155 51h1M8 66h1M157 79h1M9 83h1M145 97h1M149 99h1M5 111h1M17 132h1M20 132h1M50 132h1M113 132h1M157 133h1M109 139h1M97 142h1M48 143h1" />
<path stroke="#fffeff" d="M87 4h1M35 8h1M135 10h1M153 10h1M7 18h1M6 37h1M153 37h1M149 71h1M6 103h1M150 106h1M101 134h1M103 138h1" />
<path stroke="#fffffe" d="M152 6h1M72 11h1M86 12h1M8 57h1M151 115h1M151 121h1M153 125h1M103 133h1M123 134h1" />
<path stroke="#feffff" d="M99 9h1M156 42h1M153 54h1M156 90h1M150 132h1M121 137h1M54 138h1M5 139h1" />
</svg>