<svg xmlns="http://www.w3.org/2000/svg" viewBox="0 -0.5 160 144" shape-rendering="crispEdges">
<metadata>Made with Pixels to Svg https://codepen.io/shshaw/pen/XbxvNj</metadata>
<path stroke="#000000" d="M0 0h42M43 0h117M0 1h1M158 1h2M0 2h1M6 2h5M26 2h3M47 2h5M67 2h3M88 2h4M107 2h3M128 2h4M147 2h3M159 2h1M0 3h1M5 3h7M17 3h2M25 3h5M37 3h2M46 3h5M52 3h1M58 3h2M66 3h5M78 3h2M87 3h6M98 3h2M106 3h5M118 3h2M127 3h6M138 3h2M146 3h5M158 3h2M0 4h1M4 4h3M10 4h3M17 4h2M24 4h3M28 4h3M37 4h2M45 4h3M51 4h3M58 4h2M65 4h3M69 4h3M78 4h2M86 4h3M91 4h3M98 4h2M105 4h3M109 4h1M111 4h1M118 4h2M126 4h3M131 4h3M138 4h2M145 4h2M150 4h2M158 4h2M3 5h2M12 5h2M23 5h2M30 5h2M44 5h2M53 5h2M64 5h2M71 5h2M85 5h2M93 5h2M104 5h2M111 5h2M125 5h2M133 5h2M144 5h2M151 5h2M159 5h1M0 6h1M3 6h1M13 6h2M22 6h2M31 6h2M43 6h2M54 6h2M63 6h2M72 6h2M84 6h2M94 6h2M103 6h2M112 6h2M124 6h2M134 6h2M143 6h2M152 6h2M159 6h1M0 7h1M2 7h2M13 7h2M22 7h2M31 7h2M43 7h2M54 7h2M63 7h2M72 7h2M84 7h2M94 7h2M103 7h2M112 7h2M124 7h2M134 7h2M143 7h2M152 7h2M159 7h1M0 8h3M14 8h2M21 8h2M32 8h2M42 8h2M55 8h2M62 8h2M73 8h2M83 8h2M95 8h2M102 8h2M113 8h2M123 8h2M135 8h2M142 8h2M153 8h2M159 8h1M0 9h1M2 9h1M14 9h2M21 9h2M32 9h2M42 9h2M55 9h2M62 9h2M73 9h2M83 9h2M95 9h2M102 9h2M113 9h2M123 9h2M135 9h2M142 9h2M153 9h2M159 9h1M0 10h1M15 10h2M20 10h2M33 10h2M41 10h2M56 10h2M61 10h2M74 10h2M82 10h2M96 10h2M101 10h2M114 10h2M122 10h2M136 10h2M141 10h2M154 10h2M159 10h1M0 11h1M16 11h5M34 11h8M57 11h5M75 11h8M97 11h5M115 11h8M137 11h5M155 11h5M0 12h1M17 12h3M35 12h6M58 12h3M76 12h6M98 12h3M116 12h6M138 12h3M156 12h3M0 13h1M159 13h1M0 14h1M159 14h1M15 15h22M39 15h40M80 15h65M159 15h1M0 16h1M5 16h2M15 16h1M144 16h1M153 16h2M159 16h1M0 17h1M3 17h5M15 17h1M144 17h1M152 17h5M159 17h1M0 18h5M6 18h2M13 18h3M144 18h3M152 18h2M155 18h5M0 19h3M6 19h2M12 19h4M144 19h4M152 19h2M157 19h3M0 20h1M6 20h2M10 20h3M15 20h1M144 20h1M147 20h3M152 20h2M159 20h1M0 21h1M7 21h5M15 21h1M144 21h1M148 21h5M159 21h1M0 22h1M8 22h3M15 22h1M144 22h1M149 22h3M159 22h1M0 23h1M15 23h1M144 23h1M159 23h1M0 24h1M15 24h1M144 24h1M159 24h1M0 25h1M15 25h1M144 25h1M0 26h1M15 26h1M144 26h1M159 26h1M0 27h1M15 27h1M144 27h1M159 27h1M0 28h1M15 28h1M144 28h1M159 28h1M0 29h1M15 29h1M144 29h1M159 29h1M0 30h1M15 30h1M144 30h1M159 30h1M0 31h1M15 31h1M144 31h1M159 31h1M0 32h1M15 32h1M144 32h1M159 32h1M0 33h1M15 33h1M144 33h1M159 33h1M0 34h1M15 34h1M144 34h1M159 34h1M0 35h1M15 35h1M144 35h1M159 35h1M0 36h1M15 36h1M144 36h1M159 36h1M0 37h1M15 37h1M144 37h1M159 37h1M0 38h1M15 38h1M144 38h1M159 38h1M0 39h1M15 39h1M144 39h1M159 39h1M0 40h1M15 40h1M144 40h1M159 40h1M0 41h1M144 41h1M159 41h1M0 42h2M15 42h1M144 42h1M158 42h2M0 43h6M13 43h3M144 43h3M154 43h6M0 44h1M2 44h14M144 44h14M159 44h1M0 45h1M5 45h9M15 45h1M144 45h1M159 45h1M0 46h1M15 46h1M144 46h1M159 46h1M0 47h1M15 47h1M144 47h1M159 47h1M0 48h1M15 48h1M144 48h1M159 48h1M0 49h1M15 49h1M144 49h1M159 49h1M0 50h1M15 50h1M144 50h1M159 50h1M0 51h1M15 51h1M144 51h1M0 52h1M15 52h1M144 52h1M159 52h1M0 53h1M15 53h1M144 53h1M159 53h1M0 54h1M15 54h1M144 54h1M159 54h1M0 55h1M15 55h1M144 55h1M159 55h1M0 56h1M15 56h1M144 56h1M159 56h1M0 57h1M15 57h1M144 57h1M159 57h1M0 58h1M15 58h1M144 58h1M159 58h1M0 59h1M15 59h1M144 59h1M159 59h1M0 60h1M15 60h1M144 60h1M159 60h1M0 61h1M15 61h1M144 61h1M159 61h1M0 62h1M15 62h1M144 62h1M159 62h1M0 63h1M15 63h1M144 63h1M159 63h1M0 64h1M15 64h1M144 64h1M159 64h1M0 65h1M15 65h1M144 65h1M159 65h1M0 66h1M15 66h1M144 66h1M159 66h1M0 67h1M15 67h1M159 67h1M0 68h1M15 68h1M144 68h1M159 68h1M0 69h1M15 69h1M144 69h1M159 69h1M0 70h1M15 70h1M144 70h1M159 70h1M0 71h1M15 71h1M144 71h1M159 71h1M0 72h1M15 72h1M144 72h1M159 72h1M0 73h1M15 73h1M144 73h1M159 73h1M0 74h1M15 74h1M144 74h1M159 74h1M0 75h1M15 75h1M144 75h1M159 75h1M0 76h1M15 76h1M144 76h1M159 76h1M0 77h1M15 77h1M144 77h1M159 77h1M0 78h1M15 78h1M144 78h1M159 78h1M0 79h1M15 79h1M144 79h1M159 79h1M0 80h1M15 80h1M144 80h1M159 80h1M0 81h1M15 81h1M144 81h1M159 81h1M0 82h1M144 82h1M159 82h1M0 83h1M15 83h1M144 83h1M159 83h1M0 84h1M15 84h1M144 84h1M159 84h1M0 85h1M15 85h1M144 85h1M159 85h1M0 86h1M15 86h1M144 86h1M159 86h1M0 87h1M15 87h1M144 87h1M159 87h1M0 88h1M15 88h1M144 88h1M159 88h1M15 89h1M144 89h1M159 89h1M0 90h1M15 90h1M144 90h1M159 90h1M0 91h1M15 91h1M144 91h1M159 91h1M0 92h1M15 92h1M144 92h1M159 92h1M0 93h1M15 93h1M144 93h1M159 93h1M0 94h1M15 94h1M144 94h1M159 94h1M0 95h1M15 95h1M144 95h1M159 95h1M0 96h1M15 96h1M144 96h1M159 96h1M0 97h1M144 97h1M159 97h1M0 98h1M5 98h9M15 98h1M144 98h1M146 98h9M159 98h1M0 99h1M2 99h4M7 99h9M144 99h14M159 99h1M0 100h6M13 100h3M144 100h3M154 100h6M0 101h2M15 101h1M144 101h1M158 101h2M0 102h1M15 102h1M144 102h1M159 102h1M0 103h1M15 103h1M144 103h1M159 103h1M0 104h1M15 104h1M144 104h1M159 104h1M0 105h1M15 105h1M144 105h1M159 105h1M0 106h1M15 106h1M144 106h1M159 106h1M0 107h1M15 107h1M144 107h1M159 107h1M0 108h1M15 108h1M144 108h1M159 108h1M0 109h1M15 109h1M144 109h1M159 109h1M0 110h1M15 110h1M144 110h1M159 110h1M0 111h1M15 111h1M144 111h1M159 111h1M0 112h1M15 112h1M144 112h1M159 112h1M0 113h1M15 113h1M144 113h1M159 113h1M0 114h1M15 114h1M144 114h1M159 114h1M0 115h1M15 115h1M144 115h1M159 115h1M0 116h1M15 116h1M144 116h1M159 116h1M0 117h1M15 117h1M144 117h1M159 117h1M0 118h1M15 118h1M144 118h1M159 118h1M0 119h1M15 119h1M144 119h1M159 119h1M0 120h1M15 120h1M144 120h1M159 120h1M0 121h1M8 121h3M15 121h1M144 121h1M149 121h3M159 121h1M0 122h1M7 122h5M15 122h1M144 122h1M148 122h5M159 122h1M0 123h1M6 123h2M10 123h3M15 123h1M144 123h1M147 123h3M152 123h2M159 123h1M0 124h3M6 124h2M12 124h4M144 124h4M152 124h2M157 124h3M0 125h5M6 125h2M13 125h3M144 125h3M152 125h2M155 125h5M0 126h1M3 126h5M15 126h1M144 126h1M152 126h5M159 126h1M0 127h1M5 127h2M15 127h1M144 127h1M153 127h2M159 127h1M0 128h1M15 128h5M21 128h124M159 128h1M0 129h1M159 129h1M0 130h1M159 130h1M0 131h1M17 131h3M35 131h6M58 131h3M76 131h1M78 131h4M98 131h3M116 131h6M138 131h3M156 131h4M0 132h1M16 132h5M34 132h8M57 132h5M75 132h8M97 132h5M115 132h8M137 132h5M155 132h5M0 133h2M15 133h2M20 133h2M33 133h2M41 133h2M56 133h2M61 133h2M74 133h2M82 133h2M96 133h2M101 133h2M114 133h2M122 133h2M136 133h2M141 133h2M154 133h2M159 133h1M0 134h3M14 134h2M21 134h2M32 134h2M42 134h2M55 134h2M62 134h2M73 134h2M83 134h2M95 134h2M102 134h2M113 134h2M123 134h2M135 134h2M142 134h2M153 134h2M159 134h1M0 135h3M14 135h2M21 135h2M32 135h2M42 135h2M55 135h2M62 135h2M73 135h2M83 135h2M95 135h2M102 135h2M113 135h2M123 135h2M135 135h2M142 135h2M153 135h2M159 135h1M0 136h1M2 136h2M13 136h2M22 136h2M31 136h2M43 136h2M54 136h2M63 136h2M72 136h2M84 136h2M94 136h2M103 136h2M112 136h2M124 136h2M134 136h2M143 136h2M152 136h2M159 136h1M0 137h1M2 137h2M13 137h2M22 137h2M31 137h1M43 137h2M54 137h2M63 137h2M72 137h2M84 137h2M94 137h2M103 137h2M112 137h2M124 137h2M134 137h2M143 137h2M152 137h2M159 137h1M0 138h1M3 138h2M12 138h2M23 138h2M30 138h2M44 138h2M53 138h2M64 138h2M71 138h2M85 138h2M93 138h2M104 138h2M111 138h2M125 138h2M133 138h2M144 138h2M151 138h2M159 138h1M0 139h1M4 139h3M10 139h3M17 139h2M24 139h3M28 139h3M37 139h2M45 139h3M51 139h3M58 139h2M65 139h3M69 139h3M78 139h2M86 139h3M91 139h3M98 139h2M105 139h3M109 139h3M118 139h2M126 139h3M131 139h3M138 139h2M145 139h3M149 139h3M158 139h2M0 140h1M5 140h7M17 140h2M25 140h5M37 140h2M46 140h7M58 140h2M67 140h4M78 140h2M87 140h6M98 140h2M106 140h5M118 140h2M127 140h6M138 140h2M146 140h5M158 140h2M0 141h1M6 141h5M26 141h3M47 141h5M67 141h3M88 141h4M107 141h3M128 141h4M147 141h3M159 141h1M0 142h1M158 142h2M0 143h109M110 143h31M142 143h18" />
<path stroke="#010000" d="M42 0h1M51 3h1M110 4h1M149 4h1M159 12h1M0 15h1M159 51h1M6 99h1M109 143h1" />
<path stroke="#a2a2a2" d="M1 1h49M51 1h107M1 2h5M11 2h15M29 2h18M52 2h3M56 2h11M70 2h18M92 2h15M110 2h10M122 2h1M124 2h4M132 2h15M150 2h9M1 3h4M12 3h5M19 3h6M30 3h7M39 3h7M53 3h5M60 3h6M71 3h7M80 3h7M93 3h5M100 3h6M111 3h7M120 3h7M133 3h5M140 3h6M151 3h7M1 4h3M13 4h4M19 4h5M31 4h6M39 4h6M54 4h4M60 4h5M72 4h1M74 4h4M81 4h5M94 4h4M100 4h5M112 4h6M121 4h5M134 4h4M140 4h5M152 4h6M1 5h2M14 5h9M32 5h12M55 5h9M73 5h8M82 5h1M84 5h1M95 5h9M113 5h12M135 5h9M153 5h6M1 6h1M15 6h7M33 6h10M56 6h7M74 6h10M96 6h6M114 6h10M136 6h7M154 6h5M1 7h1M15 7h7M33 7h9M56 7h7M74 7h6M81 7h3M96 7h3M100 7h3M114 7h10M136 7h7M154 7h5M16 8h5M34 8h8M57 8h5M75 8h8M97 8h5M115 8h2M118 8h5M137 8h5M155 8h4M16 9h5M34 9h8M57 9h5M75 9h8M97 9h5M115 9h8M137 9h5M155 9h4M17 10h3M35 10h6M58 10h3M76 10h6M98 10h3M116 10h6M138 10h3M156 10h3M5 18h1M154 18h1M3 19h3M154 19h3M1 20h5M13 20h2M145 20h2M154 20h5M1 21h6M12 21h3M145 21h3M153 21h6M1 22h7M11 22h4M145 22h4M152 22h7M1 23h14M145 23h14M1 24h14M145 24h14M1 25h11M13 25h2M145 25h14M1 26h14M145 26h14M1 27h14M145 27h14M1 28h14M145 28h14M1 29h10M12 29h3M145 29h1M147 29h12M2 30h3M7 30h3M12 30h3M146 30h2M150 30h3M155 30h3M3 31h2M8 31h2M13 31h2M145 31h2M150 31h2M155 31h2M4 32h2M9 32h2M14 32h1M145 32h1M149 32h2M154 32h2M1 33h1M5 33h2M10 33h2M148 33h2M153 33h2M158 33h1M1 34h2M5 34h3M10 34h3M147 34h3M152 34h3M157 34h2M1 35h1M3 35h6M10 35h5M145 35h14M1 36h14M145 36h4M150 36h9M1 37h14M145 37h14M1 38h14M145 38h14M1 39h14M145 39h14M1 40h14M145 40h14M1 41h6M8 41h7M145 41h14M2 42h13M145 42h13M6 43h7M147 43h7M6 100h7M147 100h7M2 101h13M145 101h13M1 102h14M145 102h1M147 102h11M1 103h14M145 103h13M1 104h14M145 104h14M1 105h14M145 105h14M1 106h14M145 106h14M1 107h1M3 107h12M145 107h14M1 108h14M145 108h7M153 108h6M1 109h2M5 109h3M10 109h3M147 109h3M152 109h3M157 109h2M1 110h1M5 110h2M10 110h2M148 110h2M153 110h2M158 110h1M4 111h2M9 111h2M14 111h1M145 111h1M149 111h2M154 111h2M3 112h2M8 112h2M13 112h2M145 112h2M150 112h2M155 112h2M2 113h3M7 113h3M12 113h3M145 113h3M150 113h3M155 113h3M1 114h14M145 114h14M1 115h14M145 115h14M1 116h2M4 116h11M145 116h14M1 117h14M145 117h14M1 118h14M145 118h14M1 119h14M145 119h14M1 120h8M10 120h5M145 120h14M1 121h7M11 121h4M145 121h4M152 121h7M1 122h6M12 122h3M145 122h3M153 122h6M1 123h5M13 123h2M145 123h2M154 123h5M3 124h3M154 124h3M5 125h1M154 125h1M17 133h3M35 133h6M58 133h2M76 133h2M79 133h3M98 133h3M116 133h6M138 133h3M156 133h3M16 134h5M34 134h8M57 134h5M75 134h8M97 134h5M115 134h8M137 134h5M155 134h4M16 135h5M34 135h8M57 135h5M75 135h8M97 135h5M115 135h8M137 135h5M155 135h1M157 135h2M1 136h1M15 136h7M33 136h10M56 136h2M59 136h4M74 136h10M96 136h1M98 136h5M114 136h10M136 136h7M154 136h5M1 137h1M15 137h7M33 137h10M56 137h7M74 137h10M96 137h7M114 137h10M136 137h7M154 137h5M1 138h2M14 138h9M32 138h12M55 138h4M60 138h4M73 138h12M95 138h9M113 138h12M135 138h9M153 138h6M1 139h3M13 139h4M19 139h3M23 139h1M31 139h4M36 139h1M39 139h6M54 139h4M60 139h5M72 139h6M80 139h6M94 139h4M100 139h5M112 139h6M120 139h6M134 139h4M140 139h5M152 139h6M1 140h4M12 140h5M19 140h6M30 140h7M39 140h7M53 140h5M60 140h6M71 140h7M80 140h7M93 140h5M101 140h5M111 140h7M120 140h7M133 140h5M140 140h5M151 140h7M1 141h5M11 141h15M29 141h18M52 141h15M70 141h18M92 141h15M110 141h18M132 141h15M150 141h9M1 142h68M70 142h88" />
<path stroke="#a3a2a2" d="M50 1h1M55 2h1M121 2h1M80 4h1M102 6h1M80 7h1M7 41h1M158 103h1M9 120h1M156 135h1M35 139h1M100 140h1M145 140h1" />
<path stroke="#a2a2a3" d="M120 2h1M123 2h1M73 4h1M81 5h1M117 8h1M9 35h1M149 36h1M146 102h1M158 102h1M152 108h1M3 116h1M58 136h1M97 136h1M59 138h1M22 139h1" />
<path stroke="#ffffff" d="M7 4h3M27 4h1M48 4h3M68 4h1M89 4h2M108 4h1M129 4h2M148 4h1M5 5h7M25 5h5M46 5h7M66 5h5M87 5h6M106 5h5M127 5h6M146 5h5M4 6h9M24 6h7M45 6h9M65 6h1M67 6h5M86 6h8M105 6h7M126 6h8M145 6h7M4 7h9M24 7h7M45 7h9M65 7h7M86 7h8M105 7h7M126 7h8M145 7h7M3 8h11M23 8h9M44 8h11M64 8h9M85 8h10M105 8h8M125 8h10M144 8h2M147 8h6M3 9h5M9 9h5M23 9h4M28 9h4M44 9h5M50 9h5M65 9h3M69 9h4M85 9h4M90 9h5M104 9h4M109 9h4M125 9h4M130 9h5M144 9h4M149 9h2M152 9h1M2 10h5M10 10h5M22 10h4M29 10h4M44 10h4M51 10h5M63 10h4M70 10h4M84 10h4M91 10h5M103 10h4M110 10h4M124 10h4M131 10h5M143 10h4M150 10h1M152 10h2M1 11h5M11 11h5M21 11h4M30 11h4M42 11h5M52 11h5M62 11h4M71 11h4M83 11h4M92 11h5M102 11h4M111 11h4M123 11h4M132 11h5M142 11h4M151 11h4M1 12h6M10 12h7M20 12h1M22 12h4M29 12h6M41 12h7M51 12h7M61 12h6M70 12h6M82 12h6M91 12h7M101 12h6M110 12h6M122 12h6M131 12h7M141 12h6M150 12h6M1 13h7M9 13h8M18 13h9M28 13h10M39 13h10M50 13h18M69 13h20M90 13h4M95 13h13M109 13h20M130 13h16M147 13h1M149 13h10M1 14h5M7 14h152M1 15h14M145 15h14M1 16h4M7 16h8M145 16h8M155 16h1M157 16h2M1 17h2M8 17h7M146 17h6M157 17h2M8 18h5M147 18h5M8 19h4M148 19h4M8 20h2M150 20h2M1 30h1M5 30h2M10 30h2M148 30h2M153 30h2M158 30h1M1 31h2M5 31h3M10 31h3M147 31h3M152 31h3M157 31h2M1 32h3M6 32h3M11 32h3M146 32h3M151 32h3M156 32h3M2 33h3M7 33h3M12 33h3M145 33h3M150 33h3M155 33h3M3 34h2M8 34h2M13 34h2M145 34h2M150 34h2M155 34h2M146 48h1M154 48h1M5 49h1M13 49h1M146 49h1M153 49h1M6 50h1M13 50h1M145 50h1M157 50h1M2 51h1M14 51h1M151 51h1M156 51h1M3 52h1M8 52h1M150 52h1M9 53h1M149 53h1M10 54h1M147 54h1M154 54h1M5 55h1M12 55h1M146 56h1M13 57h1M145 57h1M150 57h1M9 58h1M14 58h1M149 58h1M10 59h1M148 59h1M153 59h1M6 60h1M11 60h1M152 60h1M158 60h1M1 61h1M7 61h1M156 61h1M3 62h1M148 64h1M153 64h1M6 65h1M11 65h1M147 65h1M152 65h1M158 65h1M1 66h1M7 66h1M12 66h1M146 66h1M151 66h1M157 66h1M2 67h1M8 67h1M13 67h1M145 67h1M150 67h1M156 67h1M3 68h1M9 68h1M14 68h1M147 69h1M154 69h1M5 70h1M12 70h1M147 70h1M153 70h1M6 71h1M12 71h1M13 72h1M150 73h1M157 73h1M2 74h1M9 74h1M149 74h1M156 74h1M3 75h1M10 75h1M148 75h1M11 76h1M154 76h1M5 77h1M147 77h1M12 78h1M158 78h1M1 79h1M146 79h1M152 79h1M156 79h1M3 80h1M7 80h1M13 80h1M145 80h1M151 80h1M8 81h1M14 81h1M148 82h1M153 82h1M158 82h1M1 83h1M6 83h1M11 83h1M147 83h1M152 83h1M157 83h1M2 84h1M7 84h1M12 84h1M146 84h1M151 84h1M156 84h1M3 85h1M8 85h1M13 85h1M145 85h1M150 85h1M9 86h1M14 86h1M147 87h1M153 87h1M6 88h1M12 88h1M147 88h1M152 88h1M157 88h1M2 89h1M7 89h1M12 89h1M146 89h1M156 89h1M3 90h1M13 90h1M150 90h1M9 91h1M149 91h1M154 91h1M5 92h1M10 92h1M148 92h1M11 93h1M147 94h1M158 94h1M1 95h1M12 95h1M3 109h2M8 109h2M13 109h2M145 109h2M150 109h2M155 109h1M2 110h3M7 110h3M12 110h3M145 110h3M150 110h3M155 110h3M1 111h3M6 111h3M11 111h3M146 111h3M151 111h3M156 111h3M1 112h2M5 112h3M10 112h3M147 112h3M152 112h3M157 112h2M1 113h1M5 113h2M10 113h2M148 113h2M153 113h2M158 113h1M8 123h2M150 123h2M8 124h4M148 124h4M8 125h5M147 125h5M1 126h2M8 126h7M145 126h7M157 126h2M1 127h4M7 127h8M145 127h8M155 127h4M1 128h14M145 128h12M158 128h1M1 129h158M1 130h7M9 130h18M28 130h21M50 130h15M66 130h2M69 130h20M90 130h18M109 130h20M130 130h18M149 130h10M1 131h6M10 131h7M20 131h6M29 131h6M41 131h7M51 131h7M61 131h6M70 131h6M82 131h6M91 131h7M101 131h6M110 131h6M122 131h6M131 131h5M137 131h1M141 131h6M150 131h6M1 132h5M11 132h5M21 132h4M30 132h4M42 132h5M52 132h5M62 132h4M71 132h4M83 132h4M92 132h5M102 132h4M111 132h4M123 132h4M132 132h5M142 132h4M151 132h4M2 133h5M10 133h5M22 133h4M29 133h4M43 133h5M51 133h5M63 133h4M70 133h4M84 133h4M91 133h5M103 133h4M110 133h4M124 133h4M131 133h5M143 133h4M150 133h4M3 134h5M9 134h4M23 134h4M28 134h4M44 134h5M50 134h5M64 134h4M69 134h4M85 134h4M90 134h5M104 134h4M109 134h4M125 134h4M130 134h5M144 134h2M147 134h1M149 134h4M3 135h11M23 135h9M44 135h11M64 135h9M85 135h10M104 135h9M125 135h4M130 135h5M144 135h9M4 136h3M8 136h5M24 136h7M45 136h9M65 136h4M70 136h2M86 136h1M88 136h4M93 136h1M105 136h7M126 136h8M145 136h7M4 137h9M24 137h7M45 137h9M65 137h7M86 137h8M105 137h7M126 137h8M145 137h7M5 138h7M25 138h5M46 138h7M66 138h5M87 138h6M106 138h5M127 138h6M146 138h5M7 139h3M27 139h1M48 139h3M68 139h1M89 139h2M108 139h1M129 139h2M148 139h1" />
<path stroke="#a2a3a2" d="M120 4h1M83 5h1M42 7h1M99 7h1M12 25h1M11 29h1M146 29h1M145 30h1M2 35h1M2 107h1M60 133h1M78 133h1M69 142h1" />
<path stroke="#000100" d="M147 4h1M1 9h1M37 15h1M79 15h1M159 25h1M144 67h1M15 82h1M15 97h1M20 128h1M77 131h1M32 137h1" />
<path stroke="#000001" d="M0 5h1M2 6h1M1 10h1M38 15h1M15 41h1M0 89h1M66 140h1M141 143h1" />
<path stroke="#feffff" d="M66 6h1M21 12h1M17 13h1M38 13h1M146 13h1M145 17h1M157 128h1M65 130h1M136 131h1M13 134h1M129 135h1M92 136h1" />
<path stroke="#fffeff" d="M104 8h1M146 8h1M64 9h1M151 9h1M156 16h1M146 71h1M156 109h1M146 134h1M69 136h1M87 136h1" />
<path stroke="#515151" d="M8 9h1M27 9h1M49 9h1M68 9h1M89 9h1M108 9h1M129 9h1M148 9h1M7 10h3M26 10h3M48 10h3M67 10h3M88 10h3M107 10h3M128 10h3M147 10h3M6 11h1M8 11h3M25 11h5M47 11h5M66 11h5M87 11h5M106 11h5M127 11h5M146 11h5M7 12h3M26 12h3M48 12h3M67 12h3M88 12h3M107 12h2M128 12h3M147 12h3M8 13h1M27 13h1M49 13h1M68 13h1M89 13h1M108 13h1M129 13h1M148 13h1M1 44h1M158 44h1M1 45h4M14 45h1M145 45h14M1 46h14M145 46h14M1 47h4M6 47h9M145 47h14M1 48h14M145 48h1M147 48h7M155 48h4M1 49h4M6 49h7M14 49h1M145 49h1M147 49h6M154 49h5M1 50h5M7 50h1M9 50h4M14 50h1M146 50h11M158 50h1M1 51h1M3 51h11M145 51h6M152 51h4M157 51h2M1 52h2M4 52h4M9 52h6M145 52h5M151 52h8M1 53h8M10 53h5M145 53h4M150 53h9M1 54h9M11 54h4M145 54h2M148 54h6M155 54h4M1 55h4M6 55h6M13 55h2M145 55h14M1 56h14M147 56h12M1 57h12M14 57h1M146 57h4M151 57h8M1 58h8M10 58h4M145 58h4M150 58h9M1 59h9M11 59h4M145 59h3M149 59h4M154 59h5M1 60h3M5 60h1M7 60h4M12 60h3M145 60h4M150 60h2M153 60h5M2 61h5M8 61h4M13 61h2M145 61h11M157 61h2M1 62h2M4 62h11M145 62h14M1 63h14M145 63h14M1 64h14M145 64h3M149 64h4M154 64h5M1 65h5M7 65h4M12 65h3M145 65h2M149 65h3M153 65h5M2 66h5M8 66h4M13 66h2M145 66h1M147 66h4M152 66h5M158 66h1M1 67h1M3 67h5M9 67h4M14 67h1M146 67h4M151 67h5M157 67h2M1 68h2M4 68h5M10 68h4M145 68h14M1 69h14M145 69h2M148 69h6M155 69h4M1 70h4M6 70h6M13 70h2M145 70h2M148 70h5M154 70h5M1 71h5M7 71h5M13 71h2M145 71h1M147 71h12M1 72h12M14 72h1M145 72h14M1 73h14M146 73h4M151 73h6M158 73h1M1 74h1M3 74h6M10 74h5M145 74h4M150 74h6M157 74h2M1 75h2M4 75h6M11 75h4M145 75h3M149 75h4M154 75h5M1 76h10M12 76h3M145 76h9M155 76h4M1 77h4M6 77h9M145 77h2M148 77h11M1 78h11M13 78h2M145 78h13M2 79h13M145 79h1M147 79h5M153 79h3M157 79h2M1 80h2M4 80h3M8 80h5M14 80h1M146 80h5M152 80h7M1 81h7M9 81h5M145 81h6M152 81h7M1 82h14M145 82h3M149 82h4M154 82h4M2 83h4M7 83h4M12 83h3M145 83h2M148 83h4M153 83h4M158 83h1M1 84h1M3 84h4M8 84h4M13 84h2M145 84h1M147 84h4M152 84h4M157 84h2M1 85h2M4 85h4M9 85h4M14 85h1M146 85h4M151 85h8M1 86h8M10 86h4M145 86h3M149 86h10M1 87h14M145 87h2M148 87h5M154 87h5M1 88h5M7 88h5M13 88h2M145 88h2M148 88h2M151 88h1M153 88h4M158 88h1M1 89h1M3 89h4M8 89h4M13 89h2M145 89h1M147 89h9M158 89h1M1 90h2M4 90h9M14 90h1M145 90h5M151 90h8M1 91h8M10 91h5M145 91h4M150 91h4M155 91h4M1 92h4M6 92h4M11 92h4M145 92h3M149 92h10M1 93h5M7 93h4M12 93h3M145 93h14M1 94h14M145 94h2M148 94h10M2 95h10M13 95h2M145 95h14M2 96h13M145 96h14M1 97h14M145 97h14M1 98h4M14 98h1M145 98h1M155 98h4M1 99h1M158 99h1M8 130h1M27 130h1M49 130h1M68 130h1M89 130h1M108 130h1M129 130h1M148 130h1M7 131h3M26 131h3M48 131h3M67 131h3M88 131h3M107 131h3M128 131h3M147 131h3M6 132h5M25 132h5M47 132h5M66 132h5M87 132h5M106 132h5M127 132h5M146 132h5M7 133h3M26 133h3M48 133h3M67 133h3M88 133h3M107 133h3M128 133h3M147 133h3M8 134h1M27 134h1M49 134h1M68 134h1M89 134h1M108 134h1M129 134h1M148 134h1" />
<path stroke="#fffffe" d="M43 10h1M151 10h1M94 13h1M6 14h1M7 136h1" />
<path stroke="#505151" d="M7 11h1M145 56h1M148 65h1M153 75h1M148 86h1M157 89h1M6 93h1" />
<path stroke="#515051" d="M109 12h1M5 47h1M8 50h1M4 60h1M12 61h1M151 81h1M150 88h1M1 96h1" />
<path stroke="#515150" d="M149 60h1M145 73h1" />
</svg>