<svg xmlns="http://www.w3.org/2000/svg" viewBox="0 -0.5 160 144" shape-rendering="crispEdges">
<metadata>Made with Pixels to Svg https://codepen.io/shshaw/pen/XbxvNj</metadata>
<path stroke="#000000" d="M0 0h2M3 0h8M12 0h4M144 0h2M147 0h8M156 0h4M0 1h2M4 1h6M12 1h4M144 1h2M148 1h1M150 1h4M156 1h4M0 2h2M4 2h6M12 2h4M144 2h2M148 2h6M156 2h4M0 3h2M5 3h4M12 3h4M144 3h2M149 3h4M157 3h3M0 4h2M12 4h4M144 4h2M156 4h4M0 5h1M4 5h1M8 5h1M13 5h2M144 5h1M148 5h1M152 5h1M157 5h3M0 6h1M4 6h1M8 6h1M13 6h3M144 6h1M148 6h1M152 6h1M157 6h3M4 7h1M8 7h1M14 7h2M148 7h1M159 7h1M0 8h2M6 8h1M12 8h4M144 8h2M150 8h1M156 8h4M0 9h3M5 9h1M7 9h1M11 9h5M144 9h3M149 9h1M151 9h1M155 9h5M0 10h4M10 10h4M15 10h1M144 10h4M154 10h4M159 10h1M0 11h5M12 11h3M144 11h5M156 11h3M0 12h4M13 12h2M144 12h4M157 12h2M0 13h4M13 13h2M144 13h4M157 13h2M0 14h4M13 14h1M15 14h1M144 14h4M157 14h1M159 14h1M0 15h26M27 15h108M136 15h24M15 16h1M144 16h1M15 17h1M144 17h1M15 18h1M144 18h1M15 19h1M144 19h1M15 20h1M144 20h1M15 21h1M144 21h1M15 22h1M144 22h1M15 23h1M144 23h1M15 24h1M144 24h1M15 25h1M144 25h1M15 26h1M144 26h1M15 27h1M144 27h1M15 28h1M144 28h1M15 29h1M144 29h1M15 30h1M144 30h1M15 31h1M144 31h1M144 32h1M15 33h1M144 33h1M15 34h1M144 34h1M15 35h1M144 35h1M15 36h1M144 36h1M15 37h1M144 37h1M15 38h1M144 38h1M15 39h1M144 39h1M15 40h1M144 40h1M15 41h1M144 41h1M15 42h1M144 42h1M15 43h1M144 43h1M15 44h1M144 44h1M15 45h1M144 45h1M15 46h1M144 46h1M15 47h1M144 47h1M15 48h1M144 48h1M15 49h1M144 49h1M15 50h1M144 50h1M15 51h1M144 51h1M15 52h1M144 52h1M15 53h1M144 53h1M15 54h1M144 54h1M15 55h1M144 55h1M15 56h1M144 56h1M15 57h1M144 57h1M15 58h1M144 58h1M15 59h1M144 59h1M15 60h1M144 60h1M15 61h1M144 61h1M15 62h1M144 62h1M15 63h1M144 63h1M15 64h1M144 64h1M15 65h1M144 65h1M15 66h1M144 66h1M15 67h1M144 67h1M15 68h1M144 68h1M15 69h1M144 69h1M15 70h1M144 70h1M15 71h1M144 71h1M15 72h1M144 72h1M15 73h1M144 73h1M15 74h1M144 74h1M15 75h1M144 75h1M15 76h1M144 76h1M15 77h1M144 77h1M15 78h1M144 78h1M15 79h1M144 79h1M15 80h1M144 80h1M15 81h1M144 81h1M15 82h1M144 82h1M15 83h1M144 83h1M15 84h1M144 84h1M15 85h1M144 85h1M15 86h1M144 86h1M15 87h1M144 87h1M15 88h1M144 88h1M15 89h1M144 89h1M15 90h1M144 90h1M15 91h1M144 91h1M15 92h1M144 92h1M15 93h1M144 93h1M15 94h1M144 94h1M15 95h1M144 95h1M15 96h1M144 96h1M15 97h1M144 97h1M15 98h1M144 98h1M15 99h1M144 99h1M15 100h1M144 100h1M15 101h1M144 101h1M15 102h1M144 102h1M15 103h1M144 103h1M15 104h1M144 104h1M15 105h1M144 105h1M15 106h1M144 106h1M15 107h1M144 107h1M15 108h1M144 108h1M15 109h1M144 109h1M15 110h1M144 110h1M15 111h1M144 111h1M15 112h1M144 112h1M15 113h1M144 113h1M15 114h1M144 114h1M15 115h1M144 115h1M15 116h1M144 116h1M15 117h1M144 117h1M15 118h1M144 118h1M15 119h1M144 119h1M15 120h1M144 120h1M15 121h1M144 121h1M15 122h1M144 122h1M15 123h1M144 123h1M15 124h1M144 124h1M15 125h1M144 125h1M15 126h1M15 127h1M144 127h1M0 128h2M3 128h8M12 128h13M26 128h27M54 128h20M75 128h71M147 128h8M156 128h4M0 129h2M4 129h6M12 129h4M144 129h2M148 129h6M156 129h4M0 130h1M4 130h6M12 130h4M144 130h2M148 130h4M153 130h1M156 130h4M0 131h2M6 131h3M13 131h3M144 131h2M149 131h4M156 131h4M0 132h2M12 132h4M144 132h2M156 132h4M0 133h1M4 133h1M8 133h1M13 133h3M144 133h1M148 133h1M152 133h1M157 133h3M0 134h1M4 134h1M8 134h1M13 134h3M144 134h1M148 134h1M152 134h1M157 134h3M4 135h1M8 135h1M14 135h2M148 135h1M152 135h1M158 135h2M0 136h2M6 136h1M13 136h3M144 136h2M150 136h1M156 136h4M1 137h2M5 137h1M7 137h1M11 137h5M144 137h3M149 137h1M151 137h1M155 137h5M0 138h4M10 138h4M15 138h1M144 138h4M154 138h4M159 138h1M0 139h5M12 139h3M144 139h5M156 139h3M0 140h4M13 140h2M144 140h4M157 140h2M0 141h4M13 141h2M144 141h4M157 141h2M0 142h4M15 142h1M144 142h4M157 142h1M159 142h1M0 143h16M144 143h16" />
<path stroke="#a2a2a2" d="M2 0h1M11 0h1M22 0h3M54 0h3M86 0h3M118 0h3M146 0h1M155 0h1M21 1h5M53 1h5M85 1h5M117 1h5M21 2h5M53 2h5M85 2h5M117 2h5M4 3h1M9 3h1M18 3h2M21 3h5M27 3h3M50 3h2M53 3h5M59 3h3M82 3h2M85 3h5M91 3h3M114 3h2M117 3h5M123 3h3M148 3h1M153 3h1M17 4h4M22 4h3M26 4h5M49 4h4M54 4h3M58 4h5M81 4h4M86 4h3M90 4h5M113 4h4M118 4h3M122 4h5M1 5h1M12 5h1M17 5h14M49 5h14M81 5h11M93 5h2M113 5h14M145 5h1M156 5h1M17 6h6M24 6h7M49 6h6M56 6h7M81 6h6M88 6h7M113 6h6M120 6h5M126 6h1M18 7h4M25 7h5M50 7h4M57 7h5M82 7h4M89 7h5M115 7h3M121 7h5M2 8h1M11 8h1M20 8h2M25 8h2M52 8h2M57 8h2M84 8h2M89 8h2M116 8h2M121 8h2M146 8h1M155 8h1M3 9h1M10 9h1M18 9h5M24 9h6M50 9h5M56 9h6M82 9h5M88 9h6M114 9h5M120 9h4M125 9h1M147 9h1M154 9h1M4 10h1M17 10h14M49 10h14M81 10h14M113 10h14M148 10h1M5 11h1M11 11h1M17 11h8M26 11h5M49 11h2M52 11h5M58 11h5M81 11h8M90 11h5M113 11h8M122 11h5M149 11h1M155 11h1M4 12h1M12 12h1M17 12h4M22 12h4M27 12h4M49 12h4M54 12h4M59 12h4M81 12h4M86 12h4M91 12h4M113 12h4M118 12h4M123 12h4M148 12h1M156 12h1M18 13h2M22 13h4M28 13h2M50 13h2M54 13h4M61 13h1M82 13h2M86 13h4M92 13h2M114 13h2M118 13h4M124 13h2M23 14h2M55 14h2M87 14h2M119 14h2M5 33h3M151 33h3M4 34h5M150 34h5M4 35h5M150 35h5M1 36h2M4 36h5M10 36h3M147 36h2M150 36h5M156 36h3M0 37h4M5 37h3M9 37h5M146 37h4M151 37h3M155 37h5M0 38h14M146 38h14M1 39h5M7 39h7M146 39h6M153 39h7M1 40h4M8 40h5M147 40h4M154 40h5M3 41h2M8 41h2M149 41h2M154 41h2M1 42h5M7 42h6M147 42h5M153 42h6M0 43h14M146 43h14M0 44h8M9 44h5M146 44h8M155 44h5M0 45h4M5 45h4M10 45h4M146 45h4M151 45h4M156 45h4M1 46h2M5 46h4M11 46h2M147 46h2M151 46h4M157 46h2M6 47h2M152 47h2M5 65h3M151 65h3M4 66h5M150 66h5M4 67h5M150 67h5M1 68h2M4 68h5M10 68h3M147 68h2M150 68h5M156 68h3M0 69h4M5 69h3M9 69h5M146 69h4M151 69h3M155 69h5M0 70h12M13 70h1M146 70h14M0 71h6M7 71h7M146 71h5M153 71h7M1 72h4M8 72h5M147 72h4M154 72h5M3 73h2M8 73h2M149 73h2M154 73h2M1 74h5M7 74h6M147 74h5M153 74h6M0 75h14M146 75h1M148 75h11M0 76h8M9 76h5M146 76h8M155 76h5M0 77h4M5 77h4M10 77h4M146 77h4M151 77h4M156 77h4M1 78h2M5 78h4M11 78h2M147 78h2M151 78h4M157 78h2M6 79h2M152 79h2M5 97h3M152 97h2M4 98h5M150 98h5M4 99h5M150 99h5M1 100h2M4 100h5M10 100h3M147 100h2M150 100h5M156 100h3M0 101h4M5 101h3M9 101h5M146 101h4M151 101h3M155 101h5M0 102h14M146 102h14M0 103h6M7 103h7M146 103h6M153 103h7M1 104h4M8 104h5M147 104h4M154 104h5M3 105h2M8 105h2M149 105h2M154 105h2M1 106h5M7 106h6M147 106h5M153 106h6M0 107h14M146 107h14M0 108h8M9 108h5M146 108h8M155 108h5M0 109h4M5 109h4M10 109h4M146 109h4M151 109h4M156 109h4M1 110h2M5 110h4M11 110h2M147 110h2M151 110h4M157 110h2M6 111h2M152 111h2M2 128h1M11 128h1M146 128h1M155 128h1M38 129h3M70 129h3M102 129h3M134 129h3M37 130h5M69 130h5M101 130h5M133 130h5M4 131h1M9 131h1M37 131h5M69 131h5M101 131h5M133 131h1M135 131h3M148 131h1M153 131h1M34 132h2M37 132h5M43 132h3M66 132h2M69 132h5M75 132h3M98 132h2M101 132h5M107 132h3M130 132h2M133 132h5M139 132h3M1 133h1M12 133h1M33 133h4M38 133h3M42 133h5M65 133h4M70 133h3M74 133h5M97 133h4M102 133h3M106 133h5M129 133h4M134 133h3M138 133h5M145 133h1M156 133h1M33 134h14M65 134h14M97 134h14M129 134h14M33 135h6M40 135h7M65 135h6M72 135h7M97 135h6M104 135h7M129 135h6M136 135h7M2 136h1M11 136h1M34 136h4M41 136h5M66 136h4M73 136h5M98 136h4M105 136h5M130 136h4M137 136h5M146 136h1M155 136h1M3 137h1M10 137h1M36 137h2M41 137h2M68 137h2M73 137h2M100 137h2M105 137h2M132 137h2M137 137h2M154 137h1M4 138h1M34 138h5M40 138h4M45 138h1M66 138h5M72 138h6M98 138h5M104 138h6M130 138h5M136 138h6M148 138h1M5 139h1M11 139h1M33 139h14M65 139h14M97 139h14M129 139h14M149 139h1M155 139h1M4 140h1M12 140h1M33 140h8M42 140h5M65 140h8M74 140h1M76 140h3M97 140h8M106 140h5M129 140h8M138 140h5M148 140h1M156 140h1M33 141h4M38 141h4M43 141h4M65 141h4M70 141h4M75 141h4M97 141h4M102 141h4M107 141h4M129 141h4M134 141h4M140 141h3M34 142h2M38 142h4M44 142h2M66 142h2M70 142h4M76 142h2M98 142h2M102 142h4M108 142h2M130 142h2M134 142h4M140 142h2M39 143h2M71 143h2M103 143h2M135 143h2" />
<path stroke="#ffffff" d="M16 0h6M25 0h13M41 0h13M57 0h13M73 0h8M82 0h4M89 0h12M105 0h13M121 0h13M137 0h7M2 1h2M10 1h2M16 1h5M26 1h11M42 1h11M58 1h11M74 1h11M90 1h11M106 1h11M122 1h11M138 1h6M146 1h2M154 1h2M2 2h2M10 2h2M16 2h5M26 2h11M42 2h11M58 2h11M74 2h11M90 2h11M106 2h11M122 2h11M138 2h6M146 2h2M154 2h2M2 3h2M10 3h2M16 3h2M20 3h1M26 3h1M30 3h4M36 3h1M42 3h1M46 3h4M52 3h1M58 3h1M62 3h4M68 3h1M74 3h1M78 3h4M84 3h1M90 3h1M94 3h4M100 3h1M106 3h1M110 3h4M116 3h1M122 3h1M126 3h4M132 3h1M138 3h1M142 3h2M146 3h2M154 3h2M2 4h10M16 4h1M21 4h1M25 4h1M31 4h2M37 4h1M41 4h1M47 4h2M53 4h1M57 4h1M63 4h2M69 4h1M73 4h1M79 4h2M89 4h1M95 4h2M101 4h1M105 4h1M111 4h2M117 4h1M121 4h1M127 4h2M133 4h1M137 4h1M143 4h1M146 4h10M2 5h2M5 5h3M9 5h3M16 5h1M31 5h2M47 5h2M63 5h2M79 5h2M95 5h2M111 5h2M127 5h2M143 5h1M146 5h2M149 5h3M153 5h3M1 6h3M5 6h3M9 6h4M16 6h1M23 6h1M31 6h2M39 6h1M47 6h2M55 6h1M63 6h2M79 6h2M87 6h1M95 6h2M103 6h1M111 6h2M119 6h1M127 6h2M135 6h1M143 6h1M145 6h3M149 6h3M153 6h4M0 7h4M5 7h3M9 7h5M16 7h2M22 7h3M30 7h4M38 7h3M46 7h4M54 7h3M62 7h4M70 7h3M78 7h4M86 7h3M94 7h4M102 7h3M110 7h4M118 7h3M126 7h4M134 7h3M142 7h5M149 7h3M153 7h5M4 8h2M7 8h4M16 8h4M22 8h3M27 8h9M38 8h3M43 8h1M45 8h7M54 8h3M59 8h9M70 8h3M75 8h9M86 8h2M91 8h9M102 8h3M107 8h9M118 8h3M123 8h9M134 8h3M139 8h5M147 8h3M151 8h4M4 9h1M6 9h1M8 9h2M16 9h2M23 9h1M30 9h4M39 9h1M46 9h4M55 9h1M62 9h4M71 9h1M78 9h4M87 9h1M94 9h4M103 9h1M110 9h4M119 9h1M126 9h4M135 9h1M142 9h2M148 9h1M150 9h1M152 9h2M5 10h5M14 10h1M16 10h1M31 10h2M47 10h2M63 10h2M79 10h2M95 10h2M111 10h2M127 10h2M143 10h1M149 10h5M158 10h1M6 11h5M15 11h2M25 11h1M31 11h2M41 11h1M47 11h2M57 11h1M63 11h2M73 11h1M79 11h2M89 11h1M95 11h2M105 11h1M111 11h2M121 11h1M127 11h2M137 11h1M143 11h1M150 11h5M159 11h1M5 12h7M15 12h2M21 12h1M26 12h1M31 12h2M37 12h1M42 12h1M47 12h2M53 12h1M58 12h1M63 12h2M69 12h1M74 12h1M79 12h2M85 12h1M90 12h1M95 12h2M101 12h1M106 12h1M111 12h2M117 12h1M122 12h1M127 12h2M133 12h1M138 12h1M143 12h1M149 12h7M159 12h1M4 13h9M15 13h3M20 13h2M26 13h2M30 13h4M36 13h2M42 13h2M46 13h4M52 13h2M58 13h2M62 13h4M68 13h2M74 13h2M78 13h4M84 13h2M90 13h2M94 13h4M100 13h2M106 13h2M110 13h4M116 13h2M122 13h1M126 13h4M132 13h2M138 13h2M142 13h2M148 13h9M4 14h9M14 14h1M16 14h7M25 14h14M41 14h14M57 14h14M73 14h14M89 14h14M105 14h14M121 14h14M137 14h7M148 14h9M158 14h1M0 16h15M145 16h15M0 17h5M8 17h7M145 17h6M154 17h6M0 18h4M9 18h6M145 18h5M155 18h5M0 19h4M9 19h6M145 19h5M155 19h5M0 20h1M3 20h1M9 20h1M13 20h2M145 20h2M149 20h1M155 20h1M159 20h1M4 21h1M8 21h1M14 21h1M145 21h1M150 21h1M154 21h1M14 22h1M145 22h1M6 23h1M14 23h1M145 23h1M152 23h1M0 24h1M5 24h3M13 24h2M145 24h2M151 24h3M159 24h1M0 25h3M5 25h3M10 25h5M145 25h4M151 25h3M156 25h4M0 26h1M6 26h1M13 26h2M145 26h2M152 26h1M159 26h1M14 27h1M145 27h1M8 28h1M14 28h1M145 28h1M154 28h1M4 29h1M9 29h1M14 29h1M145 29h1M150 29h1M155 29h1M0 30h1M3 30h2M9 30h2M13 30h2M145 30h2M149 30h2M155 30h2M159 30h1M0 31h6M8 31h7M145 31h7M154 31h6M0 32h15M145 32h15M0 33h5M8 33h3M12 33h3M145 33h6M154 33h6M0 34h4M9 34h6M145 34h5M155 34h5M0 35h4M9 35h6M145 35h5M155 35h5M0 36h1M3 36h1M9 36h1M13 36h2M145 36h2M149 36h1M155 36h1M159 36h1M4 37h1M8 37h1M14 37h1M145 37h1M150 37h1M154 37h1M14 38h1M145 38h1M6 39h1M14 39h1M145 39h1M152 39h1M0 40h1M5 40h3M13 40h2M145 40h2M151 40h3M159 40h1M0 41h3M5 41h3M10 41h5M145 41h4M151 41h3M156 41h4M0 42h1M6 42h1M13 42h2M145 42h2M152 42h1M159 42h1M14 43h1M145 43h1M8 44h1M14 44h1M145 44h1M154 44h1M4 45h1M9 45h1M14 45h1M145 45h1M150 45h1M155 45h1M0 46h1M3 46h2M9 46h2M13 46h2M145 46h2M149 46h2M155 46h2M159 46h1M0 47h6M8 47h7M145 47h7M154 47h6M0 48h15M145 48h15M0 49h5M8 49h7M145 49h6M154 49h5M0 50h4M9 50h6M145 50h5M155 50h5M0 51h4M9 51h6M145 51h5M155 51h5M0 52h1M3 52h1M9 52h1M13 52h2M145 52h2M149 52h1M155 52h1M159 52h1M4 53h1M8 53h1M14 53h1M145 53h1M150 53h1M154 53h1M14 54h1M145 54h1M6 55h1M14 55h1M145 55h1M152 55h1M0 56h1M5 56h3M13 56h2M145 56h2M151 56h3M159 56h1M0 57h3M5 57h3M10 57h5M145 57h4M151 57h3M156 57h4M0 58h1M6 58h1M13 58h2M145 58h2M152 58h1M159 58h1M14 59h1M145 59h1M8 60h1M14 60h1M145 60h1M154 60h1M4 61h1M9 61h1M14 61h1M145 61h1M150 61h1M155 61h1M0 62h1M3 62h2M9 62h2M13 62h2M145 62h2M149 62h2M155 62h2M159 62h1M0 63h6M8 63h7M145 63h7M154 63h6M0 64h15M145 64h5M151 64h9M0 65h5M8 65h7M145 65h6M154 65h3M158 65h2M0 66h4M9 66h6M145 66h5M155 66h5M0 67h4M9 67h6M145 67h5M155 67h5M0 68h1M3 68h1M9 68h1M13 68h2M145 68h2M149 68h1M155 68h1M159 68h1M4 69h1M8 69h1M14 69h1M145 69h1M150 69h1M154 69h1M14 70h1M145 70h1M6 71h1M14 71h1M145 71h1M152 71h1M0 72h1M5 72h3M13 72h2M145 72h2M151 72h3M159 72h1M0 73h3M5 73h3M10 73h5M145 73h4M151 73h3M156 73h4M0 74h1M6 74h1M13 74h2M145 74h2M152 74h1M159 74h1M14 75h1M145 75h1M8 76h1M14 76h1M145 76h1M4 77h1M9 77h1M14 77h1M145 77h1M150 77h1M155 77h1M0 78h1M3 78h2M9 78h2M13 78h2M145 78h2M149 78h2M155 78h2M159 78h1M0 79h6M8 79h7M145 79h7M154 79h6M0 80h15M145 80h15M0 81h5M8 81h7M145 81h6M154 81h6M0 82h4M9 82h6M145 82h5M155 82h5M0 83h4M9 83h6M145 83h5M155 83h5M0 84h1M3 84h1M9 84h1M13 84h2M145 84h2M149 84h1M155 84h1M159 84h1M4 85h1M8 85h1M14 85h1M145 85h1M150 85h1M154 85h1M14 86h1M145 86h1M6 87h1M14 87h1M145 87h1M152 87h1M0 88h1M5 88h3M13 88h2M145 88h2M151 88h3M159 88h1M0 89h3M5 89h3M10 89h5M145 89h4M151 89h3M156 89h4M0 90h1M6 90h1M13 90h2M145 90h2M152 90h1M159 90h1M14 91h1M145 91h1M8 92h1M14 92h1M145 92h1M154 92h1M4 93h1M14 93h1M145 93h1M150 93h1M155 93h1M0 94h1M3 94h2M9 94h2M13 94h2M145 94h2M149 94h2M155 94h2M159 94h1M0 95h6M8 95h7M145 95h7M154 95h6M0 96h15M145 96h14M0 97h5M8 97h7M145 97h6M154 97h6M0 98h4M9 98h1M11 98h4M145 98h3M149 98h1M155 98h5M0 99h4M9 99h6M145 99h5M155 99h5M0 100h1M3 100h1M9 100h1M13 100h2M145 100h1M149 100h1M155 100h1M159 100h1M4 101h1M8 101h1M14 101h1M145 101h1M150 101h1M154 101h1M14 102h1M145 102h1M6 103h1M14 103h1M145 103h1M152 103h1M0 104h1M5 104h3M13 104h2M145 104h2M151 104h3M159 104h1M0 105h3M5 105h3M10 105h5M145 105h4M151 105h3M156 105h4M0 106h1M6 106h1M13 106h2M145 106h2M152 106h1M159 106h1M14 107h1M8 108h1M14 108h1M145 108h1M154 108h1M4 109h1M9 109h1M14 109h1M145 109h1M150 109h1M155 109h1M0 110h1M3 110h2M9 110h2M13 110h2M145 110h2M149 110h2M155 110h2M159 110h1M0 111h6M8 111h7M145 111h7M154 111h6M0 112h15M145 112h15M0 113h5M8 113h7M145 113h6M154 113h6M0 114h4M9 114h6M145 114h5M155 114h5M0 115h4M9 115h6M145 115h5M155 115h5M0 116h1M3 116h1M9 116h1M13 116h2M145 116h2M149 116h1M155 116h1M159 116h1M4 117h1M8 117h1M14 117h1M150 117h1M154 117h1M14 118h1M145 118h1M6 119h1M14 119h1M145 119h1M152 119h1M0 120h1M5 120h3M13 120h2M145 120h2M151 120h3M159 120h1M0 121h3M5 121h3M10 121h5M145 121h4M151 121h3M156 121h4M0 122h1M6 122h1M13 122h2M145 122h2M152 122h1M159 122h1M14 123h1M145 123h1M8 124h1M14 124h1M145 124h1M4 125h1M9 125h1M14 125h1M145 125h1M150 125h1M155 125h1M0 126h1M3 126h2M9 126h2M13 126h2M145 126h2M149 126h2M155 126h2M159 126h1M0 127h6M8 127h7M145 127h7M154 127h6M2 129h2M10 129h2M16 129h6M25 129h13M41 129h13M57 129h13M73 129h13M89 129h13M105 129h13M121 129h13M137 129h5M143 129h1M146 129h2M154 129h2M2 130h2M10 130h2M16 130h5M27 130h10M42 130h11M58 130h11M74 130h11M90 130h11M106 130h11M122 130h11M138 130h6M146 130h2M154 130h2M2 131h2M10 131h2M16 131h5M26 131h11M42 131h11M58 131h11M74 131h11M90 131h11M106 131h11M122 131h11M138 131h6M146 131h2M154 131h2M2 132h10M16 132h2M20 132h1M26 132h1M30 132h4M36 132h1M42 132h1M46 132h4M52 132h1M58 132h1M62 132h4M68 132h1M74 132h1M78 132h4M84 132h1M90 132h1M94 132h4M100 132h1M106 132h1M110 132h4M116 132h1M122 132h1M126 132h4M132 132h1M138 132h1M142 132h2M146 132h10M2 133h2M5 133h3M9 133h3M16 133h1M21 133h1M25 133h1M31 133h2M37 133h1M41 133h1M47 133h2M53 133h1M57 133h1M63 133h2M69 133h1M73 133h1M79 133h2M85 133h1M89 133h1M95 133h2M101 133h1M105 133h1M111 133h2M117 133h1M121 133h1M127 133h2M133 133h1M137 133h1M143 133h1M146 133h2M149 133h3M153 133h3M1 134h3M5 134h3M9 134h4M16 134h1M31 134h2M47 134h2M63 134h2M79 134h2M95 134h1M111 134h2M127 134h2M143 134h1M145 134h3M149 134h3M153 134h4M0 135h4M5 135h3M9 135h1M11 135h3M16 135h1M23 135h1M31 135h2M39 135h1M47 135h2M55 135h1M63 135h2M71 135h1M79 135h2M87 135h1M95 135h2M103 135h1M111 135h2M119 135h1M127 135h2M135 135h1M143 135h5M149 135h3M153 135h5M3 136h3M7 136h4M16 136h2M22 136h3M30 136h4M38 136h3M46 136h2M49 136h1M54 136h3M62 136h4M70 136h3M78 136h4M86 136h3M94 136h4M102 136h3M110 136h4M118 136h3M126 136h3M134 136h3M142 136h2M147 136h3M151 136h4M4 137h1M6 137h1M8 137h2M16 137h4M22 137h3M27 137h9M38 137h3M43 137h9M54 137h3M59 137h9M70 137h3M75 137h9M86 137h3M91 137h9M102 137h3M107 137h9M118 137h3M123 137h9M134 137h3M139 137h5M148 137h1M150 137h1M152 137h2M5 138h5M14 138h1M16 138h2M23 138h1M30 138h4M39 138h1M46 138h4M55 138h1M62 138h4M71 138h1M78 138h4M87 138h1M94 138h4M103 138h1M110 138h4M119 138h1M126 138h4M135 138h1M142 138h2M149 138h5M158 138h1M6 139h5M15 139h2M31 139h2M47 139h2M63 139h2M79 139h2M95 139h2M111 139h2M127 139h2M143 139h1M150 139h5M159 139h1M5 140h4M10 140h2M15 140h2M25 140h1M31 140h2M41 140h1M47 140h2M57 140h1M63 140h1M73 140h1M79 140h2M89 140h1M95 140h2M105 140h1M111 140h2M121 140h1M127 140h2M137 140h1M143 140h1M149 140h7M159 140h1M4 141h9M15 141h2M21 141h1M26 141h1M31 141h2M37 141h1M42 141h1M47 141h2M53 141h1M58 141h1M63 141h2M69 141h1M74 141h1M79 141h2M85 141h1M90 141h1M95 141h1M101 141h1M106 141h1M111 141h2M117 141h1M122 141h1M127 141h2M133 141h1M138 141h1M143 141h1M148 141h9M159 141h1M4 142h9M14 142h1M16 142h2M20 142h2M26 142h2M30 142h4M36 142h2M42 142h2M46 142h4M52 142h2M58 142h2M62 142h4M68 142h2M74 142h2M78 142h4M84 142h2M90 142h2M94 142h4M100 142h2M106 142h2M110 142h4M116 142h2M122 142h2M126 142h2M129 142h1M132 142h2M138 142h2M142 142h2M148 142h9M158 142h1M17 143h6M25 143h14M41 143h14M57 143h14M73 143h14M89 143h14M105 143h14M121 143h14M137 143h5M143 143h1" />
<path stroke="#515151" d="M38 0h3M70 0h3M102 0h3M134 0h3M37 1h5M69 1h5M101 1h5M133 1h5M37 2h5M69 2h5M101 2h5M133 2h5M34 3h1M37 3h5M43 3h3M66 3h2M69 3h5M75 3h3M98 3h2M101 3h5M107 3h3M130 3h2M133 3h5M139 3h2M33 4h4M38 4h3M42 4h2M45 4h2M65 4h4M70 4h3M74 4h3M78 4h1M97 4h4M102 4h3M106 4h5M129 4h4M134 4h3M138 4h5M33 5h14M65 5h14M97 5h14M129 5h14M33 6h6M40 6h7M65 6h6M72 6h7M97 6h6M104 6h7M129 6h6M136 6h7M34 7h4M41 7h5M66 7h3M73 7h5M98 7h4M105 7h5M130 7h4M137 7h5M36 8h2M41 8h2M68 8h2M73 8h2M100 8h2M105 8h2M132 8h2M137 8h2M34 9h4M40 9h6M66 9h5M72 9h6M98 9h5M104 9h1M106 9h4M130 9h5M136 9h6M33 10h14M65 10h14M97 10h12M110 10h1M129 10h14M33 11h3M37 11h4M42 11h5M65 11h8M74 11h5M97 11h8M106 11h5M129 11h8M138 11h1M140 11h3M33 12h4M38 12h4M43 12h4M65 12h4M70 12h4M75 12h4M97 12h4M102 12h4M107 12h4M129 12h4M134 12h4M139 12h4M34 13h2M38 13h4M44 13h2M66 13h2M70 13h4M76 13h2M98 13h2M102 13h4M108 13h2M130 13h2M134 13h4M140 13h1M39 14h2M71 14h2M103 14h2M135 14h2M5 17h3M151 17h3M4 18h5M150 18h5M4 19h5M150 19h5M1 20h2M4 20h5M10 20h3M147 20h2M150 20h5M156 20h3M0 21h4M5 21h3M9 21h5M146 21h4M151 21h3M155 21h5M0 22h14M146 22h12M159 22h1M0 23h6M7 23h7M146 23h6M153 23h7M1 24h4M8 24h5M147 24h4M154 24h5M3 25h2M8 25h2M149 25h2M154 25h2M1 26h5M7 26h6M147 26h5M153 26h6M0 27h14M146 27h13M0 28h8M9 28h5M146 28h8M155 28h5M0 29h4M5 29h4M10 29h4M146 29h4M151 29h4M156 29h4M1 30h2M5 30h4M11 30h2M147 30h2M151 30h4M157 30h2M6 31h2M152 31h2M5 49h3M151 49h3M4 50h5M150 50h5M4 51h4M150 51h5M1 52h2M4 52h5M10 52h3M147 52h2M150 52h5M156 52h3M0 53h4M5 53h3M9 53h5M146 53h4M151 53h1M153 53h1M155 53h5M0 54h14M146 54h14M0 55h6M7 55h7M146 55h6M153 55h5M159 55h1M1 56h4M8 56h5M147 56h1M149 56h2M154 56h5M3 57h2M8 57h2M149 57h2M154 57h2M1 58h5M7 58h6M147 58h5M153 58h6M0 59h14M146 59h14M0 60h4M5 60h3M9 60h5M146 60h8M155 60h5M0 61h4M5 61h4M10 61h4M146 61h4M151 61h4M156 61h4M1 62h2M5 62h4M11 62h2M147 62h2M151 62h4M157 62h2M6 63h2M152 63h2M5 81h3M151 81h3M4 82h5M150 82h5M4 83h5M150 83h5M1 84h2M4 84h5M10 84h3M147 84h2M150 84h5M156 84h3M0 85h4M5 85h3M9 85h5M146 85h4M151 85h3M155 85h5M0 86h14M146 86h14M0 87h6M7 87h7M146 87h6M153 87h7M1 88h4M8 88h5M147 88h4M154 88h5M3 89h2M8 89h2M149 89h2M154 89h2M1 90h5M7 90h6M147 90h5M153 90h6M0 91h14M146 91h14M0 92h8M9 92h5M146 92h8M155 92h5M0 93h4M5 93h4M10 93h4M146 93h4M151 93h4M156 93h4M1 94h2M5 94h4M11 94h2M147 94h2M151 94h4M157 94h2M6 95h2M152 95h2M5 113h3M151 113h3M4 114h5M150 114h5M4 115h5M150 115h5M1 116h2M4 116h5M10 116h3M147 116h2M150 116h5M156 116h3M0 117h4M5 117h3M9 117h5M146 117h4M151 117h3M155 117h5M0 118h14M146 118h14M0 119h6M7 119h7M146 119h6M153 119h7M1 120h4M8 120h5M147 120h4M154 120h5M3 121h2M8 121h2M149 121h2M154 121h2M1 122h5M7 122h6M147 122h5M153 122h6M0 123h14M146 123h14M0 124h8M9 124h5M146 124h8M155 124h5M0 125h4M6 125h3M10 125h4M146 125h4M151 125h4M156 125h4M1 126h2M5 126h4M11 126h2M147 126h2M151 126h4M157 126h2M6 127h2M152 127h2M22 129h3M54 129h3M86 129h3M118 129h3M21 130h5M53 130h5M85 130h5M117 130h5M21 131h5M53 131h5M85 131h5M117 131h5M18 132h2M21 132h5M27 132h3M50 132h2M53 132h5M59 132h1M61 132h1M82 132h2M85 132h3M89 132h1M91 132h3M114 132h2M117 132h5M123 132h3M17 133h4M22 133h3M26 133h5M49 133h4M54 133h3M58 133h1M60 133h3M82 133h3M86 133h3M90 133h5M113 133h4M118 133h3M122 133h5M17 134h14M49 134h14M81 134h14M113 134h2M116 134h11M17 135h6M24 135h7M49 135h3M53 135h2M56 135h7M81 135h6M88 135h7M113 135h6M120 135h7M18 136h4M25 136h5M50 136h4M57 136h5M82 136h4M89 136h5M114 136h4M121 136h5M20 137h2M25 137h2M52 137h2M57 137h2M84 137h2M89 137h2M116 137h2M121 137h2M18 138h5M24 138h5M50 138h5M56 138h6M82 138h5M88 138h6M114 138h2M118 138h1M120 138h6M17 139h14M49 139h14M81 139h14M113 139h5M119 139h1M121 139h6M17 140h7M26 140h5M49 140h8M58 140h5M81 140h8M90 140h5M113 140h8M122 140h5M17 141h4M22 141h4M27 141h4M49 141h4M54 141h4M59 141h4M81 141h4M86 141h4M91 141h4M113 141h4M118 141h4M123 141h4M18 142h2M22 142h4M28 142h2M50 142h2M54 142h4M60 142h2M82 142h2M86 142h4M92 142h2M114 142h2M118 142h4M124 142h2M23 143h2M55 143h2M87 143h1M119 143h2" />
<path stroke="#feffff" d="M81 0h1M88 8h1M157 65h1M9 93h1M159 96h1M10 98h1M148 98h1M146 100h1M145 107h1M26 130h1M64 140h1M96 141h1M128 142h1M16 143h1M142 143h1" />
<path stroke="#fffffe" d="M101 0h1M85 4h1M71 6h1M3 8h1M11 33h1M154 76h1M154 124h1M96 134h1M9 140h1" />
<path stroke="#010000" d="M149 1h1M156 3h1M152 7h1M158 7h1M135 15h1M144 126h1M25 128h1M152 130h1" />
<path stroke="#515150" d="M35 3h1M38 9h1M109 10h1M36 11h1M8 51h1M29 138h1M116 138h1M118 139h1M24 140h1" />
<path stroke="#505151" d="M141 3h1M44 4h1M77 4h1M105 9h1M139 11h1M158 22h1M159 27h1M158 55h1M148 56h1M60 132h1M59 133h1M115 134h1M117 138h1M88 143h1" />
<path stroke="#000001" d="M15 5h1M26 15h1M15 32h1M1 130h1M12 131h1M0 137h1M13 142h1" />
<path stroke="#a2a3a2" d="M92 5h1M114 7h1M124 9h1M60 13h1M12 70h1M134 131h1M139 141h1" />
<path stroke="#a2a2a3" d="M125 6h1M51 11h1M151 97h1M147 137h1M44 138h1M75 140h1" />
<path stroke="#515051" d="M69 7h1M141 13h1M152 53h1M4 60h1M5 125h1M88 132h1M81 133h1M52 135h1M120 139h1" />
<path stroke="#fffeff" d="M147 7h1M44 8h1M123 13h1M159 13h1M159 49h1M150 64h1M145 117h1M142 129h1M10 135h1M48 136h1M129 136h1" />
<path stroke="#a3a2a2" d="M0 39h1M151 71h1M147 75h1M159 75h1" />
<path stroke="#000100" d="M53 128h1M74 128h1M5 131h1M12 136h1" />
</svg>