<svg xmlns="http://www.w3.org/2000/svg" viewBox="0 -0.5 160 144" shape-rendering="crispEdges">
<metadata>Made with Pixels to Svg https://codepen.io/shshaw/pen/XbxvNj</metadata>
<path stroke="#ffffff" d="M94 94h5M92 95h2M99 95h2M91 96h1M101 96h1M106 96h4M114 96h3M120 96h3M124 96h3M128 96h5M90 97h1M102 97h1M105 97h6M114 97h3M120 97h3M124 97h3M128 97h5M90 98h1M94 98h5M102 98h1M105 98h1M109 98h2M113 98h5M120 98h3M124 98h2M128 98h2M89 99h1M93 99h2M99 99h1M103 99h1M105 99h2M113 99h5M120 99h3M124 99h3M128 99h2M89 100h1M93 100h2M99 100h1M103 100h1M105 100h4M113 100h2M116 100h2M121 100h2M124 100h2M128 100h4M89 101h1M93 101h7M103 101h1M105 101h5M113 101h2M116 101h2M121 101h5M128 101h4M89 102h1M93 102h2M99 102h1M103 102h1M107 102h4M113 102h2M116 102h2M121 102h5M128 102h2M89 103h1M93 103h2M99 103h1M103 103h1M110 103h1M113 103h2M116 103h2M121 103h5M128 103h2M90 104h1M93 104h2M99 104h1M102 104h1M105 104h2M109 104h2M112 104h3M116 104h3M121 104h5M128 104h2M90 105h1M102 105h1M105 105h6M112 105h7M122 105h3M128 105h5M101 106h1M105 106h5M112 106h2M117 106h2M122 106h3M128 106h5M92 107h2M99 107h2M94 108h5M94 110h5M92 111h2M99 111h2M91 112h1M101 112h1M107 112h3M113 112h3M119 112h2M123 112h2M128 112h3M133 112h5M139 112h2M90 113h1M102 113h1M106 113h4M113 113h3M119 113h2M123 113h2M127 113h4M133 113h5M139 113h2M90 114h1M93 114h7M102 114h1M106 114h5M112 114h5M119 114h2M123 114h2M127 114h5M133 114h2M139 114h2M89 115h1M93 115h2M103 115h1M105 115h3M109 115h2M112 115h5M119 115h3M123 115h2M126 115h3M130 115h2M133 115h2M139 115h2M89 116h1M93 116h2M99 116h1M103 116h1M105 116h2M109 116h2M112 116h2M115 116h2M119 116h6M126 116h2M130 116h2M133 116h4M139 116h2M89 117h1M93 117h6M103 117h1M105 117h2M112 117h2M115 117h2M119 117h6M126 117h2M133 117h4M139 117h2M89 118h1M93 118h2M99 118h1M103 118h1M105 118h2M112 118h2M115 118h2M119 118h6M126 118h2M133 118h2M139 118h2M89 119h1M93 119h2M99 119h1M103 119h1M105 119h2M109 119h2M112 119h2M115 119h2M119 119h2M122 119h3M126 119h2M130 119h2M133 119h2M139 119h2M90 120h1M93 120h7M102 120h1M106 120h2M109 120h9M119 120h2M123 120h2M127 120h2M130 120h2M133 120h2M139 120h2M90 121h1M102 121h1M106 121h2M109 121h9M119 121h2M123 121h2M127 121h5M133 121h5M139 121h4M91 122h1M101 122h1M107 122h3M111 122h2M116 122h1M119 122h2M123 122h2M128 122h3M133 122h5M139 122h4M92 123h2M99 123h2M94 124h5" />
<path stroke="#000000" d="M94 95h5M105 95h6M113 95h5M119 95h15M92 96h9M104 96h2M110 96h1M113 96h1M117 96h1M119 96h1M123 96h1M127 96h1M133 96h1M91 97h11M104 97h1M111 97h1M113 97h1M117 97h1M119 97h1M123 97h1M127 97h1M133 97h1M91 98h3M99 98h3M104 98h1M107 98h2M111 98h2M118 98h2M123 98h1M127 98h1M130 98h4M90 99h3M95 99h1M97 99h2M100 99h3M104 99h1M107 99h6M118 99h2M123 99h1M127 99h1M130 99h3M90 100h3M95 100h4M100 100h3M104 100h1M109 100h1M112 100h1M115 100h1M118 100h1M120 100h1M123 100h1M126 100h2M132 100h1M90 101h3M100 101h3M104 101h1M110 101h1M112 101h1M115 101h1M118 101h1M120 101h1M126 101h1M132 101h1M90 102h3M95 102h4M100 102h3M105 102h2M111 102h2M115 102h1M118 102h1M120 102h1M126 102h2M130 102h3M90 103h3M95 103h4M100 103h3M104 103h5M111 103h2M115 103h1M118 103h1M120 103h1M126 103h2M130 103h1M91 104h2M95 104h4M100 104h2M104 104h1M107 104h2M111 104h1M119 104h2M126 104h2M130 104h4M91 105h11M104 105h1M111 105h1M119 105h1M125 105h1M127 105h1M133 105h1M92 106h9M104 106h1M110 106h2M114 106h3M119 106h1M121 106h1M125 106h1M127 106h1M133 106h1M94 107h5M105 107h9M116 107h4M122 107h3M127 107h7M94 111h5M106 111h5M112 111h5M118 111h8M127 111h4M132 111h10M92 112h9M105 112h2M110 112h1M112 112h1M116 112h1M118 112h1M121 112h2M125 112h3M131 112h2M138 112h1M141 112h1M91 113h11M105 113h1M110 113h1M112 113h1M116 113h1M118 113h1M121 113h2M125 113h2M131 113h2M138 113h1M141 113h1M91 114h2M100 114h2M104 114h2M111 114h1M117 114h2M121 114h2M125 114h2M132 114h1M135 114h4M141 114h1M90 115h3M95 115h4M100 115h3M104 115h1M108 115h1M111 115h1M117 115h2M122 115h1M125 115h1M129 115h1M132 115h1M135 115h4M141 115h1M90 116h3M95 116h4M100 116h3M104 116h1M107 116h2M114 116h1M117 116h2M125 116h1M128 116h2M132 116h1M137 116h2M141 116h1M90 117h3M99 117h4M104 117h1M107 117h5M114 117h1M117 117h2M125 117h1M128 117h5M137 117h2M141 117h1M90 118h3M95 118h2M98 118h1M100 118h3M104 118h1M107 118h5M114 118h1M117 118h2M125 118h1M128 118h3M132 118h1M135 118h4M141 118h1M90 119h3M95 119h4M100 119h3M104 119h1M107 119h2M111 119h1M114 119h1M117 119h2M121 119h1M125 119h1M128 119h2M132 119h1M135 119h1M138 119h1M141 119h1M91 120h2M100 120h2M104 120h2M108 120h1M118 120h1M121 120h2M125 120h2M129 120h1M132 120h1M135 120h4M141 120h3M91 121h11M105 121h1M118 121h1M121 121h2M125 121h2M132 121h1M138 121h1M143 121h1M92 122h9M105 122h2M110 122h1M113 122h3M118 122h1M121 122h2M125 122h3M131 122h2M138 122h1M143 122h1M94 123h5M106 123h8M115 123h11M127 123h4M132 123h6M140 123h4" />
<path stroke="#010000" d="M111 96h1M96 99h1M127 101h1M131 118h1M138 123h1" />
<path stroke="#feffff" d="M106 98h1M115 104h1" />
<path stroke="#fffffe" d="M126 98h1M109 103h1M91 106h1M117 122h1" />
<path stroke="#000100" d="M121 105h1M139 123h1" />
<path stroke="#000001" d="M114 107h1M111 116h1M97 118h1" />
<path stroke="#fffeff" d="M99 115h1M108 121h1" />
</svg>