<svg xmlns="http://www.w3.org/2000/svg" viewBox="0 -0.5 160 144" shape-rendering="crispEdges">
<metadata>Made with Pixels to Svg https://codepen.io/shshaw/pen/XbxvNj</metadata>
<path stroke="#000000" d="M0 0h160M0 1h160M0 2h78M79 2h2M82 2h78M0 3h78M79 3h2M82 3h78M0 4h73M76 4h2M79 4h5M87 4h73M0 5h72M73 5h5M79 5h2M82 5h2M85 5h2M88 5h72M0 6h72M73 6h5M79 6h2M82 6h2M85 6h3M89 6h71M0 7h71M75 7h3M79 7h2M82 7h2M85 7h3M89 7h71M0 8h72M73 8h5M79 8h2M82 8h2M85 8h3M89 8h71M0 9h72M73 9h5M79 9h2M82 9h2M85 9h2M88 9h72M0 10h72M73 10h5M79 10h2M82 10h2M87 10h73M0 11h72M73 11h11M85 11h75M0 12h72M73 12h11M85 12h75M0 13h160M0 14h160M0 15h160M0 16h16M144 16h16M0 17h16M144 17h16M0 18h16M144 18h16M0 19h16M144 19h16M0 20h16M144 20h16M0 21h16M144 21h16M0 22h16M144 22h16M0 23h16M144 23h16M0 24h16M144 24h16M0 25h16M144 25h16M0 26h16M144 26h16M0 27h16M144 27h16M0 28h16M144 28h16M0 29h16M144 29h16M0 30h16M144 30h16M0 31h16M144 31h16M0 32h16M144 32h16M0 33h16M144 33h16M0 34h16M144 34h16M0 35h16M144 35h16M0 36h16M144 36h16M0 37h16M144 37h16M0 38h16M144 38h16M0 39h16M144 39h16M0 40h16M144 40h16M0 41h16M144 41h16M0 42h16M144 42h16M0 43h16M144 43h16M0 44h16M144 44h16M0 45h16M144 45h16M0 46h16M144 46h16M0 47h16M144 47h16M0 48h16M144 48h16M0 49h16M144 49h16M0 50h16M144 50h16M0 51h16M144 51h16M0 52h16M144 52h16M0 53h16M144 53h16M0 54h16M144 54h16M0 55h5M6 55h10M144 55h8M153 55h7M0 56h5M6 56h10M144 56h3M155 56h5M0 57h6M7 57h9M144 57h8M153 57h2M156 57h4M0 58h5M12 58h4M144 58h8M153 58h2M156 58h4M0 59h16M144 59h11M156 59h4M0 60h16M144 60h16M0 61h6M9 61h1M11 61h5M144 61h16M0 62h5M6 62h2M9 62h2M12 62h4M144 62h5M156 62h4M0 63h5M6 63h2M9 63h2M12 63h4M144 63h10M155 63h5M0 64h6M11 64h5M144 64h11M156 64h4M0 65h16M144 65h11M156 65h4M0 66h16M144 66h16M0 67h6M12 67h4M144 67h16M0 68h5M6 68h10M144 68h6M152 68h8M0 69h5M6 69h10M144 69h5M150 69h2M153 69h2M156 69h4M0 70h3M12 70h4M144 70h5M150 70h2M153 70h2M156 70h4M0 71h16M144 71h5M150 71h2M153 71h2M156 71h4M0 72h16M144 72h5M155 72h5M0 73h11M12 73h4M144 73h16M0 74h5M6 74h5M12 74h4M144 74h16M0 75h3M11 75h5M144 75h5M155 75h5M0 76h5M6 76h10M144 76h11M156 76h4M0 77h16M144 77h11M156 77h4M0 78h16M144 78h5M155 78h5M0 79h3M5 79h1M12 79h4M144 79h11M156 79h4M0 80h16M144 80h11M156 80h4M0 81h16M144 81h5M156 81h4M0 82h3M12 82h4M144 82h16M0 83h5M6 83h5M12 83h4M144 83h16M0 84h5M6 84h5M12 84h4M144 84h6M155 84h5M0 85h6M7 85h3M11 85h5M144 85h5M150 85h2M153 85h2M156 85h4M0 86h7M10 86h6M144 86h5M150 86h2M153 86h2M156 86h4M0 87h16M144 87h6M151 87h1M155 87h5M0 88h16M144 88h16M0 89h16M144 89h16M0 90h16M144 90h16M0 91h16M144 91h16M0 92h16M144 92h16M0 93h16M144 93h16M0 94h16M144 94h16M0 95h16M144 95h16M0 96h16M144 96h16M0 97h16M144 97h16M0 98h16M144 98h16M0 99h16M144 99h16M0 100h16M144 100h16M0 101h16M144 101h16M0 102h16M144 102h16M0 103h16M144 103h16M0 104h16M144 104h16M0 105h16M144 105h16M0 106h16M144 106h16M0 107h16M144 107h16M0 108h16M144 108h16M0 109h16M144 109h16M0 110h16M144 110h16M0 111h16M144 111h16M0 112h16M144 112h16M0 113h16M144 113h16M0 114h16M144 114h16M0 115h16M144 115h16M0 116h16M144 116h16M0 117h16M144 117h16M0 118h16M144 118h16M0 119h16M144 119h16M0 120h16M144 120h16M0 121h16M144 121h16M0 122h16M144 122h16M0 123h16M144 123h16M0 124h16M144 124h16M0 125h16M144 125h16M0 126h16M144 126h16M0 127h16M144 127h16M0 128h160M0 129h160M0 130h160M0 131h77M78 131h9M88 131h4M93 131h67M0 132h77M78 132h9M88 132h4M93 132h67M0 133h63M66 133h5M74 133h3M78 133h3M83 133h3M89 133h2M94 133h3M99 133h61M0 134h63M64 134h2M67 134h7M75 134h2M78 134h2M81 134h2M84 134h3M88 134h4M93 134h3M97 134h2M100 134h60M0 135h63M64 135h3M68 135h6M75 135h2M78 135h2M81 135h2M84 135h3M88 135h4M93 135h3M97 135h2M100 135h60M0 136h63M64 136h3M68 136h3M75 136h2M78 136h2M84 136h3M88 136h4M93 136h3M100 136h60M0 137h63M64 137h3M68 137h2M71 137h3M75 137h2M78 137h2M81 137h6M88 137h4M93 137h3M97 137h63M0 138h63M64 138h2M67 138h3M71 138h3M75 138h2M78 138h2M81 138h2M84 138h3M88 138h4M93 138h3M97 138h2M100 138h60M0 139h63M66 139h5M75 139h2M78 139h3M83 139h5M89 139h4M94 139h3M99 139h61M0 140h63M64 140h96M0 141h63M64 141h96M0 142h160M0 143h160" />
<path stroke="#ffffff" d="M78 2h1M81 2h1M78 3h1M81 3h1M73 4h3M78 4h1M84 4h3M72 5h1M78 5h1M81 5h1M84 5h1M87 5h1M72 6h1M78 6h1M81 6h1M84 6h1M88 6h1M71 7h4M78 7h1M81 7h1M84 7h1M88 7h1M72 8h1M78 8h1M81 8h1M84 8h1M88 8h1M72 9h1M78 9h1M81 9h1M84 9h1M87 9h1M72 10h1M78 10h1M81 10h1M84 10h3M72 11h1M84 11h1M72 12h1M84 12h1M5 55h1M152 55h1M5 56h1M147 56h8M6 57h1M152 57h1M155 57h1M5 58h7M152 58h1M155 58h1M155 59h1M6 61h3M10 61h1M5 62h1M8 62h1M11 62h1M149 62h7M5 63h1M8 63h1M11 63h1M154 63h1M6 64h5M155 64h1M155 65h1M6 67h6M5 68h1M150 68h2M5 69h1M149 69h1M152 69h1M155 69h1M3 70h9M149 70h1M152 70h1M155 70h1M149 71h1M152 71h1M155 71h1M149 72h6M11 73h1M5 74h1M11 74h1M3 75h8M149 75h6M5 76h1M155 76h1M155 77h1M149 78h6M3 79h2M6 79h6M155 79h1M155 80h1M149 81h7M3 82h9M5 83h1M11 83h1M5 84h1M11 84h1M150 84h5M6 85h1M10 85h1M149 85h1M152 85h1M155 85h1M7 86h3M149 86h1M152 86h1M155 86h1M150 87h1M152 87h3M77 131h1M87 131h1M92 131h1M77 132h1M87 132h1M92 132h1M63 133h3M71 133h3M77 133h1M81 133h2M86 133h3M91 133h3M97 133h2M63 134h1M66 134h1M74 134h1M77 134h1M80 134h1M83 134h1M87 134h1M92 134h1M96 134h1M99 134h1M63 135h1M67 135h1M74 135h1M77 135h1M80 135h1M83 135h1M87 135h1M92 135h1M96 135h1M99 135h1M63 136h1M67 136h1M71 136h4M77 136h1M80 136h4M87 136h1M92 136h1M96 136h4M63 137h1M67 137h1M70 137h1M74 137h1M77 137h1M80 137h1M87 137h1M92 137h1M96 137h1M63 138h1M66 138h1M70 138h1M74 138h1M77 138h1M80 138h1M83 138h1M87 138h1M92 138h1M96 138h1M99 138h1M63 139h3M71 139h4M77 139h1M81 139h2M88 139h1M93 139h1M97 139h2M63 140h1M63 141h1" />
<path stroke="#a2a2a2" d="M79 17h2M78 18h1M81 18h1M77 19h1M82 19h1M76 20h1M83 20h1M75 21h1M84 21h1M75 22h10M21 67h2M137 67h2M20 68h1M22 68h1M137 68h1M139 68h1M19 69h1M22 69h1M137 69h1M140 69h1M18 70h1M22 70h1M137 70h1M141 70h1M17 71h1M22 71h1M137 71h1M142 71h1M17 72h1M22 72h1M137 72h1M142 72h1M18 73h1M22 73h1M137 73h1M141 73h1M19 74h1M22 74h1M137 74h1M140 74h1M20 75h1M22 75h1M137 75h1M139 75h1M21 76h2M137 76h2M75 121h10M75 122h1M84 122h1M76 123h1M83 123h1M77 124h1M82 124h1M78 125h1M81 125h1M79 126h2" />
</svg>