<svg xmlns="http://www.w3.org/2000/svg" viewBox="0 -0.5 160 144" shape-rendering="crispEdges">
<metadata>Made with Pixels to Svg https://codepen.io/shshaw/pen/XbxvNj</metadata>
<path stroke="#000000" d="M0 0h48M49 0h1M51 0h109M0 1h32M33 1h127M0 2h35M36 2h28M65 2h8M76 2h2M80 2h2M84 2h9M94 2h66M0 3h27M28 3h44M76 3h2M80 3h2M84 3h74M159 3h1M0 4h70M71 4h1M74 4h4M80 4h48M129 4h31M0 5h43M44 5h10M55 5h16M76 5h2M80 5h2M84 5h2M90 5h51M142 5h18M0 6h55M56 6h7M64 6h7M76 6h2M80 6h2M84 6h2M91 6h69M0 7h57M58 7h14M74 7h4M80 7h2M84 7h2M88 7h2M92 7h68M0 8h72M74 8h4M80 8h2M84 8h2M88 8h2M92 8h68M0 9h72M74 9h4M80 9h2M84 9h2M89 9h1M92 9h68M0 10h10M11 10h61M74 10h4M80 10h2M84 10h2M91 10h34M126 10h34M0 11h72M74 11h4M80 11h2M84 11h2M90 11h2M93 11h62M156 11h4M0 12h72M74 12h4M80 12h2M84 12h2M88 12h13M102 12h58M0 13h1M2 13h84M88 13h72M0 14h86M88 14h26M115 14h45M0 15h160M0 16h16M144 16h16M0 17h16M144 17h16M0 18h16M144 18h16M0 19h16M144 19h16M0 20h16M144 20h16M0 21h16M144 21h9M154 21h6M0 22h2M3 22h13M144 22h16M0 23h5M6 23h10M144 23h6M151 23h9M0 24h16M144 24h16M0 25h16M145 25h15M0 26h9M10 26h6M144 26h16M0 27h16M144 27h16M0 28h16M144 28h16M0 29h16M144 29h16M0 30h16M144 30h16M0 31h16M144 31h16M0 32h6M7 32h9M144 32h16M0 33h13M14 33h2M144 33h16M0 34h16M144 34h16M0 35h16M144 35h16M0 36h16M144 36h16M0 37h16M144 37h16M0 38h16M144 38h16M0 39h16M144 39h16M0 40h16M144 40h16M0 41h16M144 41h5M150 41h10M0 42h16M144 42h16M0 43h16M144 43h10M155 43h5M0 44h16M144 44h16M0 45h16M144 45h16M0 46h16M144 46h16M0 47h16M144 47h16M0 48h11M12 48h4M144 48h16M0 49h16M144 49h16M0 50h11M12 50h4M144 50h16M0 51h16M144 51h16M0 52h16M144 52h9M155 52h5M0 53h5M8 53h8M144 53h3M157 53h3M0 54h5M8 54h8M144 54h3M158 54h2M0 55h6M9 55h7M144 55h9M155 55h1M158 55h2M0 56h2M3 56h2M13 56h3M144 56h9M155 56h1M158 56h2M0 57h5M13 57h3M144 57h16M1 58h15M144 58h16M0 59h16M144 59h3M155 59h5M0 60h7M10 60h1M12 60h4M144 60h3M155 60h5M0 61h6M10 61h1M13 61h3M145 61h6M154 61h6M0 62h5M7 62h2M10 62h2M13 62h1M15 62h1M144 62h8M155 62h5M0 63h5M7 63h2M10 63h2M13 63h3M144 63h8M155 63h5M0 64h6M12 64h4M144 64h16M0 65h7M12 65h4M144 65h16M0 66h16M144 66h4M151 66h9M0 67h16M144 67h3M152 67h1M155 67h5M0 68h7M13 68h3M144 68h3M149 68h2M152 68h1M155 68h5M0 69h6M13 69h2M144 69h3M149 69h2M152 69h1M155 69h5M0 70h5M7 70h9M144 70h3M155 70h5M0 71h5M7 71h9M144 71h4M154 71h6M0 72h2M13 72h3M144 72h16M0 73h2M13 73h3M144 73h16M0 74h16M144 74h3M155 74h5M0 75h16M144 75h3M155 75h5M0 76h5M7 76h4M13 76h3M144 76h9M155 76h5M0 77h5M7 77h4M13 77h3M144 77h3M154 77h6M0 78h2M13 78h3M144 78h3M154 78h6M0 79h2M12 79h4M144 79h9M155 79h5M0 80h5M7 80h9M144 80h3M155 80h5M0 81h16M144 81h3M154 81h6M0 82h16M144 82h12M157 82h3M0 83h2M4 83h1M13 83h3M144 83h16M0 84h2M4 84h1M13 84h3M144 84h5M153 84h7M0 85h16M144 85h4M155 85h5M0 86h16M144 86h3M148 86h2M151 86h2M155 86h5M0 87h2M13 87h3M144 87h3M148 87h2M151 87h2M155 87h5M0 88h2M13 88h3M144 88h3M149 88h1M154 88h6M0 89h5M7 89h4M13 89h3M144 89h4M149 89h1M153 89h7M0 90h5M7 90h4M13 90h3M144 90h16M0 91h5M12 91h4M144 91h14M159 91h1M0 92h6M11 92h5M144 92h16M0 93h16M144 93h16M0 94h16M144 94h16M0 95h16M144 95h16M0 96h16M144 96h16M1 97h15M144 97h16M0 98h16M144 98h4M149 98h11M0 99h16M144 99h16M1 100h15M144 100h16M1 101h15M144 101h16M0 102h16M144 102h16M0 103h16M144 103h16M0 104h16M144 104h16M0 105h16M144 105h16M0 106h16M144 106h16M0 107h16M145 107h15M0 108h16M144 108h15M0 109h16M144 109h16M0 110h16M144 110h16M0 111h8M9 111h7M144 111h16M0 112h1M2 112h14M144 112h16M0 113h9M10 113h6M144 113h16M0 114h16M144 114h16M0 115h16M144 115h16M0 116h1M2 116h14M144 116h16M0 117h16M144 117h16M0 118h16M144 118h16M0 119h15M144 119h16M0 120h16M144 120h16M0 121h16M144 121h16M0 122h16M144 122h16M0 123h16M144 123h16M0 124h16M144 124h16M0 125h16M144 125h16M0 126h14M15 126h1M144 126h16M0 127h16M144 127h16M0 128h28M29 128h118M148 128h12M0 129h68M69 129h77M147 129h13M0 130h23M24 130h8M33 130h39M74 130h7M82 130h3M87 130h5M94 130h66M0 131h14M15 131h57M74 131h11M87 131h5M94 131h25M120 131h40M0 132h72M74 132h11M87 132h5M94 132h5M100 132h2M103 132h32M136 132h24M0 133h56M60 133h5M69 133h3M74 133h4M80 133h4M89 133h2M96 133h4M102 133h58M0 134h56M61 134h4M70 134h2M74 134h3M81 134h3M89 134h2M96 134h3M103 134h53M157 134h3M0 135h56M58 135h2M62 135h6M70 135h2M74 135h2M78 135h2M82 135h3M87 135h5M94 135h4M100 135h2M104 135h14M119 135h41M0 136h12M13 136h43M58 136h2M62 136h3M70 136h2M74 136h2M78 136h2M82 136h3M87 136h5M94 136h4M100 136h2M104 136h56M0 137h56M58 137h2M62 137h2M66 137h2M70 137h2M74 137h2M82 137h3M88 137h4M94 137h4M104 137h35M140 137h20M0 138h56M61 138h3M66 138h2M70 138h2M74 138h2M78 138h7M87 138h5M94 138h4M101 138h59M0 139h32M33 139h23M60 139h4M70 139h2M74 139h3M78 139h2M82 139h3M89 139h3M96 139h3M100 139h2M104 139h35M140 139h20M0 140h56M58 140h7M69 140h3M74 140h4M81 140h5M89 140h4M96 140h4M103 140h20M124 140h33M158 140h2M0 141h47M48 141h8M58 141h38M97 141h63M0 142h56M58 142h45M104 142h56M0 143h51M52 143h108" />
<path stroke="#010000" d="M48 0h1M32 1h1M64 2h1M27 3h1M128 4h1M43 5h1M63 6h1M125 10h1M153 21h1M2 22h1M15 69h1M158 91h1M148 98h1M159 108h1M1 116h1M28 128h1M23 130h1M32 130h1M99 132h1M102 132h1M135 132h1M139 137h1M32 139h1M157 140h1M96 141h1" />
<path stroke="#000001" d="M50 0h1M93 2h1M158 3h1M70 4h1M54 5h1M141 5h1M10 10h1M101 12h1M1 13h1M114 14h1M150 23h1M9 26h1M6 32h1M154 43h1M11 48h1M154 85h1M0 101h1M144 107h1M8 111h1M1 112h1M9 113h1M15 119h1M14 126h1M147 128h1M68 129h1M146 129h1M156 134h1M87 137h1M139 139h1M123 140h1M47 141h1M103 142h1M51 143h1" />
<path stroke="#000100" d="M35 2h1M55 6h1M57 7h1M88 9h1M92 11h1M155 11h1M5 23h1M144 25h1M13 33h1M149 41h1M11 50h1M2 56h1M0 58h1M144 61h1M14 62h1M11 65h1M156 82h1M0 97h1M0 100h1M81 130h1M14 131h1M119 131h1M118 135h1M12 136h1M100 138h1" />
<path stroke="#ffffff" d="M73 2h3M78 2h2M82 2h2M72 3h4M78 3h2M82 3h2M72 4h2M78 4h2M71 5h5M78 5h2M82 5h2M86 5h4M71 6h5M78 6h2M82 6h2M86 6h5M72 7h2M78 7h2M82 7h2M86 7h2M90 7h2M72 8h2M78 8h2M82 8h2M86 8h2M90 8h2M72 9h2M78 9h2M82 9h2M86 9h2M90 9h2M72 10h2M78 10h2M82 10h2M87 10h4M72 11h2M78 11h2M82 11h2M86 11h4M72 12h2M78 12h2M82 12h2M86 12h2M86 13h2M86 14h2M153 52h2M5 53h3M147 53h10M5 54h3M147 54h11M6 55h3M153 55h2M156 55h2M5 56h8M153 56h2M156 56h2M5 57h8M147 59h8M7 60h3M11 60h1M147 60h6M154 60h1M6 61h4M11 61h2M151 61h3M5 62h2M9 62h1M12 62h1M152 62h3M5 63h2M9 63h1M12 63h1M152 63h3M6 64h6M7 65h4M148 66h3M147 67h5M153 67h2M7 68h6M147 68h2M151 68h1M153 68h2M6 69h7M147 69h2M151 69h1M153 69h2M5 70h2M147 70h8M5 71h2M148 71h6M2 72h11M2 73h9M12 73h1M147 74h8M147 75h8M5 76h2M11 76h2M153 76h2M5 77h2M11 77h2M147 77h7M2 78h11M147 78h7M2 79h10M153 79h2M5 80h2M147 80h8M147 81h7M2 83h2M5 83h8M2 84h2M5 84h8M149 84h4M148 85h6M147 86h1M150 86h1M153 86h2M2 87h11M147 87h1M150 87h1M153 87h2M2 88h11M147 88h2M150 88h4M5 89h2M11 89h2M148 89h1M150 89h3M5 90h2M11 90h2M5 91h7M6 92h5M72 130h2M85 130h2M92 130h2M72 131h2M85 131h2M92 131h2M72 132h2M85 132h2M92 132h2M56 133h4M65 133h4M72 133h2M78 133h2M84 133h5M91 133h5M100 133h2M56 134h5M65 134h5M72 134h2M77 134h4M84 134h5M91 134h5M99 134h3M56 135h2M60 135h2M68 135h2M72 135h2M76 135h2M80 135h2M85 135h2M92 135h2M98 135h2M102 135h2M56 136h2M60 136h2M65 136h2M68 136h2M72 136h2M76 136h2M80 136h2M85 136h2M92 136h2M98 136h2M102 136h2M56 137h2M60 137h2M64 137h2M68 137h2M72 137h2M76 137h6M85 137h2M92 137h2M98 137h6M56 138h5M64 138h2M68 138h2M72 138h2M76 138h2M85 138h2M92 138h2M98 138h2M56 139h4M64 139h6M72 139h2M77 139h1M80 139h2M85 139h4M92 139h4M99 139h1M102 139h2M56 140h2M65 140h4M72 140h2M78 140h3M86 140h2M93 140h3M100 140h3M56 141h2M56 142h2" />
<path stroke="#feffff" d="M86 10h1M153 60h1M11 73h1M88 140h1" />
<path stroke="#fffffe" d="M102 134h1M67 136h1" />
</svg>