<svg xmlns="http://www.w3.org/2000/svg" viewBox="0 -0.5 160 144" shape-rendering="crispEdges">
<metadata>Made with Pixels to Svg https://codepen.io/shshaw/pen/XbxvNj</metadata>
<path stroke="#000000" d="M0 0h160M0 1h28M29 1h37M67 1h13M81 1h79M0 2h78M79 2h2M82 2h33M116 2h44M0 3h78M79 3h2M82 3h78M0 4h19M20 4h53M76 4h2M79 4h5M87 4h73M0 5h72M73 5h5M79 5h2M83 5h1M85 5h2M88 5h72M0 6h1M2 6h4M7 6h42M50 6h22M73 6h5M79 6h2M82 6h2M85 6h3M89 6h5M95 6h12M108 6h52M0 7h33M34 7h16M51 7h20M75 7h3M79 7h2M82 7h2M85 7h3M89 7h41M131 7h29M0 8h16M17 8h55M73 8h5M79 8h2M82 8h2M85 8h3M89 8h23M113 8h47M0 9h72M73 9h1M75 9h3M79 9h2M82 9h2M85 9h2M88 9h72M0 10h5M6 10h66M73 10h5M79 10h2M82 10h2M87 10h73M0 11h72M73 11h1M75 11h9M85 11h75M0 12h13M14 12h4M19 12h43M63 12h9M73 12h11M85 12h75M0 13h55M56 13h65M122 13h38M0 14h35M36 14h124M0 15h160M0 16h16M144 16h12M157 16h3M0 17h3M4 17h12M144 17h16M0 18h9M10 18h6M144 18h16M0 19h16M144 19h16M0 20h16M144 20h16M0 21h16M144 21h16M0 22h16M144 22h16M0 23h16M144 23h16M0 24h16M144 24h16M0 25h16M144 25h16M0 26h16M144 26h16M0 27h16M144 27h16M0 28h16M144 28h16M0 29h16M144 29h16M0 30h16M144 30h16M0 31h16M144 31h16M0 32h16M144 32h16M0 33h14M15 33h1M144 33h8M153 33h7M0 34h6M7 34h9M144 34h13M158 34h2M0 35h16M144 35h16M0 36h16M144 36h10M155 36h5M0 37h5M6 37h10M144 37h16M0 38h16M144 38h16M0 39h15M144 39h16M0 40h16M144 40h16M0 41h16M144 41h16M0 42h16M144 42h16M0 43h16M144 43h16M0 44h16M144 44h16M0 45h16M144 45h16M0 46h16M144 46h16M0 47h16M144 47h16M0 48h16M144 48h7M152 48h8M0 49h16M144 49h16M0 50h16M144 50h16M0 51h16M144 51h16M0 52h16M144 52h5M150 52h3M155 52h5M0 53h16M144 53h4M149 53h3M153 53h2M156 53h4M0 54h16M144 54h4M149 54h3M153 54h2M156 54h4M0 55h5M6 55h10M144 55h4M149 55h3M153 55h2M156 55h4M0 56h5M6 56h10M144 56h5M152 56h2M155 56h5M0 57h6M7 57h9M144 57h16M0 58h5M12 58h4M144 58h16M0 59h12M13 59h3M144 59h4M157 59h3M0 60h16M144 60h10M155 60h5M0 61h6M9 61h1M11 61h5M144 61h10M155 61h5M0 62h5M6 62h2M9 62h2M12 62h4M144 62h4M154 62h6M0 63h5M6 63h2M9 63h2M12 63h4M144 63h16M0 64h6M11 64h5M144 64h16M0 65h16M144 65h5M155 65h5M0 66h16M144 66h4M149 66h11M0 67h6M13 67h3M144 67h1M146 67h2M149 67h11M0 68h5M6 68h10M144 68h4M149 68h4M154 68h6M0 69h5M6 69h10M144 69h5M155 69h5M0 70h3M12 70h4M144 70h16M0 71h16M144 71h16M0 72h16M144 72h10M155 72h5M0 73h11M12 73h4M144 73h5M157 73h3M0 74h5M6 74h5M12 74h4M144 74h4M149 74h5M155 74h5M0 75h3M11 75h5M144 75h16M0 76h5M6 76h2M9 76h7M144 76h16M0 77h6M7 77h9M144 77h10M155 77h5M0 78h16M144 78h5M157 78h3M0 79h3M5 79h1M12 79h4M144 79h4M149 79h4M155 79h2M158 79h2M0 80h9M10 80h6M144 80h16M0 81h16M144 81h16M0 82h3M12 82h4M144 82h5M154 82h6M0 83h5M6 83h5M12 83h4M144 83h4M149 83h2M152 83h2M155 83h5M0 84h5M6 84h5M12 84h4M144 84h4M149 84h2M152 84h2M155 84h2M158 84h2M0 85h6M7 85h3M11 85h5M144 85h5M150 85h1M154 85h6M0 86h7M10 86h6M144 86h16M0 87h16M144 87h16M0 88h16M144 88h4M155 88h5M0 89h16M144 89h9M154 89h6M0 90h16M144 90h10M155 90h3M159 90h1M0 91h16M144 91h10M155 91h5M0 92h16M144 92h16M0 93h16M144 93h16M0 94h16M144 94h16M0 95h7M8 95h7M144 95h16M0 96h16M144 96h16M0 97h16M144 97h16M0 98h16M144 98h16M0 99h16M144 99h16M0 100h16M144 100h16M0 101h16M144 101h5M150 101h10M0 102h16M144 102h14M159 102h1M0 103h16M144 103h16M0 104h16M144 104h16M0 105h16M144 105h16M0 106h6M7 106h9M144 106h16M0 107h16M144 107h16M0 108h16M144 108h16M0 109h16M144 109h16M0 110h16M144 110h7M152 110h8M0 111h16M144 111h5M150 111h6M157 111h3M0 112h16M144 112h16M0 113h16M144 113h16M0 114h16M144 114h16M0 115h16M144 115h16M0 116h16M144 116h12M157 116h3M0 117h6M7 117h9M144 117h16M0 118h16M144 118h16M0 119h16M144 119h16M0 120h16M144 120h4M149 120h11M0 121h16M144 121h16M0 122h16M144 122h16M0 123h16M144 123h16M0 124h16M144 124h16M0 125h16M144 125h16M0 126h16M144 126h16M0 127h16M144 127h16M0 128h160M0 129h77M78 129h82M0 130h54M55 130h4M60 130h5M66 130h16M83 130h77M0 131h77M78 131h9M88 131h4M93 131h67M1 132h76M78 132h9M88 132h4M93 132h8M102 132h58M0 133h63M66 133h5M74 133h3M78 133h3M83 133h3M89 133h2M94 133h3M99 133h5M105 133h55M0 134h63M64 134h2M67 134h4M72 134h2M75 134h2M78 134h2M81 134h2M84 134h3M88 134h4M93 134h3M97 134h2M100 134h37M138 134h22M0 135h63M64 135h3M68 135h6M75 135h2M78 135h2M81 135h2M84 135h3M88 135h4M93 135h3M97 135h2M100 135h60M0 136h51M52 136h11M64 136h3M68 136h3M75 136h2M78 136h2M84 136h3M88 136h4M93 136h3M100 136h23M124 136h36M0 137h63M64 137h3M68 137h2M71 137h3M75 137h2M78 137h2M81 137h6M88 137h4M93 137h3M97 137h63M0 138h42M43 138h20M64 138h2M67 138h3M71 138h3M75 138h2M78 138h2M81 138h2M84 138h3M88 138h4M93 138h3M97 138h2M100 138h60M0 139h35M36 139h27M66 139h2M69 139h2M75 139h2M78 139h3M83 139h5M89 139h4M94 139h3M99 139h61M0 140h63M64 140h96M0 141h63M64 141h96M0 142h160M0 143h26M27 143h66M94 143h66" />
<path stroke="#000001" d="M28 1h1M19 4h1M107 6h1M130 7h1M74 9h1M62 12h1M55 13h1M121 13h1M3 17h1M14 33h1M152 33h1M157 34h1M12 59h1M145 67h1M153 68h1M6 77h1M157 79h1M9 80h1M158 90h1M15 95h1M158 102h1M149 111h1M156 116h1M77 129h1M82 130h1M101 132h1M93 143h1" />
<path stroke="#000100" d="M66 1h1M1 6h1M49 6h1M94 6h1M33 7h1M74 11h1M13 12h1M35 14h1M156 16h1M6 34h1M154 36h1M151 48h1M12 67h1M153 79h1M157 84h1M149 101h1M6 106h1M148 120h1M54 130h1M71 134h1M137 134h1M51 136h1M123 136h1M26 143h1" />
<path stroke="#010000" d="M80 1h1M115 2h1M82 5h1M6 6h1M50 7h1M16 8h1M112 8h1M5 10h1M18 12h1M9 18h1M5 37h1M15 39h1M8 76h1M7 95h1M151 110h1M156 111h1M6 117h1M59 130h1M65 130h1M0 132h1M104 133h1M42 138h1M35 139h1M68 139h1" />
<path stroke="#ffffff" d="M78 2h1M81 2h1M78 3h1M81 3h1M73 4h3M78 4h1M84 4h3M72 5h1M81 5h1M84 5h1M87 5h1M72 6h1M78 6h1M81 6h1M84 6h1M88 6h1M71 7h4M78 7h1M81 7h1M84 7h1M88 7h1M72 8h1M78 8h1M81 8h1M84 8h1M88 8h1M72 9h1M78 9h1M81 9h1M84 9h1M87 9h1M72 10h1M78 10h1M81 10h1M84 10h3M72 11h1M84 11h1M72 12h1M84 12h1M149 52h1M153 52h2M148 53h1M152 53h1M155 53h1M148 54h1M152 54h1M155 54h1M5 55h1M148 55h1M152 55h1M155 55h1M5 56h1M149 56h3M154 56h1M6 57h1M5 58h7M148 59h9M154 60h1M6 61h3M10 61h1M154 61h1M5 62h1M8 62h1M11 62h1M148 62h6M5 63h1M8 63h1M11 63h1M6 64h5M149 65h6M148 66h1M6 67h6M148 67h1M5 68h1M148 68h1M5 69h1M149 69h6M3 70h3M7 70h5M154 72h1M11 73h1M149 73h8M5 74h1M11 74h1M148 74h1M154 74h1M3 75h8M5 76h1M154 77h1M149 78h8M3 79h2M6 79h6M148 79h1M154 79h1M3 82h9M150 82h4M5 83h1M11 83h1M148 83h1M151 83h1M154 83h1M5 84h1M11 84h1M148 84h1M151 84h1M154 84h1M6 85h1M10 85h1M149 85h1M151 85h3M7 86h3M148 88h7M154 90h1M154 91h1M77 131h1M87 131h1M92 131h1M77 132h1M87 132h1M92 132h1M63 133h3M71 133h1M73 133h1M77 133h1M81 133h2M86 133h3M91 133h3M97 133h2M63 134h1M66 134h1M74 134h1M77 134h1M80 134h1M83 134h1M87 134h1M92 134h1M96 134h1M99 134h1M63 135h1M67 135h1M74 135h1M77 135h1M80 135h1M83 135h1M87 135h1M92 135h1M96 135h1M99 135h1M63 136h1M67 136h1M71 136h4M77 136h1M80 136h4M87 136h1M92 136h1M96 136h4M63 137h1M67 137h1M70 137h1M74 137h1M77 137h1M80 137h1M87 137h1M92 137h1M96 137h1M63 138h1M66 138h1M70 138h1M74 138h1M77 138h1M80 138h1M83 138h1M87 138h1M92 138h1M96 138h1M99 138h1M63 139h3M71 139h4M77 139h1M81 139h2M88 139h1M93 139h1M97 139h2M63 140h1M63 141h1" />
<path stroke="#fffffe" d="M78 5h1M153 89h1" />
<path stroke="#a2a2a2" d="M79 17h2M78 18h1M81 18h1M77 19h1M82 19h1M76 20h1M83 20h1M75 21h1M84 21h1M74 22h12M22 66h1M21 67h2M137 67h2M20 68h1M22 68h1M137 68h1M139 68h1M19 69h1M22 69h1M137 69h1M140 69h1M18 70h1M22 70h1M137 70h1M141 70h1M17 71h1M22 71h1M137 71h1M142 71h1M17 72h1M22 72h1M137 72h1M142 72h1M18 73h1M22 73h1M137 73h1M141 73h1M19 74h1M22 74h1M137 74h1M140 74h1M20 75h1M22 75h1M137 75h1M139 75h1M21 76h2M137 76h2M22 77h1M137 77h1M74 121h12M75 122h1M84 122h1M76 123h1M83 123h1M77 124h1M82 124h1M78 125h1M81 125h1M79 126h2" />
<path stroke="#a2a2a3" d="M137 66h1" />
<path stroke="#fffeff" d="M6 70h1M72 133h1" />
<path stroke="#feffff" d="M149 82h1" />
</svg>