<svg xmlns="http://www.w3.org/2000/svg" viewBox="0 -0.5 160 144" shape-rendering="crispEdges">
<metadata>Made with Pixels to Svg https://codepen.io/shshaw/pen/XbxvNj</metadata>
<path stroke="#000000" d="M0 0h45M46 0h33M80 0h2M83 0h77M0 1h50M51 1h109M0 2h74M75 2h85M0 3h102M103 3h57M0 4h27M28 4h132M0 5h15M16 5h144M0 6h18M19 6h23M43 6h94M138 6h22M0 7h85M86 7h45M132 7h28M0 8h141M142 8h18M0 9h29M30 9h30M61 9h99M0 10h30M31 10h129M0 11h144M145 11h15M0 12h35M36 12h50M87 12h73M0 13h130M131 13h29M0 14h160M0 15h84M85 15h18M104 15h30M135 15h11M147 15h13M0 16h16M144 16h7M154 16h6M0 17h16M144 17h5M151 17h3M156 17h4M0 18h16M144 18h4M149 18h2M154 18h2M157 18h3M0 19h16M144 19h3M148 19h1M156 19h1M158 19h2M0 20h16M144 20h3M148 20h1M156 20h1M158 20h2M0 21h16M144 21h3M148 21h1M156 21h1M158 21h2M0 22h10M11 22h5M144 22h3M148 22h1M156 22h1M158 22h2M0 23h16M144 23h3M148 23h1M156 23h1M158 23h2M0 24h16M144 24h3M148 24h1M156 24h1M158 24h2M0 25h4M5 25h11M144 25h3M148 25h1M156 25h1M158 25h2M0 26h15M144 26h3M148 26h1M156 26h1M158 26h2M0 27h16M144 27h3M148 27h9M158 27h2M0 28h16M144 28h3M158 28h2M0 29h16M144 29h11M157 29h3M0 30h16M144 30h11M157 30h3M0 31h8M9 31h7M144 31h6M151 31h4M157 31h3M0 32h16M144 32h9M154 32h1M157 32h3M0 33h16M144 33h11M157 33h3M0 34h16M144 34h4M149 34h6M157 34h3M0 35h16M144 35h11M157 35h3M0 36h16M144 36h11M157 36h3M0 37h16M144 37h11M157 37h3M0 38h16M144 38h11M157 38h3M0 39h16M144 39h11M157 39h3M0 40h16M144 40h11M157 40h3M0 41h16M144 41h5M150 41h5M157 41h3M0 42h16M144 42h11M157 42h3M0 43h16M144 43h11M157 43h3M0 44h16M144 44h11M157 44h3M0 45h16M144 45h11M157 45h3M0 46h16M144 46h11M157 46h3M0 47h16M144 47h11M157 47h3M0 48h16M144 48h11M157 48h3M0 49h16M144 49h11M157 49h3M0 50h4M5 50h3M9 50h7M144 50h11M157 50h3M0 51h16M144 51h6M151 51h4M157 51h3M0 52h14M15 52h1M144 52h16M0 53h16M144 53h7M152 53h1M159 53h1M0 54h16M144 54h9M154 54h2M157 54h1M159 54h1M0 55h13M14 55h2M144 55h10M156 55h1M158 55h2M0 56h16M144 56h16M0 57h13M14 57h2M144 57h9M159 57h1M0 58h16M144 58h11M156 58h2M159 58h1M0 59h16M144 59h9M155 59h1M158 59h2M0 60h16M144 60h6M151 60h9M0 61h16M144 61h9M159 61h1M0 62h16M144 62h12M157 62h3M0 63h16M144 63h10M158 63h2M0 64h16M144 64h9M154 64h4M159 64h1M0 65h16M144 65h9M154 65h2M157 65h1M159 65h1M0 66h16M144 66h1M146 66h7M157 66h3M0 67h16M144 67h16M0 68h16M144 68h9M159 68h1M0 69h6M7 69h9M144 69h12M157 69h3M0 70h2M3 70h8M12 70h4M144 70h9M159 70h1M0 71h16M144 71h6M151 71h9M0 72h10M11 72h5M144 72h1M146 72h12M159 72h1M0 73h12M13 73h3M144 73h9M159 73h1M0 74h16M144 74h12M157 74h1M159 74h1M0 75h16M144 75h16M0 76h16M144 76h9M159 76h1M0 77h11M12 77h4M144 77h12M158 77h2M0 78h16M144 78h10M156 78h4M0 79h16M144 79h9M159 79h1M0 80h16M144 80h14M159 80h1M0 81h4M5 81h11M144 81h9M159 81h1M0 82h16M144 82h9M154 82h2M157 82h1M159 82h1M0 83h16M144 83h16M0 84h16M144 84h9M154 84h3M158 84h2M0 85h3M4 85h12M144 85h9M154 85h2M157 85h1M159 85h1M0 86h16M144 86h7M152 86h2M156 86h2M159 86h1M0 87h9M10 87h6M144 87h16M0 88h16M144 88h9M154 88h3M158 88h2M0 89h16M144 89h9M154 89h2M157 89h1M159 89h1M0 90h16M144 90h10M156 90h2M159 90h1M0 91h16M144 91h16M0 92h16M144 92h11M157 92h3M0 93h16M144 93h11M157 93h3M0 94h16M144 94h9M154 94h1M157 94h3M0 95h16M144 95h11M157 95h3M0 96h16M144 96h11M157 96h3M0 97h16M144 97h11M157 97h3M0 98h16M144 98h11M157 98h3M0 99h16M144 99h11M157 99h3M0 100h9M10 100h6M144 100h11M157 100h3M0 101h16M144 101h7M152 101h3M157 101h3M0 102h16M144 102h11M157 102h3M0 103h16M144 103h11M157 103h3M0 104h16M144 104h11M157 104h3M0 105h16M144 105h11M157 105h3M0 106h16M144 106h11M157 106h3M0 107h16M144 107h11M157 107h3M0 108h16M144 108h11M157 108h3M0 109h16M144 109h11M157 109h3M0 110h9M10 110h6M144 110h11M157 110h3M0 111h8M9 111h7M144 111h11M157 111h3M0 112h16M144 112h11M157 112h3M0 113h16M144 113h11M157 113h1M159 113h1M0 114h16M144 114h11M157 114h3M0 115h16M144 115h3M158 115h2M0 116h16M144 116h3M148 116h9M158 116h2M0 117h16M144 117h3M148 117h1M156 117h1M158 117h2M0 118h16M144 118h3M148 118h1M156 118h1M158 118h2M0 119h16M144 119h3M148 119h1M156 119h1M158 119h2M0 120h16M144 120h3M148 120h1M156 120h1M158 120h2M0 121h16M144 121h3M148 121h1M156 121h1M158 121h2M0 122h16M144 122h3M148 122h1M156 122h1M158 122h2M0 123h16M144 123h3M148 123h1M156 123h1M158 123h2M0 124h16M144 124h3M148 124h1M156 124h1M158 124h2M0 125h16M144 125h4M149 125h2M154 125h2M157 125h3M0 126h16M144 126h5M151 126h3M156 126h4M0 127h4M5 127h11M144 127h7M154 127h6M0 128h160M0 129h48M49 129h9M59 129h87M147 129h13M0 130h79M80 130h10M91 130h69M0 131h19M29 131h105M144 131h16M0 132h18M19 132h9M29 132h44M74 132h60M135 132h9M145 132h14M0 133h17M18 133h3M22 133h1M27 133h1M29 133h81M111 133h23M135 133h5M144 133h1M146 133h14M0 134h5M6 134h11M18 134h4M27 134h1M29 134h101M131 134h3M135 134h5M144 134h1M146 134h5M152 134h8M0 135h16M17 135h4M22 135h1M27 135h1M29 135h105M135 135h5M145 135h1M147 135h13M0 136h16M17 136h5M27 136h1M29 136h75M105 136h8M114 136h20M135 136h5M145 136h1M147 136h13M0 137h16M17 137h4M22 137h1M27 137h1M29 137h33M63 137h3M69 137h1M73 137h1M75 137h2M78 137h1M82 137h1M85 137h3M89 137h3M94 137h1M98 137h36M135 137h2M138 137h2M145 137h1M147 137h13M0 138h17M18 138h4M27 138h1M29 138h7M37 138h29M67 138h3M71 138h1M73 138h1M76 138h1M78 138h2M82 138h1M84 138h1M86 138h1M88 138h1M90 138h1M92 138h4M97 138h37M137 138h3M144 138h1M146 138h14M0 139h13M14 139h3M18 139h3M22 139h1M27 139h1M64 139h2M67 139h3M71 139h1M73 139h1M76 139h1M78 139h2M81 139h2M84 139h1M86 139h1M88 139h1M90 139h2M93 139h3M97 139h2M135 139h5M144 139h1M146 139h14M0 140h18M19 140h9M64 140h2M67 140h3M71 140h1M73 140h1M75 140h1M78 140h2M81 140h2M85 140h2M90 140h3M94 140h2M97 140h2M135 140h9M145 140h15M0 141h17M18 141h1M29 141h37M68 141h2M71 141h1M73 141h1M75 141h1M78 141h2M81 141h2M84 141h1M86 141h1M88 141h1M90 141h3M94 141h2M97 141h37M144 141h16M0 142h66M69 142h1M73 142h1M75 142h2M78 142h2M81 142h2M84 142h1M86 142h1M88 142h1M90 142h1M93 142h3M97 142h63M0 143h160" />
<path stroke="#000000" d="M45 0h1M50 1h1M102 3h1M18 6h1M42 6h1M131 7h1M60 9h1M84 15h1M8 31h1M4 50h1M150 51h1M14 52h1M151 53h1M150 60h1M6 69h1M2 70h1M11 70h1M151 86h1M9 87h1M151 101h1M48 129h1M159 132h1M110 133h1M130 134h1M151 134h1M104 136h1M113 136h1M36 138h1M81 138h1M135 138h1" />
<path stroke="#000000" d="M79 0h1M82 0h1M74 2h1M27 4h1M30 10h1M103 15h1M150 31h1M149 41h1M8 50h1M13 57h1M145 66h1M10 72h1M145 72h1M12 73h1M11 77h1M158 80h1M4 81h1M3 85h1M153 94h1M9 100h1M158 113h1M58 129h1M90 130h1M73 132h1M5 134h1M62 137h1M137 137h1M136 138h1M67 141h1" />
<path stroke="#000000" d="M15 5h1M137 6h1M85 7h1M141 8h1M29 9h1M144 11h1M35 12h1M86 12h1M130 13h1M134 15h1M146 15h1M10 22h1M4 25h1M15 26h1M153 32h1M148 34h1M13 55h1M156 62h1M150 71h1M156 74h1M9 110h1M8 111h1M4 127h1M146 129h1M79 130h1M13 139h1M17 141h1" />
<path stroke="#ffffff" d="M151 16h3M149 17h2M154 17h2M148 18h1M151 18h3M156 18h1M147 19h1M149 19h7M157 19h1M147 20h1M149 20h7M157 20h1M147 21h1M149 21h7M157 21h1M147 22h1M149 22h5M155 22h1M157 22h1M147 23h1M149 23h7M157 23h1M147 24h1M149 24h7M157 24h1M147 25h1M149 25h7M157 25h1M147 26h1M149 26h7M157 26h1M147 27h1M157 27h1M147 28h11M155 29h2M155 30h2M155 31h2M155 32h2M155 33h2M155 34h2M155 35h2M155 36h2M155 37h2M155 38h2M155 39h2M155 40h2M155 41h2M155 42h2M155 43h2M155 44h2M155 45h2M155 46h2M155 47h2M155 48h2M155 49h2M155 50h2M155 51h2M153 53h6M153 54h1M156 54h1M158 54h1M154 55h2M157 55h1M153 57h6M155 58h1M158 58h1M153 59h2M156 59h2M153 61h6M154 63h4M153 64h1M158 64h1M153 65h1M156 65h1M158 65h1M153 66h4M153 68h6M156 69h1M153 70h6M158 72h1M153 73h6M158 74h1M153 76h6M156 77h2M154 78h2M153 79h6M153 81h6M153 82h1M156 82h1M158 82h1M153 84h1M157 84h1M153 85h1M156 85h1M158 85h1M154 86h2M158 86h1M153 88h1M157 88h1M153 89h1M156 89h1M158 89h1M154 90h2M158 90h1M155 92h2M155 93h2M155 94h2M155 95h2M155 96h2M155 97h2M155 98h2M155 99h2M155 100h2M155 101h2M155 102h2M155 103h2M155 104h2M155 105h2M155 106h2M155 107h2M155 108h2M155 109h2M155 110h2M155 111h2M155 112h2M155 113h2M155 114h2M147 115h11M147 116h1M157 116h1M147 117h1M157 117h1M147 118h1M157 118h1M147 119h1M157 119h1M147 120h1M157 120h1M147 121h1M157 121h1M147 122h1M157 122h1M147 123h1M157 123h1M147 124h1M157 124h1M148 125h1M156 125h1M149 126h2M154 126h2M151 127h3M19 131h10M134 131h10M18 132h1M28 132h1M134 132h1M144 132h1M17 133h1M25 133h1M28 133h1M134 133h1M140 133h4M145 133h1M17 134h1M26 134h1M28 134h1M134 134h1M141 134h3M145 134h1M16 135h1M25 135h1M28 135h1M134 135h1M140 135h5M146 135h1M16 136h1M26 136h1M28 136h1M134 136h1M140 136h5M146 136h1M16 137h1M25 137h1M28 137h1M66 137h3M70 137h3M74 137h1M77 137h1M79 137h3M83 137h2M88 137h1M92 137h2M95 137h3M134 137h1M140 137h5M146 137h1M17 138h1M26 138h1M28 138h1M66 138h1M70 138h1M72 138h1M74 138h2M77 138h1M80 138h1M83 138h1M85 138h1M87 138h1M89 138h1M91 138h1M96 138h1M134 138h1M140 138h4M145 138h1M17 139h1M25 139h1M28 139h36M66 139h1M70 139h1M72 139h1M74 139h2M77 139h1M80 139h1M83 139h1M85 139h1M87 139h1M89 139h1M92 139h1M96 139h1M99 139h36M140 139h4M145 139h1M18 140h1M28 140h36M66 140h1M70 140h1M72 140h1M74 140h1M76 140h2M80 140h1M83 140h2M87 140h3M93 140h1M96 140h1M99 140h36M144 140h1M19 141h10M66 141h1M70 141h1M72 141h1M74 141h1M76 141h2M80 141h1M83 141h1M85 141h1M87 141h1M89 141h1M93 141h1M96 141h1M134 141h7M142 141h2M66 142h3M70 142h3M74 142h1M77 142h1M80 142h1M83 142h1M85 142h1M87 142h1M89 142h1M91 142h2M96 142h1" />
<path stroke="#fffffe" d="M154 22h1" />
<path stroke="#a2a2a2" d="M149 117h7M149 118h7M149 119h7M149 120h7M149 121h7M149 122h7M149 123h7M149 124h7M151 125h3M24 133h1M26 133h1M25 134h1M24 135h1M26 135h1" />
<path stroke="#515151" d="M21 133h1M23 133h1M22 134h1M24 134h1M21 135h1M23 135h1M22 136h1M24 136h1M21 137h1M23 137h1M22 138h1M24 138h1M21 139h1M23 139h1" />
<path stroke="#9d9d9d" d="M23 134h1M23 136h1M25 136h1M24 137h1M26 137h1M23 138h1M25 138h1M24 139h1M26 139h1" />
<path stroke="#fffeff" d="M140 134h1" />
<path stroke="#feffff" d="M141 141h1" />
</svg>