<svg xmlns="http://www.w3.org/2000/svg" viewBox="0 -0.5 160 144" shape-rendering="crispEdges">
<metadata>Made with Pixels to Svg https://codepen.io/shshaw/pen/XbxvNj</metadata>
<path stroke="#000000" d="M60 55h12M73 55h4M78 55h23M60 56h11M72 56h29M60 57h3M66 57h35M61 58h1M66 58h35M60 59h2M64 59h1M66 59h35M60 60h1M66 60h1M69 60h1M72 60h1M78 60h3M87 60h3M93 60h3M100 60h1M60 61h1M66 61h1M72 61h1M79 61h2M88 61h1M94 61h1M100 61h1M60 62h2M64 62h3M71 62h6M79 62h2M83 62h1M85 62h1M88 62h1M91 62h1M94 62h1M97 62h4M60 63h2M64 63h3M70 63h4M79 63h2M83 63h1M85 63h1M88 63h1M91 63h1M94 63h2M98 63h3M60 64h2M64 64h3M69 64h4M79 64h2M83 64h1M85 64h1M88 64h1M94 64h3M99 64h2M60 65h2M64 65h3M69 65h4M75 65h2M79 65h2M83 65h1M85 65h1M88 65h1M91 65h7M100 65h1M60 66h2M64 66h3M69 66h4M80 66h1M83 66h1M85 66h1M88 66h1M93 66h2M100 66h1M60 67h2M64 67h3M69 67h5M77 67h1M80 67h1M83 67h1M85 67h1M88 67h2M93 67h2M99 67h2M60 68h41M60 69h31M92 69h9M60 70h31M92 70h9M56 73h4M63 73h2M66 73h1M79 73h1M103 73h1M56 74h4M63 74h4M77 74h3M103 74h3M56 75h5M63 75h4M75 75h5M103 75h5M56 76h5M63 76h4M75 76h5M103 76h5M56 77h6M63 77h4M77 77h3M103 77h3M56 78h6M63 78h4M79 78h1M103 78h1M56 79h11M56 80h11M68 80h8M56 81h4M61 81h6M68 81h8M56 82h4M61 82h6M68 82h3M73 82h3M56 83h4M62 83h5M68 83h3M73 83h3M56 84h4M62 84h5M68 84h3M73 84h3M56 85h4M63 85h4M68 85h3M73 85h3M56 86h4M63 86h4M68 86h8M78 86h1M56 87h4M63 87h4M68 87h8M77 87h2" />
<path stroke="#000100" d="M72 55h1M71 56h1M60 58h1M65 59h1M91 69h1M77 86h1" />
<path stroke="#010000" d="M77 55h1M65 73h1" />
<path stroke="#ffffff" d="M63 57h3M62 58h4M62 59h2M61 60h5M67 60h2M70 60h2M73 60h5M81 60h6M90 60h3M96 60h4M61 61h5M67 61h5M73 61h6M81 61h7M89 61h5M95 61h5M62 62h2M67 62h4M77 62h2M81 62h2M84 62h1M86 62h2M89 62h2M92 62h2M95 62h2M62 63h2M67 63h3M74 63h5M81 63h2M84 63h1M86 63h2M89 63h1M92 63h2M96 63h2M62 64h2M67 64h2M73 64h6M81 64h2M84 64h1M86 64h2M89 64h5M97 64h2M62 65h2M67 65h2M73 65h2M77 65h2M81 65h2M84 65h1M86 65h2M89 65h2M98 65h2M62 66h2M67 66h2M73 66h7M81 66h2M84 66h1M86 66h2M89 66h4M95 66h5M62 67h2M67 67h2M74 67h3M78 67h2M81 67h2M84 67h1M86 67h2M90 67h3M95 67h4" />
<path stroke="#feffff" d="M90 63h1" />
<path stroke="#000001" d="M91 70h1" />
</svg>