<svg xmlns="http://www.w3.org/2000/svg" viewBox="0 -0.5 160 144" shape-rendering="crispEdges">
<metadata>Made with Pixels to Svg https://codepen.io/shshaw/pen/XbxvNj</metadata>
<path stroke="#515151" d="M0 128h7M24 128h9M50 128h14M79 128h9M103 128h9M127 128h9M151 128h9M0 129h7M12 129h4M25 129h8M42 129h4M51 129h13M68 129h4M80 129h3M84 129h4M96 129h4M105 129h7M116 129h4M129 129h7M148 129h3M152 129h8M0 130h7M12 130h4M25 130h8M42 130h4M51 130h13M68 130h4M80 130h8M96 130h4M105 130h7M116 130h4M129 130h7M148 130h3M152 130h8M0 131h7M12 131h4M25 131h8M42 131h4M51 131h13M68 131h4M80 131h8M96 131h4M105 131h7M116 131h4M129 131h7M148 131h3M152 131h8M0 132h7M13 132h3M25 132h8M42 132h4M51 132h13M68 132h4M80 132h8M96 132h4M105 132h7M116 132h4M129 132h7M148 132h3M152 132h8M0 133h7M12 133h4M25 133h8M42 133h4M51 133h8M60 133h4M68 133h4M80 133h8M96 133h4M105 133h6M116 133h4M129 133h7M148 133h3M152 133h8M0 134h7M12 134h4M25 134h8M42 134h4M51 134h13M68 134h4M80 134h8M96 134h4M105 134h4M110 134h2M116 134h4M129 134h7M148 134h3M152 134h8M0 135h7M25 135h8M51 135h12M68 135h4M80 135h8M96 135h4M105 135h7M116 135h4M129 135h7M148 135h3M152 135h8M0 136h7M25 136h8M51 136h13M68 136h4M80 136h8M96 136h4M105 136h7M116 136h4M129 136h7M148 136h3M152 136h8M0 137h7M25 137h8M51 137h10M62 137h2M68 137h4M80 137h8M96 137h4M105 137h7M116 137h4M129 137h7M148 137h3M152 137h8M0 138h7M25 138h8M51 138h13M68 138h4M80 138h8M96 138h4M105 138h7M116 138h4M129 138h7M148 138h3M152 138h8M0 139h7M25 139h8M51 139h13M68 139h4M80 139h8M96 139h4M105 139h7M116 139h4M129 139h7M148 139h3M152 139h8M0 140h7M25 140h8M51 140h13M68 140h4M80 140h8M96 140h4M105 140h7M116 140h4M129 140h7M148 140h3M152 140h8M0 141h7M25 141h8M51 141h13M68 141h4M80 141h8M96 141h4M105 141h7M116 141h4M129 141h7M148 141h3M152 141h8M0 142h7M25 142h8M51 142h13M68 142h4M80 142h8M97 142h3M105 142h4M110 142h2M116 142h4M129 142h7M148 142h3M152 142h8M0 143h7M25 143h1M27 143h6M51 143h14M80 143h9M105 143h8M129 143h8M152 143h8" />
<path stroke="#ffffff" d="M7 128h17M33 128h17M64 128h15M88 128h15M112 128h15M136 128h15M7 129h1M21 129h3M33 129h5M64 129h4M88 129h1M100 129h4M112 129h1M124 129h4M136 129h1M140 129h4M7 130h1M20 130h4M33 130h5M64 130h4M88 130h1M101 130h3M112 130h1M124 130h4M136 130h1M140 130h4M7 131h1M20 131h4M33 131h5M64 131h4M88 131h1M100 131h4M112 131h1M124 131h4M136 131h1M140 131h4M7 132h1M20 132h3M33 132h5M64 132h4M88 132h1M100 132h4M112 132h1M124 132h4M136 132h1M140 132h4M7 133h1M20 133h4M33 133h5M65 133h3M88 133h1M100 133h4M112 133h1M124 133h4M136 133h1M140 133h4M7 134h1M20 134h4M33 134h5M64 134h4M88 134h1M100 134h4M112 134h1M124 134h4M136 134h1M140 134h4M64 135h3M88 135h1M100 135h4M112 135h1M124 135h4M136 135h1M140 135h4M33 136h18M64 136h4M88 136h1M100 136h4M124 136h4M136 136h1M140 136h4M9 137h4M14 137h4M19 137h4M33 137h2M36 137h2M39 137h1M49 137h2M64 137h4M88 137h1M100 137h3M112 137h1M124 137h4M136 137h1M140 137h4M9 138h1M12 138h1M14 138h1M17 138h1M19 138h1M33 138h2M37 138h1M39 138h1M41 138h4M46 138h5M64 138h4M88 138h1M100 138h4M124 138h4M136 138h1M140 138h4M9 139h4M14 139h1M17 139h1M19 139h4M33 139h2M39 139h1M44 139h1M46 139h1M49 139h2M64 139h4M88 139h1M100 139h4M112 139h1M124 139h4M136 139h1M140 139h4M9 140h1M14 140h1M17 140h1M22 140h1M33 140h2M36 140h1M39 140h1M41 140h4M47 140h1M49 140h2M64 140h4M88 140h1M100 140h4M112 140h1M124 140h4M136 140h1M140 140h4M9 141h1M14 141h4M19 141h4M33 141h2M36 141h2M39 141h1M44 141h1M49 141h2M64 141h4M88 141h1M100 141h4M112 141h1M124 141h4M136 141h1M140 141h4M33 142h18M64 142h4M88 142h1M100 142h3M112 142h1M124 142h4M136 142h1M140 142h4" />
<path stroke="#000000" d="M8 129h4M24 129h1M46 129h2M49 129h2M76 129h4M89 129h3M104 129h1M120 129h4M128 129h1M137 129h3M151 129h1M8 130h4M24 130h1M46 130h5M76 130h4M89 130h3M104 130h1M120 130h4M128 130h1M137 130h1M139 130h1M151 130h1M8 131h4M24 131h1M46 131h5M76 131h4M89 131h3M104 131h1M120 131h4M128 131h1M137 131h3M151 131h1M8 132h4M24 132h1M46 132h5M76 132h4M89 132h3M104 132h1M120 132h4M128 132h1M137 132h3M151 132h1M8 133h4M24 133h1M46 133h5M76 133h4M89 133h3M104 133h1M120 133h4M128 133h1M137 133h3M151 133h1M8 134h4M24 134h1M46 134h5M76 134h4M89 134h3M104 134h1M120 134h4M128 134h1M137 134h3M151 134h1M7 135h18M33 135h18M76 135h4M89 135h3M104 135h1M120 135h4M128 135h1M137 135h3M151 135h1M7 136h4M12 136h13M76 136h4M89 136h3M104 136h1M120 136h4M128 136h1M137 136h3M151 136h1M7 137h2M13 137h1M18 137h1M23 137h2M35 137h1M38 137h1M40 137h4M45 137h4M76 137h4M89 137h3M104 137h1M120 137h4M128 137h1M137 137h3M151 137h1M7 138h2M10 138h2M13 138h1M15 138h2M18 138h1M20 138h5M35 138h2M38 138h1M40 138h1M45 138h1M76 138h4M89 138h3M104 138h1M120 138h4M128 138h1M137 138h3M151 138h1M7 139h2M13 139h1M15 139h2M18 139h1M23 139h2M35 139h4M40 139h4M45 139h1M47 139h2M76 139h4M89 139h3M104 139h1M120 139h4M128 139h1M137 139h3M151 139h1M7 140h2M10 140h4M15 140h2M18 140h4M23 140h2M35 140h1M37 140h2M40 140h1M45 140h1M48 140h1M76 140h4M89 140h3M104 140h1M120 140h4M128 140h1M137 140h3M151 140h1M7 141h2M10 141h4M18 141h1M23 141h2M35 141h1M38 141h1M40 141h4M45 141h4M76 141h4M89 141h3M104 141h1M120 141h4M128 141h1M137 141h3M151 141h1M7 142h11M19 142h6M76 142h4M89 142h3M104 142h1M120 142h4M128 142h1M137 142h3M151 142h1M7 143h18M33 143h15M49 143h2M65 143h15M89 143h15M113 143h3M117 143h12M137 143h15" />
<path stroke="#a2a2a2" d="M16 129h4M38 129h4M72 129h4M92 129h4M113 129h3M144 129h4M16 130h4M38 130h4M72 130h4M92 130h4M113 130h3M144 130h4M16 131h4M38 131h4M72 131h4M92 131h4M113 131h3M144 131h1M146 131h2M16 132h4M38 132h4M72 132h4M92 132h4M113 132h3M144 132h4M16 133h4M38 133h4M72 133h4M92 133h4M113 133h3M144 133h4M16 134h4M38 134h4M72 134h4M92 134h4M113 134h3M144 134h4M72 135h4M92 135h4M113 135h3M144 135h4M72 136h4M92 136h4M113 136h3M144 136h4M72 137h4M92 137h4M113 137h3M144 137h4M72 138h4M92 138h4M113 138h3M144 138h4M72 139h1M74 139h2M92 139h4M113 139h3M144 139h4M72 140h4M92 140h4M113 140h3M144 140h4M72 141h4M92 141h4M113 141h3M144 141h4M72 142h4M92 142h4M113 142h3M144 142h4" />
<path stroke="#fffffe" d="M20 129h1M100 130h1M23 132h1M64 133h1M112 136h1M103 142h1" />
<path stroke="#010000" d="M48 129h1M11 136h1" />
<path stroke="#515150" d="M83 129h1M109 142h1" />
<path stroke="#000100" d="M138 130h1M18 142h1M104 143h1M116 143h1" />
<path stroke="#a3a2a2" d="M145 131h1" />
<path stroke="#505151" d="M12 132h1M59 133h1M109 134h1M63 135h1M61 137h1" />
<path stroke="#515051" d="M111 133h1M96 142h1M26 143h1" />
<path stroke="#fffeff" d="M67 135h1M44 137h1M112 138h1" />
<path stroke="#feffff" d="M103 137h1M46 140h1" />
<path stroke="#a2a2a3" d="M73 139h1" />
<path stroke="#000001" d="M48 143h1" />
</svg>