<svg xmlns="http://www.w3.org/2000/svg" viewBox="0 -0.5 160 144" shape-rendering="crispEdges">
<metadata>Made with Pixels to Svg https://codepen.io/shshaw/pen/XbxvNj</metadata>
<path stroke="#a2a2a2" d="M79 17h2M78 18h1M81 18h1M77 19h1M82 19h1M76 20h1M83 20h1M75 21h1M84 21h1M75 22h10M21 67h2M137 67h2M20 68h1M22 68h1M137 68h1M139 68h1M19 69h1M22 69h1M137 69h1M140 69h1M18 70h1M22 70h1M137 70h1M141 70h1M17 71h1M137 71h1M142 71h1M17 72h1M22 72h1M137 72h1M142 72h1M18 73h1M22 73h1M137 73h1M141 73h1M19 74h1M22 74h1M137 74h1M140 74h1M20 75h1M22 75h1M137 75h1M139 75h1M21 76h2M137 76h2M75 121h10M75 122h1M84 122h1M76 123h1M83 123h1M77 124h1M82 124h1M78 125h1M81 125h1M79 126h2" />
<path stroke="#a3a2a2" d="M22 71h1" />
</svg>