<svg xmlns="http://www.w3.org/2000/svg" viewBox="0 -0.5 16 144" shape-rendering="crispEdges">
<metadata>Made with Pixels to Svg https://codepen.io/shshaw/pen/XbxvNj</metadata>
<path stroke="#515151" d="M0 0h3M4 0h12M0 1h2M3 1h4M8 1h8M0 2h15M0 3h16M0 4h16M0 5h16M0 6h5M6 6h10M0 7h3M4 7h12M1 8h3M5 8h7M13 8h3M0 9h4M5 9h4M10 9h6M0 10h16M0 11h5M6 11h6M13 11h3M0 12h7M8 12h8M0 13h9M10 13h6M0 14h2M3 14h2M6 14h4M11 14h5M0 15h3M4 15h12M0 16h4M5 16h1M10 16h6M0 17h1M2 17h1M11 17h5M0 18h3M12 18h4M0 19h1M13 19h3M0 20h2M13 20h3M0 21h2M14 21h2M1 22h1M13 22h3M0 23h2M13 23h3M0 24h2M13 24h1M15 24h1M0 25h2M13 25h3M0 26h2M13 26h3M0 27h2M13 27h3M0 28h1M13 28h2M0 29h3M5 29h2M8 29h4M13 29h3M0 30h3M6 30h1M8 30h5M14 30h2M0 31h3M5 31h2M8 31h8M0 32h3M5 32h11M0 33h3M5 33h11M0 34h3M5 34h1M7 34h9M0 35h1M2 35h1M5 35h2M8 35h4M13 35h3M0 36h2M5 36h1M7 36h9M0 37h3M5 37h5M11 37h3M15 37h1M0 38h1M2 38h1M5 38h11M0 39h3M5 39h3M10 39h6M0 40h3M5 40h4M10 40h5M0 41h1M2 41h1M5 41h2M8 41h7M0 42h2M5 42h9M15 42h1M0 43h3M5 43h11M0 44h3M5 44h8M14 44h2M0 45h3M5 45h11M0 46h3M5 46h6M12 46h4M0 47h1M2 47h1M5 47h11M0 48h3M5 48h11M0 49h3M5 49h2M8 49h8M0 50h3M5 50h3M9 50h4M14 50h2M0 51h3M5 51h2M8 51h4M13 51h3M0 52h2M5 52h8M14 52h2M0 53h3M5 53h7M13 53h3M1 54h2M6 54h2M9 54h7M0 55h3M5 55h1M7 55h9M0 56h3M5 56h11M0 57h3M5 57h10M0 58h6M7 58h5M13 58h1M15 58h1M9 59h1M12 59h4M8 60h8M8 61h8M8 62h6M8 63h7M8 64h5M14 64h2M8 65h2M11 65h5M8 66h4M13 66h3M8 67h4M13 67h3M8 68h6M8 69h8M8 70h8M8 71h8M8 72h8M8 73h3M13 73h3M8 74h1M10 74h5M8 75h8M8 76h4M13 76h3M8 77h8M8 78h8M8 79h2M11 79h5M8 80h8M8 81h4M13 81h1M15 81h1M8 82h5M15 82h1M8 83h6M15 83h1M0 84h16M0 85h2M5 85h11M0 86h3M5 86h9M15 86h1M0 87h3M5 87h10M0 88h1M2 88h1M6 88h10M0 89h3M5 89h11M0 90h2M5 90h8M14 90h2M0 91h3M5 91h7M15 91h1M0 92h3M5 92h1M7 92h3M11 92h5M0 93h3M5 93h2M8 93h8M1 94h2M5 94h11M0 95h3M6 95h3M10 95h6M0 96h3M5 96h6M12 96h4M0 97h3M5 97h4M10 97h3M14 97h2M0 98h3M5 98h11M0 99h3M5 99h6M12 99h4M0 100h3M5 100h10M0 101h3M6 101h1M8 101h8M0 102h3M5 102h10M0 103h3M5 103h4M10 103h3M15 103h1M0 104h3M5 104h3M9 104h7M0 105h3M5 105h3M9 105h7M0 106h1M2 106h1M5 106h11M1 107h2M5 107h10M0 108h3M5 108h9M15 108h1M0 109h3M6 109h1M8 109h4M13 109h3M0 110h3M5 110h3M9 110h7M0 111h2M5 111h11M0 112h3M5 112h4M10 112h3M15 112h1M0 113h3M5 113h3M9 113h7M0 114h2M5 114h5M11 114h2M14 114h2M0 115h2M13 115h3M0 116h2M13 116h3M0 117h2M13 117h3M0 118h2M13 118h1M15 118h1M1 119h1M13 119h3M0 120h2M13 120h3M0 121h2M13 121h1M15 121h1M0 122h2M13 122h3M0 123h2M13 123h1M0 124h2M13 124h3M2 125h1M12 125h4M0 126h4M11 126h5M0 127h6M10 127h6M0 128h16M0 129h16M2 130h14M0 131h3M4 131h4M9 131h7M0 132h16M2 133h4M7 133h6M14 133h2M0 134h8M9 134h7M0 135h9M10 135h1M12 135h4M0 136h6M7 136h2M10 136h6M0 137h10M11 137h1M13 137h3M0 138h8M9 138h2M12 138h4M0 139h16M0 140h4M5 140h11M1 141h3M5 141h2M8 141h8M0 142h16M0 143h3M4 143h9M15 143h1" />
<path stroke="#505151" d="M3 0h1M2 1h1M4 8h1M9 9h1M10 14h1M3 15h1M1 17h1M7 29h1M1 35h1M7 35h1M6 36h1M14 37h1M1 38h1M9 39h1M1 41h1M7 41h1M13 44h1M11 46h1M1 47h1M13 50h1M12 51h1M2 52h1M0 54h1M15 57h1M14 58h1M10 59h1M15 63h1M10 65h1M12 66h1M11 73h1M12 81h1M14 82h1M2 85h1M15 87h1M5 88h1M14 91h1M10 92h1M7 101h1M15 102h1M14 103h1M5 109h1M14 112h1M14 118h1M14 121h1M15 123h1M1 125h1M9 135h1M10 137h1M4 140h1M0 141h1M13 143h1" />
<path stroke="#515150" d="M7 1h1M15 2h1M5 6h1M0 8h1M12 8h1M12 11h1M4 16h1M3 17h1M1 19h1M14 24h1M1 28h1M12 29h1M5 30h1M7 31h1M12 35h1M2 36h1M10 37h1M8 39h1M15 41h1M2 42h1M14 42h1M7 49h1M13 52h1M12 53h1M5 54h1M8 54h1M15 62h1M13 64h1M15 68h1M9 74h1M15 74h1M10 79h1M14 81h1M13 82h1M1 88h1M2 90h1M13 91h1M6 92h1M9 95h1M11 96h1M13 97h1M11 99h1M13 103h1M8 105h1M1 106h1M0 107h1M15 107h1M14 108h1M7 109h1M2 111h1M13 112h1M2 114h1M0 119h1M14 123h1M0 125h1M1 130h1M3 131h1M1 133h1M13 133h1M11 135h1M12 137h1M8 138h1M11 138h1M3 143h1" />
<path stroke="#515051" d="M3 7h1M4 9h1M5 11h1M7 12h1M9 13h1M2 14h1M5 14h1M9 16h1M13 21h1M0 22h1M15 28h1M7 30h1M13 30h1M6 34h1M9 40h1M15 40h1M8 50h1M7 51h1M6 55h1M6 58h1M12 58h1M8 59h1M11 59h1M14 62h1M12 67h1M14 68h1M12 73h1M12 76h1M14 83h1M14 86h1M13 90h1M12 91h1M7 93h1M0 94h1M5 95h1M9 97h1M15 100h1M5 101h1M9 103h1M8 104h1M12 109h1M8 110h1M9 112h1M8 113h1M10 114h1M13 114h1M9 127h1M0 130h1M8 131h1M0 133h1M6 133h1M8 134h1M6 136h1M9 136h1M4 141h1M7 141h1M14 143h1" />
<path stroke="#ffffff" d="M6 16h3M4 17h2M9 17h2M3 18h1M7 18h1M11 18h1M2 19h1M4 19h1M6 19h1M8 19h1M10 19h1M12 19h1M2 20h1M9 20h1M12 20h1M2 21h1M4 21h1M6 21h1M8 21h1M10 21h1M12 21h1M2 22h1M5 22h1M7 22h1M9 22h1M12 22h1M2 23h1M4 23h1M6 23h1M8 23h1M10 23h1M12 23h1M2 24h1M5 24h1M7 24h1M9 24h1M12 24h1M2 25h1M4 25h1M6 25h1M8 25h1M10 25h1M12 25h1M2 26h1M5 26h1M7 26h1M9 26h1M12 26h1M2 27h1M12 27h1M2 28h9M12 28h1M3 29h2M3 30h2M3 31h2M3 32h2M3 33h2M3 34h2M3 35h2M3 36h2M3 37h2M3 38h2M3 39h2M3 40h1M3 41h2M3 42h2M3 43h2M3 44h2M3 45h2M3 46h2M3 47h2M3 48h2M3 49h2M3 50h2M3 51h2M3 52h2M3 53h2M3 54h2M3 55h2M3 56h2M3 57h2M3 60h1M5 60h1M1 61h1M4 61h1M1 62h6M1 64h6M1 65h1M6 65h1M1 66h6M1 68h1M1 69h2M4 69h3M1 70h1M1 72h1M6 72h1M1 73h1M6 73h1M1 74h3M5 74h2M2 76h5M1 77h1M4 77h1M2 78h5M1 80h1M3 80h1M1 81h1M3 81h1M1 82h6M3 85h2M3 86h2M3 87h2M3 88h2M4 89h1M3 90h2M3 91h2M3 92h2M3 93h2M3 94h1M3 95h2M3 96h2M3 97h2M3 98h2M3 99h2M3 100h2M4 101h1M3 102h2M3 103h2M3 104h2M3 105h2M3 106h2M3 107h2M3 108h2M3 109h1M3 110h2M3 111h2M3 112h2M3 113h2M3 114h2M2 115h6M9 115h4M2 116h1M12 116h1M2 117h1M7 117h1M12 117h1M2 118h1M12 118h1M2 119h1M5 119h1M9 119h1M2 120h1M4 120h1M6 120h1M8 120h1M10 120h1M2 121h1M9 121h1M12 121h1M2 122h1M12 122h1M2 123h1M7 123h1M12 123h1M2 124h1M6 124h1M8 124h1M12 124h1M3 125h1M7 125h1M11 125h1M4 126h2M9 126h2M6 127h1M8 127h1" />
<path stroke="#000000" d="M6 17h2M4 18h2M9 18h2M3 19h1M11 19h1M3 20h1M3 21h1M11 21h1M3 22h1M11 22h1M3 23h1M11 23h1M3 24h1M11 24h1M3 26h1M11 26h1M3 27h9M0 59h6M7 59h1M0 60h2M4 60h1M7 60h1M0 61h1M2 61h2M5 61h3M0 62h1M7 62h1M0 63h8M0 64h1M7 64h1M2 65h4M7 65h1M0 66h1M7 66h1M0 67h4M5 67h3M0 68h1M2 68h6M0 69h1M7 69h1M2 70h2M5 70h3M0 71h1M2 71h6M0 72h1M3 72h3M7 72h1M0 73h1M2 73h4M7 73h1M7 74h1M0 75h8M0 76h2M7 76h1M0 77h1M2 77h2M5 77h3M0 78h2M7 78h1M1 79h7M0 80h1M2 80h1M4 80h1M6 80h2M0 81h1M2 81h1M4 81h3M0 82h1M1 83h7M3 116h2M6 116h1M8 116h1M10 116h2M3 117h1M11 117h1M11 118h1M11 119h1M3 120h1M11 120h1M3 121h1M11 121h1M3 122h1M3 123h1M11 123h1M3 124h1M11 124h1M4 125h2M9 125h2M6 126h1M8 126h1" />
<path stroke="#000100" d="M8 17h1M11 20h1M3 25h1M0 70h1M0 79h1M5 80h1M7 81h1M5 116h1M3 118h1M11 122h1M7 126h1" />
<path stroke="#a2a2a2" d="M6 18h1M7 19h1M9 19h1M4 20h1M6 20h1M8 20h1M10 20h1M5 21h1M7 21h1M9 21h1M4 22h1M6 22h1M8 22h1M10 22h1M5 23h1M7 23h1M4 24h1M6 24h1M8 24h1M10 24h1M5 25h1M7 25h1M9 25h1M4 26h1M6 26h1M8 26h1M10 26h1M4 117h3M9 117h1M4 118h7M4 119h1M6 119h1M8 119h1M5 120h1M7 120h1M9 120h1M4 121h1M6 121h3M10 121h1M4 122h7M5 123h2M8 123h2M4 124h2M7 124h1M9 124h2M6 125h1M8 125h1" />
<path stroke="#a2a2a3" d="M8 18h1M9 23h1M8 117h1" />
<path stroke="#a3a2a2" d="M5 19h1M7 119h1M10 119h1" />
<path stroke="#fffeff" d="M5 20h1" />
<path stroke="#feffff" d="M7 20h1M11 28h1M6 60h1M3 69h1M4 74h1M8 115h1M12 120h1M5 121h1" />
<path stroke="#010000" d="M11 25h1M1 71h1M7 116h1" />
<path stroke="#fffffe" d="M4 40h1M2 60h1M3 89h1M4 94h1M3 101h1M4 109h1M12 119h1M7 127h1" />
<path stroke="#000001" d="M6 59h1M0 65h1M4 67h1M4 70h1M2 72h1M0 74h1M7 82h1M0 83h1M9 116h1M3 119h1" />
<path stroke="#a2a3a2" d="M10 117h1M4 123h1M10 123h1" />
</svg>