<svg xmlns="http://www.w3.org/2000/svg" viewBox="0 -0.5 16 16" shape-rendering="crispEdges">
<metadata>Made with Pixels to Svg https://codepen.io/shshaw/pen/XbxvNj</metadata>
<path stroke="#000100" d="M4 0h1M3 3h1M10 7h1M2 9h1M10 9h1M6 11h1M10 11h1M7 12h1" />
<path stroke="#000000" d="M5 0h2M4 1h1M9 2h1M13 4h1M2 5h1M10 5h1M13 5h1M11 7h2M3 10h2M10 10h1M10 12h1M7 13h1M7 14h1M9 15h1" />
<path stroke="#000101" d="M7 0h1M9 1h1M13 6h1M1 7h1M10 8h1" />
<path stroke="#010001" d="M8 0h1M10 13h1" />
<path stroke="#000001" d="M9 0h1M4 2h1M2 4h1M12 4h1M1 8h1M7 11h1" />
<path stroke="#fffffe" d="M5 1h1M4 5h2M12 5h1M3 6h1M5 7h1M7 7h1M9 8h1" />
<path stroke="#ffffff" d="M6 1h1M8 1h1M5 2h1M8 2h1M4 3h1M6 3h2M10 3h1M4 4h1M7 4h4M3 5h1M7 5h1M9 5h1M2 6h1M5 6h1M7 6h1M11 6h1M4 7h1M8 7h1M5 8h1M7 8h2M3 9h3M8 9h2M6 10h2M9 10h1M9 11h1M9 12h1" />
<path stroke="#fffeff" d="M7 1h1M6 4h1M8 5h1M6 7h1M2 8h1M6 8h1M8 11h1M8 12h1M8 13h1M8 14h1" />
<path stroke="#fffefe" d="M6 2h2M3 4h1M4 6h1M6 6h1M2 7h1M3 8h1M7 9h1" />
<path stroke="#010100" d="M10 2h1" />
<path stroke="#fefefe" d="M5 3h1M11 5h1M6 9h1" />
<path stroke="#feffff" d="M8 3h2M11 4h1M6 5h1M8 6h1M12 6h1M3 7h1M4 8h1M9 14h1" />
<path stroke="#010000" d="M11 3h1M1 6h1M10 14h1" />
<path stroke="#fefeff" d="M5 4h1M9 7h1M8 10h1M9 13h1" />
<path stroke="#fefffe" d="M9 6h1" />
<path stroke="#010101" d="M10 6h1M5 10h1M8 15h1" />
</svg>