<svg xmlns="http://www.w3.org/2000/svg" viewBox="0 -0.5 160 16" shape-rendering="crispEdges">
<metadata>Made with Pixels to Svg https://codepen.io/shshaw/pen/XbxvNj</metadata>
<path stroke="#515151" d="M0 0h1M2 0h19M22 0h10M47 0h6M54 0h1M56 0h6M63 0h9M87 0h1M89 0h10M100 0h12M127 0h2M130 0h3M134 0h6M141 0h19M0 1h1M2 1h7M10 1h6M18 1h14M33 1h14M48 1h18M67 1h2M70 1h2M88 1h24M128 1h16M145 1h15M0 2h20M21 2h2M24 2h2M27 2h5M33 2h3M37 2h10M49 2h19M70 2h2M88 2h20M109 2h3M119 2h2M128 2h32M1 3h2M4 3h7M12 3h12M25 3h7M33 3h3M37 3h10M48 3h15M64 3h8M88 3h1M90 3h3M94 3h15M110 3h2M118 3h4M128 3h3M132 3h2M135 3h4M140 3h11M152 3h8M1 4h4M6 4h11M18 4h12M31 4h1M33 4h3M37 4h3M41 4h6M48 4h2M51 4h20M88 4h8M97 4h1M99 4h13M117 4h1M119 4h4M128 4h7M136 4h1M138 4h22M1 5h16M18 5h1M20 5h6M27 5h5M33 5h1M39 5h1M43 5h1M48 5h16M65 5h7M76 5h1M83 5h1M88 5h14M103 5h9M118 5h3M129 5h1M131 5h10M143 5h17M1 6h1M3 6h4M8 6h14M23 6h3M27 6h5M35 6h2M42 6h2M46 6h1M48 6h20M69 6h3M75 6h2M83 6h2M88 6h17M106 6h6M119 6h2M128 6h11M140 6h16M157 6h3M1 7h13M15 7h17M35 7h2M43 7h1M48 7h3M52 7h12M65 7h7M74 7h12M88 7h4M93 7h19M119 7h2M128 7h25M154 7h6M0 8h1M3 8h7M11 8h16M28 8h1M30 8h1M35 8h2M39 8h1M42 8h2M48 8h9M58 8h6M65 8h1M67 8h5M74 8h6M81 8h2M84 8h2M88 8h11M100 8h6M107 8h5M119 8h2M128 8h3M132 8h16M149 8h1M151 8h9M0 9h24M25 9h7M33 9h1M38 9h2M43 9h1M46 9h1M49 9h22M75 9h2M83 9h1M88 9h14M103 9h5M109 9h2M119 9h2M128 9h1M130 9h7M138 9h22M1 10h1M3 10h15M19 10h7M27 10h5M33 10h6M40 10h7M48 10h6M55 10h12M68 10h4M76 10h1M83 10h1M88 10h22M111 10h1M119 10h2M129 10h2M132 10h28M0 11h32M33 11h5M39 11h3M44 11h3M48 11h13M62 11h10M88 11h17M106 11h6M117 11h4M122 11h1M128 11h3M132 11h6M139 11h1M141 11h3M145 11h1M147 11h1M149 11h5M155 11h2M158 11h2M2 12h17M20 12h3M24 12h4M29 12h3M33 12h8M42 12h5M48 12h2M51 12h21M88 12h2M91 12h11M103 12h5M109 12h3M118 12h4M128 12h8M137 12h23M0 13h4M5 13h22M28 13h4M33 13h11M45 13h2M48 13h5M54 13h1M56 13h3M60 13h12M88 13h3M92 13h7M100 13h12M120 13h1M128 13h4M133 13h21M155 13h5M0 14h2M3 14h6M10 14h1M12 14h1M14 14h6M21 14h9M31 14h1M33 14h6M40 14h3M44 14h3M48 14h5M54 14h3M58 14h5M64 14h8M88 14h6M96 14h3M100 14h12M128 14h17M146 14h14M0 15h5M6 15h11M18 15h7M26 15h7M48 15h9M58 15h3M62 15h11M88 15h25M128 15h13M142 15h1M144 15h16" />
<path stroke="#515150" d="M1 0h1M55 0h1M129 0h1M140 0h1M9 1h1M66 1h1M144 1h1M26 2h1M36 2h1M68 2h2M0 3h1M24 3h1M36 3h1M89 3h1M93 3h1M131 3h1M151 3h1M0 4h1M30 4h1M36 4h1M71 4h1M96 4h1M118 4h1M137 4h1M0 5h1M19 5h1M26 5h1M128 5h1M142 5h1M22 6h1M68 6h1M139 6h1M92 7h1M153 7h1M1 8h1M10 8h1M46 8h1M57 8h1M64 8h1M150 8h1M24 9h1M42 9h1M84 9h1M39 10h1M110 10h1M121 10h1M131 10h1M38 11h1M42 11h1M121 11h1M131 11h1M0 12h1M28 12h1M41 12h1M102 12h1M4 13h1M44 13h1M53 13h1M59 13h1M119 13h1M13 14h1M20 14h1M30 14h1M53 14h1M57 14h1M63 14h1M95 14h1M5 15h1M17 15h1M25 15h1M141 15h1M143 15h1" />
<path stroke="#505151" d="M21 0h1M62 0h1M99 0h1M133 0h1M16 1h2M69 1h1M20 2h1M108 2h1M63 3h1M5 4h1M17 4h1M40 4h1M98 4h1M17 5h1M38 5h1M64 5h1M130 5h1M141 5h1M7 6h1M39 6h1M156 6h1M64 7h1M2 8h1M27 8h1M31 8h1M80 8h1M99 8h1M106 8h1M148 8h1M71 9h1M108 9h1M2 10h1M26 10h1M67 10h1M128 10h1M105 11h1M144 11h1M146 11h1M1 12h1M90 12h1M108 12h1M27 13h1M2 14h1M9 14h1M11 14h1M39 14h1M99 14h1M145 14h1" />
<path stroke="#ffffff" d="M32 0h5M39 0h5M45 0h2M72 0h4M77 0h10M112 0h4M117 0h10M32 1h1M72 1h1M112 1h1M119 1h2M32 2h1M118 2h1M121 2h1M32 3h1M72 3h1M112 3h1M117 3h1M122 3h1M32 4h1M76 4h1M83 4h1M112 4h1M116 4h1M123 4h1M32 5h1M34 5h4M40 5h3M44 5h3M72 5h1M75 5h1M84 5h1M112 5h1M32 6h3M37 6h2M40 6h2M44 6h2M72 6h1M74 6h1M77 6h6M112 6h1M118 6h1M32 7h3M37 7h2M40 7h3M44 7h3M72 7h2M86 7h1M112 7h1M118 7h1M32 8h1M34 8h1M37 8h2M40 8h2M45 8h1M72 8h1M112 8h1M118 8h1M32 9h1M34 9h4M40 9h2M44 9h2M72 9h1M112 9h1M32 10h1M72 10h1M112 10h1M117 10h2M123 10h1M32 11h1M72 11h1M112 11h1M32 12h1M112 12h1M32 13h1M112 13h1M32 14h1M72 14h1M112 14h1" />
<path stroke="#fffeff" d="M37 0h1M72 4h1M85 6h1M118 9h1M122 10h1M72 12h1" />
<path stroke="#fffffe" d="M38 0h1M44 0h1M76 0h1M33 8h1M116 10h1M72 13h1" />
<path stroke="#515051" d="M53 0h1M88 0h1M1 1h1M23 2h1M48 2h1M3 3h1M11 3h1M109 3h1M134 3h1M139 3h1M50 4h1M135 4h1M102 5h1M0 6h1M2 6h1M26 6h1M105 6h1M0 7h1M14 7h1M39 7h1M51 7h1M29 8h1M66 8h1M83 8h1M131 8h1M48 9h1M102 9h1M111 9h1M129 9h1M137 9h1M0 10h1M18 10h1M43 11h1M61 11h1M140 11h1M148 11h1M154 11h1M157 11h1M19 12h1M23 12h1M50 12h1M136 12h1M55 13h1M91 13h1M99 13h1M132 13h1M154 13h1M43 14h1M94 14h1M57 15h1" />
<path stroke="#feffff" d="M116 0h1M72 2h1M112 2h1M44 8h1" />
<path stroke="#000000" d="M47 1h1M87 1h1M127 1h1M47 2h1M87 2h1M127 2h1M47 3h1M127 3h1M87 4h1M47 5h1M87 5h1M116 5h2M121 5h3M127 5h1M47 6h1M87 6h1M121 6h1M127 6h1M47 7h1M87 7h1M121 7h1M127 7h1M47 8h1M73 8h1M86 8h2M121 8h1M127 8h1M47 9h1M74 9h1M77 9h6M85 9h1M87 9h1M121 9h1M127 9h1M47 10h1M84 10h1M87 10h1M127 10h1M47 11h1M76 11h1M83 11h1M116 11h1M123 11h1M127 11h1M47 12h1M87 12h1M117 12h1M122 12h1M47 13h1M87 13h1M118 13h1M127 13h1M47 14h1M87 14h1M119 14h1M127 14h1M33 15h14M73 15h1M75 15h7M83 15h1M85 15h3M114 15h13" />
<path stroke="#a2a2a2" d="M73 1h14M113 1h6M121 1h5M73 2h5M79 2h4M84 2h3M113 2h5M122 2h1M124 2h1M126 2h1M73 3h1M75 3h1M77 3h10M113 3h4M123 3h4M73 4h3M77 4h6M84 4h3M113 4h2M124 4h3M74 5h1M77 5h6M85 5h1M113 5h3M124 5h3M86 6h1M114 6h4M123 6h4M113 7h5M122 7h2M125 7h2M113 8h5M122 8h5M86 9h1M113 9h5M122 9h2M125 9h2M73 10h2M77 10h1M79 10h1M81 10h2M85 10h2M114 10h2M124 10h3M73 11h3M77 11h6M84 11h1M86 11h1M113 11h3M124 11h1M126 11h1M74 12h13M113 12h4M123 12h4M73 13h2M76 13h6M83 13h4M113 13h2M116 13h2M122 13h1M124 13h1M126 13h1M73 14h1M75 14h5M81 14h6M113 14h6M121 14h4M126 14h1" />
<path stroke="#a2a3a2" d="M126 1h1M123 2h1M125 2h1M74 3h1M115 4h1M113 6h1M122 6h1M124 7h1M73 9h1M80 10h1M113 10h1M125 11h1M125 14h1" />
<path stroke="#a2a2a3" d="M78 2h1M73 5h1M86 5h1M73 6h1M124 9h1M123 13h1M74 14h1M80 14h1" />
<path stroke="#a3a2a2" d="M83 2h1M76 3h1M78 10h1M85 11h1M73 12h1M75 13h1M82 13h1M115 13h1M125 13h1" />
<path stroke="#010000" d="M87 3h1M47 4h1M75 10h1M74 15h1M82 15h1" />
<path stroke="#000001" d="M127 4h1M87 11h1M127 12h1M47 15h1M84 15h1M113 15h1M127 15h1" />
<path stroke="#505051" d="M54 10h1M138 11h1" />
<path stroke="#000100" d="M121 13h1M120 14h1" />
<path stroke="#505150" d="M61 15h1" />
</svg>