<svg xmlns="http://www.w3.org/2000/svg" viewBox="0 -0.5 160 144" shape-rendering="crispEdges">
<metadata>Made with Pixels to Svg https://codepen.io/shshaw/pen/XbxvNj</metadata>
<path stroke="#000000" d="M0 0h84M85 0h58M144 0h16M0 1h9M10 1h92M103 1h57M0 2h78M79 2h2M82 2h78M0 3h78M79 3h2M82 3h78M0 4h73M76 4h2M79 4h5M87 4h73M0 5h45M46 5h26M73 5h5M79 5h2M82 5h2M85 5h2M89 5h71M0 6h6M7 6h65M73 6h5M79 6h2M82 6h2M85 6h2M89 6h2M92 6h68M0 7h71M75 7h3M79 7h2M82 7h2M85 7h3M89 7h20M110 7h50M0 8h30M31 8h41M73 8h5M79 8h2M82 8h2M85 8h3M89 8h71M0 9h12M13 9h59M73 9h5M79 9h2M82 9h2M85 9h2M88 9h72M0 10h72M73 10h5M79 10h2M82 10h2M87 10h15M103 10h3M107 10h47M155 10h5M0 11h72M74 11h10M85 11h66M152 11h8M0 12h52M53 12h19M73 12h9M83 12h1M85 12h75M0 13h15M16 13h14M31 13h62M94 13h66M0 14h65M66 14h35M102 14h58M0 15h88M89 15h68M158 15h2M0 16h16M144 16h16M0 17h16M144 17h16M0 18h9M10 18h6M144 18h16M0 19h16M144 19h16M0 20h16M144 20h16M0 21h1M2 21h14M144 21h4M149 21h11M0 22h16M144 22h16M0 23h16M144 23h16M0 24h16M144 24h16M0 25h16M144 25h16M0 26h16M144 26h16M0 27h16M144 27h16M0 28h3M4 28h12M144 28h16M0 29h16M144 29h16M0 30h16M144 30h16M0 31h16M144 31h16M0 32h16M144 32h11M156 32h4M0 33h16M144 33h16M0 34h16M144 34h16M0 35h16M144 35h16M0 36h16M144 36h16M0 37h13M14 37h2M144 37h16M0 38h16M144 38h16M0 39h16M144 39h16M0 40h16M144 40h9M154 40h6M0 41h7M8 41h8M144 41h16M0 42h16M144 42h16M0 43h16M144 43h1M146 43h14M0 44h16M144 44h16M0 45h16M144 45h16M0 46h5M6 46h10M144 46h16M0 47h16M144 47h16M0 48h16M144 48h16M0 49h16M144 49h16M0 50h16M144 50h16M0 51h3M4 51h12M144 51h16M0 52h16M144 52h16M0 53h16M144 53h16M0 54h16M144 54h16M0 55h3M4 55h1M6 55h10M144 55h8M153 55h7M0 56h5M6 56h10M144 56h3M155 56h5M0 57h6M7 57h3M11 57h5M144 57h8M153 57h2M156 57h4M0 58h5M12 58h4M144 58h8M153 58h2M156 58h4M0 59h16M144 59h4M149 59h6M156 59h4M0 60h14M15 60h1M144 60h1M146 60h14M0 61h6M9 61h1M11 61h5M144 61h16M0 62h5M6 62h2M9 62h2M12 62h4M144 62h5M156 62h4M0 63h5M6 63h2M9 63h2M12 63h4M144 63h10M155 63h5M0 64h6M11 64h5M144 64h11M156 64h4M0 65h16M144 65h11M156 65h4M0 66h16M144 66h10M155 66h5M0 67h6M12 67h4M144 67h16M0 68h5M6 68h10M144 68h6M152 68h1M154 68h6M0 69h5M6 69h10M144 69h5M150 69h2M153 69h2M156 69h4M0 70h3M12 70h4M144 70h5M150 70h2M153 70h2M156 70h4M0 71h16M144 71h5M150 71h2M153 71h2M156 71h4M0 72h16M144 72h5M155 72h5M0 73h11M12 73h4M144 73h16M0 74h5M6 74h5M12 74h4M144 74h16M0 75h3M11 75h5M144 75h5M155 75h5M0 76h5M6 76h9M144 76h11M156 76h4M0 77h16M144 77h11M156 77h4M0 78h16M144 78h5M155 78h5M0 79h3M5 79h1M12 79h4M144 79h11M156 79h4M0 80h16M144 80h11M156 80h4M0 81h16M144 81h5M156 81h4M0 82h3M12 82h2M15 82h1M144 82h16M0 83h5M6 83h5M12 83h4M144 83h16M0 84h5M6 84h5M12 84h4M144 84h6M155 84h5M0 85h6M7 85h3M11 85h5M144 85h5M150 85h2M153 85h2M156 85h4M0 86h7M10 86h6M144 86h5M150 86h2M153 86h2M156 86h4M0 87h16M144 87h6M151 87h1M155 87h5M0 88h16M144 88h16M0 89h16M144 89h16M0 90h16M144 90h16M0 91h16M144 91h16M0 92h3M4 92h12M144 92h16M0 93h11M12 93h4M144 93h8M153 93h4M158 93h2M0 94h16M144 94h16M0 95h16M144 95h6M151 95h9M0 96h16M144 96h16M0 97h16M144 97h16M0 98h16M144 98h16M0 99h16M144 99h11M156 99h4M0 100h16M144 100h16M0 101h10M11 101h5M144 101h16M0 102h7M8 102h8M144 102h16M0 103h16M144 103h16M0 104h16M144 104h16M0 105h5M6 105h7M14 105h2M144 105h16M1 106h15M144 106h16M0 107h16M144 107h16M0 108h16M144 108h16M0 109h16M144 109h16M0 110h16M144 110h16M0 111h16M144 111h16M0 112h16M144 112h16M0 113h16M144 113h3M148 113h12M0 114h16M144 114h16M0 115h16M144 115h16M0 116h16M144 116h7M152 116h8M0 117h16M144 117h16M0 118h16M144 118h16M0 119h8M9 119h7M144 119h11M156 119h4M0 120h16M144 120h16M0 121h16M144 121h13M158 121h2M0 122h16M144 122h16M0 123h12M13 123h3M144 123h16M0 124h16M144 124h9M154 124h6M0 125h16M144 125h16M0 126h9M10 126h6M144 126h16M0 127h16M144 127h16M0 128h100M101 128h59M0 129h150M151 129h9M0 130h97M98 130h62M0 131h77M78 131h9M88 131h4M93 131h6M100 131h42M143 131h17M0 132h77M78 132h9M88 132h4M93 132h67M0 133h10M11 133h52M66 133h5M74 133h1M76 133h1M78 133h3M83 133h3M89 133h2M94 133h3M99 133h61M0 134h63M64 134h2M67 134h7M75 134h2M78 134h2M81 134h2M84 134h3M88 134h4M93 134h3M97 134h2M101 134h59M0 135h48M49 135h14M64 135h3M68 135h6M75 135h2M78 135h2M81 135h2M84 135h3M88 135h4M93 135h3M97 135h2M100 135h60M0 136h13M14 136h49M64 136h3M68 136h3M75 136h2M78 136h2M84 136h3M88 136h4M93 136h3M100 136h10M111 136h49M0 137h63M64 137h3M68 137h2M71 137h3M75 137h2M78 137h2M81 137h6M88 137h4M93 137h3M97 137h63M0 138h21M22 138h23M46 138h3M50 138h4M55 138h8M64 138h2M67 138h3M71 138h3M75 138h2M78 138h2M81 138h2M84 138h3M88 138h4M93 138h3M97 138h2M100 138h60M0 139h63M66 139h3M70 139h1M75 139h2M78 139h3M83 139h5M89 139h4M95 139h2M99 139h16M116 139h44M0 140h63M64 140h43M108 140h46M155 140h5M0 141h63M64 141h49M114 141h46M0 142h29M30 142h62M93 142h67M0 143h9M10 143h21M32 143h90M123 143h37" />
<path stroke="#010000" d="M84 0h1M88 5h1M6 6h1M87 6h1M12 9h1M73 11h1M151 11h1M9 18h1M7 41h1M5 46h1M3 51h1M148 59h1M14 82h1M10 101h1M151 116h1M12 123h1M9 126h1M100 128h1M150 129h1M142 131h1M100 134h1M48 135h1M110 136h1M21 138h1M45 138h1M54 138h1M154 140h1M29 142h1M92 142h1M31 143h1" />
<path stroke="#000001" d="M143 0h1M45 5h1M109 7h1M30 8h1M106 10h1M154 10h1M13 37h1M145 43h1M14 60h1M153 68h1M3 92h1M11 93h1M152 93h1M150 95h1M155 99h1M5 105h1M147 113h1M157 121h1M97 130h1M99 131h1M10 133h1M13 136h1M94 139h1M115 139h1M113 141h1M9 143h1" />
<path stroke="#000100" d="M9 1h1M102 1h1M91 6h1M102 10h1M52 12h1M82 12h1M15 13h1M30 13h1M93 13h1M65 14h1M101 14h1M88 15h1M157 15h1M1 21h1M148 21h1M3 28h1M155 32h1M153 40h1M3 55h1M10 57h1M145 60h1M154 66h1M15 76h1M157 93h1M7 102h1M13 105h1M0 106h1M8 119h1M155 119h1M153 124h1M75 133h1M49 138h1M69 139h1M107 140h1M122 143h1" />
<path stroke="#ffffff" d="M78 2h1M81 2h1M78 3h1M81 3h1M73 4h3M78 4h1M84 4h3M72 5h1M78 5h1M81 5h1M84 5h1M87 5h1M72 6h1M78 6h1M81 6h1M84 6h1M88 6h1M71 7h4M78 7h1M81 7h1M84 7h1M88 7h1M72 8h1M78 8h1M81 8h1M84 8h1M88 8h1M72 9h1M78 9h1M81 9h1M87 9h1M72 10h1M78 10h1M81 10h1M84 10h3M72 11h1M84 11h1M72 12h1M84 12h1M5 55h1M152 55h1M5 56h1M147 56h8M6 57h1M152 57h1M155 57h1M5 58h7M155 58h1M155 59h1M6 61h3M10 61h1M5 62h1M8 62h1M11 62h1M149 62h7M5 63h1M8 63h1M11 63h1M154 63h1M6 64h5M155 65h1M6 67h6M5 68h1M150 68h2M5 69h1M149 69h1M152 69h1M155 69h1M3 70h9M149 70h1M152 70h1M155 70h1M149 71h1M152 71h1M155 71h1M149 72h6M11 73h1M5 74h1M11 74h1M3 75h8M149 75h4M154 75h1M5 76h1M155 76h1M149 78h6M3 79h2M6 79h6M155 79h1M155 80h1M149 81h7M3 82h9M11 83h1M5 84h1M11 84h1M150 84h5M6 85h1M10 85h1M149 85h1M152 85h1M155 85h1M7 86h3M149 86h1M152 86h1M155 86h1M150 87h1M152 87h3M77 131h1M87 131h1M92 131h1M77 132h1M87 132h1M92 132h1M63 133h3M71 133h3M77 133h1M81 133h2M86 133h3M91 133h3M97 133h2M63 134h1M66 134h1M74 134h1M77 134h1M80 134h1M83 134h1M87 134h1M92 134h1M96 134h1M99 134h1M63 135h1M67 135h1M74 135h1M77 135h1M80 135h1M83 135h1M87 135h1M92 135h1M96 135h1M99 135h1M63 136h1M67 136h1M71 136h4M77 136h1M80 136h4M87 136h1M92 136h1M96 136h4M63 137h1M67 137h1M70 137h1M74 137h1M77 137h1M80 137h1M87 137h1M92 137h1M96 137h1M63 138h1M66 138h1M70 138h1M74 138h1M77 138h1M80 138h1M83 138h1M87 138h1M92 138h1M96 138h1M99 138h1M63 139h3M71 139h4M77 139h1M81 139h2M88 139h1M93 139h1M97 139h1M63 140h1M63 141h1" />
<path stroke="#feffff" d="M84 9h1M152 58h1M155 64h1M153 75h1M98 139h1" />
<path stroke="#fffeff" d="M155 77h1M5 83h1" />
</svg>