<svg xmlns="http://www.w3.org/2000/svg" viewBox="0 -0.5 160 16" shape-rendering="crispEdges">
<metadata>Made with Pixels to Svg https://codepen.io/shshaw/pen/XbxvNj</metadata>
<path stroke="#515151" d="M0 0h3M4 0h3M24 0h6M31 0h2M50 0h2M53 0h11M79 0h9M103 0h2M106 0h6M127 0h9M151 0h9M0 1h2M3 1h4M12 1h4M25 1h7M42 1h4M51 1h10M62 1h2M68 1h4M80 1h6M87 1h1M96 1h4M105 1h7M116 1h4M130 1h4M135 1h1M148 1h3M152 1h2M156 1h4M0 2h7M12 2h4M25 2h8M42 2h2M45 2h1M51 2h4M56 2h5M62 2h2M68 2h4M80 2h8M96 2h4M105 2h7M116 2h4M129 2h1M131 2h5M148 2h3M152 2h3M156 2h4M0 3h7M12 3h4M25 3h8M42 3h4M51 3h9M61 3h2M68 3h4M80 3h8M96 3h4M105 3h7M116 3h4M129 3h7M148 3h1M152 3h8M1 4h6M12 4h4M25 4h7M42 4h4M51 4h8M61 4h3M68 4h4M80 4h8M96 4h4M105 4h6M116 4h4M129 4h6M148 4h3M152 4h4M157 4h3M0 5h7M12 5h4M25 5h4M30 5h1M32 5h1M42 5h4M53 5h6M60 5h4M69 5h3M80 5h7M96 5h4M105 5h7M117 5h3M129 5h4M134 5h1M148 5h2M152 5h8M0 6h7M12 6h4M25 6h3M29 6h4M42 6h4M51 6h13M69 6h3M80 6h8M96 6h4M105 6h3M109 6h3M117 6h3M129 6h3M133 6h2M148 6h3M152 6h5M158 6h2M1 7h6M25 7h8M51 7h6M58 7h6M68 7h4M80 7h1M82 7h5M96 7h3M105 7h7M116 7h4M129 7h6M148 7h3M152 7h8M3 8h4M25 8h1M27 8h6M51 8h4M56 8h8M68 8h4M80 8h5M86 8h2M96 8h4M105 8h7M116 8h3M129 8h7M148 8h3M152 8h8M0 9h7M25 9h2M28 9h5M51 9h2M54 9h4M59 9h3M63 9h1M68 9h2M71 9h1M80 9h8M96 9h4M105 9h5M116 9h4M129 9h2M132 9h4M148 9h3M152 9h1M154 9h6M0 10h7M25 10h4M30 10h2M51 10h13M68 10h1M71 10h1M80 10h4M86 10h2M96 10h1M98 10h2M105 10h7M116 10h4M129 10h7M148 10h3M152 10h3M156 10h2M159 10h1M0 11h2M3 11h4M25 11h6M32 11h1M51 11h7M59 11h5M68 11h4M80 11h1M82 11h6M96 11h4M106 11h5M116 11h4M130 11h6M149 11h2M152 11h3M156 11h4M0 12h5M6 12h1M25 12h4M30 12h3M51 12h10M63 12h1M68 12h2M71 12h1M80 12h2M83 12h3M87 12h1M96 12h4M105 12h6M116 12h4M129 12h7M148 12h3M152 12h2M155 12h3M159 12h1M1 13h6M25 13h8M51 13h1M53 13h4M58 13h6M68 13h4M80 13h8M96 13h4M106 13h6M116 13h3M129 13h3M133 13h3M148 13h2M152 13h8M0 14h3M4 14h3M25 14h8M51 14h1M53 14h2M56 14h7M68 14h4M80 14h3M84 14h3M96 14h4M105 14h7M116 14h4M129 14h7M148 14h3M152 14h2M155 14h5M0 15h7M25 15h2M28 15h1M30 15h3M51 15h14M80 15h2M84 15h1M86 15h3M105 15h7M129 15h8M152 15h4M157 15h3" />
<path stroke="#515150" d="M3 0h1M52 0h1M105 0h1M86 1h1M134 1h1M60 3h1M63 3h1M135 4h1M29 5h1M51 5h1M68 5h1M116 5h1M68 6h1M108 6h1M135 6h1M99 7h1M135 7h1M0 8h1M53 9h1M58 9h1M70 9h1M111 9h1M158 10h1M31 11h1M58 11h1M81 11h1M111 11h1M5 12h1M111 12h1M57 13h1M3 14h1M52 14h1M55 14h1M154 14h1M27 15h1M156 15h1" />
<path stroke="#fffffe" d="M7 0h1M34 0h1M120 0h1M35 2h1M125 5h1M100 6h1M125 6h1M142 6h1M38 8h1M140 9h1M67 11h1M17 13h1M43 14h1" />
<path stroke="#ffffff" d="M8 0h2M11 0h9M21 0h2M33 0h1M35 0h6M42 0h8M64 0h15M88 0h5M94 0h9M112 0h8M121 0h6M136 0h15M7 1h1M20 1h4M33 1h5M64 1h4M88 1h1M100 1h4M112 1h1M124 1h4M136 1h1M140 1h4M7 2h1M20 2h4M33 2h2M36 2h2M65 2h3M88 2h1M100 2h4M112 2h1M124 2h3M136 2h1M141 2h3M7 3h1M20 3h4M33 3h5M64 3h4M88 3h1M100 3h4M112 3h1M124 3h4M136 3h1M140 3h4M7 4h1M20 4h4M33 4h5M64 4h1M66 4h2M88 4h1M100 4h4M112 4h1M124 4h4M136 4h1M140 4h4M7 5h1M20 5h4M33 5h2M36 5h2M64 5h4M88 5h1M100 5h4M112 5h1M124 5h1M126 5h2M136 5h1M140 5h4M7 6h1M20 6h4M33 6h2M36 6h2M64 6h4M88 6h1M101 6h3M112 6h1M124 6h1M126 6h2M136 6h1M140 6h1M143 6h1M64 7h4M88 7h1M100 7h4M112 7h1M124 7h4M140 7h4M33 8h5M39 8h12M64 8h1M66 8h2M88 8h1M100 8h4M112 8h1M124 8h4M136 8h1M140 8h1M142 8h2M9 9h4M14 9h4M19 9h4M33 9h2M36 9h1M39 9h1M50 9h1M64 9h4M88 9h1M100 9h4M112 9h1M124 9h3M136 9h1M141 9h3M9 10h1M14 10h1M17 10h1M19 10h1M33 10h2M37 10h1M39 10h1M42 10h3M46 10h3M64 10h4M88 10h1M100 10h3M112 10h1M124 10h4M136 10h1M141 10h3M9 11h4M14 11h1M17 11h1M19 11h4M33 11h2M39 11h1M44 11h1M46 11h1M49 11h2M64 11h3M88 11h1M100 11h4M112 11h1M124 11h4M136 11h1M140 11h2M143 11h1M9 12h1M14 12h1M17 12h1M22 12h1M33 12h1M36 12h1M39 12h1M41 12h4M46 12h2M49 12h2M64 12h4M88 12h1M100 12h4M112 12h1M124 12h3M136 12h1M140 12h4M9 13h1M14 13h3M19 13h4M33 13h2M36 13h2M39 13h1M44 13h1M49 13h2M64 13h4M88 13h1M100 13h4M112 13h1M124 13h1M126 13h2M136 13h1M140 13h2M143 13h1M33 14h5M39 14h4M44 14h1M46 14h5M64 14h4M88 14h1M100 14h4M112 14h1M124 14h4M136 14h1M140 14h1M142 14h2" />
<path stroke="#fffeff" d="M10 0h1M41 0h1M140 2h1M35 5h1M141 6h1M65 8h1M141 8h1M49 10h2M142 13h1M38 14h1M141 14h1" />
<path stroke="#feffff" d="M20 0h1M23 0h1M93 0h1M64 2h1M127 2h1M65 4h1M35 6h1M136 7h1M37 9h1M44 9h1M49 9h1M127 9h1M12 10h1M103 10h1M140 10h1M142 11h1M34 12h1M127 12h1M125 13h1" />
<path stroke="#515051" d="M30 0h1M2 1h1M55 2h1M61 2h1M130 2h1M149 3h1M31 5h1M52 5h1M59 5h1M87 5h1M116 6h1M1 8h1M26 8h1M55 8h1M85 8h1M119 8h1M62 9h1M110 9h1M153 9h1M32 10h1M69 10h2M155 10h1M2 11h1M129 11h1M61 12h1M82 12h1M86 12h1M158 12h1M105 13h1M119 13h1M132 13h1M150 13h1M63 14h1M83 14h1" />
<path stroke="#000000" d="M8 1h4M24 1h1M46 1h5M76 1h3M89 1h3M104 1h1M120 1h4M128 1h1M137 1h3M151 1h1M8 2h4M24 2h1M46 2h5M76 2h4M90 2h2M104 2h1M120 2h2M123 2h1M128 2h1M137 2h3M151 2h1M8 3h4M24 3h1M46 3h5M76 3h4M89 3h3M104 3h1M120 3h4M128 3h1M137 3h3M151 3h1M8 4h4M24 4h1M46 4h5M76 4h1M78 4h2M89 4h1M91 4h1M104 4h1M120 4h4M128 4h1M137 4h3M151 4h1M8 5h4M46 5h2M50 5h1M76 5h3M89 5h3M104 5h1M121 5h3M128 5h1M137 5h3M8 6h4M24 6h1M46 6h5M76 6h4M89 6h3M104 6h1M120 6h4M128 6h1M137 6h3M151 6h1M7 7h9M18 7h7M33 7h1M35 7h11M47 7h4M76 7h4M89 7h2M104 7h1M120 7h4M128 7h1M138 7h2M7 8h15M23 8h2M76 8h4M89 8h3M104 8h1M120 8h1M122 8h1M128 8h1M137 8h3M7 9h2M13 9h1M18 9h1M23 9h2M35 9h1M38 9h1M40 9h4M45 9h4M78 9h2M89 9h3M104 9h1M120 9h4M128 9h1M137 9h3M151 9h1M7 10h2M10 10h2M13 10h1M15 10h1M18 10h1M20 10h5M35 10h2M38 10h1M40 10h1M45 10h1M76 10h1M78 10h2M89 10h3M104 10h1M120 10h2M128 10h1M138 10h2M151 10h1M7 11h2M13 11h1M15 11h2M18 11h1M23 11h2M35 11h4M40 11h4M45 11h1M47 11h2M76 11h4M89 11h3M104 11h1M120 11h3M128 11h1M137 11h3M151 11h1M7 12h2M10 12h4M15 12h2M18 12h1M20 12h2M23 12h1M35 12h1M37 12h2M40 12h1M48 12h1M76 12h4M89 12h3M120 12h2M123 12h1M128 12h1M138 12h2M151 12h1M8 13h1M10 13h4M18 13h1M23 13h2M35 13h1M38 13h1M42 13h2M45 13h4M76 13h4M89 13h3M104 13h1M120 13h4M128 13h1M137 13h3M151 13h1M7 14h15M23 14h2M76 14h1M78 14h2M89 14h3M104 14h1M120 14h2M123 14h1M128 14h1M137 14h2M151 14h1M8 15h3M12 15h11M24 15h1M33 15h6M40 15h3M45 15h6M66 15h11M78 15h1M89 15h10M100 15h5M113 15h16M137 15h11M149 15h3" />
<path stroke="#a2a2a2" d="M16 1h3M38 1h4M72 1h4M93 1h3M113 1h1M115 1h1M144 1h4M16 2h4M39 2h3M73 2h3M93 2h3M113 2h3M144 2h4M16 3h4M38 3h4M72 3h2M75 3h1M92 3h4M113 3h3M144 3h4M16 4h4M38 4h4M72 4h4M92 4h4M113 4h3M144 4h4M16 5h4M38 5h4M72 5h2M92 5h4M113 5h3M145 5h3M16 6h3M38 6h4M72 6h4M92 6h4M113 6h3M144 6h2M147 6h1M72 7h4M92 7h4M113 7h1M115 7h1M144 7h4M72 8h4M92 8h4M113 8h3M144 8h4M72 9h4M92 9h2M95 9h1M113 9h3M144 9h4M72 10h4M92 10h3M113 10h3M144 10h1M146 10h1M72 11h1M74 11h2M92 11h4M113 11h3M144 11h4M72 12h4M92 12h2M95 12h1M113 12h2M144 12h4M73 13h3M92 13h4M113 13h3M144 13h4M72 14h4M92 14h4M113 14h3M144 14h4" />
<path stroke="#a2a3a2" d="M19 1h1M114 1h1M72 2h1M19 6h1M147 10h1M115 12h1" />
<path stroke="#505151" d="M32 1h1M61 1h1M129 1h1M154 1h2M155 2h1M150 3h1M0 4h1M32 4h1M59 4h2M111 4h1M156 4h1M133 5h1M135 5h1M28 6h1M132 6h1M157 6h1M0 7h1M57 7h1M81 7h1M87 7h1M2 8h1M27 9h1M131 9h1M29 10h1M84 10h2M97 10h1M105 11h1M148 11h1M155 11h1M29 12h1M62 12h1M70 12h1M154 12h1M52 13h1M87 14h1M29 15h1M82 15h2M85 15h1" />
<path stroke="#010000" d="M79 1h1M90 4h1M24 5h1M151 5h1M16 7h1M91 7h1M22 8h1M151 8h1M76 9h2M16 10h1M77 10h1M122 10h2M24 12h1M45 12h1M122 12h1M7 13h1M40 13h1M139 14h1M39 15h1" />
<path stroke="#a2a2a3" d="M92 1h1M38 2h1M74 5h1M145 10h1M73 11h1M72 13h1" />
<path stroke="#515050" d="M44 2h1" />
<path stroke="#000100" d="M89 2h1M48 5h2M79 5h1M34 7h1M151 7h1M121 8h1M123 8h1M123 11h1M19 12h1M104 12h1M22 14h1M7 15h1M23 15h1M43 15h1M79 15h1M99 15h1" />
<path stroke="#a3a2a2" d="M92 2h1M74 3h1M75 5h1M144 5h1M146 6h1M114 7h1M94 9h1M95 10h1M94 12h1" />
<path stroke="#000001" d="M122 2h1M77 4h1M120 5h1M17 7h1M46 7h1M137 7h1M137 10h1M137 12h1M41 13h1M77 14h1M122 14h1M11 15h1M77 15h1M148 15h1" />
<path stroke="#505051" d="M150 5h1M0 13h1" />
<path stroke="#fffefe" d="M41 10h1" />
<path stroke="#fefeff" d="M45 14h1" />
<path stroke="#000101" d="M44 15h1M65 15h1" />
<path stroke="#505150" d="M112 15h1" />
</svg>