<svg xmlns="http://www.w3.org/2000/svg" viewBox="0 -0.5 160 16" shape-rendering="crispEdges">
<metadata>Made with Pixels to Svg https://codepen.io/shshaw/pen/XbxvNj</metadata>
<path stroke="#515151" d="M0 0h7M24 0h5M30 0h3M50 0h2M53 0h12M80 0h9M104 0h9M128 0h7M136 0h1M152 0h1M154 0h3M158 0h2M0 1h4M5 1h2M12 1h4M25 1h8M42 1h3M51 1h2M54 1h11M69 1h4M81 1h8M97 1h4M106 1h7M117 1h4M130 1h7M149 1h1M151 1h1M153 1h7M0 2h5M6 2h1M12 2h4M25 2h2M28 2h5M42 2h4M51 2h3M55 2h6M63 2h1M69 2h3M81 2h8M97 2h4M106 2h6M117 2h4M130 2h7M150 2h2M153 2h7M0 3h3M4 3h3M12 3h4M25 3h8M42 3h4M52 3h7M60 3h1M62 3h3M69 3h1M71 3h2M82 3h7M97 3h4M106 3h7M117 3h4M130 3h7M149 3h2M153 3h4M158 3h2M2 4h5M12 4h4M26 4h7M44 4h2M51 4h14M69 4h4M81 4h8M97 4h4M106 4h7M117 4h4M130 4h5M136 4h1M149 4h2M153 4h7M1 5h1M3 5h4M12 5h4M25 5h8M42 5h4M51 5h7M59 5h6M69 5h4M81 5h1M83 5h6M97 5h4M106 5h7M117 5h3M131 5h1M133 5h4M149 5h3M153 5h4M158 5h2M0 6h7M12 6h4M25 6h8M42 6h4M51 6h6M58 6h7M69 6h4M81 6h5M87 6h2M97 6h4M106 6h7M117 6h4M130 6h7M149 6h3M153 6h6M1 7h6M25 7h8M51 7h14M69 7h4M81 7h8M97 7h4M106 7h7M117 7h4M130 7h7M149 7h3M153 7h7M0 8h7M25 8h1M27 8h6M51 8h3M55 8h4M60 8h5M69 8h4M81 8h5M87 8h1M97 8h3M106 8h2M109 8h4M117 8h4M130 8h7M149 8h3M153 8h2M156 8h4M1 9h6M25 9h4M30 9h3M51 9h1M53 9h5M59 9h2M62 9h3M69 9h4M81 9h8M97 9h4M107 9h2M110 9h3M117 9h3M130 9h7M149 9h3M153 9h1M156 9h3M0 10h3M4 10h3M27 10h6M51 10h1M53 10h5M59 10h6M69 10h1M72 10h1M81 10h8M97 10h4M106 10h7M117 10h4M130 10h1M132 10h5M150 10h2M153 10h7M0 11h1M2 11h5M25 11h2M29 11h4M51 11h7M59 11h6M69 11h4M81 11h8M97 11h2M100 11h1M106 11h7M117 11h4M131 11h1M133 11h2M136 11h1M149 11h3M153 11h7M0 12h6M25 12h2M28 12h5M51 12h4M56 12h9M69 12h4M81 12h8M97 12h4M106 12h7M117 12h1M119 12h2M130 12h1M132 12h3M136 12h1M149 12h3M153 12h7M0 13h7M25 13h8M51 13h5M57 13h3M61 13h4M69 13h4M81 13h2M84 13h5M97 13h4M106 13h7M117 13h2M120 13h1M130 13h3M134 13h3M149 13h3M153 13h7M0 14h5M6 14h1M25 14h8M51 14h12M64 14h1M69 14h4M81 14h6M88 14h1M97 14h4M106 14h7M117 14h4M130 14h5M136 14h1M150 14h2M153 14h7M0 15h7M25 15h8M51 15h15M81 15h4M86 15h3M106 15h8M130 15h8M153 15h5" />
<path stroke="#ffffff" d="M7 0h17M33 0h17M65 0h2M68 0h12M89 0h3M93 0h6M100 0h4M113 0h15M137 0h11M149 0h3M7 1h1M20 1h4M33 1h5M65 1h3M89 1h1M101 1h4M113 1h1M125 1h4M137 1h1M141 1h4M7 2h1M20 2h3M33 2h5M65 2h4M89 2h1M101 2h4M113 2h1M125 2h4M137 2h1M142 2h3M7 3h1M21 3h3M33 3h5M65 3h4M89 3h1M101 3h4M113 3h1M125 3h2M128 3h1M137 3h1M141 3h4M7 4h1M20 4h2M23 4h1M33 4h5M65 4h4M89 4h1M101 4h3M113 4h1M125 4h3M137 4h1M141 4h1M143 4h2M7 5h1M20 5h4M33 5h1M35 5h3M65 5h2M68 5h1M89 5h1M101 5h4M113 5h1M125 5h4M137 5h1M141 5h4M7 6h1M20 6h4M33 6h5M65 6h2M68 6h1M89 6h1M101 6h1M104 6h1M113 6h1M125 6h1M127 6h2M137 6h1M141 6h4M65 7h4M89 7h1M101 7h3M113 7h1M125 7h4M137 7h1M141 7h4M33 8h18M65 8h4M89 8h1M101 8h4M113 8h1M125 8h1M127 8h2M137 8h1M141 8h4M9 9h4M14 9h4M19 9h4M33 9h2M36 9h2M39 9h1M44 9h1M49 9h2M65 9h4M89 9h1M101 9h4M113 9h1M126 9h3M141 9h4M9 10h1M12 10h1M17 10h1M19 10h1M33 10h2M37 10h1M39 10h1M41 10h4M46 10h2M49 10h2M65 10h1M67 10h2M89 10h1M101 10h2M104 10h1M113 10h1M125 10h3M137 10h1M141 10h4M9 11h4M14 11h1M17 11h1M19 11h4M33 11h2M39 11h1M44 11h1M46 11h1M49 11h2M65 11h4M101 11h4M113 11h1M125 11h3M137 11h1M141 11h3M9 12h1M14 12h1M17 12h1M22 12h1M33 12h2M36 12h1M39 12h1M41 12h1M43 12h1M46 12h2M49 12h2M65 12h1M67 12h2M89 12h1M101 12h4M113 12h1M125 12h2M128 12h1M137 12h1M141 12h4M9 13h1M14 13h4M19 13h4M33 13h2M36 13h2M39 13h1M44 13h1M49 13h2M65 13h1M67 13h2M89 13h1M101 13h4M113 13h1M125 13h1M127 13h2M137 13h1M142 13h2M33 14h18M65 14h4M89 14h1M101 14h4M113 14h1M125 14h4M137 14h1M141 14h4" />
<path stroke="#505151" d="M29 0h1M135 0h1M4 1h1M45 1h1M150 1h1M27 2h1M54 2h1M61 2h1M3 3h1M59 3h1M70 3h1M157 3h1M25 4h1M43 4h1M82 5h1M132 5h1M57 6h1M159 6h1M54 8h1M86 8h1M155 8h1M0 9h1M29 9h1M61 9h1M106 9h1M120 9h1M154 9h1M159 9h1M3 10h1M26 10h1M58 10h1M71 10h1M131 10h1M27 11h1M135 11h1M6 12h1M27 12h1M118 12h1M119 13h1M133 13h1M135 14h1M149 14h1M85 15h1" />
<path stroke="#515051" d="M52 0h1M153 0h1M53 1h1M62 2h1M51 3h1M81 3h1M1 4h1M135 4h1M0 5h1M120 5h1M130 5h1M86 6h1M0 7h1M59 8h1M58 9h1M28 11h1M99 11h1M55 12h1M56 13h1M5 14h1M63 14h1M159 15h1" />
<path stroke="#fffeff" d="M67 0h1M92 0h1M104 4h1M128 4h1M34 5h1M67 6h1M102 6h1M104 7h1M48 10h1M144 11h1M44 12h1M66 13h1M126 13h1M144 13h1" />
<path stroke="#feffff" d="M99 0h1M148 0h1M141 2h1M20 3h1M127 3h1M22 4h1M142 4h1M67 5h1M103 6h1M126 6h1M137 9h1M14 10h1M42 12h1M66 12h1M127 12h1M141 13h1" />
<path stroke="#515150" d="M157 0h1M5 2h1M72 2h1M112 2h1M149 2h1M61 3h1M151 3h1M0 4h1M42 4h1M151 4h1M2 5h1M58 5h1M157 5h1M26 8h1M88 8h1M100 8h1M108 8h1M52 9h1M109 9h1M155 9h1M25 10h1M52 10h1M70 10h1M149 10h1M1 11h1M58 11h1M130 11h1M132 11h1M131 12h1M135 12h1M60 13h1M83 13h1M87 14h1M89 15h1M158 15h1" />
<path stroke="#000000" d="M8 1h4M46 1h5M79 1h2M90 1h3M105 1h1M121 1h3M129 1h1M138 1h3M152 1h1M8 2h1M10 2h1M24 2h1M46 2h2M49 2h2M78 2h3M90 2h3M121 2h4M129 2h1M138 2h3M152 2h1M8 3h4M24 3h1M46 3h5M77 3h4M90 3h3M105 3h1M121 3h4M129 3h1M138 3h2M152 3h1M8 4h4M24 4h1M46 4h1M48 4h3M77 4h3M92 4h1M105 4h1M121 4h4M138 4h2M152 4h1M8 5h4M24 5h1M46 5h4M77 5h3M90 5h3M105 5h1M121 5h4M129 5h1M139 5h1M152 5h1M8 6h4M24 6h1M46 6h3M50 6h1M77 6h4M90 6h1M92 6h1M105 6h1M121 6h4M129 6h1M138 6h3M152 6h1M7 7h8M16 7h9M33 7h8M42 7h1M44 7h7M77 7h4M90 7h3M105 7h1M121 7h4M138 7h1M140 7h1M152 7h1M7 8h18M77 8h4M90 8h3M105 8h1M121 8h4M129 8h1M138 8h3M152 8h1M7 9h2M13 9h1M24 9h1M35 9h1M38 9h1M40 9h4M45 9h4M77 9h4M90 9h3M105 9h1M121 9h2M124 9h1M129 9h1M138 9h1M140 9h1M152 9h1M7 10h2M10 10h2M13 10h1M15 10h2M20 10h5M35 10h2M38 10h1M40 10h1M45 10h1M77 10h3M90 10h3M105 10h1M121 10h2M124 10h1M129 10h1M138 10h3M152 10h1M8 11h1M13 11h1M15 11h2M18 11h1M23 11h2M35 11h4M40 11h4M45 11h1M47 11h2M77 11h4M90 11h3M121 11h4M129 11h1M138 11h3M152 11h1M7 12h2M10 12h4M15 12h2M18 12h4M23 12h2M35 12h1M38 12h1M40 12h1M45 12h1M48 12h1M77 12h4M90 12h3M105 12h1M121 12h4M129 12h1M138 12h3M152 12h1M7 13h2M10 13h2M13 13h1M18 13h1M24 13h1M35 13h1M38 13h1M40 13h4M45 13h4M77 13h4M91 13h2M105 13h1M121 13h4M129 13h1M138 13h3M152 13h1M7 14h18M78 14h3M90 14h3M105 14h1M121 14h4M129 14h1M138 14h1M152 14h1M7 15h18M33 15h16M50 15h1M66 15h1M68 15h5M74 15h7M90 15h7M98 15h8M114 15h2M118 15h12M138 15h6M145 15h7" />
<path stroke="#a2a2a2" d="M16 1h4M38 1h2M41 1h1M73 1h4M93 1h4M114 1h3M145 1h4M16 2h1M18 2h2M38 2h2M73 2h4M93 2h4M114 2h3M145 2h2M148 2h1M16 3h4M38 3h2M73 3h4M93 3h4M114 3h3M145 3h4M17 4h3M38 4h4M73 4h1M75 4h2M93 4h1M95 4h1M114 4h3M145 4h4M16 5h1M18 5h1M38 5h4M73 5h1M76 5h1M93 5h4M114 5h3M145 5h4M16 6h4M39 6h2M74 6h3M93 6h4M114 6h2M145 6h4M73 7h4M93 7h2M96 7h1M114 7h3M145 7h3M73 8h4M93 8h3M114 8h3M145 8h4M73 9h1M75 9h2M93 9h4M114 9h1M116 9h1M145 9h4M73 10h4M93 10h1M95 10h2M114 10h3M145 10h1M147 10h2M73 11h4M94 11h3M114 11h2M145 11h4M73 12h4M93 12h4M114 12h3M145 12h4M73 13h4M93 13h4M114 13h1M116 13h1M145 13h4M74 14h3M93 14h4M114 14h3M145 14h4" />
<path stroke="#000001" d="M24 1h1M9 2h1M105 2h1M140 3h1M47 4h1M90 4h1M80 5h1M140 5h1M91 6h1M43 7h1M7 11h1M37 12h1M12 13h1M23 13h1M140 14h1" />
<path stroke="#a2a3a2" d="M40 1h1M17 2h1M41 2h1M40 3h2M41 6h1M73 6h1M95 7h1M96 8h1M146 10h1M93 11h1" />
<path stroke="#fffffe" d="M68 1h1M23 2h1M126 8h1M125 9h1M66 10h1M103 10h1M128 10h1M89 11h1M128 11h1" />
<path stroke="#000100" d="M77 1h1M48 2h1M138 5h1M15 7h1M23 9h1M123 9h1M18 10h1M80 10h1M123 10h1M105 11h1M90 13h1M139 14h1M67 15h1M73 15h1M97 15h1M117 15h1" />
<path stroke="#010000" d="M78 1h1M124 1h1M11 2h1M77 2h1M80 4h1M91 4h1M129 4h1M140 4h1M50 5h1M49 6h1M41 7h1M129 7h1M139 7h1M18 9h1M139 9h1M77 14h1M49 15h1M116 15h1M144 15h1M152 15h1" />
<path stroke="#a2a2a3" d="M40 2h1M147 2h1M96 4h1M74 5h2M94 10h1M116 11h1M115 13h1M73 14h1" />
<path stroke="#515050" d="M64 2h1" />
<path stroke="#a3a2a2" d="M16 4h1M74 4h1M94 4h1M17 5h1M19 5h1M38 6h1M116 6h1M148 7h1M74 9h1M115 9h1" />
</svg>