<svg xmlns="http://www.w3.org/2000/svg" viewBox="0 -0.5 160 144" shape-rendering="crispEdges">
<metadata>Made with Pixels to Svg https://codepen.io/shshaw/pen/XbxvNj</metadata>
<path stroke="#ffffff" d="M93 94h5M91 95h2M98 95h2M90 96h1M100 96h1M105 96h4M113 96h3M119 96h3M123 96h3M127 96h5M89 97h1M101 97h1M104 97h6M113 97h3M119 97h3M123 97h3M127 97h5M89 98h1M93 98h5M101 98h1M104 98h2M108 98h2M112 98h5M119 98h3M123 98h3M127 98h2M88 99h1M92 99h2M98 99h1M102 99h1M104 99h2M112 99h5M119 99h3M123 99h3M127 99h2M88 100h1M92 100h2M98 100h1M102 100h1M105 100h3M112 100h2M115 100h2M120 100h2M123 100h2M127 100h4M88 101h1M92 101h1M94 101h5M102 101h1M104 101h5M112 101h2M115 101h2M120 101h5M127 101h4M88 102h1M92 102h2M98 102h1M102 102h1M106 102h4M112 102h2M115 102h2M120 102h5M127 102h2M88 103h1M92 103h2M98 103h1M102 103h1M108 103h2M112 103h2M115 103h2M120 103h5M127 103h2M89 104h1M92 104h2M98 104h1M101 104h1M104 104h2M108 104h2M111 104h7M120 104h5M127 104h2M89 105h1M101 105h1M104 105h6M111 105h7M121 105h3M128 105h4M90 106h1M100 106h1M104 106h5M111 106h2M116 106h2M121 106h3M127 106h5M91 107h2M98 107h2M93 108h5M93 110h5M91 111h2M98 111h2M90 112h1M100 112h1M106 112h3M112 112h3M118 112h2M122 112h2M127 112h3M132 112h5M138 112h2M89 113h1M101 113h1M105 113h4M112 113h3M118 113h2M122 113h2M126 113h4M132 113h5M138 113h2M89 114h1M92 114h7M101 114h1M105 114h5M111 114h5M118 114h2M122 114h2M126 114h5M132 114h2M138 114h2M88 115h1M92 115h2M98 115h1M102 115h1M104 115h3M108 115h2M111 115h5M118 115h3M122 115h2M125 115h3M129 115h2M132 115h2M138 115h2M88 116h1M92 116h2M98 116h1M102 116h1M104 116h2M108 116h2M111 116h2M114 116h2M118 116h6M125 116h2M129 116h2M132 116h4M138 116h2M88 117h1M92 117h6M104 117h2M111 117h2M114 117h2M118 117h6M125 117h2M132 117h4M138 117h2M88 118h1M92 118h2M98 118h1M102 118h1M104 118h2M111 118h2M114 118h2M118 118h6M125 118h2M132 118h2M138 118h2M88 119h1M92 119h2M98 119h1M102 119h1M104 119h2M108 119h2M111 119h2M114 119h2M118 119h2M121 119h3M125 119h2M129 119h2M132 119h2M138 119h2M89 120h1M92 120h7M101 120h1M105 120h2M108 120h9M118 120h2M122 120h2M126 120h2M129 120h2M132 120h2M138 120h2M89 121h1M101 121h1M105 121h12M118 121h2M122 121h2M126 121h5M132 121h5M138 121h4M90 122h1M100 122h1M106 122h3M110 122h2M115 122h2M118 122h2M122 122h2M127 122h3M132 122h5M138 122h4M91 123h2M98 123h2M93 124h5" />
<path stroke="#000000" d="M93 95h5M104 95h6M112 95h5M118 95h15M91 96h9M103 96h2M109 96h2M112 96h1M116 96h1M118 96h1M122 96h1M126 96h1M132 96h1M90 97h11M103 97h1M110 97h1M112 97h1M116 97h1M118 97h1M122 97h1M126 97h1M132 97h1M90 98h3M98 98h3M103 98h1M106 98h2M110 98h2M117 98h2M122 98h1M126 98h1M129 98h4M89 99h3M94 99h3M99 99h3M103 99h1M106 99h6M117 99h2M122 99h1M126 99h1M129 99h3M89 100h3M94 100h4M99 100h3M103 100h1M108 100h1M111 100h1M114 100h1M117 100h1M119 100h1M122 100h1M125 100h2M131 100h1M89 101h3M99 101h3M103 101h1M109 101h1M111 101h1M114 101h1M117 101h1M119 101h1M125 101h2M131 101h1M89 102h3M94 102h4M99 102h3M105 102h1M110 102h2M114 102h1M117 102h1M119 102h1M125 102h2M129 102h3M89 103h3M94 103h4M99 103h3M103 103h5M110 103h2M114 103h1M117 103h1M119 103h1M125 103h2M129 103h1M90 104h2M94 104h4M99 104h2M103 104h1M106 104h2M110 104h1M118 104h2M125 104h2M129 104h4M90 105h11M103 105h1M110 105h1M118 105h1M120 105h1M124 105h1M126 105h1M132 105h1M91 106h9M103 106h1M109 106h2M113 106h3M118 106h1M120 106h1M124 106h1M126 106h1M132 106h1M93 107h5M104 107h10M115 107h4M121 107h3M126 107h7M93 111h1M95 111h3M105 111h5M111 111h5M117 111h8M126 111h4M131 111h10M91 112h9M104 112h2M109 112h1M111 112h1M115 112h1M117 112h1M120 112h2M124 112h3M130 112h2M137 112h1M140 112h1M90 113h11M104 113h1M109 113h1M111 113h1M115 113h1M117 113h1M120 113h2M124 113h2M130 113h2M137 113h1M140 113h1M90 114h2M99 114h2M103 114h2M110 114h1M116 114h2M120 114h2M124 114h2M131 114h1M134 114h4M140 114h1M89 115h3M94 115h4M99 115h3M103 115h1M107 115h1M110 115h1M116 115h2M124 115h1M128 115h1M131 115h1M134 115h4M140 115h1M89 116h3M94 116h4M99 116h3M103 116h1M106 116h2M110 116h1M113 116h1M116 116h2M124 116h1M127 116h2M131 116h1M136 116h2M140 116h1M89 117h3M98 117h4M103 117h1M106 117h5M113 117h1M116 117h2M124 117h1M127 117h5M136 117h2M140 117h1M90 118h2M94 118h4M99 118h3M103 118h1M106 118h5M113 118h1M116 118h2M124 118h1M127 118h5M134 118h4M140 118h1M89 119h3M94 119h4M99 119h3M103 119h1M106 119h2M110 119h1M113 119h1M116 119h2M120 119h1M124 119h1M127 119h2M131 119h1M134 119h1M137 119h1M140 119h1M90 120h2M99 120h2M103 120h2M107 120h1M117 120h1M120 120h2M124 120h2M128 120h1M131 120h1M134 120h4M140 120h3M90 121h11M104 121h1M117 121h1M120 121h2M124 121h2M131 121h1M137 121h1M142 121h1M91 122h9M104 122h2M109 122h1M112 122h3M117 122h1M120 122h2M124 122h3M130 122h2M137 122h1M142 122h1M93 123h5M105 123h8M114 123h10M126 123h4M131 123h12" />
<path stroke="#000100" d="M97 99h1M94 111h1M124 123h1" />
<path stroke="#feffff" d="M104 100h1M102 117h1" />
<path stroke="#fffffe" d="M93 101h1" />
<path stroke="#000001" d="M104 102h1M121 115h1" />
<path stroke="#fffeff" d="M127 105h1" />
<path stroke="#010000" d="M89 118h1" />
</svg>