<svg xmlns="http://www.w3.org/2000/svg" viewBox="0 -0.5 16 16" shape-rendering="crispEdges">
<metadata>Made with Pixels to Svg https://codepen.io/shshaw/pen/XbxvNj</metadata>
<path stroke="#010000" d="M5 0h3M8 2h1M5 3h1M8 4h1M3 8h3M2 11h1M6 13h1M9 15h2" />
<path stroke="#000001" d="M8 0h1M8 1h1M8 3h1M10 5h1M3 11h1M11 13h1" />
<path stroke="#000100" d="M5 1h1M9 4h1M14 8h1M5 10h1M5 13h1" />
<path stroke="#ffffff" d="M6 1h1M7 2h1M7 3h1M6 5h1M7 6h1M9 6h1M11 6h2M6 7h1M8 7h1M10 7h1M6 8h1M9 8h5M7 9h1M11 9h1M13 9h1M6 10h4M11 10h2M4 11h5M11 11h1M5 12h1M7 12h2M7 13h1M10 13h1M9 14h1" />
<path stroke="#fffffe" d="M7 1h1M7 4h1M6 6h1M9 9h1M9 12h1M9 13h1" />
<path stroke="#000000" d="M5 2h1M5 4h1M5 5h1M11 5h2M13 6h1M2 9h1M14 9h1M1 10h1M13 10h1M4 12h1M12 12h1M6 14h1M7 15h1" />
<path stroke="#feffff" d="M6 2h1M6 3h1M8 6h1M13 7h1M8 8h1M6 9h1M8 9h1M10 9h1M12 9h1M4 10h1M12 11h1M11 12h1M8 14h1" />
<path stroke="#fefefe" d="M6 4h1M11 7h1" />
<path stroke="#fefffe" d="M7 5h1M7 8h1M9 11h1M6 12h1M10 14h1" />
<path stroke="#fffeff" d="M8 5h1M7 7h1M3 9h1M2 10h2M10 12h1M8 13h1M7 14h1" />
<path stroke="#fffefe" d="M9 5h1M10 6h1M4 9h1M10 11h1" />
<path stroke="#010101" d="M5 6h1" />
<path stroke="#010001" d="M5 7h1M13 11h1M6 15h1" />
<path stroke="#fefeff" d="M9 7h1M12 7h1M10 10h1" />
<path stroke="#010100" d="M14 7h1M5 9h1M11 14h1M11 15h1" />
<path stroke="#000101" d="M8 15h1" />
</svg>