<svg xmlns="http://www.w3.org/2000/svg" viewBox="0 -0.5 160 144" shape-rendering="crispEdges">
<metadata>Made with Pixels to Svg https://codepen.io/shshaw/pen/XbxvNj</metadata>
<path stroke="#515151" d="M0 128h7M24 128h9M50 128h14M79 128h9M103 128h9M127 128h9M151 128h9M0 129h7M12 129h4M25 129h8M42 129h4M51 129h2M54 129h1M56 129h8M68 129h4M80 129h8M92 129h4M104 129h8M116 129h4M128 129h8M140 129h4M152 129h8M0 130h7M12 130h4M25 130h8M42 130h4M51 130h13M68 130h4M80 130h8M92 130h4M105 130h7M116 130h4M128 130h8M140 130h4M152 130h8M0 131h7M12 131h4M25 131h8M42 131h4M51 131h13M68 131h4M80 131h8M92 131h4M104 131h8M116 131h4M128 131h7M140 131h4M152 131h8M0 132h7M13 132h3M25 132h8M42 132h4M51 132h13M68 132h4M80 132h8M92 132h4M104 132h8M116 132h4M128 132h8M140 132h4M152 132h8M0 133h7M12 133h4M25 133h8M42 133h4M51 133h13M68 133h4M80 133h8M92 133h4M104 133h8M116 133h4M128 133h8M140 133h4M152 133h8M0 134h7M12 134h4M25 134h8M42 134h4M51 134h13M68 134h4M80 134h8M92 134h4M104 134h8M116 134h4M128 134h8M140 134h4M153 134h7M0 135h7M25 135h8M51 135h13M68 135h4M80 135h8M92 135h4M104 135h8M116 135h4M128 135h8M140 135h4M152 135h8M0 136h7M25 136h8M51 136h13M68 136h4M80 136h8M92 136h4M104 136h2M107 136h5M116 136h4M128 136h8M140 136h4M152 136h5M158 136h2M0 137h7M25 137h8M51 137h13M68 137h4M80 137h8M92 137h4M104 137h8M116 137h4M128 137h8M140 137h4M152 137h8M0 138h7M25 138h8M51 138h13M68 138h4M80 138h8M92 138h4M104 138h8M116 138h4M128 138h8M140 138h4M152 138h8M0 139h7M25 139h8M51 139h13M68 139h4M80 139h8M92 139h4M104 139h8M116 139h1M118 139h2M128 139h8M140 139h4M152 139h2M155 139h5M0 140h7M25 140h8M51 140h12M68 140h4M80 140h8M92 140h4M105 140h7M116 140h4M128 140h8M140 140h4M152 140h8M0 141h7M25 141h8M51 141h13M68 141h4M80 141h8M92 141h4M104 141h8M116 141h4M128 141h8M140 141h4M152 141h8M0 142h7M25 142h6M32 142h1M51 142h13M68 142h4M80 142h8M92 142h4M104 142h8M116 142h4M128 142h8M140 142h4M152 142h8M0 143h7M25 143h8M51 143h14M80 143h5M86 143h2M104 143h9M128 143h9M152 143h8" />
<path stroke="#ffffff" d="M7 128h17M33 128h17M64 128h15M88 128h13M102 128h1M112 128h15M136 128h15M7 129h1M20 129h4M33 129h5M64 129h4M88 129h4M112 129h4M136 129h4M7 130h1M20 130h3M33 130h1M35 130h3M64 130h4M88 130h4M112 130h4M136 130h4M7 131h1M20 131h4M33 131h5M64 131h4M88 131h4M112 131h2M115 131h1M136 131h4M7 132h1M20 132h4M33 132h5M64 132h4M88 132h4M113 132h3M136 132h4M7 133h1M20 133h4M33 133h5M64 133h4M88 133h4M112 133h4M136 133h4M7 134h1M20 134h4M33 134h5M64 134h4M88 134h4M112 134h4M136 134h4M33 135h18M64 135h4M88 135h4M112 135h4M137 135h3M33 136h18M64 136h4M88 136h4M112 136h4M136 136h4M9 137h4M14 137h4M19 137h4M33 137h2M36 137h2M39 137h1M44 137h1M49 137h2M64 137h4M88 137h4M112 137h4M136 137h4M9 138h1M12 138h1M14 138h1M17 138h1M19 138h1M33 138h2M37 138h1M39 138h1M41 138h4M46 138h5M64 138h4M88 138h4M112 138h4M136 138h4M9 139h4M14 139h1M17 139h1M19 139h4M33 139h2M39 139h1M44 139h1M46 139h1M49 139h2M64 139h4M88 139h4M112 139h4M136 139h4M9 140h1M14 140h1M17 140h1M22 140h1M33 140h2M36 140h1M39 140h1M41 140h4M46 140h2M49 140h2M64 140h4M88 140h4M112 140h4M136 140h4M9 141h1M14 141h4M19 141h4M33 141h2M36 141h2M39 141h1M44 141h1M49 141h2M64 141h4M88 141h4M112 141h4M136 141h4M33 142h18M64 142h4M88 142h4M112 142h2M115 142h1M136 142h4M33 143h18" />
<path stroke="#fffeff" d="M101 128h1M112 132h1M136 135h1M114 142h1" />
<path stroke="#000000" d="M8 129h4M24 129h1M46 129h5M76 129h4M100 129h4M124 129h4M148 129h4M8 130h4M24 130h1M46 130h5M76 130h4M100 130h4M124 130h4M148 130h4M8 131h4M46 131h5M76 131h4M100 131h4M124 131h4M148 131h4M8 132h4M24 132h1M46 132h5M76 132h4M100 132h4M124 132h4M148 132h4M8 133h4M24 133h1M46 133h5M76 133h2M79 133h1M100 133h1M102 133h2M124 133h4M148 133h4M8 134h4M24 134h1M46 134h5M76 134h4M100 134h4M124 134h4M148 134h4M7 135h17M76 135h4M100 135h4M124 135h4M148 135h4M7 136h18M76 136h4M100 136h4M124 136h2M127 136h1M148 136h4M7 137h2M13 137h1M18 137h1M23 137h2M35 137h1M38 137h1M40 137h4M45 137h3M76 137h4M100 137h4M124 137h4M148 137h4M7 138h2M10 138h2M13 138h1M15 138h2M18 138h1M20 138h5M35 138h2M38 138h1M40 138h1M45 138h1M76 138h4M100 138h4M124 138h4M148 138h4M7 139h2M13 139h1M15 139h2M18 139h1M23 139h2M35 139h4M40 139h4M45 139h1M47 139h2M76 139h4M100 139h4M124 139h4M148 139h4M7 140h2M10 140h4M15 140h2M18 140h4M23 140h2M35 140h1M37 140h2M40 140h1M45 140h1M48 140h1M76 140h4M100 140h4M124 140h4M148 140h4M7 141h2M10 141h4M18 141h1M23 141h2M35 141h1M38 141h1M40 141h4M45 141h4M76 141h4M100 141h4M124 141h4M148 141h4M7 142h18M76 142h4M100 142h4M124 142h4M148 142h4M7 143h8M16 143h9M65 143h15M89 143h1M91 143h13M113 143h15M137 143h15" />
<path stroke="#a2a2a2" d="M16 129h4M38 129h4M72 129h4M96 129h4M120 129h4M144 129h4M16 130h4M38 130h4M72 130h4M96 130h4M120 130h4M144 130h4M16 131h4M38 131h4M72 131h4M96 131h4M120 131h4M144 131h4M16 132h4M38 132h4M72 132h4M96 132h4M120 132h4M144 132h4M16 133h4M38 133h4M72 133h4M96 133h4M120 133h4M144 133h4M16 134h4M38 134h4M72 134h4M96 134h4M120 134h4M144 134h4M72 135h4M96 135h4M120 135h4M144 135h4M72 136h4M96 136h4M120 136h4M144 136h4M72 137h4M96 137h4M120 137h4M144 137h4M72 138h4M96 138h4M120 138h4M144 138h4M72 139h4M96 139h4M120 139h4M144 139h4M72 140h4M96 140h4M120 140h4M144 140h4M72 141h4M96 141h4M120 141h4M144 141h4M72 142h4M96 142h1M98 142h2M120 142h4M144 142h4" />
<path stroke="#515150" d="M53 129h1M135 131h1M106 136h1M157 136h1M154 139h1M63 140h1M31 142h1" />
<path stroke="#515051" d="M55 129h1M152 134h1M117 139h1M104 140h1" />
<path stroke="#feffff" d="M23 130h1" />
<path stroke="#fffffe" d="M34 130h1M114 131h1" />
<path stroke="#505151" d="M104 130h1M12 132h1M85 143h1M88 143h1" />
<path stroke="#000001" d="M24 131h1M48 137h1M15 143h1M90 143h1" />
<path stroke="#000100" d="M78 133h1M126 136h1" />
<path stroke="#010000" d="M101 133h1M24 135h1" />
<path stroke="#a2a2a3" d="M97 142h1" />
</svg>